<svg width="140" height="70" viewBox="0 0 140 70" fill="none" xmlns="http://www.w3.org/2000/svg">
<path d="M121.312 44.6998C114.439 44.6998 107.567 42.7963 103.588 39.9719L107.506 31.0688C111.244 33.6476 116.549 35.3054 121.432 35.3054C126.436 35.3054 128.365 33.8932 128.365 31.7442C128.365 24.8673 104.372 29.9022 104.372 13.8766C104.372 6.26288 110.521 0 123 0C128.426 0 134.092 1.28942 138.192 3.80685L134.635 12.6486C130.596 10.4381 126.617 9.39432 122.879 9.39432C117.876 9.39432 116.007 11.1135 116.007 13.2626C116.007 19.9553 140 15.0432 140 30.8232C140 38.3141 133.851 44.6998 121.312 44.6998Z" fill="#322624"/>
<path d="M53.7139 10.3151L53.7742 0.859375H72.8847C84.3993 0.859375 91.6335 6.93805 91.6335 16.7008C91.6335 26.4635 84.3993 32.5422 72.8847 32.5422H65.5299V43.8399H53.7139V23.0865H72.2216C77.2856 23.0865 79.7573 20.6918 79.7573 16.7008C79.7573 12.7097 77.2856 10.3151 72.2216 10.3151H53.7139Z" fill="#322624"/>
<path d="M23.9337 19.8932L42.0793 43.8399H28.3943L16.1566 28.121L11.6352 33.0948V43.8399H0V31.6157L28.1873 0.859375H41.1147L23.9337 19.8932ZM11.6352 5.42246L0 18.1173V0.859375H11.6352V5.42246Z" fill="#322624"/>
<path d="M129.778 70.0003V63.2687L130.621 65.5753L123.606 53.5244H127.523L132.898 62.7744H130.643L136.041 53.5244H139.662L132.647 65.5753L133.467 63.2687V70.0003H129.778Z" fill="#C88B4E"/>
<path d="M107.471 70.0003V53.5244H114.371C115.798 53.5244 117.028 53.7676 118.06 54.2541C119.093 54.7248 119.89 55.4074 120.451 56.3018C121.013 57.1962 121.294 58.2632 121.294 59.5028C121.294 60.7267 121.013 61.7859 120.451 62.6803C119.89 63.559 119.093 64.2337 118.06 64.7045C117.028 65.1752 115.798 65.4106 114.371 65.4106H109.52L111.16 63.7395V70.0003H107.471ZM117.605 70.0003L113.619 64.0219H117.559L121.59 70.0003H117.605ZM111.16 64.1631L109.52 62.3743H114.166C115.305 62.3743 116.155 62.1233 116.717 61.6211C117.278 61.1033 117.559 60.3972 117.559 59.5028C117.559 58.5927 117.278 57.8866 116.717 57.3845C116.155 56.8824 115.305 56.6313 114.166 56.6313H109.52L111.16 54.8189V64.1631Z" fill="#C88B4E"/>
<path d="M93.7633 60.1618H101.438V63.1275H93.7633V60.1618ZM94.0366 66.9405H102.713V70.0003H90.3701V53.5244H102.417V56.5842H94.0366V66.9405ZM94.3327 52.1828L97.407 48.7935H101.233L97.111 52.1828H94.3327Z" fill="#C88B4E"/>
<path d="M81.0762 70.0003V53.5244H84.7654V70.0003H81.0762Z" fill="#C88B4E"/>
<path d="M62.5078 70.0003V53.5244H69.4081C70.8352 53.5244 72.065 53.7676 73.0973 54.2541C74.1297 54.7248 74.9268 55.4074 75.4885 56.3018C76.0503 57.1962 76.3311 58.2632 76.3311 59.5028C76.3311 60.7267 76.0503 61.7859 75.4885 62.6803C74.9268 63.559 74.1297 64.2337 73.0973 64.7045C72.065 65.1752 70.8352 65.4106 69.4081 65.4106H64.5574L66.1971 63.7395V70.0003H62.5078ZM72.6419 70.0003L68.6566 64.0219H72.5963L76.6272 70.0003H72.6419ZM66.1971 64.1631L64.5574 62.3743H69.2031C70.3418 62.3743 71.192 62.1233 71.7537 61.6211C72.3155 61.1033 72.5963 60.3972 72.5963 59.5028C72.5963 58.5927 72.3155 57.8866 71.7537 57.3845C71.192 56.8824 70.3418 56.6313 69.2031 56.6313H64.5574L66.1971 54.8189V64.1631Z" fill="#C88B4E"/>
<path d="M48.8004 60.1618H56.475V63.1275H48.8004V60.1618ZM49.0737 66.9405H57.7503V70.0003H45.4072V53.5244H57.4542V56.5842H49.0737V66.9405Z" fill="#C88B4E"/>
<path d="M32.8092 70.0003V56.6313H27.708V53.5244H41.5996V56.6313H36.4984V70.0003H32.8092Z" fill="#C88B4E"/>
<path d="M9.29395 70.0003V53.5244H12.3455L21.7509 65.387H20.2706V53.5244H23.9143V70.0003H20.8855L11.4574 58.1377H12.9377V70.0003H9.29395Z" fill="#C88B4E"/>
<path d="M0 70.0003V53.5244H3.68925V70.0003H0Z" fill="#C88B4E"/>
</svg>
