<svg width="572" height="98" viewBox="0 0 572 98" fill="none" xmlns="http://www.w3.org/2000/svg">
<path d="M555.301 39.42V54.48H543.602V39.3L527.521 12.48H539.941L549.961 29.28L560.042 12.48H571.382L555.301 39.42Z" fill="#322624"/>
<path d="M510.213 41.22L519.333 54.48H506.793L499.113 43.26H492.513V54.48H480.753V34.2H499.173C504.213 34.2 506.673 31.86 506.673 27.96C506.673 24.06 504.213 21.72 499.173 21.72H480.753V12.48H499.833C511.293 12.48 518.493 18.42 518.493 27.96C518.493 34.2 515.493 38.76 510.213 41.22Z" fill="#322624"/>
<path d="M432.041 37.56V28.8H464.861V37.56H432.041ZM432.041 21.6V12.48H464.861V21.6H432.041ZM432.041 45.36V54.48H464.861V45.36H432.041ZM450.701 9.06H442.661L450.641 0H461.981L450.701 9.06Z" fill="#322624"/>
<path d="M415.127 54.48H403.367V12.48H415.127V54.48Z" fill="#322624"/>
<path d="M380.014 41.22L389.134 54.48H376.594L368.914 43.26H362.314V54.48H350.554V34.2H368.974C374.014 34.2 376.474 31.86 376.474 27.96C376.474 24.06 374.014 21.72 368.974 21.72H350.554V12.48H369.634C381.094 12.48 388.294 18.42 388.294 27.96C388.294 34.2 385.294 38.76 380.014 41.22Z" fill="#322624"/>
<path d="M301.841 37.56V28.8H334.661V37.56H301.841ZM301.841 21.6V12.48H334.661V21.6H301.841ZM301.841 45.36V54.48H334.661V45.36H301.841Z" fill="#322624"/>
<path d="M276.054 54.48H264.294V21.78H251.394V12.48H288.954V21.78H276.054V54.48Z" fill="#322624"/>
<path d="M181.76 54.48H170V12.48H181.76V54.48Z" fill="#322624"/>
<path d="M210.193 45.9922V54.4805H198.674V32.04L210.193 45.9922ZM238.514 49.0361V54.4805H228.872L198.674 17.9053V12.4795H208.33L238.514 49.0361ZM238.514 34.9004L227.054 21.0205V12.4795H238.514V34.9004Z" fill="#322624"/>
<path d="M120.737 55.3201C113.897 55.3201 107.057 53.4601 103.097 50.7001L106.997 42.0001C110.717 44.5201 115.997 46.1401 120.857 46.1401C125.837 46.1401 127.757 44.7601 127.757 42.6601C127.757 35.9401 103.877 40.8601 103.877 25.2001C103.877 17.7601 109.997 11.6401 122.417 11.6401C127.817 11.6401 133.457 12.9001 137.537 15.3601L133.997 24.0001C129.977 21.8401 126.017 20.8201 122.297 20.8201C117.317 20.8201 115.457 22.5001 115.457 24.6001C115.457 31.1401 139.337 26.3401 139.337 41.7601C139.337 49.0801 133.217 55.3201 120.737 55.3201Z" fill="#322624"/>
<path d="M53.459 21.72L53.519 12.48H72.539C83.999 12.48 91.199 18.42 91.199 27.96C91.199 37.5 83.999 43.44 72.539 43.44H65.219V54.48H53.459V34.2H71.879C76.919 34.2 79.379 31.86 79.379 27.96C79.379 24.06 76.919 21.72 71.879 21.72H53.459Z" fill="#322624"/>
<path d="M23.8203 31.0796L41.8799 54.48H28.2598L16.0801 39.1196L11.5801 43.98V54.48H0V42.5347L28.0537 12.48H40.9199L23.8203 31.0796ZM11.5801 16.939L0 29.3442V12.48H11.5801V16.939Z" fill="#322624"/>
<path d="M488.02 92.3151C487.554 92.3151 487.153 92.1503 486.818 91.8208C486.483 91.4856 486.315 91.0822 486.315 90.6106C486.315 90.1447 486.483 89.7469 486.818 89.4174C487.153 89.0822 487.554 88.9146 488.02 88.9146C488.486 88.9146 488.886 89.0822 489.222 89.4174C489.557 89.7469 489.725 90.1447 489.725 90.6106C489.725 90.9231 489.645 91.21 489.486 91.4714C489.332 91.7271 489.128 91.9316 488.872 92.085C488.617 92.2384 488.332 92.3151 488.02 92.3151Z" fill="#C88B4E"/>
<path d="M482.082 79.0626V81.1081H474.932V79.0626H482.082ZM476.849 75.9263H479.398V88.3098C479.398 88.8041 479.471 89.1763 479.619 89.4263C479.767 89.6706 479.957 89.8382 480.19 89.9291C480.429 90.0143 480.687 90.057 480.966 90.057C481.17 90.057 481.349 90.0427 481.503 90.0143C481.656 89.9859 481.775 89.9632 481.861 89.9462L482.321 92.0513C482.173 92.1081 481.963 92.1649 481.69 92.2217C481.417 92.2842 481.077 92.3183 480.667 92.324C479.997 92.3354 479.372 92.216 478.792 91.966C478.213 91.716 477.744 91.3297 477.386 90.807C477.028 90.2842 476.849 89.628 476.849 88.8382V75.9263Z" fill="#C88B4E"/>
<path d="M471.474 82.2586L469.165 82.6677C469.068 82.3722 468.915 82.091 468.704 81.8239C468.5 81.5569 468.221 81.3381 467.869 81.1677C467.517 80.9972 467.076 80.912 466.548 80.912C465.826 80.912 465.224 81.0739 464.741 81.3978C464.258 81.716 464.017 82.1279 464.017 82.6336C464.017 83.0711 464.179 83.4233 464.503 83.6904C464.826 83.9574 465.349 84.1762 466.071 84.3466L468.15 84.8239C469.355 85.1023 470.253 85.5313 470.844 86.1108C471.434 86.6904 471.73 87.4432 471.73 88.3694C471.73 89.1535 471.503 89.8523 471.048 90.466C470.599 91.0739 469.971 91.5512 469.165 91.8978C468.363 92.2444 467.434 92.4177 466.378 92.4177C464.912 92.4177 463.716 92.1052 462.79 91.4802C461.863 90.8495 461.295 89.9546 461.085 88.7955L463.548 88.4205C463.701 89.0625 464.017 89.5483 464.494 89.8779C464.971 90.2017 465.593 90.3637 466.361 90.3637C467.196 90.3637 467.863 90.1904 468.363 89.8438C468.863 89.4915 469.113 89.0625 469.113 88.5569C469.113 88.1478 468.96 87.804 468.653 87.5256C468.352 87.2472 467.889 87.037 467.264 86.8949L465.048 86.4091C463.826 86.1307 462.923 85.6875 462.338 85.0796C461.758 84.4716 461.469 83.7017 461.469 82.7699C461.469 81.9972 461.684 81.3211 462.116 80.7415C462.548 80.162 463.145 79.7103 463.906 79.3864C464.667 79.0569 465.54 78.8921 466.522 78.8921C467.937 78.8921 469.051 79.1989 469.863 79.8125C470.676 80.4205 471.213 81.2358 471.474 82.2586Z" fill="#C88B4E"/>
<path d="M451.278 92.4177C450.051 92.4177 448.98 92.1364 448.065 91.5739C447.15 91.0114 446.44 90.2245 445.934 89.2131C445.429 88.2017 445.176 87.0199 445.176 85.6677C445.176 84.3097 445.429 83.1222 445.934 82.1052C446.44 81.0881 447.15 80.2983 448.065 79.7358C448.98 79.1733 450.051 78.8921 451.278 78.8921C452.505 78.8921 453.576 79.1733 454.491 79.7358C455.406 80.2983 456.116 81.0881 456.622 82.1052C457.127 83.1222 457.38 84.3097 457.38 85.6677C457.38 87.0199 457.127 88.2017 456.622 89.2131C456.116 90.2245 455.406 91.0114 454.491 91.5739C453.576 92.1364 452.505 92.4177 451.278 92.4177ZM451.287 90.2785C452.082 90.2785 452.741 90.0682 453.264 89.6478C453.787 89.2273 454.173 88.6677 454.423 87.9688C454.679 87.2699 454.806 86.5 454.806 85.6591C454.806 84.8239 454.679 84.0569 454.423 83.358C454.173 82.6535 453.787 82.0881 453.264 81.662C452.741 81.2358 452.082 81.0228 451.287 81.0228C450.485 81.0228 449.821 81.2358 449.292 81.662C448.77 82.0881 448.38 82.6535 448.125 83.358C447.875 84.0569 447.75 84.8239 447.75 85.6591C447.75 86.5 447.875 87.2699 448.125 87.9688C448.38 88.6677 448.77 89.2273 449.292 89.6478C449.821 90.0682 450.485 90.2785 451.287 90.2785Z" fill="#C88B4E"/>
<path d="M432.528 84.3807V92.1535H429.979V79.0625H432.426V81.1932H432.587C432.889 80.5 433.36 79.9432 434.002 79.5228C434.65 79.1023 435.465 78.8921 436.448 78.8921C437.34 78.8921 438.122 79.0796 438.792 79.4546C439.462 79.8239 439.982 80.375 440.352 81.108C440.721 81.841 440.906 82.7472 440.906 83.8267V92.1535H438.357V84.1336C438.357 83.1847 438.11 82.4432 437.616 81.9091C437.122 81.3694 436.443 81.0995 435.579 81.0995C434.988 81.0995 434.462 81.2273 434.002 81.483C433.548 81.7387 433.187 82.1137 432.92 82.608C432.658 83.0966 432.528 83.6875 432.528 84.3807Z" fill="#C88B4E"/>
<path d="M420.096 92.4177C418.807 92.4177 417.696 92.1421 416.764 91.591C415.838 91.0341 415.122 90.2529 414.616 89.2472C414.116 88.2358 413.866 87.0512 413.866 85.6932C413.866 84.3523 414.116 83.1705 414.616 82.1478C415.122 81.125 415.826 80.3267 416.73 79.7529C417.639 79.179 418.701 78.8921 419.917 78.8921C420.656 78.8921 421.372 79.0142 422.065 79.2586C422.758 79.5029 423.38 79.8864 423.932 80.4091C424.483 80.9319 424.917 81.6108 425.236 82.4461C425.554 83.2756 425.713 84.2841 425.713 85.4716V86.375H415.307V84.466H423.216C423.216 83.7955 423.079 83.2017 422.807 82.6847C422.534 82.162 422.15 81.75 421.656 81.4489C421.167 81.1478 420.593 80.9972 419.934 80.9972C419.218 80.9972 418.593 81.1733 418.059 81.5256C417.531 81.8722 417.122 82.3267 416.832 82.8892C416.548 83.4461 416.406 84.0512 416.406 84.7046V86.1961C416.406 87.0711 416.559 87.8154 416.866 88.429C417.179 89.0427 417.613 89.5114 418.17 89.8353C418.727 90.1535 419.378 90.3125 420.122 90.3125C420.605 90.3125 421.045 90.2444 421.443 90.108C421.841 89.966 422.184 89.7557 422.474 89.4773C422.764 89.1989 422.986 88.8552 423.139 88.4461L425.551 88.8807C425.358 89.591 425.011 90.2131 424.511 90.7472C424.017 91.2756 423.395 91.6875 422.645 91.983C421.9 92.2728 421.051 92.4177 420.096 92.4177Z" fill="#C88B4E"/>
<path d="M407.037 79.0625H409.585V93.0057C409.585 93.8807 409.426 94.6193 409.108 95.2216C408.796 95.8239 408.33 96.2812 407.71 96.5938C407.097 96.9063 406.338 97.0625 405.435 97.0625C405.344 97.0625 405.259 97.0625 405.179 97.0625C405.094 97.0625 405.006 97.0597 404.915 97.054V94.8636C404.995 94.8636 405.066 94.8636 405.128 94.8636C405.185 94.8636 405.25 94.8636 405.324 94.8636C405.926 94.8636 406.361 94.7017 406.628 94.3778C406.901 94.0597 407.037 93.5966 407.037 92.9886V79.0625ZM408.299 77.0426C407.855 77.0426 407.475 76.8949 407.157 76.5994C406.844 76.2983 406.688 75.9403 406.688 75.5256C406.688 75.1051 406.844 74.7472 407.157 74.4517C407.475 74.1506 407.855 74 408.299 74C408.742 74 409.12 74.1506 409.432 74.4517C409.75 74.7472 409.909 75.1051 409.909 75.5256C409.909 75.9403 409.75 76.2983 409.432 76.5994C409.12 76.8949 408.742 77.0426 408.299 77.0426Z" fill="#C88B4E"/>
<path d="M396.65 92.4177C395.423 92.4177 394.352 92.1364 393.437 91.5739C392.522 91.0114 391.812 90.2245 391.306 89.2131C390.801 88.2017 390.548 87.0199 390.548 85.6677C390.548 84.3097 390.801 83.1222 391.306 82.1052C391.812 81.0881 392.522 80.2983 393.437 79.7358C394.352 79.1733 395.423 78.8921 396.65 78.8921C397.877 78.8921 398.948 79.1733 399.863 79.7358C400.778 80.2983 401.488 81.0881 401.994 82.1052C402.5 83.1222 402.752 84.3097 402.752 85.6677C402.752 87.0199 402.5 88.2017 401.994 89.2131C401.488 90.2245 400.778 91.0114 399.863 91.5739C398.948 92.1364 397.877 92.4177 396.65 92.4177ZM396.659 90.2785C397.454 90.2785 398.113 90.0682 398.636 89.6478C399.159 89.2273 399.545 88.6677 399.795 87.9688C400.051 87.2699 400.179 86.5 400.179 85.6591C400.179 84.8239 400.051 84.0569 399.795 83.358C399.545 82.6535 399.159 82.0881 398.636 81.662C398.113 81.2358 397.454 81.0228 396.659 81.0228C395.858 81.0228 395.193 81.2358 394.664 81.662C394.142 82.0881 393.752 82.6535 393.497 83.358C393.247 84.0569 393.122 84.8239 393.122 85.6591C393.122 86.5 393.247 87.2699 393.497 87.9688C393.752 88.6677 394.142 89.2273 394.664 89.6478C395.193 90.0682 395.858 90.2785 396.659 90.2785Z" fill="#C88B4E"/>
<path d="M379.22 87.7129L379.203 84.6021H379.646L384.862 79.0624H387.913L381.964 85.3692H381.563L379.22 87.7129ZM376.876 92.1533V74.6987H379.424V92.1533H376.876ZM385.143 92.1533L380.456 85.9317L382.211 84.1504L388.271 92.1533H385.143Z" fill="#C88B4E"/>
<path d="M366.489 92.4177C365.262 92.4177 364.191 92.1364 363.276 91.5739C362.361 91.0114 361.651 90.2245 361.145 89.2131C360.64 88.2017 360.387 87.0199 360.387 85.6677C360.387 84.3097 360.64 83.1222 361.145 82.1052C361.651 81.0881 362.361 80.2983 363.276 79.7358C364.191 79.1733 365.262 78.8921 366.489 78.8921C367.716 78.8921 368.787 79.1733 369.702 79.7358C370.617 80.2983 371.327 81.0881 371.833 82.1052C372.338 83.1222 372.591 84.3097 372.591 85.6677C372.591 87.0199 372.338 88.2017 371.833 89.2131C371.327 90.2245 370.617 91.0114 369.702 91.5739C368.787 92.1364 367.716 92.4177 366.489 92.4177ZM366.498 90.2785C367.293 90.2785 367.952 90.0682 368.475 89.6478C368.998 89.2273 369.384 88.6677 369.634 87.9688C369.89 87.2699 370.017 86.5 370.017 85.6591C370.017 84.8239 369.89 84.0569 369.634 83.358C369.384 82.6535 368.998 82.0881 368.475 81.662C367.952 81.2358 367.293 81.0228 366.498 81.0228C365.696 81.0228 365.032 81.2358 364.503 81.662C363.98 82.0881 363.591 82.6535 363.336 83.358C363.086 84.0569 362.961 84.8239 362.961 85.6591C362.961 86.5 363.086 87.2699 363.336 87.9688C363.591 88.6677 363.98 89.2273 364.503 89.6478C365.032 90.0682 365.696 90.2785 366.498 90.2785Z" fill="#C88B4E"/>
<path d="M344.723 97.0625V79.0625H347.211V81.1847H347.424C347.572 80.912 347.785 80.5966 348.064 80.2387C348.342 79.8807 348.728 79.5682 349.223 79.3012C349.717 79.0285 350.37 78.8921 351.183 78.8921C352.24 78.8921 353.183 79.1591 354.012 79.6932C354.842 80.2273 355.493 80.9972 355.964 82.0029C356.441 83.0086 356.68 84.2188 356.68 85.6336C356.68 87.0483 356.444 88.2614 355.973 89.2728C355.501 90.2785 354.853 91.054 354.029 91.5995C353.206 92.1392 352.265 92.4091 351.208 92.4091C350.413 92.4091 349.762 92.2756 349.257 92.0086C348.757 91.7415 348.365 91.429 348.081 91.0711C347.797 90.7131 347.578 90.3949 347.424 90.1165H347.271V97.0625H344.723ZM347.22 85.608C347.22 86.5285 347.353 87.3353 347.62 88.0285C347.887 88.7216 348.274 89.2642 348.779 89.6563C349.285 90.0427 349.904 90.2358 350.637 90.2358C351.399 90.2358 352.035 90.0341 352.547 89.6307C353.058 89.2216 353.444 88.6677 353.706 87.9688C353.973 87.2699 354.106 86.483 354.106 85.608C354.106 84.7444 353.976 83.9688 353.714 83.2813C353.458 82.5938 353.072 82.0512 352.555 81.6535C352.044 81.2557 351.404 81.0569 350.637 81.0569C349.899 81.0569 349.274 81.2472 348.762 81.6279C348.257 82.0086 347.873 82.5398 347.612 83.2216C347.35 83.9035 347.22 84.6989 347.22 85.608Z" fill="#C88B4E"/>
<path d="M337.562 79.2838C337.471 78.477 337.096 77.852 336.437 77.4088C335.778 76.96 334.948 76.7355 333.948 76.7355C333.232 76.7355 332.613 76.8492 332.09 77.0764C331.567 77.298 331.161 77.6048 330.871 77.9969C330.587 78.3833 330.445 78.8236 330.445 79.3179C330.445 79.7327 330.542 80.0906 330.735 80.3918C330.934 80.6929 331.192 80.9458 331.511 81.1503C331.835 81.3492 332.181 81.5168 332.55 81.6531C332.92 81.7838 333.275 81.8918 333.616 81.977L335.32 82.4202C335.877 82.5566 336.448 82.7412 337.033 82.9742C337.619 83.2071 338.161 83.5139 338.661 83.8946C339.161 84.2753 339.565 84.7469 339.871 85.3094C340.184 85.8719 340.34 86.5452 340.34 87.3293C340.34 88.3179 340.085 89.1958 339.573 89.9628C339.067 90.7298 338.332 91.335 337.366 91.7781C336.406 92.2213 335.244 92.4429 333.88 92.4429C332.573 92.4429 331.442 92.2355 330.488 91.8208C329.533 91.406 328.786 90.8179 328.246 90.0566C327.707 89.2895 327.408 88.3804 327.352 87.3293H329.994C330.045 87.96 330.249 88.4855 330.607 88.906C330.971 89.3208 331.434 89.6304 331.996 89.835C332.565 90.0338 333.187 90.1333 333.863 90.1333C334.607 90.1333 335.269 90.0168 335.849 89.7838C336.434 89.5452 336.894 89.2156 337.229 88.7952C337.565 88.3691 337.732 87.8719 337.732 87.3037C337.732 86.7867 337.585 86.3634 337.289 86.0338C336.999 85.7043 336.604 85.4316 336.104 85.2156C335.61 84.9997 335.05 84.8094 334.425 84.6446L332.363 84.0821C330.965 83.7014 329.857 83.1418 329.039 82.4031C328.227 81.6645 327.82 80.6872 327.82 79.4713C327.82 78.4656 328.093 77.5878 328.638 76.8378C329.184 76.0878 329.923 75.5054 330.854 75.0906C331.786 74.6702 332.837 74.46 334.008 74.46C335.19 74.46 336.232 74.6673 337.136 75.0821C338.045 75.4969 338.761 76.0679 339.283 76.7952C339.806 77.5168 340.079 78.3463 340.102 79.2838H337.562Z" fill="#C88B4E"/>
<path d="M315.787 79.0626V81.1081H308.637V79.0626H315.787ZM310.554 75.9263H313.103V88.3098C313.103 88.8041 313.176 89.1763 313.324 89.4263C313.472 89.6706 313.662 89.8382 313.895 89.9291C314.134 90.0143 314.392 90.057 314.671 90.057C314.875 90.057 315.054 90.0427 315.208 90.0143C315.361 89.9859 315.48 89.9632 315.566 89.9462L316.026 92.0513C315.878 92.1081 315.668 92.1649 315.395 92.2217C315.123 92.2842 314.782 92.3183 314.373 92.324C313.702 92.3354 313.077 92.216 312.498 91.966C311.918 91.716 311.449 91.3297 311.091 90.807C310.733 90.2842 310.554 89.628 310.554 88.8382V75.9263Z" fill="#C88B4E"/>
<path d="M305.178 82.2586L302.869 82.6677C302.772 82.3722 302.619 82.091 302.408 81.8239C302.204 81.5569 301.925 81.3381 301.573 81.1677C301.221 80.9972 300.781 80.912 300.252 80.912C299.531 80.912 298.928 81.0739 298.445 81.3978C297.962 81.716 297.721 82.1279 297.721 82.6336C297.721 83.0711 297.883 83.4233 298.207 83.6904C298.531 83.9574 299.053 84.1762 299.775 84.3466L301.854 84.8239C303.059 85.1023 303.957 85.5313 304.548 86.1108C305.138 86.6904 305.434 87.4432 305.434 88.3694C305.434 89.1535 305.207 89.8523 304.752 90.466C304.303 91.0739 303.675 91.5512 302.869 91.8978C302.067 92.2444 301.138 92.4177 300.082 92.4177C298.616 92.4177 297.42 92.1052 296.494 91.4802C295.567 90.8495 294.999 89.9546 294.789 88.7955L297.252 88.4205C297.406 89.0625 297.721 89.5483 298.198 89.8779C298.675 90.2017 299.298 90.3637 300.065 90.3637C300.9 90.3637 301.567 90.1904 302.067 89.8438C302.567 89.4915 302.817 89.0625 302.817 88.5569C302.817 88.1478 302.664 87.804 302.357 87.5256C302.056 87.2472 301.593 87.037 300.968 86.8949L298.752 86.4091C297.531 86.1307 296.627 85.6875 296.042 85.0796C295.462 84.4716 295.173 83.7017 295.173 82.7699C295.173 81.9972 295.388 81.3211 295.82 80.7415C296.252 80.162 296.849 79.7103 297.61 79.3864C298.371 79.0569 299.244 78.8921 300.227 78.8921C301.641 78.8921 302.755 79.1989 303.567 79.8125C304.38 80.4205 304.917 81.2358 305.178 82.2586Z" fill="#C88B4E"/>
<path d="M284.982 92.4177C283.755 92.4177 282.684 92.1364 281.769 91.5739C280.854 91.0114 280.144 90.2245 279.638 89.2131C279.133 88.2017 278.88 87.0199 278.88 85.6677C278.88 84.3097 279.133 83.1222 279.638 82.1052C280.144 81.0881 280.854 80.2983 281.769 79.7358C282.684 79.1733 283.755 78.8921 284.982 78.8921C286.209 78.8921 287.28 79.1733 288.195 79.7358C289.11 80.2983 289.82 81.0881 290.326 82.1052C290.832 83.1222 291.084 84.3097 291.084 85.6677C291.084 87.0199 290.832 88.2017 290.326 89.2131C289.82 90.2245 289.11 91.0114 288.195 91.5739C287.28 92.1364 286.209 92.4177 284.982 92.4177ZM284.991 90.2785C285.786 90.2785 286.445 90.0682 286.968 89.6478C287.491 89.2273 287.877 88.6677 288.127 87.9688C288.383 87.2699 288.511 86.5 288.511 85.6591C288.511 84.8239 288.383 84.0569 288.127 83.358C287.877 82.6535 287.491 82.0881 286.968 81.662C286.445 81.2358 285.786 81.0228 284.991 81.0228C284.19 81.0228 283.525 81.2358 282.996 81.662C282.474 82.0881 282.084 82.6535 281.829 83.358C281.579 84.0569 281.454 84.8239 281.454 85.6591C281.454 86.5 281.579 87.2699 281.829 87.9688C282.084 88.6677 282.474 89.2273 282.996 89.6478C283.525 90.0682 284.19 90.2785 284.991 90.2785Z" fill="#C88B4E"/>
<path d="M266.233 84.3807V92.1535H263.685V79.0625H266.131V81.1932H266.293C266.594 80.5 267.065 79.9432 267.707 79.5228C268.355 79.1023 269.17 78.8921 270.153 78.8921C271.045 78.8921 271.827 79.0796 272.497 79.4546C273.168 79.8239 273.687 80.375 274.057 81.108C274.426 81.841 274.611 82.7472 274.611 83.8267V92.1535H272.062V84.1336C272.062 83.1847 271.815 82.4432 271.321 81.9091C270.827 81.3694 270.148 81.0995 269.284 81.0995C268.693 81.0995 268.168 81.2273 267.707 81.483C267.253 81.7387 266.892 82.1137 266.625 82.608C266.364 83.0966 266.233 83.6875 266.233 84.3807Z" fill="#C88B4E"/>
<path d="M248.729 92.1534V90.4062L255.82 81.3977V81.2784H248.96V79.0625H258.999V80.9205L252.181 89.8182V89.9375H259.238V92.1534H248.729Z" fill="#C88B4E"/>
<path d="M241.586 92.1534V79.0625H244.134V92.1534H241.586ZM242.873 77.0426C242.429 77.0426 242.049 76.8949 241.73 76.5994C241.418 76.2983 241.262 75.9403 241.262 75.5256C241.262 75.1051 241.418 74.7472 241.73 74.4517C242.049 74.1506 242.429 74 242.873 74C243.316 74 243.694 74.1506 244.006 74.4517C244.324 74.7472 244.483 75.1051 244.483 75.5256C244.483 75.9403 244.324 76.2983 244.006 76.5994C243.694 76.8949 243.316 77.0426 242.873 77.0426Z" fill="#C88B4E"/>
<path d="M232.043 92.4177C230.776 92.4177 229.685 92.1307 228.77 91.5569C227.861 90.9773 227.162 90.179 226.673 89.162C226.185 88.1449 225.94 86.9802 225.94 85.6677C225.94 84.3381 226.19 83.1648 226.69 82.1478C227.19 81.125 227.895 80.3267 228.804 79.7529C229.713 79.179 230.784 78.8921 232.017 78.8921C233.011 78.8921 233.898 79.0767 234.676 79.4461C235.455 79.8097 236.082 80.3211 236.56 80.9802C237.043 81.6392 237.33 82.4091 237.421 83.2898H234.94C234.804 82.6762 234.492 82.1478 234.003 81.7046C233.52 81.2614 232.872 81.0398 232.06 81.0398C231.35 81.0398 230.727 81.2273 230.193 81.6023C229.665 81.9716 229.253 82.5 228.957 83.1875C228.662 83.8694 228.514 84.6762 228.514 85.608C228.514 86.5625 228.659 87.3864 228.949 88.0796C229.239 88.7728 229.648 89.3097 230.176 89.6904C230.71 90.0711 231.338 90.2614 232.06 90.2614C232.543 90.2614 232.98 90.1733 233.372 89.9972C233.77 89.8154 234.102 89.5569 234.369 89.2216C234.642 88.8864 234.832 88.483 234.94 88.0114H237.421C237.33 88.858 237.054 89.6137 236.594 90.2785C236.134 90.9432 235.517 91.466 234.744 91.8466C233.977 92.2273 233.077 92.4177 232.043 92.4177Z" fill="#C88B4E"/>
<path d="M216.644 92.4177C215.354 92.4177 214.244 92.1421 213.312 91.591C212.386 91.0341 211.67 90.2529 211.164 89.2472C210.664 88.2358 210.414 87.0512 210.414 85.6932C210.414 84.3523 210.664 83.1705 211.164 82.1478C211.67 81.125 212.374 80.3267 213.278 79.7529C214.187 79.179 215.249 78.8921 216.465 78.8921C217.204 78.8921 217.92 79.0142 218.613 79.2586C219.306 79.5029 219.928 79.8864 220.479 80.4091C221.031 80.9319 221.465 81.6108 221.783 82.4461C222.102 83.2756 222.261 84.2841 222.261 85.4716V86.375H211.854V84.466H219.763C219.763 83.7955 219.627 83.2017 219.354 82.6847C219.082 82.162 218.698 81.75 218.204 81.4489C217.715 81.1478 217.141 80.9972 216.482 80.9972C215.766 80.9972 215.141 81.1733 214.607 81.5256C214.079 81.8722 213.67 82.3267 213.38 82.8892C213.096 83.4461 212.954 84.0512 212.954 84.7046V86.1961C212.954 87.0711 213.107 87.8154 213.414 88.429C213.727 89.0427 214.161 89.5114 214.718 89.8353C215.275 90.1535 215.925 90.3125 216.67 90.3125C217.153 90.3125 217.593 90.2444 217.991 90.108C218.388 89.966 218.732 89.7557 219.022 89.4773C219.312 89.1989 219.533 88.8552 219.687 88.4461L222.099 88.8807C221.906 89.591 221.559 90.2131 221.059 90.7472C220.565 91.2756 219.942 91.6875 219.192 91.983C218.448 92.2728 217.599 92.4177 216.644 92.4177Z" fill="#C88B4E"/>
<path d="M200.82 92.1531V79.0622H203.283V81.1418H203.42C203.658 80.4372 204.079 79.8833 204.681 79.4798C205.289 79.0708 205.977 78.8662 206.744 78.8662C206.903 78.8662 207.09 78.8719 207.306 78.8833C207.528 78.8946 207.701 78.9088 207.826 78.9259V81.3634C207.724 81.335 207.542 81.3037 207.281 81.2696C207.019 81.2298 206.758 81.21 206.496 81.21C205.894 81.21 205.357 81.3378 204.886 81.5935C204.42 81.8435 204.05 82.1929 203.778 82.6418C203.505 83.085 203.369 83.5906 203.369 84.1588V92.1531H200.82Z" fill="#C88B4E"/>
<path d="M184.233 92.1533V74.6987H190.455C191.813 74.6987 192.938 74.9459 193.83 75.4402C194.722 75.9345 195.39 76.6107 195.833 77.4686C196.276 78.3209 196.498 79.2811 196.498 80.3493C196.498 81.4232 196.273 82.3891 195.824 83.247C195.381 84.0993 194.711 84.7754 193.813 85.2754C192.921 85.7698 191.799 86.0169 190.446 86.0169H186.168V83.784H190.208C191.066 83.784 191.762 83.6362 192.296 83.3408C192.83 83.0396 193.222 82.6305 193.472 82.1135C193.722 81.5965 193.847 81.0084 193.847 80.3493C193.847 79.6902 193.722 79.105 193.472 78.5936C193.222 78.0823 192.827 77.6817 192.287 77.3919C191.753 77.1021 191.049 76.9573 190.174 76.9573H186.867V92.1533H184.233Z" fill="#C88B4E"/>
<path d="M169.96 92.3151C169.494 92.3151 169.094 92.1503 168.759 91.8208C168.423 91.4856 168.256 91.0822 168.256 90.6106C168.256 90.1447 168.423 89.7469 168.759 89.4174C169.094 89.0822 169.494 88.9146 169.96 88.9146C170.426 88.9146 170.827 89.0822 171.162 89.4174C171.497 89.7469 171.665 90.1447 171.665 90.6106C171.665 90.9231 171.585 91.21 171.426 91.4714C171.273 91.7271 171.068 91.9316 170.813 92.085C170.557 92.2384 170.273 92.3151 169.96 92.3151Z" fill="#C88B4E"/>
<path d="M156.987 92.4432C156.157 92.4432 155.407 92.2898 154.737 91.983C154.066 91.6705 153.535 91.2188 153.143 90.6279C152.757 90.037 152.563 89.3125 152.563 88.4546C152.563 87.716 152.706 87.108 152.99 86.6307C153.274 86.1535 153.657 85.7756 154.14 85.4972C154.623 85.2188 155.163 85.0086 155.759 84.8665C156.356 84.7245 156.964 84.6165 157.583 84.5427C158.367 84.4517 159.004 84.3779 159.492 84.3211C159.981 84.2586 160.336 84.1591 160.558 84.0228C160.779 83.8864 160.89 83.6648 160.89 83.358V83.2983C160.89 82.554 160.68 81.9773 160.259 81.5682C159.845 81.1591 159.225 80.9546 158.402 80.9546C157.544 80.9546 156.867 81.1449 156.373 81.5256C155.884 81.9006 155.546 82.3182 155.359 82.7785L152.964 82.233C153.248 81.4375 153.663 80.7955 154.208 80.3069C154.759 79.8125 155.393 79.4546 156.109 79.233C156.825 79.0057 157.578 78.8921 158.367 78.8921C158.89 78.8921 159.444 78.9546 160.029 79.0796C160.62 79.1989 161.171 79.4205 161.683 79.7444C162.2 80.0682 162.623 80.5313 162.953 81.1336C163.282 81.7302 163.447 82.5057 163.447 83.4603V92.1535H160.958V90.3637H160.856C160.691 90.6932 160.444 91.0171 160.115 91.3353C159.785 91.6535 159.362 91.9177 158.845 92.1279C158.328 92.3381 157.708 92.4432 156.987 92.4432ZM157.541 90.3978C158.245 90.3978 158.848 90.2586 159.348 89.9802C159.853 89.7017 160.237 89.3381 160.498 88.8892C160.765 88.4347 160.899 87.9489 160.899 87.4319V85.7444C160.808 85.8353 160.632 85.9205 160.37 86C160.115 86.0739 159.822 86.1392 159.492 86.1961C159.163 86.2472 158.842 86.2955 158.529 86.341C158.217 86.3807 157.956 86.4148 157.745 86.4432C157.251 86.5057 156.799 86.6108 156.39 86.7586C155.987 86.9063 155.663 87.1194 155.419 87.3978C155.18 87.6705 155.061 88.0341 155.061 88.4887C155.061 89.1194 155.294 89.5966 155.759 89.9205C156.225 90.2387 156.819 90.3978 157.541 90.3978Z" fill="#C88B4E"/>
<path d="M148.918 79.0626V81.1081H141.768V79.0626H148.918ZM143.685 75.9263H146.233V88.3098C146.233 88.8041 146.307 89.1763 146.455 89.4263C146.603 89.6706 146.793 89.8382 147.026 89.9291C147.265 90.0143 147.523 90.057 147.802 90.057C148.006 90.057 148.185 90.0427 148.339 90.0143C148.492 89.9859 148.611 89.9632 148.697 89.9462L149.157 92.0513C149.009 92.1081 148.799 92.1649 148.526 92.2217C148.253 92.2842 147.912 92.3183 147.503 92.324C146.833 92.3354 146.208 92.216 145.628 91.966C145.049 91.716 144.58 91.3297 144.222 90.807C143.864 90.2842 143.685 89.628 143.685 88.8382V75.9263Z" fill="#C88B4E"/>
<path d="M135.391 92.1534V79.0625H137.94V92.1534H135.391ZM136.678 77.0426C136.235 77.0426 135.854 76.8949 135.536 76.5994C135.224 76.2983 135.067 75.9403 135.067 75.5256C135.067 75.1051 135.224 74.7472 135.536 74.4517C135.854 74.1506 136.235 74 136.678 74C137.121 74 137.499 74.1506 137.812 74.4517C138.13 74.7472 138.289 75.1051 138.289 75.5256C138.289 75.9403 138.13 76.2983 137.812 76.5994C137.499 76.8949 137.121 77.0426 136.678 77.0426Z" fill="#C88B4E"/>
<path d="M130.523 74.6987V92.1533H127.975V74.6987H130.523Z" fill="#C88B4E"/>
<path d="M116.68 92.4432C115.851 92.4432 115.101 92.2898 114.43 91.983C113.76 91.6705 113.228 91.2188 112.836 90.6279C112.45 90.037 112.257 89.3125 112.257 88.4546C112.257 87.716 112.399 87.108 112.683 86.6307C112.967 86.1535 113.351 85.7756 113.834 85.4972C114.316 85.2188 114.856 85.0086 115.453 84.8665C116.049 84.7245 116.657 84.6165 117.277 84.5427C118.061 84.4517 118.697 84.3779 119.186 84.3211C119.674 84.2586 120.03 84.1591 120.251 84.0228C120.473 83.8864 120.584 83.6648 120.584 83.358V83.2983C120.584 82.554 120.373 81.9773 119.953 81.5682C119.538 81.1591 118.919 80.9546 118.095 80.9546C117.237 80.9546 116.561 81.1449 116.066 81.5256C115.578 81.9006 115.24 82.3182 115.052 82.7785L112.657 82.233C112.941 81.4375 113.356 80.7955 113.902 80.3069C114.453 79.8125 115.086 79.4546 115.802 79.233C116.518 79.0057 117.271 78.8921 118.061 78.8921C118.584 78.8921 119.138 78.9546 119.723 79.0796C120.314 79.1989 120.865 79.4205 121.376 79.7444C121.893 80.0682 122.316 80.5313 122.646 81.1336C122.976 81.7302 123.14 82.5057 123.14 83.4603V92.1535H120.652V90.3637H120.549C120.385 90.6932 120.138 91.0171 119.808 91.3353C119.478 91.6535 119.055 91.9177 118.538 92.1279C118.021 92.3381 117.402 92.4432 116.68 92.4432ZM117.234 90.3978C117.939 90.3978 118.541 90.2586 119.041 89.9802C119.547 89.7017 119.93 89.3381 120.191 88.8892C120.459 88.4347 120.592 87.9489 120.592 87.4319V85.7444C120.501 85.8353 120.325 85.9205 120.064 86C119.808 86.0739 119.515 86.1392 119.186 86.1961C118.856 86.2472 118.535 86.2955 118.223 86.341C117.91 86.3807 117.649 86.4148 117.439 86.4432C116.944 86.5057 116.493 86.6108 116.084 86.7586C115.68 86.9063 115.356 87.1194 115.112 87.3978C114.873 87.6705 114.754 88.0341 114.754 88.4887C114.754 89.1194 114.987 89.5966 115.453 89.9205C115.919 90.2387 116.513 90.3978 117.234 90.3978Z" fill="#C88B4E"/>
<path d="M109.411 79.0625L104.664 92.1534H101.936L97.1807 79.0625H99.9165L103.232 89.1364H103.368L106.675 79.0625H109.411Z" fill="#C88B4E"/>
<path d="M82 92.1533V74.6987H84.6335V83.034H84.8466L92.1676 74.6987H95.483L88.4432 82.5567L95.5085 92.1533H92.3381L86.696 84.355L84.6335 86.7243V92.1533H82Z" fill="#C88B4E"/>
</svg>
