<svg width="140" height="70" viewBox="0 0 140 70" fill="none" xmlns="http://www.w3.org/2000/svg">
<path d="M133.432 64.6512V69.8665H129.38V64.6096L123.812 55.3218H128.113L131.583 61.1397L135.073 55.3218H139L133.432 64.6512Z" fill="#C88B4E"/>
<path d="M117.817 65.2745L120.976 69.8665H116.633L113.973 65.981H111.688V69.8665H107.615V62.8435H113.994C115.74 62.8435 116.591 62.0331 116.591 60.6826C116.591 59.332 115.74 58.5216 113.994 58.5216H107.615V55.3218H114.223C118.191 55.3218 120.685 57.3788 120.685 60.6826C120.685 62.8435 119.646 64.4226 117.817 65.2745Z" fill="#C88B4E"/>
<path d="M90.7451 64.0072V60.9735H102.111V64.0072H90.7451ZM90.7451 58.4802V55.3219H102.111V58.4802H90.7451ZM90.7451 66.7083V69.8666H102.111V66.7083H90.7451ZM97.2071 54.1375H94.4229L97.1864 51H101.113L97.2071 54.1375Z" fill="#C88B4E"/>
<path d="M84.888 69.8665H80.8154V55.3218H84.888V69.8665Z" fill="#C88B4E"/>
<path d="M72.7285 65.2745L75.8868 69.8665H71.5441L68.8845 65.981H66.5989V69.8665H62.5264V62.8435H68.9053C70.6507 62.8435 71.5026 62.0331 71.5026 60.6826C71.5026 59.332 70.6507 58.5216 68.9053 58.5216H62.5264V55.3218H69.1338C73.1025 55.3218 75.5959 57.3788 75.5959 60.6826C75.5959 62.8435 74.557 64.4226 72.7285 65.2745Z" fill="#C88B4E"/>
<path d="M45.6572 64.0071V60.9735H57.0229V64.0071H45.6572ZM45.6572 58.4801V55.3218H57.0229V58.4801H45.6572ZM45.6572 66.7082V69.8665H57.0229V66.7082H45.6572Z" fill="#C88B4E"/>
<path d="M36.7264 69.8665H32.6538V58.5424H28.1865V55.3218H41.1937V58.5424H36.7264V69.8665Z" fill="#C88B4E"/>
<path d="M4.07253 69.8665H0V55.3218H4.07253V69.8665Z" fill="#C88B4E"/>
<path d="M13.9189 66.9273V69.8669H9.92969V62.0957L13.9189 66.9273ZM23.7264 67.9815V69.8669H20.3874L9.92969 57.2007V55.3218H13.2737L23.7264 67.9815ZM23.7264 63.0862L19.7577 58.2796V55.3218H23.7264V63.0862Z" fill="#C88B4E"/>
<path d="M120.737 44.3201C113.897 44.3201 107.057 42.4601 103.097 39.7001L106.997 31.0001C110.717 33.5201 115.997 35.1401 120.857 35.1401C125.837 35.1401 127.757 33.7601 127.757 31.6601C127.757 24.9401 103.877 29.8601 103.877 14.2001C103.877 6.76014 109.997 0.640137 122.417 0.640137C127.817 0.640137 133.457 1.90014 137.537 4.36014L133.997 13.0001C129.977 10.8401 126.017 9.82014 122.297 9.82014C117.317 9.82014 115.457 11.5001 115.457 13.6001C115.457 20.1401 139.337 15.3401 139.337 30.7601C139.337 38.0801 133.217 44.3201 120.737 44.3201Z" fill="#322624"/>
<path d="M53.459 10.72L53.519 1.47998H72.539C83.999 1.47998 91.199 7.41998 91.199 16.96C91.199 26.5 83.999 32.44 72.539 32.44H65.219V43.48H53.459V23.2H71.879C76.919 23.2 79.379 20.86 79.379 16.96C79.379 13.06 76.919 10.72 71.879 10.72H53.459Z" fill="#322624"/>
<path d="M23.8203 20.0796L41.8799 43.48H28.2598L16.0801 28.1196L11.5801 32.98V43.48H0V31.5347L28.0537 1.47998H40.9199L23.8203 20.0796ZM11.5801 5.93896L0 18.3442V1.47998H11.5801V5.93896Z" fill="#322624"/>
</svg>
