<svg width="572" height="99" viewBox="0 0 572 99" fill="none" xmlns="http://www.w3.org/2000/svg">
<path d="M555.301 39.42V54.48H543.602V39.3L527.521 12.48H539.941L549.961 29.28L560.042 12.48H571.382L555.301 39.42Z" fill="white"/>
<path d="M510.213 41.22L519.333 54.48H506.793L499.113 43.26H492.513V54.48H480.753V34.2H499.173C504.213 34.2 506.673 31.86 506.673 27.96C506.673 24.06 504.213 21.72 499.173 21.72H480.753V12.48H499.833C511.293 12.48 518.493 18.42 518.493 27.96C518.493 34.2 515.493 38.76 510.213 41.22Z" fill="white"/>
<path d="M432.041 37.56V28.8H464.861V37.56H432.041ZM432.041 21.6V12.48H464.861V21.6H432.041ZM432.041 45.36V54.48H464.861V45.36H432.041ZM450.701 9.06H442.661L450.641 0H461.981L450.701 9.06Z" fill="white"/>
<path d="M415.127 54.48H403.367V12.48H415.127V54.48Z" fill="white"/>
<path d="M380.014 41.22L389.134 54.48H376.594L368.914 43.26H362.314V54.48H350.554V34.2H368.974C374.014 34.2 376.474 31.86 376.474 27.96C376.474 24.06 374.014 21.72 368.974 21.72H350.554V12.48H369.634C381.094 12.48 388.294 18.42 388.294 27.96C388.294 34.2 385.294 38.76 380.014 41.22Z" fill="white"/>
<path d="M301.841 37.56V28.8H334.661V37.56H301.841ZM301.841 21.6V12.48H334.661V21.6H301.841ZM301.841 45.36V54.48H334.661V45.36H301.841Z" fill="white"/>
<path d="M276.054 54.48H264.294V21.78H251.394V12.48H288.954V21.78H276.054V54.48Z" fill="white"/>
<path d="M181.76 54.48H170V12.48H181.76V54.48Z" fill="white"/>
<path d="M210.193 45.9922V54.4805H198.674V32.04L210.193 45.9922ZM238.514 49.0361V54.4805H228.872L198.674 17.9053V12.4795H208.33L238.514 49.0361ZM238.514 34.9004L227.054 21.0205V12.4795H238.514V34.9004Z" fill="white"/>
<path d="M120.737 55.3201C113.897 55.3201 107.057 53.4601 103.097 50.7001L106.997 42.0001C110.717 44.5201 115.997 46.1401 120.857 46.1401C125.837 46.1401 127.757 44.7601 127.757 42.6601C127.757 35.9401 103.877 40.8601 103.877 25.2001C103.877 17.7601 109.997 11.6401 122.417 11.6401C127.817 11.6401 133.457 12.9001 137.537 15.3601L133.997 24.0001C129.977 21.8401 126.017 20.8201 122.297 20.8201C117.317 20.8201 115.457 22.5001 115.457 24.6001C115.457 31.1401 139.337 26.3401 139.337 41.7601C139.337 49.0801 133.217 55.3201 120.737 55.3201Z" fill="white"/>
<path d="M53.459 21.72L53.519 12.48H72.539C83.999 12.48 91.199 18.42 91.199 27.96C91.199 37.5 83.999 43.44 72.539 43.44H65.219V54.48H53.459V34.2H71.879C76.919 34.2 79.379 31.86 79.379 27.96C79.379 24.06 76.919 21.72 71.879 21.72H53.459Z" fill="white"/>
<path d="M23.8203 31.0796L41.8799 54.48H28.2598L16.0801 39.1196L11.5801 43.98V54.48H0V42.5347L28.0537 12.48H40.9199L23.8203 31.0796ZM11.5801 16.939L0 29.3442V12.48H11.5801V16.939Z" fill="white"/>
<path d="M509.02 93.8077C508.473 93.8077 508.006 93.6225 507.619 93.2523C507.233 92.866 507.04 92.3832 507.04 91.8037C507.04 91.1921 507.233 90.7092 507.619 90.3551C508.006 89.9849 508.473 89.7998 509.02 89.7998C509.567 89.7998 510.034 89.9849 510.42 90.3551C510.806 90.7092 511 91.1921 511 91.8037C511 92.3832 510.806 92.866 510.42 93.2523C510.034 93.6225 509.567 93.8077 509.02 93.8077Z" fill="#C88B4E"/>
<path d="M500.508 93.8081C499.091 93.8081 497.997 93.446 497.224 92.7217C496.451 91.9813 496.065 90.8948 496.065 89.4623V77.8975H499.083V89.3898C499.083 90.0015 499.236 90.4763 499.542 90.8143C499.864 91.1523 500.306 91.3213 500.87 91.3213C501.546 91.3213 502.109 91.1443 502.56 90.7902L503.405 92.939C503.051 93.2287 502.616 93.446 502.101 93.5908C501.586 93.7357 501.055 93.8081 500.508 93.8081ZM493.94 83.2574V80.843H502.536V83.2574H493.94Z" fill="#C88B4E"/>
<path d="M485.281 93.8077C484.202 93.8077 483.164 93.6708 482.166 93.3972C481.184 93.1075 480.404 92.7614 479.824 92.359L480.983 90.0654C481.563 90.4356 482.255 90.7414 483.059 90.9828C483.864 91.2243 484.669 91.345 485.474 91.345C486.423 91.345 487.108 91.2162 487.526 90.9587C487.961 90.7012 488.178 90.3551 488.178 89.9205C488.178 89.5664 488.033 89.3008 487.743 89.1238C487.454 88.9306 487.075 88.7858 486.609 88.6892C486.142 88.5926 485.619 88.5041 485.039 88.4236C484.476 88.3431 483.904 88.2385 483.325 88.1097C482.762 87.9649 482.247 87.7637 481.78 87.5062C481.313 87.2325 480.935 86.8704 480.645 86.4197C480.355 85.969 480.211 85.3735 480.211 84.6331C480.211 83.8122 480.444 83.104 480.911 82.5084C481.377 81.8968 482.029 81.43 482.866 81.1081C483.719 80.7701 484.725 80.6011 485.884 80.6011C486.753 80.6011 487.631 80.6976 488.516 80.8908C489.401 81.0839 490.134 81.3576 490.713 81.7117L489.554 84.0053C488.942 83.6351 488.323 83.3856 487.695 83.2569C487.083 83.112 486.472 83.0396 485.86 83.0396C484.943 83.0396 484.259 83.1764 483.808 83.45C483.373 83.7237 483.156 84.0697 483.156 84.4882C483.156 84.8745 483.301 85.1642 483.591 85.3574C483.88 85.5505 484.259 85.7034 484.725 85.8161C485.192 85.9288 485.707 86.0253 486.271 86.1058C486.85 86.1702 487.421 86.2748 487.985 86.4197C488.548 86.5646 489.063 86.7658 489.53 87.0233C490.013 87.2647 490.399 87.6108 490.689 88.0615C490.979 88.5121 491.123 89.0996 491.123 89.8239C491.123 90.6287 490.882 91.3289 490.399 91.9244C489.932 92.52 489.264 92.9868 488.395 93.3248C487.526 93.6467 486.488 93.8077 485.281 93.8077Z" fill="#C88B4E"/>
<path d="M469.599 93.8077C468.279 93.8077 467.104 93.526 466.074 92.9626C465.044 92.3832 464.231 91.5945 463.635 90.5965C463.04 89.5986 462.742 88.4639 462.742 87.1923C462.742 85.9046 463.04 84.7699 463.635 83.788C464.231 82.7901 465.044 82.0095 466.074 81.4461C467.104 80.8828 468.279 80.6011 469.599 80.6011C470.935 80.6011 472.118 80.8828 473.148 81.4461C474.194 82.0095 475.007 82.7821 475.587 83.7639C476.182 84.7457 476.48 85.8885 476.48 87.1923C476.48 88.4639 476.182 89.5986 475.587 90.5965C475.007 91.5945 474.194 92.3832 473.148 92.9626C472.118 93.526 470.935 93.8077 469.599 93.8077ZM469.599 91.2243C470.339 91.2243 470.999 91.0633 471.579 90.7414C472.158 90.4195 472.609 89.9527 472.931 89.3411C473.269 88.7294 473.438 88.0132 473.438 87.1923C473.438 86.3553 473.269 85.639 472.931 85.0435C472.609 84.4319 472.158 83.9651 471.579 83.6432C470.999 83.3213 470.347 83.1603 469.623 83.1603C468.883 83.1603 468.223 83.3213 467.643 83.6432C467.08 83.9651 466.629 84.4319 466.291 85.0435C465.953 85.639 465.784 86.3553 465.784 87.1923C465.784 88.0132 465.953 88.7294 466.291 89.3411C466.629 89.9527 467.08 90.4195 467.643 90.7414C468.223 91.0633 468.875 91.2243 469.599 91.2243Z" fill="#C88B4E"/>
<path d="M452.637 80.6011C453.667 80.6011 454.584 80.8023 455.389 81.2047C456.21 81.6071 456.854 82.2267 457.321 83.0637C457.787 83.8846 458.021 84.9469 458.021 86.2507V93.6386H455.003V86.637C455.003 85.4942 454.729 84.6411 454.182 84.0778C453.651 83.5144 452.902 83.2327 451.937 83.2327C451.228 83.2327 450.601 83.3776 450.053 83.6673C449.506 83.957 449.08 84.3916 448.774 84.9711C448.484 85.5344 448.339 86.2507 448.339 87.1199V93.6386H445.321V80.7459H448.194V84.2226L447.687 83.1603C448.138 82.3394 448.79 81.7117 449.643 81.2771C450.512 80.8264 451.51 80.6011 452.637 80.6011Z" fill="#C88B4E"/>
<path d="M434.431 93.8077C432.998 93.8077 431.743 93.526 430.665 92.9626C429.602 92.3832 428.773 91.5945 428.178 90.5965C427.598 89.5986 427.309 88.4639 427.309 87.1923C427.309 85.9046 427.59 84.7699 428.154 83.788C428.733 82.7901 429.522 82.0095 430.52 81.4461C431.534 80.8828 432.685 80.6011 433.972 80.6011C435.228 80.6011 436.346 80.8747 437.328 81.422C438.31 81.9692 439.083 82.7418 439.646 83.7397C440.209 84.7377 440.491 85.9127 440.491 87.2647C440.491 87.3935 440.483 87.5384 440.467 87.6993C440.467 87.8603 440.459 88.0132 440.443 88.158H429.699V86.1541H438.849L437.666 86.7818C437.682 86.0414 437.529 85.3896 437.207 84.8262C436.886 84.2629 436.443 83.8202 435.88 83.4983C435.332 83.1764 434.697 83.0154 433.972 83.0154C433.232 83.0154 432.58 83.1764 432.017 83.4983C431.469 83.8202 431.035 84.2709 430.713 84.8504C430.407 85.4137 430.254 86.0817 430.254 86.8543V87.3372C430.254 88.1097 430.431 88.7938 430.785 89.3894C431.139 89.9849 431.638 90.4436 432.282 90.7656C432.926 91.0875 433.666 91.2484 434.503 91.2484C435.228 91.2484 435.88 91.1358 436.459 90.9104C437.038 90.6851 437.554 90.331 438.004 89.8481L439.622 91.7072C439.042 92.3832 438.31 92.9063 437.425 93.2765C436.556 93.6306 435.558 93.8077 434.431 93.8077Z" fill="#C88B4E"/>
<path d="M417.99 98.4918C417.427 98.4918 416.896 98.4274 416.397 98.2986C415.881 98.186 415.447 98.0009 415.093 97.7433L415.962 95.498C416.429 95.836 417.016 96.005 417.724 96.005C418.272 96.005 418.698 95.8279 419.004 95.4738C419.31 95.1358 419.463 94.6288 419.463 93.9528V80.7462H422.481V93.8803C422.481 95.2968 422.086 96.4154 421.298 97.2363C420.525 98.0733 419.423 98.4918 417.99 98.4918ZM420.96 78.6215C420.396 78.6215 419.93 78.4445 419.559 78.0904C419.205 77.7363 419.028 77.3097 419.028 76.8108C419.028 76.2957 419.205 75.8692 419.559 75.5312C419.93 75.1771 420.396 75 420.96 75C421.523 75 421.982 75.169 422.336 75.507C422.706 75.8289 422.891 76.2394 422.891 76.7383C422.891 77.2695 422.714 77.7202 422.36 78.0904C422.006 78.4445 421.539 78.6215 420.96 78.6215Z" fill="#C88B4E"/>
<path d="M407.621 93.8077C406.302 93.8077 405.127 93.526 404.096 92.9626C403.066 92.3832 402.253 91.5945 401.658 90.5965C401.062 89.5986 400.765 88.4639 400.765 87.1923C400.765 85.9046 401.062 84.7699 401.658 83.788C402.253 82.7901 403.066 82.0095 404.096 81.4461C405.127 80.8828 406.302 80.6011 407.621 80.6011C408.957 80.6011 410.14 80.8828 411.171 81.4461C412.217 82.0095 413.03 82.7821 413.609 83.7639C414.205 84.7457 414.502 85.8885 414.502 87.1923C414.502 88.4639 414.205 89.5986 413.609 90.5965C413.03 91.5945 412.217 92.3832 411.171 92.9626C410.14 93.526 408.957 93.8077 407.621 93.8077ZM407.621 91.2243C408.362 91.2243 409.022 91.0633 409.601 90.7414C410.181 90.4195 410.631 89.9527 410.953 89.3411C411.291 88.7294 411.46 88.0132 411.46 87.1923C411.46 86.3553 411.291 85.639 410.953 85.0435C410.631 84.4319 410.181 83.9651 409.601 83.6432C409.022 83.3213 408.37 83.1603 407.646 83.1603C406.905 83.1603 406.245 83.3213 405.666 83.6432C405.102 83.9651 404.652 84.4319 404.314 85.0435C403.976 85.639 403.807 86.3553 403.807 87.1923C403.807 88.0132 403.976 88.7294 404.314 89.3411C404.652 89.9527 405.102 90.4195 405.666 90.7414C406.245 91.0633 406.897 91.2243 407.621 91.2243Z" fill="#C88B4E"/>
<path d="M387.526 90.7656L387.599 86.9751L394.335 80.746H397.956L392.234 86.4922L390.641 87.8201L387.526 90.7656ZM385.063 93.6387V75.7241H388.081V93.6387H385.063ZM394.793 93.6387L390.085 87.8201L391.993 85.4057L398.463 93.6387H394.793Z" fill="#C88B4E"/>
<path d="M373.366 93.8077C372.046 93.8077 370.871 93.526 369.841 92.9626C368.81 92.3832 367.998 91.5945 367.402 90.5965C366.807 89.5986 366.509 88.4639 366.509 87.1923C366.509 85.9046 366.807 84.7699 367.402 83.788C367.998 82.7901 368.81 82.0095 369.841 81.4461C370.871 80.8828 372.046 80.6011 373.366 80.6011C374.702 80.6011 375.885 80.8828 376.915 81.4461C377.961 82.0095 378.774 82.7821 379.353 83.7639C379.949 84.7457 380.246 85.8885 380.246 87.1923C380.246 88.4639 379.949 89.5986 379.353 90.5965C378.774 91.5945 377.961 92.3832 376.915 92.9626C375.885 93.526 374.702 93.8077 373.366 93.8077ZM373.366 91.2243C374.106 91.2243 374.766 91.0633 375.345 90.7414C375.925 90.4195 376.375 89.9527 376.697 89.3411C377.035 88.7294 377.204 88.0132 377.204 87.1923C377.204 86.3553 377.035 85.639 376.697 85.0435C376.375 84.4319 375.925 83.9651 375.345 83.6432C374.766 83.3213 374.114 83.1603 373.39 83.1603C372.649 83.1603 371.989 83.3213 371.41 83.6432C370.847 83.9651 370.396 84.4319 370.058 85.0435C369.72 85.639 369.551 86.3553 369.551 87.1923C369.551 88.0132 369.72 88.7294 370.058 89.3411C370.396 89.9527 370.847 90.4195 371.41 90.7414C371.989 91.0633 372.641 91.2243 373.366 91.2243Z" fill="#C88B4E"/>
<path d="M356.234 93.8077C355.188 93.8077 354.231 93.5662 353.361 93.0833C352.508 92.6005 351.824 91.8762 351.309 90.9104C350.81 89.9286 350.561 88.6892 350.561 87.1923C350.561 85.6793 350.802 84.4399 351.285 83.4742C351.784 82.5084 352.46 81.7922 353.313 81.3254C354.166 80.8425 355.14 80.6011 356.234 80.6011C357.506 80.6011 358.625 80.8747 359.59 81.422C360.572 81.9692 361.345 82.7338 361.908 83.7156C362.488 84.6974 362.777 85.8563 362.777 87.1923C362.777 88.5282 362.488 89.6952 361.908 90.6931C361.345 91.675 360.572 92.4395 359.59 92.9868C358.625 93.534 357.506 93.8077 356.234 93.8077ZM349.088 98.3225V80.7459H351.961V83.788L351.864 87.2164L352.106 90.6448V98.3225H349.088ZM355.896 91.2243C356.621 91.2243 357.265 91.0633 357.828 90.7414C358.407 90.4195 358.866 89.9527 359.204 89.3411C359.542 88.7294 359.711 88.0132 359.711 87.1923C359.711 86.3553 359.542 85.639 359.204 85.0435C358.866 84.4319 358.407 83.9651 357.828 83.6432C357.265 83.3213 356.621 83.1603 355.896 83.1603C355.172 83.1603 354.52 83.3213 353.941 83.6432C353.361 83.9651 352.903 84.4319 352.565 85.0435C352.227 85.639 352.058 86.3553 352.058 87.1923C352.058 88.0132 352.227 88.7294 352.565 89.3411C352.903 89.9527 353.361 90.4195 353.941 90.7414C354.52 91.0633 355.172 91.2243 355.896 91.2243Z" fill="#C88B4E"/>
<path d="M337.502 93.88C336.182 93.88 334.918 93.6949 333.711 93.3247C332.504 92.9384 331.546 92.4475 330.838 91.8519L331.924 89.4134C332.6 89.9446 333.437 90.3872 334.435 90.7413C335.433 91.0954 336.455 91.2725 337.502 91.2725C338.387 91.2725 339.103 91.1759 339.65 90.9828C340.198 90.7896 340.6 90.5321 340.857 90.2102C341.115 89.8722 341.244 89.4939 341.244 89.0754C341.244 88.5604 341.059 88.1499 340.689 87.8441C340.318 87.5222 339.835 87.2727 339.24 87.0956C338.66 86.9025 338.009 86.7254 337.284 86.5645C336.576 86.4035 335.86 86.2184 335.135 86.0092C334.427 85.7838 333.775 85.5022 333.18 85.1642C332.6 84.81 332.126 84.3433 331.755 83.7638C331.385 83.1844 331.2 82.444 331.2 81.5426C331.2 80.6251 331.441 79.7882 331.924 79.0317C332.423 78.2591 333.172 77.6474 334.17 77.1967C335.184 76.73 336.463 76.4966 338.009 76.4966C339.023 76.4966 340.029 76.6253 341.026 76.8829C342.024 77.1404 342.894 77.5106 343.634 77.9935L342.644 80.432C341.888 79.9813 341.107 79.6514 340.302 79.4421C339.497 79.2168 338.725 79.1041 337.984 79.1041C337.115 79.1041 336.407 79.2087 335.86 79.418C335.329 79.6272 334.934 79.9008 334.677 80.2388C334.435 80.5769 334.315 80.9632 334.315 81.3977C334.315 81.9128 334.492 82.3313 334.846 82.6532C335.216 82.959 335.691 83.2005 336.27 83.3775C336.866 83.5546 337.526 83.7316 338.25 83.9087C338.974 84.0696 339.691 84.2547 340.399 84.464C341.123 84.6732 341.775 84.9469 342.354 85.2849C342.95 85.6229 343.425 86.0816 343.779 86.6611C344.149 87.2405 344.334 87.9729 344.334 88.8581C344.334 89.7595 344.085 90.5965 343.586 91.3691C343.103 92.1256 342.354 92.7372 341.34 93.204C340.326 93.6547 339.047 93.88 337.502 93.88Z" fill="#C88B4E"/>
<path d="M316.057 93.8081C314.641 93.8081 313.546 93.446 312.774 92.7217C312.001 91.9813 311.615 90.8948 311.615 89.4623V77.8975H314.633V89.3898C314.633 90.0015 314.786 90.4763 315.092 90.8143C315.413 91.1523 315.856 91.3213 316.419 91.3213C317.095 91.3213 317.659 91.1443 318.11 90.7902L318.955 92.939C318.6 93.2287 318.166 93.446 317.651 93.5908C317.136 93.7357 316.605 93.8081 316.057 93.8081ZM309.49 83.2574V80.843H318.085V83.2574H309.49Z" fill="#C88B4E"/>
<path d="M300.831 93.8077C299.753 93.8077 298.715 93.6708 297.717 93.3972C296.735 93.1075 295.954 92.7614 295.375 92.359L296.534 90.0654C297.113 90.4356 297.805 90.7414 298.61 90.9828C299.415 91.2243 300.22 91.345 301.025 91.345C301.974 91.345 302.658 91.2162 303.077 90.9587C303.511 90.7012 303.729 90.3551 303.729 89.9205C303.729 89.5664 303.584 89.3008 303.294 89.1238C303.004 88.9306 302.626 88.7858 302.159 88.6892C301.693 88.5926 301.169 88.5041 300.59 88.4236C300.027 88.3431 299.455 88.2385 298.876 88.1097C298.312 87.9649 297.797 87.7637 297.331 87.5062C296.864 87.2325 296.486 86.8704 296.196 86.4197C295.906 85.969 295.761 85.3735 295.761 84.6331C295.761 83.8122 295.995 83.104 296.461 82.5084C296.928 81.8968 297.58 81.43 298.417 81.1081C299.27 80.7701 300.276 80.6011 301.435 80.6011C302.304 80.6011 303.181 80.6976 304.067 80.8908C304.952 81.0839 305.684 81.3576 306.264 81.7117L305.105 84.0053C304.493 83.6351 303.874 83.3856 303.246 83.2569C302.634 83.112 302.023 83.0396 301.411 83.0396C300.493 83.0396 299.809 83.1764 299.359 83.45C298.924 83.7237 298.707 84.0697 298.707 84.4882C298.707 84.8745 298.852 85.1642 299.141 85.3574C299.431 85.5505 299.809 85.7034 300.276 85.8161C300.743 85.9288 301.258 86.0253 301.821 86.1058C302.401 86.1702 302.972 86.2748 303.536 86.4197C304.099 86.5646 304.614 86.7658 305.081 87.0233C305.564 87.2647 305.95 87.6108 306.24 88.0615C306.529 88.5121 306.674 89.0996 306.674 89.8239C306.674 90.6287 306.433 91.3289 305.95 91.9244C305.483 92.52 304.815 92.9868 303.946 93.3248C303.077 93.6467 302.039 93.8077 300.831 93.8077Z" fill="#C88B4E"/>
<path d="M285.15 93.8077C283.83 93.8077 282.655 93.526 281.625 92.9626C280.595 92.3832 279.782 91.5945 279.186 90.5965C278.591 89.5986 278.293 88.4639 278.293 87.1923C278.293 85.9046 278.591 84.7699 279.186 83.788C279.782 82.7901 280.595 82.0095 281.625 81.4461C282.655 80.8828 283.83 80.6011 285.15 80.6011C286.486 80.6011 287.669 80.8828 288.699 81.4461C289.745 82.0095 290.558 82.7821 291.137 83.7639C291.733 84.7457 292.031 85.8885 292.031 87.1923C292.031 88.4639 291.733 89.5986 291.137 90.5965C290.558 91.5945 289.745 92.3832 288.699 92.9626C287.669 93.526 286.486 93.8077 285.15 93.8077ZM285.15 91.2243C285.89 91.2243 286.55 91.0633 287.13 90.7414C287.709 90.4195 288.16 89.9527 288.482 89.3411C288.82 88.7294 288.989 88.0132 288.989 87.1923C288.989 86.3553 288.82 85.639 288.482 85.0435C288.16 84.4319 287.709 83.9651 287.13 83.6432C286.55 83.3213 285.898 83.1603 285.174 83.1603C284.434 83.1603 283.774 83.3213 283.194 83.6432C282.631 83.9651 282.18 84.4319 281.842 85.0435C281.504 85.639 281.335 86.3553 281.335 87.1923C281.335 88.0132 281.504 88.7294 281.842 89.3411C282.18 89.9527 282.631 90.4195 283.194 90.7414C283.774 91.0633 284.425 91.2243 285.15 91.2243Z" fill="#C88B4E"/>
<path d="M268.187 80.6011C269.217 80.6011 270.134 80.8023 270.939 81.2047C271.76 81.6071 272.404 82.2267 272.87 83.0637C273.337 83.8846 273.571 84.9469 273.571 86.2507V93.6386H270.553V86.637C270.553 85.4942 270.279 84.6411 269.732 84.0778C269.201 83.5144 268.452 83.2327 267.486 83.2327C266.778 83.2327 266.15 83.3776 265.603 83.6673C265.056 83.957 264.629 84.3916 264.324 84.9711C264.034 85.5344 263.889 86.2507 263.889 87.1199V93.6386H260.871V80.7459H263.744V84.2226L263.237 83.1603C263.688 82.3394 264.34 81.7117 265.193 81.2771C266.062 80.8264 267.06 80.6011 268.187 80.6011Z" fill="#C88B4E"/>
<path d="M245.028 93.6388V91.7315L252.972 82.1223L253.527 83.1605H245.173V80.7461H255.941V82.6534L247.998 92.2626L247.394 91.2244H256.159V93.6388H245.028Z" fill="#C88B4E"/>
<path d="M237.18 93.6389V80.7462H240.198V93.6389H237.18ZM238.701 78.6215C238.138 78.6215 237.671 78.4445 237.301 78.0904C236.947 77.7363 236.77 77.3097 236.77 76.8108C236.77 76.2957 236.947 75.8692 237.301 75.5312C237.671 75.1771 238.138 75 238.701 75C239.264 75 239.723 75.169 240.077 75.507C240.447 75.8289 240.633 76.2394 240.633 76.7383C240.633 77.2695 240.455 77.7202 240.101 78.0904C239.747 78.4445 239.28 78.6215 238.701 78.6215Z" fill="#C88B4E"/>
<path d="M227.252 93.8077C225.9 93.8077 224.693 93.526 223.63 92.9626C222.584 92.3832 221.763 91.5945 221.168 90.5965C220.572 89.5986 220.274 88.4639 220.274 87.1923C220.274 85.9046 220.572 84.7699 221.168 83.788C221.763 82.7901 222.584 82.0095 223.63 81.4461C224.693 80.8828 225.9 80.6011 227.252 80.6011C228.507 80.6011 229.61 80.8586 230.56 81.3737C231.525 81.8726 232.258 82.613 232.757 83.5949L230.439 84.9469C230.053 84.3353 229.578 83.8846 229.014 83.5949C228.467 83.3052 227.872 83.1603 227.228 83.1603C226.487 83.1603 225.819 83.3213 225.224 83.6432C224.628 83.9651 224.162 84.4319 223.824 85.0435C223.486 85.639 223.317 86.3553 223.317 87.1923C223.317 88.0293 223.486 88.7536 223.824 89.3652C224.162 89.9608 224.628 90.4195 225.224 90.7414C225.819 91.0633 226.487 91.2243 227.228 91.2243C227.872 91.2243 228.467 91.0794 229.014 90.7897C229.578 90.5 230.053 90.0493 230.439 89.4377L232.757 90.7897C232.258 91.7554 231.525 92.5039 230.56 93.0351C229.61 93.5501 228.507 93.8077 227.252 93.8077Z" fill="#C88B4E"/>
<path d="M210.448 93.8077C209.015 93.8077 207.76 93.526 206.681 92.9626C205.619 92.3832 204.79 91.5945 204.194 90.5965C203.615 89.5986 203.325 88.4639 203.325 87.1923C203.325 85.9046 203.607 84.7699 204.17 83.788C204.75 82.7901 205.538 82.0095 206.536 81.4461C207.55 80.8828 208.701 80.6011 209.989 80.6011C211.244 80.6011 212.363 80.8747 213.345 81.422C214.327 81.9692 215.099 82.7418 215.663 83.7397C216.226 84.7377 216.508 85.9127 216.508 87.2647C216.508 87.3935 216.5 87.5384 216.483 87.6993C216.483 87.8603 216.475 88.0132 216.459 88.158H205.715V86.1541H214.866L213.683 86.7818C213.699 86.0414 213.546 85.3896 213.224 84.8262C212.902 84.2629 212.46 83.8202 211.896 83.4983C211.349 83.1764 210.713 83.0154 209.989 83.0154C209.248 83.0154 208.597 83.1764 208.033 83.4983C207.486 83.8202 207.051 84.2709 206.729 84.8504C206.424 85.4137 206.271 86.0817 206.271 86.8543V87.3372C206.271 88.1097 206.448 88.7938 206.802 89.3894C207.156 89.9849 207.655 90.4436 208.299 90.7656C208.943 91.0875 209.683 91.2484 210.52 91.2484C211.244 91.2484 211.896 91.1358 212.476 90.9104C213.055 90.6851 213.57 90.331 214.021 89.8481L215.638 91.7072C215.059 92.3832 214.327 92.9063 213.441 93.2765C212.572 93.6306 211.574 93.8077 210.448 93.8077Z" fill="#C88B4E"/>
<path d="M192.552 93.6386V80.7459H195.425V84.2951L195.087 83.2569C195.473 82.3877 196.077 81.7278 196.898 81.2771C197.735 80.8264 198.773 80.6011 200.012 80.6011V83.4742C199.883 83.442 199.763 83.4259 199.65 83.4259C199.537 83.4098 199.425 83.4017 199.312 83.4017C198.169 83.4017 197.26 83.7397 196.584 84.4158C195.908 85.0757 195.57 86.0656 195.57 87.3854V93.6386H192.552Z" fill="#C88B4E"/>
<path d="M173.746 93.6388V76.7383H180.699C182.196 76.7383 183.476 76.9797 184.538 77.4626C185.617 77.9455 186.446 78.6376 187.025 79.5389C187.605 80.4403 187.894 81.5107 187.894 82.7501C187.894 83.9894 187.605 85.0598 187.025 85.9612C186.446 86.8625 185.617 87.5546 184.538 88.0375C183.476 88.5204 182.196 88.7618 180.699 88.7618H175.484L176.885 87.2891V93.6388H173.746ZM176.885 87.6271L175.484 86.106H180.555C181.939 86.106 182.977 85.8163 183.669 85.2368C184.377 84.6413 184.731 83.8124 184.731 82.7501C184.731 81.6716 184.377 80.8427 183.669 80.2633C182.977 79.6838 181.939 79.3941 180.555 79.3941H175.484L176.885 77.8489V87.6271Z" fill="#C88B4E"/>
<path d="M157.992 93.8077C157.445 93.8077 156.978 93.6225 156.592 93.2523C156.206 92.866 156.013 92.3832 156.013 91.8037C156.013 91.1921 156.206 90.7092 156.592 90.3551C156.978 89.9849 157.445 89.7998 157.992 89.7998C158.54 89.7998 159.007 89.9849 159.393 90.3551C159.779 90.7092 159.972 91.1921 159.972 91.8037C159.972 92.3832 159.779 92.866 159.393 93.2523C159.007 93.6225 158.54 93.8077 157.992 93.8077Z" fill="#C88B4E"/>
<path d="M148.372 93.6386V91.0311L148.203 90.4758V85.9127C148.203 85.0274 147.938 84.3433 147.407 83.8605C146.876 83.3615 146.071 83.112 144.992 83.112C144.268 83.112 143.552 83.2247 142.844 83.45C142.151 83.6754 141.564 83.9892 141.081 84.3916L139.898 82.1946C140.59 81.6634 141.411 81.269 142.361 81.0115C143.326 80.7379 144.324 80.6011 145.354 80.6011C147.222 80.6011 148.662 81.0518 149.676 81.9531C150.706 82.8384 151.221 84.2146 151.221 86.0817V93.6386H148.372ZM144.316 93.8077C143.351 93.8077 142.506 93.6467 141.781 93.3248C141.057 92.9868 140.494 92.528 140.091 91.9486C139.705 91.353 139.512 90.6851 139.512 89.9447C139.512 89.2204 139.681 88.5685 140.019 87.989C140.373 87.4096 140.944 86.9509 141.733 86.6128C142.522 86.2748 143.568 86.1058 144.872 86.1058H148.614V88.1097H145.089C144.059 88.1097 143.367 88.2788 143.013 88.6168C142.658 88.9387 142.481 89.3411 142.481 89.8239C142.481 90.3712 142.699 90.8058 143.133 91.1277C143.568 91.4496 144.171 91.6106 144.944 91.6106C145.684 91.6106 146.344 91.4416 146.924 91.1036C147.519 90.7656 147.946 90.2666 148.203 89.6067L148.71 91.4174C148.421 92.1739 147.898 92.7614 147.141 93.1799C146.401 93.5984 145.459 93.8077 144.316 93.8077Z" fill="#C88B4E"/>
<path d="M133.119 93.8081C131.702 93.8081 130.608 93.446 129.835 92.7217C129.063 91.9813 128.676 90.8948 128.676 89.4623V77.8975H131.694V89.3898C131.694 90.0015 131.847 90.4763 132.153 90.8143C132.475 91.1523 132.918 91.3213 133.481 91.3213C134.157 91.3213 134.72 91.1443 135.171 90.7902L136.016 92.939C135.662 93.2287 135.227 93.446 134.712 93.5908C134.197 93.7357 133.666 93.8081 133.119 93.8081ZM126.552 83.2574V80.843H135.147V83.2574H126.552Z" fill="#C88B4E"/>
<path d="M119.355 93.6389V80.7462H122.373V93.6389H119.355ZM120.876 78.6215C120.312 78.6215 119.846 78.4445 119.475 78.0904C119.121 77.7363 118.944 77.3097 118.944 76.8108C118.944 76.2957 119.121 75.8692 119.475 75.5312C119.846 75.1771 120.312 75 120.876 75C121.439 75 121.898 75.169 122.252 75.507C122.622 75.8289 122.807 76.2394 122.807 76.7383C122.807 77.2695 122.63 77.7202 122.276 78.0904C121.922 78.4445 121.455 78.6215 120.876 78.6215Z" fill="#C88B4E"/>
<path d="M110.444 93.6387V75.7241H113.462V93.6387H110.444Z" fill="#C88B4E"/>
<path d="M101.79 93.6386V91.0311L101.621 90.4758V85.9127C101.621 85.0274 101.356 84.3433 100.825 83.8605C100.293 83.3615 99.4887 83.112 98.4103 83.112C97.686 83.112 96.9697 83.2247 96.2615 83.45C95.5694 83.6754 94.9819 83.9892 94.499 84.3916L93.316 82.1946C94.0081 81.6634 94.829 81.269 95.7786 81.0115C96.7444 80.7379 97.7423 80.6011 98.7725 80.6011C100.64 80.6011 102.08 81.0518 103.094 81.9531C104.124 82.8384 104.639 84.2146 104.639 86.0817V93.6386H101.79ZM97.7343 93.8077C96.7685 93.8077 95.9235 93.6467 95.1992 93.3248C94.4749 92.9868 93.9115 92.528 93.5091 91.9486C93.1228 91.353 92.9297 90.6851 92.9297 89.9447C92.9297 89.2204 93.0987 88.5685 93.4367 87.989C93.7908 87.4096 94.3622 86.9509 95.1509 86.6128C95.9396 86.2748 96.9858 86.1058 98.2896 86.1058H102.032V88.1097H98.5069C97.4767 88.1097 96.7846 88.2788 96.4305 88.6168C96.0764 88.9387 95.8994 89.3411 95.8994 89.8239C95.8994 90.3712 96.1166 90.8058 96.5512 91.1277C96.9858 91.4496 97.5894 91.6106 98.362 91.6106C99.1024 91.6106 99.7623 91.4416 100.342 91.1036C100.937 90.7656 101.364 90.2666 101.621 89.6067L102.128 91.4174C101.839 92.1739 101.316 92.7614 100.559 93.1799C99.8187 93.5984 98.8771 93.8077 97.7343 93.8077Z" fill="#C88B4E"/>
<path d="M81.7867 93.6388L76.2578 80.7461H79.3965L84.1528 92.1178H82.6076L87.5329 80.7461H90.4301L84.9012 93.6388H81.7867Z" fill="#C88B4E"/>
<path d="M62.8007 89.6551L62.6317 85.937L71.4924 76.7383H75.0173L67.6535 84.5608L65.9152 86.4682L62.8007 89.6551ZM60 93.6388V76.7383H63.1387V93.6388H60ZM71.7821 93.6388L65.3116 85.937L67.388 83.6434L75.4519 93.6388H71.7821Z" fill="#C88B4E"/>
</svg>
