<svg width="140" height="70" viewBox="0 0 140 70" fill="none" xmlns="http://www.w3.org/2000/svg">
<path d="M129.778 69.8545V63.2031L130.621 65.4822L123.606 53.5747H127.523L132.898 62.7147H130.643L136.041 53.5747H139.662L132.647 65.4822L133.467 63.2031V69.8545H129.778Z" fill="#C88B4E"/>
<path d="M107.471 69.8545V53.5747H114.371C115.798 53.5747 117.028 53.815 118.06 54.2957C119.093 54.7608 119.89 55.4353 120.451 56.319C121.013 57.2028 121.294 58.2571 121.294 59.482C121.294 60.6913 121.013 61.7379 120.451 62.6216C119.89 63.4899 119.093 64.1566 118.06 64.6217C117.028 65.0869 115.798 65.3194 114.371 65.3194H109.52L111.16 63.6682V69.8545H107.471ZM117.605 69.8545L113.619 63.9473H117.559L121.59 69.8545H117.605ZM111.16 64.0868L109.52 62.3193H114.166C115.305 62.3193 116.155 62.0712 116.717 61.5751C117.278 61.0634 117.559 60.3657 117.559 59.482C117.559 58.5827 117.278 57.885 116.717 57.3888C116.155 56.8927 115.305 56.6446 114.166 56.6446H109.52L111.16 54.8538V64.0868Z" fill="#C88B4E"/>
<path d="M93.7633 60.133H101.438V63.0634H93.7633V60.133ZM94.0366 66.831H102.713V69.8544H90.3701V53.5745H102.417V56.5979H94.0366V66.831ZM94.3327 52.2489L97.407 48.8999H101.233L97.111 52.2489H94.3327Z" fill="#C88B4E"/>
<path d="M81.0762 69.8545V53.5747H84.7654V69.8545H81.0762Z" fill="#C88B4E"/>
<path d="M62.5078 69.8545V53.5747H69.4081C70.8352 53.5747 72.065 53.815 73.0973 54.2957C74.1297 54.7608 74.9268 55.4353 75.4885 56.319C76.0503 57.2028 76.3311 58.2571 76.3311 59.482C76.3311 60.6913 76.0503 61.7379 75.4885 62.6216C74.9268 63.4899 74.1297 64.1566 73.0973 64.6217C72.065 65.0869 70.8352 65.3194 69.4081 65.3194H64.5574L66.1971 63.6682V69.8545H62.5078ZM72.6419 69.8545L68.6566 63.9473H72.5963L76.6272 69.8545H72.6419ZM66.1971 64.0868L64.5574 62.3193H69.2031C70.3418 62.3193 71.192 62.0712 71.7537 61.5751C72.3155 61.0634 72.5963 60.3657 72.5963 59.482C72.5963 58.5827 72.3155 57.885 71.7537 57.3888C71.192 56.8927 70.3418 56.6446 69.2031 56.6446H64.5574L66.1971 54.8538V64.0868Z" fill="#C88B4E"/>
<path d="M48.8004 60.1332H56.475V63.0635H48.8004V60.1332ZM49.0737 66.8311H57.7503V69.8545H45.4072V53.5747H57.4542V56.5981H49.0737V66.8311Z" fill="#C88B4E"/>
<path d="M32.8092 69.8545V56.6446H27.708V53.5747H41.5996V56.6446H36.4984V69.8545H32.8092Z" fill="#C88B4E"/>
<path d="M9.29395 69.8545V53.5747H12.3455L21.7509 65.2962H20.2706V53.5747H23.9143V69.8545H20.8855L11.4574 58.1331H12.9377V69.8545H9.29395Z" fill="#C88B4E"/>
<path d="M0 69.8545V53.5747H3.68925V69.8545H0Z" fill="#C88B4E"/>
<path d="M121.312 44.1679C114.439 44.1679 107.567 42.2871 103.588 39.4963L107.506 30.6991C111.244 33.2473 116.549 34.8854 121.432 34.8854C126.436 34.8854 128.365 33.49 128.365 31.3665C128.365 24.5714 104.372 29.5464 104.372 13.7115C104.372 6.18836 110.521 0 123 0C128.426 0 134.092 1.27408 138.192 3.76155L134.635 12.4981C130.596 10.3139 126.617 9.28254 122.879 9.28254C117.876 9.28254 116.007 10.9813 116.007 13.1048C116.007 19.7178 140 14.8642 140 30.4564C140 37.8582 133.851 44.1679 121.312 44.1679Z" fill="white"/>
<path d="M53.7139 10.1923L53.7742 0.849121H72.8847C84.3993 0.849121 91.6335 6.85547 91.6335 16.502C91.6335 26.1486 84.3993 32.1549 72.8847 32.1549H65.5299V43.3183H53.7139V22.8117H72.2216C77.2856 22.8117 79.7573 20.4456 79.7573 16.502C79.7573 12.5585 77.2856 10.1923 72.2216 10.1923H53.7139Z" fill="white"/>
<path d="M23.9337 19.6565L42.0793 43.3183H28.3943L16.1566 27.7863L11.6352 32.701V43.3183H0V31.2395L28.1873 0.849121H41.1147L23.9337 19.6565ZM11.6352 5.35791L0 17.9018V0.849121H11.6352V5.35791Z" fill="white"/>
</svg>
