<svg width="570" height="99" viewBox="0 0 570 99" fill="none" xmlns="http://www.w3.org/2000/svg">
<path d="M553.935 39.42V54.48H542.246V39.3L526.182 12.48H538.59L548.6 29.28L558.671 12.48H570L553.935 39.42Z" fill="#322624"/>
<path d="M508.889 41.22L518 54.48H505.472L497.8 43.26H491.206V54.48H479.457V34.2H497.86C502.895 34.2 505.352 31.86 505.352 27.96C505.352 24.06 502.895 21.72 497.86 21.72H479.457V12.48H498.519C509.968 12.48 517.161 18.42 517.161 27.96C517.161 34.2 514.164 38.76 508.889 41.22Z" fill="#322624"/>
<path d="M430.792 37.56V28.8H463.581V37.56H430.792ZM430.792 21.6V12.48H463.581V21.6H430.792ZM430.792 45.36V54.48H463.581V45.36H430.792ZM449.434 9.06H441.402L449.374 0H460.704L449.434 9.06Z" fill="#322624"/>
<path d="M413.894 54.48H402.146V12.48H413.894V54.48Z" fill="#322624"/>
<path d="M378.815 41.22L387.926 54.48H375.398L367.725 43.26H361.132V54.48H349.383V34.2H367.785C372.821 34.2 375.278 31.86 375.278 27.96C375.278 24.06 372.821 21.72 367.785 21.72H349.383V12.48H368.445C379.894 12.48 387.087 18.42 387.087 27.96C387.087 34.2 384.09 38.76 378.815 41.22Z" fill="#322624"/>
<path d="M300.716 37.56V28.8H333.505V37.56H300.716ZM300.716 21.6V12.48H333.505V21.6H300.716ZM300.716 45.36V54.48H333.505V45.36H300.716Z" fill="#322624"/>
<path d="M274.954 54.48H263.205V21.78H250.317V12.48H287.842V21.78H274.954V54.48Z" fill="#322624"/>
<path d="M180.749 54.48H169V12.48H180.749V54.48Z" fill="#322624"/>
<path d="M209.156 45.9922V54.4805H197.647V32.04L209.156 45.9922ZM237.449 49.0361V54.4805H227.817L197.647 17.9053V12.4795H207.295L237.449 49.0361ZM237.449 34.9004L226 21.0205V12.4795H237.449V34.9004Z" fill="#322624"/>
<path d="M120.656 55.3201C113.82 55.3201 106.985 53.4601 103.027 50.7001L106.925 42.0001C110.642 44.5201 115.919 46.1401 120.775 46.1401C125.752 46.1401 127.671 44.7601 127.671 42.6601C127.671 35.9401 103.807 40.8601 103.807 25.2001C103.807 17.7601 109.923 11.6401 122.334 11.6401C127.731 11.6401 133.367 12.9001 137.444 15.3601L133.907 24.0001C129.889 21.8401 125.932 20.8201 122.214 20.8201C117.238 20.8201 115.379 22.5001 115.379 24.6001C115.379 31.1401 139.243 26.3401 139.243 41.7601C139.243 49.0801 133.127 55.3201 120.656 55.3201Z" fill="#322624"/>
<path d="M53.4229 21.72L53.4828 12.48H72.4901C83.9424 12.48 91.1376 18.42 91.1376 27.96C91.1376 37.5 83.9424 43.44 72.4901 43.44H65.175V54.48H53.4229V34.2H71.8305C76.8672 34.2 79.3255 31.86 79.3255 27.96C79.3255 24.06 76.8672 21.72 71.8305 21.72H53.4229Z" fill="#322624"/>
<path d="M23.8044 31.0796L41.8519 54.48H28.2409L16.0693 39.1196L11.5723 43.98V54.48H0V42.5347L28.0349 12.48H40.8926L23.8044 31.0796ZM11.5723 16.939L0 29.3442V12.48H11.5723V16.939Z" fill="#322624"/>
<path d="M512.024 92.8064C511.476 92.8064 511.01 92.6213 510.623 92.2511C510.237 91.8648 510.044 91.382 510.044 90.8026C510.044 90.191 510.237 89.7082 510.623 89.3541C511.01 88.9839 511.476 88.7988 512.024 88.7988C512.571 88.7988 513.038 88.9839 513.424 89.3541C513.81 89.7082 514.003 90.191 514.003 90.8026C514.003 91.382 513.81 91.8648 513.424 92.2511C513.038 92.6213 512.571 92.8064 512.024 92.8064Z" fill="#C88B4E"/>
<path d="M503.512 92.8064C502.096 92.8064 501.001 92.4443 500.229 91.7201C499.456 90.9797 499.07 89.8933 499.07 88.4609V76.897H502.088V88.3885C502.088 89.0001 502.24 89.4749 502.546 89.8129C502.868 90.1508 503.311 90.3198 503.874 90.3198C504.55 90.3198 505.113 90.1428 505.564 89.7887L506.409 91.9373C506.055 92.227 505.62 92.4443 505.105 92.5892C504.59 92.734 504.059 92.8064 503.512 92.8064ZM496.945 82.2565V79.8423H505.54V82.2565H496.945Z" fill="#C88B4E"/>
<path d="M488.287 92.8062C487.209 92.8062 486.171 92.6694 485.173 92.3958C484.191 92.1061 483.41 91.76 482.831 91.3577L483.99 89.0642C484.569 89.4344 485.261 89.7402 486.066 89.9816C486.871 90.223 487.676 90.3437 488.48 90.3437C489.43 90.3437 490.114 90.2149 490.532 89.9574C490.967 89.6999 491.184 89.3539 491.184 88.9193C491.184 88.5653 491.039 88.2997 490.75 88.1227C490.46 87.9295 490.082 87.7847 489.615 87.6881C489.148 87.5915 488.625 87.503 488.046 87.4225C487.482 87.3421 486.911 87.2375 486.332 87.1087C485.768 86.9638 485.253 86.7627 484.787 86.5051C484.32 86.2315 483.942 85.8694 483.652 85.4188C483.362 84.9681 483.217 84.3726 483.217 83.6323C483.217 82.8114 483.451 82.1033 483.917 81.5078C484.384 80.8962 485.036 80.4295 485.873 80.1076C486.726 79.7696 487.732 79.6006 488.891 79.6006C489.76 79.6006 490.637 79.6972 491.522 79.8903C492.407 80.0834 493.14 80.357 493.719 80.7111L492.56 83.0046C491.949 82.6344 491.329 82.3849 490.701 82.2562C490.09 82.1113 489.478 82.0389 488.867 82.0389C487.949 82.0389 487.265 82.1757 486.814 82.4493C486.38 82.7229 486.163 83.069 486.163 83.4874C486.163 83.8737 486.307 84.1634 486.597 84.3565C486.887 84.5497 487.265 84.7026 487.732 84.8152C488.199 84.9279 488.714 85.0245 489.277 85.1049C489.856 85.1693 490.428 85.2739 490.991 85.4188C491.554 85.5636 492.069 85.7648 492.536 86.0223C493.019 86.2637 493.405 86.6098 493.695 87.0604C493.985 87.5111 494.129 88.0985 494.129 88.8228C494.129 89.6275 493.888 90.3276 493.405 90.9231C492.938 91.5186 492.271 91.9853 491.401 92.3233C490.532 92.6452 489.494 92.8062 488.287 92.8062Z" fill="#C88B4E"/>
<path d="M472.606 92.8062C471.287 92.8062 470.112 92.5245 469.082 91.9612C468.052 91.3818 467.239 90.5932 466.643 89.5953C466.048 88.5974 465.75 87.4628 465.75 86.1913C465.75 84.9037 466.048 83.7691 466.643 82.7873C467.239 81.7894 468.052 81.0089 469.082 80.4456C470.112 79.8822 471.287 79.6006 472.606 79.6006C473.942 79.6006 475.125 79.8822 476.155 80.4456C477.201 81.0089 478.014 81.7814 478.593 82.7632C479.189 83.7449 479.487 84.8876 479.487 86.1913C479.487 87.4628 479.189 88.5974 478.593 89.5953C478.014 90.5932 477.201 91.3818 476.155 91.9612C475.125 92.5245 473.942 92.8062 472.606 92.8062ZM472.606 90.223C473.347 90.223 474.006 90.062 474.586 89.7402C475.165 89.4183 475.616 88.9515 475.938 88.3399C476.276 87.7283 476.445 87.0121 476.445 86.1913C476.445 85.3544 476.276 84.6382 475.938 84.0427C475.616 83.4311 475.165 82.9643 474.586 82.6425C474.006 82.3206 473.355 82.1596 472.63 82.1596C471.89 82.1596 471.23 82.3206 470.651 82.6425C470.087 82.9643 469.637 83.4311 469.299 84.0427C468.961 84.6382 468.792 85.3544 468.792 86.1913C468.792 87.0121 468.961 87.7283 469.299 88.3399C469.637 88.9515 470.087 89.4183 470.651 89.7402C471.23 90.062 471.882 90.223 472.606 90.223Z" fill="#C88B4E"/>
<path d="M455.645 79.6006C456.675 79.6006 457.593 79.8018 458.397 80.2041C459.218 80.6065 459.862 81.2261 460.329 82.0631C460.795 82.8839 461.029 83.9461 461.029 85.2498V92.6372H458.011V85.636C458.011 84.4933 457.737 83.6403 457.19 83.077C456.659 82.5137 455.911 82.232 454.945 82.232C454.237 82.232 453.609 82.3769 453.062 82.6666C452.515 82.9563 452.088 83.3909 451.782 83.9703C451.493 84.5336 451.348 85.2498 451.348 86.1189V92.6372H448.33V79.7454H451.203V83.2219L450.696 82.1596C451.147 81.3388 451.798 80.7111 452.651 80.2766C453.521 79.8259 454.518 79.6006 455.645 79.6006Z" fill="#C88B4E"/>
<path d="M437.44 92.8062C436.008 92.8062 434.752 92.5245 433.674 91.9612C432.612 91.3818 431.783 90.5932 431.187 89.5953C430.608 88.5974 430.318 87.4628 430.318 86.1913C430.318 84.9037 430.6 83.7691 431.163 82.7873C431.743 81.7894 432.531 81.0089 433.529 80.4456C434.543 79.8822 435.694 79.6006 436.981 79.6006C438.237 79.6006 439.355 79.8742 440.337 80.4214C441.319 80.9686 442.092 81.7412 442.655 82.739C443.218 83.7369 443.5 84.9118 443.5 86.2637C443.5 86.3925 443.492 86.5373 443.476 86.6983C443.476 86.8592 443.468 87.0121 443.451 87.157H432.708V85.1532H441.858L440.675 85.7809C440.691 85.0405 440.538 84.3887 440.217 83.8254C439.895 83.2621 439.452 82.8195 438.889 82.4976C438.341 82.1757 437.706 82.0148 436.981 82.0148C436.241 82.0148 435.589 82.1757 435.026 82.4976C434.479 82.8195 434.044 83.2701 433.722 83.8495C433.417 84.4129 433.264 85.0808 433.264 85.8533V86.3362C433.264 87.1087 433.441 87.7927 433.795 88.3882C434.149 88.9837 434.648 89.4424 435.292 89.7643C435.935 90.0862 436.676 90.2471 437.513 90.2471C438.237 90.2471 438.889 90.1345 439.468 89.9091C440.047 89.6838 440.563 89.3297 441.013 88.8469L442.631 90.7058C442.051 91.3818 441.319 91.9049 440.434 92.275C439.565 92.6291 438.567 92.8062 437.44 92.8062Z" fill="#C88B4E"/>
<path d="M421.002 97.49C420.438 97.49 419.907 97.4256 419.408 97.2969C418.893 97.1842 418.459 96.9991 418.104 96.7416L418.974 94.4964C419.44 94.8344 420.028 95.0034 420.736 95.0034C421.283 95.0034 421.71 94.8264 422.015 94.4723C422.321 94.1343 422.474 93.6273 422.474 92.9513V79.7458H425.492V92.8789C425.492 94.2952 425.098 95.4138 424.309 96.2346C423.536 97.0715 422.434 97.49 421.002 97.49ZM423.971 77.6213C423.408 77.6213 422.941 77.4442 422.571 77.0902C422.217 76.7361 422.04 76.3096 422.04 75.8106C422.04 75.2956 422.217 74.8691 422.571 74.5311C422.941 74.177 423.408 74 423.971 74C424.534 74 424.993 74.169 425.347 74.507C425.717 74.8289 425.902 75.2393 425.902 75.7382C425.902 76.2693 425.725 76.72 425.371 77.0902C425.017 77.4442 424.55 77.6213 423.971 77.6213Z" fill="#C88B4E"/>
<path d="M410.632 92.8062C409.312 92.8062 408.137 92.5245 407.107 91.9612C406.077 91.3818 405.264 90.5932 404.669 89.5953C404.073 88.5974 403.775 87.4628 403.775 86.1913C403.775 84.9037 404.073 83.7691 404.669 82.7873C405.264 81.7894 406.077 81.0089 407.107 80.4456C408.137 79.8822 409.312 79.6006 410.632 79.6006C411.967 79.6006 413.15 79.8822 414.181 80.4456C415.227 81.0089 416.039 81.7814 416.619 82.7632C417.214 83.7449 417.512 84.8876 417.512 86.1913C417.512 87.4628 417.214 88.5974 416.619 89.5953C416.039 90.5932 415.227 91.3818 414.181 91.9612C413.15 92.5245 411.967 92.8062 410.632 92.8062ZM410.632 90.223C411.372 90.223 412.032 90.062 412.611 89.7402C413.191 89.4183 413.641 88.9515 413.963 88.3399C414.301 87.7283 414.47 87.0121 414.47 86.1913C414.47 85.3544 414.301 84.6382 413.963 84.0427C413.641 83.4311 413.191 82.9643 412.611 82.6425C412.032 82.3206 411.38 82.1596 410.656 82.1596C409.915 82.1596 409.256 82.3206 408.676 82.6425C408.113 82.9643 407.662 83.4311 407.324 84.0427C406.986 84.6382 406.817 85.3544 406.817 86.1913C406.817 87.0121 406.986 87.7283 407.324 88.3399C407.662 88.9515 408.113 89.4183 408.676 89.7402C409.256 90.062 409.907 90.223 410.632 90.223Z" fill="#C88B4E"/>
<path d="M390.54 89.7645L390.612 85.9742L397.348 79.7456H400.969L395.247 85.4914L393.654 86.8192L390.54 89.7645ZM388.077 92.6374V74.7241H391.095V92.6374H388.077ZM397.806 92.6374L393.099 86.8192L395.006 84.405L401.476 92.6374H397.806Z" fill="#C88B4E"/>
<path d="M376.38 92.8062C375.06 92.8062 373.885 92.5245 372.855 91.9612C371.825 91.3818 371.012 90.5932 370.417 89.5953C369.821 88.5974 369.523 87.4628 369.523 86.1913C369.523 84.9037 369.821 83.7691 370.417 82.7873C371.012 81.7894 371.825 81.0089 372.855 80.4456C373.885 79.8822 375.06 79.6006 376.38 79.6006C377.716 79.6006 378.899 79.8822 379.929 80.4456C380.975 81.0089 381.787 81.7814 382.367 82.7632C382.962 83.7449 383.26 84.8876 383.26 86.1913C383.26 87.4628 382.962 88.5974 382.367 89.5953C381.787 90.5932 380.975 91.3818 379.929 91.9612C378.899 92.5245 377.716 92.8062 376.38 92.8062ZM376.38 90.223C377.12 90.223 377.78 90.062 378.359 89.7402C378.939 89.4183 379.389 88.9515 379.711 88.3399C380.049 87.7283 380.218 87.0121 380.218 86.1913C380.218 85.3544 380.049 84.6382 379.711 84.0427C379.389 83.4311 378.939 82.9643 378.359 82.6425C377.78 82.3206 377.128 82.1596 376.404 82.1596C375.664 82.1596 375.004 82.3206 374.424 82.6425C373.861 82.9643 373.41 83.4311 373.072 84.0427C372.734 84.6382 372.565 85.3544 372.565 86.1913C372.565 87.0121 372.734 87.7283 373.072 88.3399C373.41 88.9515 373.861 89.4183 374.424 89.7402C375.004 90.062 375.655 90.223 376.38 90.223Z" fill="#C88B4E"/>
<path d="M359.25 92.8062C358.203 92.8062 357.246 92.5647 356.377 92.0819C355.524 91.5991 354.84 90.8748 354.325 89.9091C353.826 88.9274 353.576 87.6881 353.576 86.1913C353.576 84.6784 353.818 83.4391 354.3 82.4735C354.799 81.5078 355.475 80.7916 356.328 80.3248C357.181 79.842 358.155 79.6006 359.25 79.6006C360.521 79.6006 361.64 79.8742 362.605 80.4214C363.587 80.9686 364.36 81.7331 364.923 82.7149C365.502 83.6966 365.792 84.8555 365.792 86.1913C365.792 87.5272 365.502 88.694 364.923 89.6919C364.36 90.6736 363.587 91.4381 362.605 91.9853C361.64 92.5326 360.521 92.8062 359.25 92.8062ZM352.104 97.3207V79.7454H354.976V82.7873L354.88 86.2154L355.121 89.6436V97.3207H352.104ZM358.912 90.223C359.636 90.223 360.28 90.062 360.843 89.7402C361.422 89.4183 361.881 88.9515 362.219 88.3399C362.557 87.7283 362.726 87.0121 362.726 86.1913C362.726 85.3544 362.557 84.6382 362.219 84.0427C361.881 83.4311 361.422 82.9643 360.843 82.6425C360.28 82.3206 359.636 82.1596 358.912 82.1596C358.187 82.1596 357.535 82.3206 356.956 82.6425C356.377 82.9643 355.918 83.4311 355.58 84.0427C355.242 84.6382 355.073 85.3544 355.073 86.1913C355.073 87.0121 355.242 87.7283 355.58 88.3399C355.918 88.9515 356.377 89.4183 356.956 89.7402C357.535 90.062 358.187 90.223 358.912 90.223Z" fill="#C88B4E"/>
<path d="M340.519 92.8787C339.199 92.8787 337.935 92.6936 336.728 92.3234C335.521 91.9372 334.564 91.4463 333.855 90.8508L334.942 88.4125C335.618 88.9436 336.455 89.3862 337.453 89.7403C338.45 90.0943 339.472 90.2714 340.519 90.2714C341.404 90.2714 342.12 90.1748 342.667 89.9817C343.214 89.7885 343.617 89.531 343.874 89.2091C344.132 88.8712 344.261 88.4929 344.261 88.0745C344.261 87.5594 344.076 87.149 343.705 86.8432C343.335 86.5214 342.852 86.2719 342.257 86.0948C341.677 85.9017 341.026 85.7247 340.301 85.5637C339.593 85.4028 338.877 85.2177 338.153 85.0085C337.445 84.7831 336.793 84.5015 336.197 84.1635C335.618 83.8094 335.143 83.3427 334.773 82.7633C334.403 82.1839 334.218 81.4435 334.218 80.5422C334.218 79.6248 334.459 78.7879 334.942 78.0315C335.441 77.2589 336.189 76.6473 337.187 76.1967C338.201 75.73 339.481 75.4966 341.026 75.4966C342.04 75.4966 343.045 75.6253 344.043 75.8829C345.041 76.1404 345.91 76.5105 346.651 76.9934L345.661 79.4317C344.904 78.9811 344.124 78.6511 343.319 78.4419C342.514 78.2166 341.742 78.1039 341.001 78.1039C340.132 78.1039 339.424 78.2085 338.877 78.4177C338.346 78.627 337.952 78.9006 337.694 79.2386C337.453 79.5766 337.332 79.9628 337.332 80.3974C337.332 80.9124 337.509 81.3309 337.863 81.6527C338.233 81.9585 338.708 82.2 339.287 82.377C339.883 82.554 340.543 82.7311 341.267 82.9081C341.991 83.0691 342.707 83.2542 343.416 83.4634C344.14 83.6726 344.792 83.9462 345.371 84.2842C345.967 84.6222 346.441 85.0809 346.795 85.6603C347.166 86.2397 347.351 86.972 347.351 87.8572C347.351 88.7585 347.101 89.5954 346.602 90.3679C346.12 91.1244 345.371 91.736 344.357 92.2027C343.343 92.6534 342.064 92.8787 340.519 92.8787Z" fill="#C88B4E"/>
<path d="M319.526 92.8064C318.979 92.8064 318.513 92.6213 318.126 92.2511C317.74 91.8648 317.547 91.382 317.547 90.8026C317.547 90.191 317.74 89.7082 318.126 89.3541C318.513 88.9839 318.979 88.7988 319.526 88.7988C320.074 88.7988 320.54 88.9839 320.927 89.3541C321.313 89.7082 321.506 90.191 321.506 90.8026C321.506 91.382 321.313 91.8648 320.927 92.2511C320.54 92.6213 320.074 92.8064 319.526 92.8064Z" fill="#C88B4E"/>
<path d="M311.015 92.8064C309.599 92.8064 308.504 92.4443 307.732 91.7201C306.959 90.9797 306.573 89.8933 306.573 88.4609V76.897H309.59V88.3885C309.59 89.0001 309.743 89.4749 310.049 89.8129C310.371 90.1508 310.814 90.3198 311.377 90.3198C312.053 90.3198 312.616 90.1428 313.067 89.7887L313.912 91.9373C313.558 92.227 313.123 92.4443 312.608 92.5892C312.093 92.734 311.562 92.8064 311.015 92.8064ZM304.448 82.2565V79.8423H313.043V82.2565H304.448Z" fill="#C88B4E"/>
<path d="M295.79 92.8062C294.712 92.8062 293.674 92.6694 292.676 92.3958C291.694 92.1061 290.913 91.76 290.334 91.3577L291.493 89.0642C292.072 89.4344 292.764 89.7402 293.569 89.9816C294.374 90.223 295.178 90.3437 295.983 90.3437C296.933 90.3437 297.617 90.2149 298.035 89.9574C298.47 89.6999 298.687 89.3539 298.687 88.9193C298.687 88.5653 298.542 88.2997 298.253 88.1227C297.963 87.9295 297.585 87.7847 297.118 87.6881C296.651 87.5915 296.128 87.503 295.549 87.4225C294.985 87.3421 294.414 87.2375 293.835 87.1087C293.271 86.9638 292.756 86.7627 292.289 86.5051C291.823 86.2315 291.445 85.8694 291.155 85.4188C290.865 84.9681 290.72 84.3726 290.72 83.6323C290.72 82.8114 290.954 82.1033 291.42 81.5078C291.887 80.8962 292.539 80.4295 293.376 80.1076C294.229 79.7696 295.235 79.6006 296.394 79.6006C297.263 79.6006 298.14 79.6972 299.025 79.8903C299.91 80.0834 300.643 80.357 301.222 80.7111L300.063 83.0046C299.452 82.6344 298.832 82.3849 298.204 82.2562C297.593 82.1113 296.981 82.0389 296.369 82.0389C295.452 82.0389 294.768 82.1757 294.317 82.4493C293.883 82.7229 293.666 83.069 293.666 83.4874C293.666 83.8737 293.81 84.1634 294.1 84.3565C294.39 84.5497 294.768 84.7026 295.235 84.8152C295.702 84.9279 296.217 85.0245 296.78 85.1049C297.359 85.1693 297.931 85.2739 298.494 85.4188C299.057 85.5636 299.572 85.7648 300.039 86.0223C300.522 86.2637 300.908 86.6098 301.198 87.0604C301.488 87.5111 301.632 88.0985 301.632 88.8228C301.632 89.6275 301.391 90.3276 300.908 90.9231C300.441 91.5186 299.773 91.9853 298.904 92.3233C298.035 92.6452 296.997 92.8062 295.79 92.8062Z" fill="#C88B4E"/>
<path d="M280.109 92.8062C278.789 92.8062 277.615 92.5245 276.584 91.9612C275.554 91.3818 274.742 90.5932 274.146 89.5953C273.551 88.5974 273.253 87.4628 273.253 86.1913C273.253 84.9037 273.551 83.7691 274.146 82.7873C274.742 81.7894 275.554 81.0089 276.584 80.4456C277.615 79.8822 278.789 79.6006 280.109 79.6006C281.445 79.6006 282.628 79.8822 283.658 80.4456C284.704 81.0089 285.517 81.7814 286.096 82.7632C286.692 83.7449 286.99 84.8876 286.99 86.1913C286.99 87.4628 286.692 88.5974 286.096 89.5953C285.517 90.5932 284.704 91.3818 283.658 91.9612C282.628 92.5245 281.445 92.8062 280.109 92.8062ZM280.109 90.223C280.85 90.223 281.509 90.062 282.089 89.7402C282.668 89.4183 283.119 88.9515 283.441 88.3399C283.779 87.7283 283.948 87.0121 283.948 86.1913C283.948 85.3544 283.779 84.6382 283.441 84.0427C283.119 83.4311 282.668 82.9643 282.089 82.6425C281.509 82.3206 280.858 82.1596 280.133 82.1596C279.393 82.1596 278.733 82.3206 278.154 82.6425C277.59 82.9643 277.14 83.4311 276.802 84.0427C276.464 84.6382 276.295 85.3544 276.295 86.1913C276.295 87.0121 276.464 87.7283 276.802 88.3399C277.14 88.9515 277.59 89.4183 278.154 89.7402C278.733 90.062 279.385 90.223 280.109 90.223Z" fill="#C88B4E"/>
<path d="M263.148 79.6006C264.178 79.6006 265.095 79.8018 265.9 80.2041C266.721 80.6065 267.365 81.2261 267.831 82.0631C268.298 82.8839 268.532 83.9461 268.532 85.2498V92.6372H265.514V85.636C265.514 84.4933 265.24 83.6403 264.693 83.077C264.162 82.5137 263.414 82.232 262.448 82.232C261.74 82.232 261.112 82.3769 260.565 82.6666C260.018 82.9563 259.591 83.3909 259.285 83.9703C258.996 84.5336 258.851 85.2498 258.851 86.1189V92.6372H255.833V79.7454H258.706V83.2219L258.199 82.1596C258.65 81.3388 259.301 80.7111 260.154 80.2766C261.023 79.8259 262.021 79.6006 263.148 79.6006Z" fill="#C88B4E"/>
<path d="M239.99 92.6373V90.7301L247.933 81.1217L248.488 82.1598H240.135V79.7456H250.902V81.6528L242.96 91.2613L242.356 90.2232H251.12V92.6373H239.99Z" fill="#C88B4E"/>
<path d="M232.143 92.6375V79.7458H235.161V92.6375H232.143ZM233.664 77.6213C233.1 77.6213 232.634 77.4442 232.264 77.0902C231.909 76.7361 231.732 76.3096 231.732 75.8106C231.732 75.2956 231.909 74.8691 232.264 74.5311C232.634 74.177 233.1 74 233.664 74C234.227 74 234.686 74.169 235.04 74.507C235.41 74.8289 235.595 75.2393 235.595 75.7382C235.595 76.2693 235.418 76.72 235.064 77.0902C234.71 77.4442 234.243 77.6213 233.664 77.6213Z" fill="#C88B4E"/>
<path d="M222.216 92.8062C220.864 92.8062 219.657 92.5245 218.595 91.9612C217.549 91.3818 216.728 90.5932 216.133 89.5953C215.537 88.5974 215.239 87.4628 215.239 86.1913C215.239 84.9037 215.537 83.7691 216.133 82.7873C216.728 81.7894 217.549 81.0089 218.595 80.4456C219.657 79.8822 220.864 79.6006 222.216 79.6006C223.472 79.6006 224.574 79.8581 225.524 80.3731C226.489 80.8721 227.222 81.6124 227.721 82.5942L225.403 83.9461C225.017 83.3345 224.542 82.8839 223.979 82.5942C223.431 82.3045 222.836 82.1596 222.192 82.1596C221.452 82.1596 220.784 82.3206 220.188 82.6425C219.593 82.9643 219.126 83.4311 218.788 84.0427C218.45 84.6382 218.281 85.3544 218.281 86.1913C218.281 87.0282 218.45 87.7525 218.788 88.3641C219.126 88.9596 219.593 89.4183 220.188 89.7402C220.784 90.062 221.452 90.223 222.192 90.223C222.836 90.223 223.431 90.0781 223.979 89.7884C224.542 89.4987 225.017 89.0481 225.403 88.4365L227.721 89.7884C227.222 90.7541 226.489 91.5025 225.524 92.0336C224.574 92.5487 223.472 92.8062 222.216 92.8062Z" fill="#C88B4E"/>
<path d="M205.412 92.8062C203.979 92.8062 202.724 92.5245 201.646 91.9612C200.584 91.3818 199.755 90.5932 199.159 89.5953C198.58 88.5974 198.29 87.4628 198.29 86.1913C198.29 84.9037 198.572 83.7691 199.135 82.7873C199.714 81.7894 200.503 81.0089 201.501 80.4456C202.515 79.8822 203.666 79.6006 204.953 79.6006C206.209 79.6006 207.327 79.8742 208.309 80.4214C209.291 80.9686 210.063 81.7412 210.627 82.739C211.19 83.7369 211.471 84.9118 211.471 86.2637C211.471 86.3925 211.463 86.5373 211.447 86.6983C211.447 86.8592 211.439 87.0121 211.423 87.157H200.68V85.1532H209.83L208.647 85.7809C208.663 85.0405 208.51 84.3887 208.188 83.8254C207.866 83.2621 207.424 82.8195 206.86 82.4976C206.313 82.1757 205.677 82.0148 204.953 82.0148C204.213 82.0148 203.561 82.1757 202.998 82.4976C202.45 82.8195 202.016 83.2701 201.694 83.8495C201.388 84.4129 201.235 85.0808 201.235 85.8533V86.3362C201.235 87.1087 201.412 87.7927 201.766 88.3882C202.121 88.9837 202.619 89.4424 203.263 89.7643C203.907 90.0862 204.647 90.2471 205.484 90.2471C206.209 90.2471 206.86 90.1345 207.44 89.9091C208.019 89.6838 208.534 89.3297 208.985 88.8469L210.602 90.7058C210.023 91.3818 209.291 91.9049 208.405 92.275C207.536 92.6291 206.538 92.8062 205.412 92.8062Z" fill="#C88B4E"/>
<path d="M187.519 92.6372V79.7454H190.391V83.2943L190.053 82.2562C190.44 81.3871 191.043 80.7272 191.864 80.2766C192.701 79.8259 193.739 79.6006 194.978 79.6006V82.4735C194.85 82.4413 194.729 82.4252 194.616 82.4252C194.504 82.4091 194.391 82.401 194.278 82.401C193.136 82.401 192.226 82.739 191.55 83.415C190.874 84.0749 190.536 85.0647 190.536 86.3844V92.6372H187.519Z" fill="#C88B4E"/>
<path d="M168.714 92.6371V75.7378H175.667C177.164 75.7378 178.443 75.9792 179.505 76.462C180.584 76.9449 181.412 77.6369 181.992 78.5382C182.571 79.4395 182.861 80.5098 182.861 81.7491C182.861 82.9884 182.571 84.0587 181.992 84.96C181.412 85.8613 180.584 86.5533 179.505 87.0362C178.443 87.519 177.164 87.7604 175.667 87.7604H170.452L171.852 86.2878V92.6371H168.714ZM171.852 86.6258L170.452 85.1048H175.522C176.906 85.1048 177.944 84.8151 178.636 84.2357C179.344 83.6402 179.698 82.8113 179.698 81.7491C179.698 80.6708 179.344 79.8419 178.636 79.2625C177.944 78.6831 176.906 78.3934 175.522 78.3934H170.452L171.852 76.8483V86.6258Z" fill="#C88B4E"/>
<path d="M152.961 92.8064C152.414 92.8064 151.947 92.6213 151.561 92.2511C151.175 91.8648 150.981 91.382 150.981 90.8026C150.981 90.191 151.175 89.7082 151.561 89.3541C151.947 88.9839 152.414 88.7988 152.961 88.7988C153.508 88.7988 153.975 88.9839 154.361 89.3541C154.748 89.7082 154.941 90.191 154.941 90.8026C154.941 91.382 154.748 91.8648 154.361 92.2511C153.975 92.6213 153.508 92.8064 152.961 92.8064Z" fill="#C88B4E"/>
<path d="M143.342 92.6372V90.0299L143.173 89.4746V84.9118C143.173 84.0266 142.908 83.3426 142.377 82.8597C141.846 82.3608 141.041 82.1113 139.963 82.1113C139.238 82.1113 138.522 82.224 137.814 82.4493C137.122 82.6746 136.534 82.9885 136.052 83.3909L134.869 81.1939C135.561 80.6628 136.382 80.2685 137.331 80.011C138.297 79.7374 139.295 79.6006 140.325 79.6006C142.192 79.6006 143.632 80.0512 144.646 80.9525C145.676 81.8377 146.191 83.2138 146.191 85.0808V92.6372H143.342ZM139.287 92.8062C138.321 92.8062 137.476 92.6452 136.752 92.3233C136.027 91.9853 135.464 91.5266 135.062 90.9472C134.676 90.3517 134.482 89.6838 134.482 88.9435C134.482 88.2192 134.651 87.5674 134.989 86.988C135.343 86.4086 135.915 85.9499 136.703 85.6119C137.492 85.2739 138.538 85.1049 139.842 85.1049H143.584V87.1087H140.059C139.029 87.1087 138.337 87.2777 137.983 87.6157C137.629 87.9376 137.452 88.3399 137.452 88.8228C137.452 89.37 137.669 89.8045 138.104 90.1264C138.538 90.4483 139.142 90.6093 139.914 90.6093C140.655 90.6093 141.315 90.4403 141.894 90.1023C142.489 89.7643 142.916 89.2654 143.173 88.6055L143.68 90.4161C143.391 91.1726 142.868 91.76 142.111 92.1785C141.371 92.5969 140.429 92.8062 139.287 92.8062Z" fill="#C88B4E"/>
<path d="M128.09 92.8064C126.674 92.8064 125.579 92.4443 124.807 91.7201C124.034 90.9797 123.648 89.8933 123.648 88.4609V76.897H126.666V88.3885C126.666 89.0001 126.819 89.4749 127.124 89.8129C127.446 90.1508 127.889 90.3198 128.452 90.3198C129.128 90.3198 129.691 90.1428 130.142 89.7887L130.987 91.9373C130.633 92.227 130.198 92.4443 129.683 92.5892C129.168 92.734 128.637 92.8064 128.09 92.8064ZM121.523 82.2565V79.8423H130.118V82.2565H121.523Z" fill="#C88B4E"/>
<path d="M114.326 92.6375V79.7458H117.344V92.6375H114.326ZM115.847 77.6213C115.284 77.6213 114.817 77.4442 114.447 77.0902C114.093 76.7361 113.916 76.3096 113.916 75.8106C113.916 75.2956 114.093 74.8691 114.447 74.5311C114.817 74.177 115.284 74 115.847 74C116.411 74 116.869 74.169 117.223 74.507C117.594 74.8289 117.779 75.2393 117.779 75.7382C117.779 76.2693 117.602 76.72 117.248 77.0902C116.894 77.4442 116.427 77.6213 115.847 77.6213Z" fill="#C88B4E"/>
<path d="M105.417 92.6374V74.7241H108.435V92.6374H105.417Z" fill="#C88B4E"/>
<path d="M96.7634 92.6372V90.0299L96.5944 89.4746V84.9118C96.5944 84.0266 96.3288 83.3426 95.7977 82.8597C95.2666 82.3608 94.4619 82.1113 93.3835 82.1113C92.6593 82.1113 91.9431 82.224 91.2349 82.4493C90.5428 82.6746 89.9554 82.9885 89.4725 83.3909L88.2896 81.1939C88.9817 80.6628 89.8025 80.2685 90.7521 80.011C91.7177 79.7374 92.7156 79.6006 93.7456 79.6006C95.6126 79.6006 97.0531 80.0512 98.067 80.9525C99.0971 81.8377 99.6121 83.2138 99.6121 85.0808V92.6372H96.7634ZM92.7075 92.8062C91.7419 92.8062 90.8969 92.6452 90.1727 92.3233C89.4484 91.9853 88.8851 91.5266 88.4827 90.9472C88.0965 90.3517 87.9033 89.6838 87.9033 88.9435C87.9033 88.2192 88.0723 87.5674 88.4103 86.988C88.7644 86.4086 89.3357 85.9499 90.1244 85.6119C90.913 85.2739 91.9592 85.1049 93.2628 85.1049H97.0048V87.1087H93.4801C92.45 87.1087 91.758 87.2777 91.4039 87.6157C91.0498 87.9376 90.8728 88.3399 90.8728 88.8228C90.8728 89.37 91.09 89.8045 91.5246 90.1264C91.9591 90.4483 92.5627 90.6093 93.3352 90.6093C94.0756 90.6093 94.7355 90.4403 95.3149 90.1023C95.9104 89.7643 96.3369 89.2654 96.5944 88.6055L97.1014 90.4161C96.8117 91.1726 96.2886 91.76 95.5321 92.1785C94.7918 92.5969 93.8503 92.8062 92.7075 92.8062Z" fill="#C88B4E"/>
<path d="M76.7619 92.6373L71.2334 79.7456H74.3718L79.1278 91.1164H77.5827L82.5076 79.7456H85.4047L79.8762 92.6373H76.7619Z" fill="#C88B4E"/>
<path d="M57.8005 88.6537L57.6315 84.9358L66.4915 75.7378H70.0162L62.653 83.5597L60.9147 85.467L57.8005 88.6537ZM55 92.6371V75.7378H58.1384V92.6371H55ZM66.7812 92.6371L60.3112 84.9358L62.3874 82.6424L70.4508 92.6371H66.7812Z" fill="#C88B4E"/>
</svg>
