<svg width="572" height="99" viewBox="0 0 572 99" fill="none" xmlns="http://www.w3.org/2000/svg">
<path d="M555.301 39.42V54.48H543.602V39.3L527.521 12.48H539.941L549.961 29.28L560.042 12.48H571.382L555.301 39.42Z" fill="#322624"/>
<path d="M510.213 41.22L519.333 54.48H506.793L499.113 43.26H492.513V54.48H480.753V34.2H499.173C504.213 34.2 506.673 31.86 506.673 27.96C506.673 24.06 504.213 21.72 499.173 21.72H480.753V12.48H499.833C511.293 12.48 518.493 18.42 518.493 27.96C518.493 34.2 515.493 38.76 510.213 41.22Z" fill="#322624"/>
<path d="M432.041 37.56V28.8H464.861V37.56H432.041ZM432.041 21.6V12.48H464.861V21.6H432.041ZM432.041 45.36V54.48H464.861V45.36H432.041ZM450.701 9.06H442.661L450.641 0H461.981L450.701 9.06Z" fill="#322624"/>
<path d="M415.127 54.48H403.367V12.48H415.127V54.48Z" fill="#322624"/>
<path d="M380.014 41.22L389.134 54.48H376.594L368.914 43.26H362.314V54.48H350.554V34.2H368.974C374.014 34.2 376.474 31.86 376.474 27.96C376.474 24.06 374.014 21.72 368.974 21.72H350.554V12.48H369.634C381.094 12.48 388.294 18.42 388.294 27.96C388.294 34.2 385.294 38.76 380.014 41.22Z" fill="#322624"/>
<path d="M301.841 37.56V28.8H334.661V37.56H301.841ZM301.841 21.6V12.48H334.661V21.6H301.841ZM301.841 45.36V54.48H334.661V45.36H301.841Z" fill="#322624"/>
<path d="M276.054 54.48H264.294V21.78H251.394V12.48H288.954V21.78H276.054V54.48Z" fill="#322624"/>
<path d="M181.76 54.48H170V12.48H181.76V54.48Z" fill="#322624"/>
<path d="M210.193 45.9922V54.4805H198.674V32.04L210.193 45.9922ZM238.514 49.0361V54.4805H228.872L198.674 17.9053V12.4795H208.33L238.514 49.0361ZM238.514 34.9004L227.054 21.0205V12.4795H238.514V34.9004Z" fill="#322624"/>
<path d="M120.737 55.3201C113.897 55.3201 107.057 53.4601 103.097 50.7001L106.997 42.0001C110.717 44.5201 115.997 46.1401 120.857 46.1401C125.837 46.1401 127.757 44.7601 127.757 42.6601C127.757 35.9401 103.877 40.8601 103.877 25.2001C103.877 17.7601 109.997 11.6401 122.417 11.6401C127.817 11.6401 133.457 12.9001 137.537 15.3601L133.997 24.0001C129.977 21.8401 126.017 20.8201 122.297 20.8201C117.317 20.8201 115.457 22.5001 115.457 24.6001C115.457 31.1401 139.337 26.3401 139.337 41.7601C139.337 49.0801 133.217 55.3201 120.737 55.3201Z" fill="#322624"/>
<path d="M53.459 21.72L53.519 12.48H72.539C83.999 12.48 91.199 18.42 91.199 27.96C91.199 37.5 83.999 43.44 72.539 43.44H65.219V54.48H53.459V34.2H71.879C76.919 34.2 79.379 31.86 79.379 27.96C79.379 24.06 76.919 21.72 71.879 21.72H53.459Z" fill="#322624"/>
<path d="M23.8203 31.0796L41.8799 54.48H28.2598L16.0801 39.1196L11.5801 43.98V54.48H0V42.5347L28.0537 12.48H40.9199L23.8203 31.0796ZM11.5801 16.939L0 29.3442V12.48H11.5801V16.939Z" fill="#322624"/>
<path d="M509.02 92.8077C508.473 92.8077 508.006 92.6225 507.619 92.2523C507.233 91.866 507.04 91.3832 507.04 90.8037C507.04 90.1921 507.233 89.7092 507.619 89.3551C508.006 88.9849 508.473 88.7998 509.02 88.7998C509.567 88.7998 510.034 88.9849 510.42 89.3551C510.806 89.7092 511 90.1921 511 90.8037C511 91.3832 510.806 91.866 510.42 92.2523C510.034 92.6225 509.567 92.8077 509.02 92.8077Z" fill="#C88B4E"/>
<path d="M500.508 92.8081C499.091 92.8081 497.997 92.446 497.224 91.7217C496.451 90.9813 496.065 89.8948 496.065 88.4623V76.8975H499.083V88.3898C499.083 89.0015 499.236 89.4763 499.542 89.8143C499.864 90.1523 500.306 90.3213 500.87 90.3213C501.546 90.3213 502.109 90.1443 502.56 89.7902L503.405 91.939C503.051 92.2287 502.616 92.446 502.101 92.5908C501.586 92.7357 501.055 92.8081 500.508 92.8081ZM493.94 82.2574V79.843H502.536V82.2574H493.94Z" fill="#C88B4E"/>
<path d="M485.281 92.8077C484.202 92.8077 483.164 92.6708 482.166 92.3972C481.184 92.1075 480.404 91.7614 479.824 91.359L480.983 89.0654C481.563 89.4356 482.255 89.7414 483.059 89.9828C483.864 90.2243 484.669 90.345 485.474 90.345C486.423 90.345 487.108 90.2162 487.526 89.9587C487.961 89.7012 488.178 89.3551 488.178 88.9205C488.178 88.5664 488.033 88.3008 487.743 88.1238C487.454 87.9306 487.075 87.7858 486.609 87.6892C486.142 87.5926 485.619 87.5041 485.039 87.4236C484.476 87.3431 483.904 87.2385 483.325 87.1097C482.762 86.9649 482.247 86.7637 481.78 86.5062C481.313 86.2325 480.935 85.8704 480.645 85.4197C480.355 84.969 480.211 84.3735 480.211 83.6331C480.211 82.8122 480.444 82.104 480.911 81.5084C481.377 80.8968 482.029 80.43 482.866 80.1081C483.719 79.7701 484.725 79.6011 485.884 79.6011C486.753 79.6011 487.631 79.6976 488.516 79.8908C489.401 80.0839 490.134 80.3576 490.713 80.7117L489.554 83.0053C488.942 82.6351 488.323 82.3856 487.695 82.2569C487.083 82.112 486.472 82.0396 485.86 82.0396C484.943 82.0396 484.259 82.1764 483.808 82.45C483.373 82.7237 483.156 83.0697 483.156 83.4882C483.156 83.8745 483.301 84.1642 483.591 84.3574C483.88 84.5505 484.259 84.7034 484.725 84.8161C485.192 84.9288 485.707 85.0253 486.271 85.1058C486.85 85.1702 487.421 85.2748 487.985 85.4197C488.548 85.5646 489.063 85.7658 489.53 86.0233C490.013 86.2647 490.399 86.6108 490.689 87.0615C490.979 87.5121 491.123 88.0996 491.123 88.8239C491.123 89.6287 490.882 90.3289 490.399 90.9244C489.932 91.52 489.264 91.9868 488.395 92.3248C487.526 92.6467 486.488 92.8077 485.281 92.8077Z" fill="#C88B4E"/>
<path d="M469.599 92.8077C468.279 92.8077 467.104 92.526 466.074 91.9626C465.044 91.3832 464.231 90.5945 463.635 89.5965C463.04 88.5986 462.742 87.4639 462.742 86.1923C462.742 84.9046 463.04 83.7699 463.635 82.788C464.231 81.7901 465.044 81.0095 466.074 80.4461C467.104 79.8828 468.279 79.6011 469.599 79.6011C470.935 79.6011 472.118 79.8828 473.148 80.4461C474.194 81.0095 475.007 81.7821 475.587 82.7639C476.182 83.7457 476.48 84.8885 476.48 86.1923C476.48 87.4639 476.182 88.5986 475.587 89.5965C475.007 90.5945 474.194 91.3832 473.148 91.9626C472.118 92.526 470.935 92.8077 469.599 92.8077ZM469.599 90.2243C470.339 90.2243 470.999 90.0633 471.579 89.7414C472.158 89.4195 472.609 88.9527 472.931 88.3411C473.269 87.7294 473.438 87.0132 473.438 86.1923C473.438 85.3553 473.269 84.639 472.931 84.0435C472.609 83.4319 472.158 82.9651 471.579 82.6432C470.999 82.3213 470.347 82.1603 469.623 82.1603C468.883 82.1603 468.223 82.3213 467.643 82.6432C467.08 82.9651 466.629 83.4319 466.291 84.0435C465.953 84.639 465.784 85.3553 465.784 86.1923C465.784 87.0132 465.953 87.7294 466.291 88.3411C466.629 88.9527 467.08 89.4195 467.643 89.7414C468.223 90.0633 468.875 90.2243 469.599 90.2243Z" fill="#C88B4E"/>
<path d="M452.637 79.6011C453.667 79.6011 454.584 79.8023 455.389 80.2047C456.21 80.6071 456.854 81.2267 457.321 82.0637C457.787 82.8846 458.021 83.9469 458.021 85.2507V92.6386H455.003V85.637C455.003 84.4942 454.729 83.6411 454.182 83.0778C453.651 82.5144 452.902 82.2327 451.937 82.2327C451.228 82.2327 450.601 82.3776 450.053 82.6673C449.506 82.957 449.08 83.3916 448.774 83.9711C448.484 84.5344 448.339 85.2507 448.339 86.1199V92.6386H445.321V79.7459H448.194V83.2226L447.687 82.1603C448.138 81.3394 448.79 80.7117 449.643 80.2771C450.512 79.8264 451.51 79.6011 452.637 79.6011Z" fill="#C88B4E"/>
<path d="M434.431 92.8077C432.998 92.8077 431.743 92.526 430.665 91.9626C429.602 91.3832 428.773 90.5945 428.178 89.5965C427.598 88.5986 427.309 87.4639 427.309 86.1923C427.309 84.9046 427.59 83.7699 428.154 82.788C428.733 81.7901 429.522 81.0095 430.52 80.4461C431.534 79.8828 432.685 79.6011 433.972 79.6011C435.228 79.6011 436.346 79.8747 437.328 80.422C438.31 80.9692 439.083 81.7418 439.646 82.7397C440.209 83.7377 440.491 84.9127 440.491 86.2647C440.491 86.3935 440.483 86.5384 440.467 86.6993C440.467 86.8603 440.459 87.0132 440.443 87.158H429.699V85.1541H438.849L437.666 85.7818C437.682 85.0414 437.529 84.3896 437.207 83.8262C436.886 83.2629 436.443 82.8202 435.88 82.4983C435.332 82.1764 434.697 82.0154 433.972 82.0154C433.232 82.0154 432.58 82.1764 432.017 82.4983C431.469 82.8202 431.035 83.2709 430.713 83.8504C430.407 84.4137 430.254 85.0817 430.254 85.8543V86.3372C430.254 87.1097 430.431 87.7938 430.785 88.3894C431.139 88.9849 431.638 89.4436 432.282 89.7656C432.926 90.0875 433.666 90.2484 434.503 90.2484C435.228 90.2484 435.88 90.1358 436.459 89.9104C437.038 89.6851 437.554 89.331 438.004 88.8481L439.622 90.7072C439.042 91.3832 438.31 91.9063 437.425 92.2765C436.556 92.6306 435.558 92.8077 434.431 92.8077Z" fill="#C88B4E"/>
<path d="M417.99 97.4918C417.427 97.4918 416.896 97.4274 416.397 97.2986C415.881 97.186 415.447 97.0009 415.093 96.7433L415.962 94.498C416.429 94.836 417.016 95.005 417.724 95.005C418.272 95.005 418.698 94.8279 419.004 94.4738C419.31 94.1358 419.463 93.6288 419.463 92.9528V79.7462H422.481V92.8803C422.481 94.2968 422.086 95.4154 421.298 96.2363C420.525 97.0733 419.423 97.4918 417.99 97.4918ZM420.96 77.6215C420.396 77.6215 419.93 77.4445 419.559 77.0904C419.205 76.7363 419.028 76.3097 419.028 75.8108C419.028 75.2957 419.205 74.8692 419.559 74.5312C419.93 74.1771 420.396 74 420.96 74C421.523 74 421.982 74.169 422.336 74.507C422.706 74.8289 422.891 75.2394 422.891 75.7383C422.891 76.2695 422.714 76.7202 422.36 77.0904C422.006 77.4445 421.539 77.6215 420.96 77.6215Z" fill="#C88B4E"/>
<path d="M407.621 92.8077C406.302 92.8077 405.127 92.526 404.096 91.9626C403.066 91.3832 402.253 90.5945 401.658 89.5965C401.062 88.5986 400.765 87.4639 400.765 86.1923C400.765 84.9046 401.062 83.7699 401.658 82.788C402.253 81.7901 403.066 81.0095 404.096 80.4461C405.127 79.8828 406.302 79.6011 407.621 79.6011C408.957 79.6011 410.14 79.8828 411.171 80.4461C412.217 81.0095 413.03 81.7821 413.609 82.7639C414.205 83.7457 414.502 84.8885 414.502 86.1923C414.502 87.4639 414.205 88.5986 413.609 89.5965C413.03 90.5945 412.217 91.3832 411.171 91.9626C410.14 92.526 408.957 92.8077 407.621 92.8077ZM407.621 90.2243C408.362 90.2243 409.022 90.0633 409.601 89.7414C410.181 89.4195 410.631 88.9527 410.953 88.3411C411.291 87.7294 411.46 87.0132 411.46 86.1923C411.46 85.3553 411.291 84.639 410.953 84.0435C410.631 83.4319 410.181 82.9651 409.601 82.6432C409.022 82.3213 408.37 82.1603 407.646 82.1603C406.905 82.1603 406.245 82.3213 405.666 82.6432C405.102 82.9651 404.652 83.4319 404.314 84.0435C403.976 84.639 403.807 85.3553 403.807 86.1923C403.807 87.0132 403.976 87.7294 404.314 88.3411C404.652 88.9527 405.102 89.4195 405.666 89.7414C406.245 90.0633 406.897 90.2243 407.621 90.2243Z" fill="#C88B4E"/>
<path d="M387.526 89.7656L387.599 85.9751L394.335 79.746H397.956L392.234 85.4922L390.641 86.8201L387.526 89.7656ZM385.063 92.6387V74.7241H388.081V92.6387H385.063ZM394.793 92.6387L390.085 86.8201L391.993 84.4057L398.463 92.6387H394.793Z" fill="#C88B4E"/>
<path d="M373.366 92.8077C372.046 92.8077 370.871 92.526 369.841 91.9626C368.81 91.3832 367.998 90.5945 367.402 89.5965C366.807 88.5986 366.509 87.4639 366.509 86.1923C366.509 84.9046 366.807 83.7699 367.402 82.788C367.998 81.7901 368.81 81.0095 369.841 80.4461C370.871 79.8828 372.046 79.6011 373.366 79.6011C374.702 79.6011 375.885 79.8828 376.915 80.4461C377.961 81.0095 378.774 81.7821 379.353 82.7639C379.949 83.7457 380.246 84.8885 380.246 86.1923C380.246 87.4639 379.949 88.5986 379.353 89.5965C378.774 90.5945 377.961 91.3832 376.915 91.9626C375.885 92.526 374.702 92.8077 373.366 92.8077ZM373.366 90.2243C374.106 90.2243 374.766 90.0633 375.345 89.7414C375.925 89.4195 376.375 88.9527 376.697 88.3411C377.035 87.7294 377.204 87.0132 377.204 86.1923C377.204 85.3553 377.035 84.639 376.697 84.0435C376.375 83.4319 375.925 82.9651 375.345 82.6432C374.766 82.3213 374.114 82.1603 373.39 82.1603C372.649 82.1603 371.989 82.3213 371.41 82.6432C370.847 82.9651 370.396 83.4319 370.058 84.0435C369.72 84.639 369.551 85.3553 369.551 86.1923C369.551 87.0132 369.72 87.7294 370.058 88.3411C370.396 88.9527 370.847 89.4195 371.41 89.7414C371.989 90.0633 372.641 90.2243 373.366 90.2243Z" fill="#C88B4E"/>
<path d="M356.234 92.8077C355.188 92.8077 354.231 92.5662 353.361 92.0833C352.508 91.6005 351.824 90.8762 351.309 89.9104C350.81 88.9286 350.561 87.6892 350.561 86.1923C350.561 84.6793 350.802 83.4399 351.285 82.4742C351.784 81.5084 352.46 80.7922 353.313 80.3254C354.166 79.8425 355.14 79.6011 356.234 79.6011C357.506 79.6011 358.625 79.8747 359.59 80.422C360.572 80.9692 361.345 81.7338 361.908 82.7156C362.488 83.6974 362.777 84.8563 362.777 86.1923C362.777 87.5282 362.488 88.6952 361.908 89.6931C361.345 90.675 360.572 91.4395 359.59 91.9868C358.625 92.534 357.506 92.8077 356.234 92.8077ZM349.088 97.3225V79.7459H351.961V82.788L351.864 86.2164L352.106 89.6448V97.3225H349.088ZM355.896 90.2243C356.621 90.2243 357.265 90.0633 357.828 89.7414C358.407 89.4195 358.866 88.9527 359.204 88.3411C359.542 87.7294 359.711 87.0132 359.711 86.1923C359.711 85.3553 359.542 84.639 359.204 84.0435C358.866 83.4319 358.407 82.9651 357.828 82.6432C357.265 82.3213 356.621 82.1603 355.896 82.1603C355.172 82.1603 354.52 82.3213 353.941 82.6432C353.361 82.9651 352.903 83.4319 352.565 84.0435C352.227 84.639 352.058 85.3553 352.058 86.1923C352.058 87.0132 352.227 87.7294 352.565 88.3411C352.903 88.9527 353.361 89.4195 353.941 89.7414C354.52 90.0633 355.172 90.2243 355.896 90.2243Z" fill="#C88B4E"/>
<path d="M337.502 92.88C336.182 92.88 334.918 92.6949 333.711 92.3247C332.504 91.9384 331.546 91.4475 330.838 90.8519L331.924 88.4134C332.6 88.9446 333.437 89.3872 334.435 89.7413C335.433 90.0954 336.455 90.2725 337.502 90.2725C338.387 90.2725 339.103 90.1759 339.65 89.9828C340.198 89.7896 340.6 89.5321 340.857 89.2102C341.115 88.8722 341.244 88.4939 341.244 88.0754C341.244 87.5604 341.059 87.1499 340.689 86.8441C340.318 86.5222 339.835 86.2727 339.24 86.0956C338.66 85.9025 338.009 85.7254 337.284 85.5645C336.576 85.4035 335.86 85.2184 335.135 85.0092C334.427 84.7838 333.775 84.5022 333.18 84.1642C332.6 83.81 332.126 83.3433 331.755 82.7638C331.385 82.1844 331.2 81.444 331.2 80.5426C331.2 79.6251 331.441 78.7882 331.924 78.0317C332.423 77.2591 333.172 76.6474 334.17 76.1967C335.184 75.73 336.463 75.4966 338.009 75.4966C339.023 75.4966 340.029 75.6253 341.026 75.8829C342.024 76.1404 342.894 76.5106 343.634 76.9935L342.644 79.432C341.888 78.9813 341.107 78.6514 340.302 78.4421C339.497 78.2168 338.725 78.1041 337.984 78.1041C337.115 78.1041 336.407 78.2087 335.86 78.418C335.329 78.6272 334.934 78.9008 334.677 79.2388C334.435 79.5769 334.315 79.9632 334.315 80.3977C334.315 80.9128 334.492 81.3313 334.846 81.6532C335.216 81.959 335.691 82.2005 336.27 82.3775C336.866 82.5546 337.526 82.7316 338.25 82.9087C338.974 83.0696 339.691 83.2547 340.399 83.464C341.123 83.6732 341.775 83.9469 342.354 84.2849C342.95 84.6229 343.425 85.0816 343.779 85.6611C344.149 86.2405 344.334 86.9729 344.334 87.8581C344.334 88.7595 344.085 89.5965 343.586 90.3691C343.103 91.1256 342.354 91.7372 341.34 92.204C340.326 92.6547 339.047 92.88 337.502 92.88Z" fill="#C88B4E"/>
<path d="M316.057 92.8081C314.641 92.8081 313.546 92.446 312.774 91.7217C312.001 90.9813 311.615 89.8948 311.615 88.4623V76.8975H314.633V88.3898C314.633 89.0015 314.786 89.4763 315.092 89.8143C315.413 90.1523 315.856 90.3213 316.419 90.3213C317.095 90.3213 317.659 90.1443 318.11 89.7902L318.955 91.939C318.6 92.2287 318.166 92.446 317.651 92.5908C317.136 92.7357 316.605 92.8081 316.057 92.8081ZM309.49 82.2574V79.843H318.085V82.2574H309.49Z" fill="#C88B4E"/>
<path d="M300.831 92.8077C299.753 92.8077 298.715 92.6708 297.717 92.3972C296.735 92.1075 295.954 91.7614 295.375 91.359L296.534 89.0654C297.113 89.4356 297.805 89.7414 298.61 89.9828C299.415 90.2243 300.22 90.345 301.025 90.345C301.974 90.345 302.658 90.2162 303.077 89.9587C303.511 89.7012 303.729 89.3551 303.729 88.9205C303.729 88.5664 303.584 88.3008 303.294 88.1238C303.004 87.9306 302.626 87.7858 302.159 87.6892C301.693 87.5926 301.169 87.5041 300.59 87.4236C300.027 87.3431 299.455 87.2385 298.876 87.1097C298.312 86.9649 297.797 86.7637 297.331 86.5062C296.864 86.2325 296.486 85.8704 296.196 85.4197C295.906 84.969 295.761 84.3735 295.761 83.6331C295.761 82.8122 295.995 82.104 296.461 81.5084C296.928 80.8968 297.58 80.43 298.417 80.1081C299.27 79.7701 300.276 79.6011 301.435 79.6011C302.304 79.6011 303.181 79.6976 304.067 79.8908C304.952 80.0839 305.684 80.3576 306.264 80.7117L305.105 83.0053C304.493 82.6351 303.874 82.3856 303.246 82.2569C302.634 82.112 302.023 82.0396 301.411 82.0396C300.493 82.0396 299.809 82.1764 299.359 82.45C298.924 82.7237 298.707 83.0697 298.707 83.4882C298.707 83.8745 298.852 84.1642 299.141 84.3574C299.431 84.5505 299.809 84.7034 300.276 84.8161C300.743 84.9288 301.258 85.0253 301.821 85.1058C302.401 85.1702 302.972 85.2748 303.536 85.4197C304.099 85.5646 304.614 85.7658 305.081 86.0233C305.564 86.2647 305.95 86.6108 306.24 87.0615C306.529 87.5121 306.674 88.0996 306.674 88.8239C306.674 89.6287 306.433 90.3289 305.95 90.9244C305.483 91.52 304.815 91.9868 303.946 92.3248C303.077 92.6467 302.039 92.8077 300.831 92.8077Z" fill="#C88B4E"/>
<path d="M285.15 92.8077C283.83 92.8077 282.655 92.526 281.625 91.9626C280.595 91.3832 279.782 90.5945 279.186 89.5965C278.591 88.5986 278.293 87.4639 278.293 86.1923C278.293 84.9046 278.591 83.7699 279.186 82.788C279.782 81.7901 280.595 81.0095 281.625 80.4461C282.655 79.8828 283.83 79.6011 285.15 79.6011C286.486 79.6011 287.669 79.8828 288.699 80.4461C289.745 81.0095 290.558 81.7821 291.137 82.7639C291.733 83.7457 292.031 84.8885 292.031 86.1923C292.031 87.4639 291.733 88.5986 291.137 89.5965C290.558 90.5945 289.745 91.3832 288.699 91.9626C287.669 92.526 286.486 92.8077 285.15 92.8077ZM285.15 90.2243C285.89 90.2243 286.55 90.0633 287.13 89.7414C287.709 89.4195 288.16 88.9527 288.482 88.3411C288.82 87.7294 288.989 87.0132 288.989 86.1923C288.989 85.3553 288.82 84.639 288.482 84.0435C288.16 83.4319 287.709 82.9651 287.13 82.6432C286.55 82.3213 285.898 82.1603 285.174 82.1603C284.434 82.1603 283.774 82.3213 283.194 82.6432C282.631 82.9651 282.18 83.4319 281.842 84.0435C281.504 84.639 281.335 85.3553 281.335 86.1923C281.335 87.0132 281.504 87.7294 281.842 88.3411C282.18 88.9527 282.631 89.4195 283.194 89.7414C283.774 90.0633 284.425 90.2243 285.15 90.2243Z" fill="#C88B4E"/>
<path d="M268.187 79.6011C269.217 79.6011 270.134 79.8023 270.939 80.2047C271.76 80.6071 272.404 81.2267 272.87 82.0637C273.337 82.8846 273.571 83.9469 273.571 85.2507V92.6386H270.553V85.637C270.553 84.4942 270.279 83.6411 269.732 83.0778C269.201 82.5144 268.452 82.2327 267.486 82.2327C266.778 82.2327 266.15 82.3776 265.603 82.6673C265.056 82.957 264.629 83.3916 264.324 83.9711C264.034 84.5344 263.889 85.2507 263.889 86.1199V92.6386H260.871V79.7459H263.744V83.2226L263.237 82.1603C263.688 81.3394 264.34 80.7117 265.193 80.2771C266.062 79.8264 267.06 79.6011 268.187 79.6011Z" fill="#C88B4E"/>
<path d="M245.028 92.6388V90.7315L252.972 81.1223L253.527 82.1605H245.173V79.7461H255.941V81.6534L247.998 91.2626L247.394 90.2244H256.159V92.6388H245.028Z" fill="#C88B4E"/>
<path d="M237.18 92.6389V79.7462H240.198V92.6389H237.18ZM238.701 77.6215C238.138 77.6215 237.671 77.4445 237.301 77.0904C236.947 76.7363 236.77 76.3097 236.77 75.8108C236.77 75.2957 236.947 74.8692 237.301 74.5312C237.671 74.1771 238.138 74 238.701 74C239.264 74 239.723 74.169 240.077 74.507C240.447 74.8289 240.633 75.2394 240.633 75.7383C240.633 76.2695 240.455 76.7202 240.101 77.0904C239.747 77.4445 239.28 77.6215 238.701 77.6215Z" fill="#C88B4E"/>
<path d="M227.252 92.8077C225.9 92.8077 224.693 92.526 223.63 91.9626C222.584 91.3832 221.763 90.5945 221.168 89.5965C220.572 88.5986 220.274 87.4639 220.274 86.1923C220.274 84.9046 220.572 83.7699 221.168 82.788C221.763 81.7901 222.584 81.0095 223.63 80.4461C224.693 79.8828 225.9 79.6011 227.252 79.6011C228.507 79.6011 229.61 79.8586 230.56 80.3737C231.525 80.8726 232.258 81.613 232.757 82.5949L230.439 83.9469C230.053 83.3353 229.578 82.8846 229.014 82.5949C228.467 82.3052 227.872 82.1603 227.228 82.1603C226.487 82.1603 225.819 82.3213 225.224 82.6432C224.628 82.9651 224.162 83.4319 223.824 84.0435C223.486 84.639 223.317 85.3553 223.317 86.1923C223.317 87.0293 223.486 87.7536 223.824 88.3652C224.162 88.9608 224.628 89.4195 225.224 89.7414C225.819 90.0633 226.487 90.2243 227.228 90.2243C227.872 90.2243 228.467 90.0794 229.014 89.7897C229.578 89.5 230.053 89.0493 230.439 88.4377L232.757 89.7897C232.258 90.7554 231.525 91.5039 230.56 92.0351C229.61 92.5501 228.507 92.8077 227.252 92.8077Z" fill="#C88B4E"/>
<path d="M210.448 92.8077C209.015 92.8077 207.76 92.526 206.681 91.9626C205.619 91.3832 204.79 90.5945 204.194 89.5965C203.615 88.5986 203.325 87.4639 203.325 86.1923C203.325 84.9046 203.607 83.7699 204.17 82.788C204.75 81.7901 205.538 81.0095 206.536 80.4461C207.55 79.8828 208.701 79.6011 209.989 79.6011C211.244 79.6011 212.363 79.8747 213.345 80.422C214.327 80.9692 215.099 81.7418 215.663 82.7397C216.226 83.7377 216.508 84.9127 216.508 86.2647C216.508 86.3935 216.5 86.5384 216.483 86.6993C216.483 86.8603 216.475 87.0132 216.459 87.158H205.715V85.1541H214.866L213.683 85.7818C213.699 85.0414 213.546 84.3896 213.224 83.8262C212.902 83.2629 212.46 82.8202 211.896 82.4983C211.349 82.1764 210.713 82.0154 209.989 82.0154C209.248 82.0154 208.597 82.1764 208.033 82.4983C207.486 82.8202 207.051 83.2709 206.729 83.8504C206.424 84.4137 206.271 85.0817 206.271 85.8543V86.3372C206.271 87.1097 206.448 87.7938 206.802 88.3894C207.156 88.9849 207.655 89.4436 208.299 89.7656C208.943 90.0875 209.683 90.2484 210.52 90.2484C211.244 90.2484 211.896 90.1358 212.476 89.9104C213.055 89.6851 213.57 89.331 214.021 88.8481L215.638 90.7072C215.059 91.3832 214.327 91.9063 213.441 92.2765C212.572 92.6306 211.574 92.8077 210.448 92.8077Z" fill="#C88B4E"/>
<path d="M192.552 92.6386V79.7459H195.425V83.2951L195.087 82.2569C195.473 81.3877 196.077 80.7278 196.898 80.2771C197.735 79.8264 198.773 79.6011 200.012 79.6011V82.4742C199.883 82.442 199.763 82.4259 199.65 82.4259C199.537 82.4098 199.425 82.4017 199.312 82.4017C198.169 82.4017 197.26 82.7397 196.584 83.4158C195.908 84.0757 195.57 85.0656 195.57 86.3854V92.6386H192.552Z" fill="#C88B4E"/>
<path d="M173.746 92.6388V75.7383H180.699C182.196 75.7383 183.476 75.9797 184.538 76.4626C185.617 76.9455 186.446 77.6376 187.025 78.5389C187.605 79.4403 187.894 80.5107 187.894 81.7501C187.894 82.9894 187.605 84.0598 187.025 84.9612C186.446 85.8625 185.617 86.5546 184.538 87.0375C183.476 87.5204 182.196 87.7618 180.699 87.7618H175.484L176.885 86.2891V92.6388H173.746ZM176.885 86.6271L175.484 85.106H180.555C181.939 85.106 182.977 84.8163 183.669 84.2368C184.377 83.6413 184.731 82.8124 184.731 81.7501C184.731 80.6716 184.377 79.8427 183.669 79.2633C182.977 78.6838 181.939 78.3941 180.555 78.3941H175.484L176.885 76.8489V86.6271Z" fill="#C88B4E"/>
<path d="M157.992 92.8077C157.445 92.8077 156.978 92.6225 156.592 92.2523C156.206 91.866 156.013 91.3832 156.013 90.8037C156.013 90.1921 156.206 89.7092 156.592 89.3551C156.978 88.9849 157.445 88.7998 157.992 88.7998C158.54 88.7998 159.007 88.9849 159.393 89.3551C159.779 89.7092 159.972 90.1921 159.972 90.8037C159.972 91.3832 159.779 91.866 159.393 92.2523C159.007 92.6225 158.54 92.8077 157.992 92.8077Z" fill="#C88B4E"/>
<path d="M148.372 92.6386V90.0311L148.203 89.4758V84.9127C148.203 84.0274 147.938 83.3433 147.407 82.8605C146.876 82.3615 146.071 82.112 144.992 82.112C144.268 82.112 143.552 82.2247 142.844 82.45C142.151 82.6754 141.564 82.9892 141.081 83.3916L139.898 81.1946C140.59 80.6634 141.411 80.269 142.361 80.0115C143.326 79.7379 144.324 79.6011 145.354 79.6011C147.222 79.6011 148.662 80.0518 149.676 80.9531C150.706 81.8384 151.221 83.2146 151.221 85.0817V92.6386H148.372ZM144.316 92.8077C143.351 92.8077 142.506 92.6467 141.781 92.3248C141.057 91.9868 140.494 91.528 140.091 90.9486C139.705 90.353 139.512 89.6851 139.512 88.9447C139.512 88.2204 139.681 87.5685 140.019 86.989C140.373 86.4096 140.944 85.9509 141.733 85.6128C142.522 85.2748 143.568 85.1058 144.872 85.1058H148.614V87.1097H145.089C144.059 87.1097 143.367 87.2788 143.013 87.6168C142.658 87.9387 142.481 88.3411 142.481 88.8239C142.481 89.3712 142.699 89.8058 143.133 90.1277C143.568 90.4496 144.171 90.6106 144.944 90.6106C145.684 90.6106 146.344 90.4416 146.924 90.1036C147.519 89.7656 147.946 89.2666 148.203 88.6067L148.71 90.4174C148.421 91.1739 147.898 91.7614 147.141 92.1799C146.401 92.5984 145.459 92.8077 144.316 92.8077Z" fill="#C88B4E"/>
<path d="M133.119 92.8081C131.702 92.8081 130.608 92.446 129.835 91.7217C129.063 90.9813 128.676 89.8948 128.676 88.4623V76.8975H131.694V88.3898C131.694 89.0015 131.847 89.4763 132.153 89.8143C132.475 90.1523 132.918 90.3213 133.481 90.3213C134.157 90.3213 134.72 90.1443 135.171 89.7902L136.016 91.939C135.662 92.2287 135.227 92.446 134.712 92.5908C134.197 92.7357 133.666 92.8081 133.119 92.8081ZM126.552 82.2574V79.843H135.147V82.2574H126.552Z" fill="#C88B4E"/>
<path d="M119.355 92.6389V79.7462H122.373V92.6389H119.355ZM120.876 77.6215C120.312 77.6215 119.846 77.4445 119.475 77.0904C119.121 76.7363 118.944 76.3097 118.944 75.8108C118.944 75.2957 119.121 74.8692 119.475 74.5312C119.846 74.1771 120.312 74 120.876 74C121.439 74 121.898 74.169 122.252 74.507C122.622 74.8289 122.807 75.2394 122.807 75.7383C122.807 76.2695 122.63 76.7202 122.276 77.0904C121.922 77.4445 121.455 77.6215 120.876 77.6215Z" fill="#C88B4E"/>
<path d="M110.444 92.6387V74.7241H113.462V92.6387H110.444Z" fill="#C88B4E"/>
<path d="M101.79 92.6386V90.0311L101.621 89.4758V84.9127C101.621 84.0274 101.356 83.3433 100.825 82.8605C100.293 82.3615 99.4887 82.112 98.4103 82.112C97.686 82.112 96.9697 82.2247 96.2615 82.45C95.5694 82.6754 94.9819 82.9892 94.499 83.3916L93.316 81.1946C94.0081 80.6634 94.829 80.269 95.7786 80.0115C96.7444 79.7379 97.7423 79.6011 98.7725 79.6011C100.64 79.6011 102.08 80.0518 103.094 80.9531C104.124 81.8384 104.639 83.2146 104.639 85.0817V92.6386H101.79ZM97.7343 92.8077C96.7685 92.8077 95.9235 92.6467 95.1992 92.3248C94.4749 91.9868 93.9115 91.528 93.5091 90.9486C93.1228 90.353 92.9297 89.6851 92.9297 88.9447C92.9297 88.2204 93.0987 87.5685 93.4367 86.989C93.7908 86.4096 94.3622 85.9509 95.1509 85.6128C95.9396 85.2748 96.9858 85.1058 98.2896 85.1058H102.032V87.1097H98.5069C97.4767 87.1097 96.7846 87.2788 96.4305 87.6168C96.0764 87.9387 95.8994 88.3411 95.8994 88.8239C95.8994 89.3712 96.1166 89.8058 96.5512 90.1277C96.9858 90.4496 97.5894 90.6106 98.362 90.6106C99.1024 90.6106 99.7623 90.4416 100.342 90.1036C100.937 89.7656 101.364 89.2666 101.621 88.6067L102.128 90.4174C101.839 91.1739 101.316 91.7614 100.559 92.1799C99.8187 92.5984 98.8771 92.8077 97.7343 92.8077Z" fill="#C88B4E"/>
<path d="M81.7867 92.6388L76.2578 79.7461H79.3965L84.1528 91.1178H82.6076L87.5329 79.7461H90.4301L84.9012 92.6388H81.7867Z" fill="#C88B4E"/>
<path d="M62.8007 88.6551L62.6317 84.937L71.4924 75.7383H75.0173L67.6535 83.5608L65.9152 85.4682L62.8007 88.6551ZM60 92.6388V75.7383H63.1387V92.6388H60ZM71.7821 92.6388L65.3116 84.937L67.388 82.6434L75.4519 92.6388H71.7821Z" fill="#C88B4E"/>
</svg>
