<svg width="572" height="56" viewBox="0 0 572 56" fill="none" xmlns="http://www.w3.org/2000/svg">
<path d="M555.301 39.42V54.48H543.602V39.3L527.521 12.48H539.941L549.961 29.28L560.042 12.48H571.382L555.301 39.42Z" fill="white"/>
<path d="M510.213 41.22L519.333 54.48H506.793L499.113 43.26H492.513V54.48H480.753V34.2H499.173C504.213 34.2 506.673 31.86 506.673 27.96C506.673 24.06 504.213 21.72 499.173 21.72H480.753V12.48H499.833C511.293 12.48 518.493 18.42 518.493 27.96C518.493 34.2 515.493 38.76 510.213 41.22Z" fill="white"/>
<path d="M432.041 37.56V28.8H464.861V37.56H432.041ZM432.041 21.6V12.48H464.861V21.6H432.041ZM432.041 45.36V54.48H464.861V45.36H432.041ZM450.701 9.06H442.661L450.641 0H461.981L450.701 9.06Z" fill="white"/>
<path d="M415.127 54.48H403.367V12.48H415.127V54.48Z" fill="white"/>
<path d="M380.014 41.22L389.134 54.48H376.594L368.914 43.26H362.314V54.48H350.554V34.2H368.974C374.014 34.2 376.474 31.86 376.474 27.96C376.474 24.06 374.014 21.72 368.974 21.72H350.554V12.48H369.634C381.094 12.48 388.294 18.42 388.294 27.96C388.294 34.2 385.294 38.76 380.014 41.22Z" fill="white"/>
<path d="M301.841 37.56V28.8H334.661V37.56H301.841ZM301.841 21.6V12.48H334.661V21.6H301.841ZM301.841 45.36V54.48H334.661V45.36H301.841Z" fill="white"/>
<path d="M276.054 54.48H264.294V21.78H251.394V12.48H288.954V21.78H276.054V54.48Z" fill="white"/>
<path d="M181.76 54.48H170V12.48H181.76V54.48Z" fill="white"/>
<path d="M210.193 45.9922V54.4805H198.674V32.04L210.193 45.9922ZM238.514 49.0361V54.4805H228.872L198.674 17.9053V12.4795H208.33L238.514 49.0361ZM238.514 34.9004L227.054 21.0205V12.4795H238.514V34.9004Z" fill="white"/>
<path d="M120.737 55.3201C113.897 55.3201 107.057 53.4601 103.097 50.7001L106.997 42.0001C110.717 44.5201 115.997 46.1401 120.857 46.1401C125.837 46.1401 127.757 44.7601 127.757 42.6601C127.757 35.9401 103.877 40.8601 103.877 25.2001C103.877 17.7601 109.997 11.6401 122.417 11.6401C127.817 11.6401 133.457 12.9001 137.537 15.3601L133.997 24.0001C129.977 21.8401 126.017 20.8201 122.297 20.8201C117.317 20.8201 115.457 22.5001 115.457 24.6001C115.457 31.1401 139.337 26.3401 139.337 41.7601C139.337 49.0801 133.217 55.3201 120.737 55.3201Z" fill="white"/>
<path d="M53.459 21.72L53.519 12.48H72.539C83.999 12.48 91.199 18.42 91.199 27.96C91.199 37.5 83.999 43.44 72.539 43.44H65.219V54.48H53.459V34.2H71.879C76.919 34.2 79.379 31.86 79.379 27.96C79.379 24.06 76.919 21.72 71.879 21.72H53.459Z" fill="white"/>
<path d="M23.8203 31.0796L41.8799 54.48H28.2598L16.0801 39.1196L11.5801 43.98V54.48H0V42.5347L28.0537 12.48H40.9199L23.8203 31.0796ZM11.5801 16.939L0 29.3442V12.48H11.5801V16.939Z" fill="white"/>
</svg>
