<svg width="140" height="70" viewBox="0 0 140 70" fill="none" xmlns="http://www.w3.org/2000/svg">
<path d="M133.432 64.0111V69.2264H129.38V63.9695L123.812 54.6816H128.113L131.583 60.4995L135.073 54.6816H139L133.432 64.0111Z" fill="#C88B4E"/>
<path d="M117.817 64.6344L120.976 69.2264H116.633L113.973 65.3409H111.688V69.2264H107.615V62.2034H113.994C115.74 62.2034 116.591 61.393 116.591 60.0424C116.591 58.6918 115.74 57.8815 113.994 57.8815H107.615V54.6816H114.223C118.191 54.6816 120.685 56.7387 120.685 60.0424C120.685 62.2034 119.646 63.7825 117.817 64.6344Z" fill="#C88B4E"/>
<path d="M90.7451 63.367V60.3334H102.111V63.367H90.7451ZM90.7451 57.84V54.6817H102.111V57.84H90.7451ZM90.7451 66.0682V69.2265H102.111V66.0682H90.7451ZM97.2071 53.4974H94.4229L97.1864 50.3599H101.113L97.2071 53.4974Z" fill="#C88B4E"/>
<path d="M84.888 69.2264H80.8154V54.6816H84.888V69.2264Z" fill="#C88B4E"/>
<path d="M72.7285 64.6344L75.8868 69.2264H71.5441L68.8845 65.3409H66.5989V69.2264H62.5264V62.2034H68.9053C70.6507 62.2034 71.5026 61.393 71.5026 60.0424C71.5026 58.6918 70.6507 57.8815 68.9053 57.8815H62.5264V54.6816H69.1338C73.1025 54.6816 75.5959 56.7387 75.5959 60.0424C75.5959 62.2034 74.557 63.7825 72.7285 64.6344Z" fill="#C88B4E"/>
<path d="M45.6572 63.3669V60.3333H57.0229V63.3669H45.6572ZM45.6572 57.8399V54.6816H57.0229V57.8399H45.6572ZM45.6572 66.0681V69.2264H57.0229V66.0681H45.6572Z" fill="#C88B4E"/>
<path d="M36.7264 69.2264H32.6538V57.9023H28.1865V54.6816H41.1937V57.9023H36.7264V69.2264Z" fill="#C88B4E"/>
<path d="M4.07253 69.2264H0V54.6816H4.07253V69.2264Z" fill="#C88B4E"/>
<path d="M13.9189 66.2872V69.2267H9.92969V61.4555L13.9189 66.2872ZM23.7264 67.3413V69.2267H20.3874L9.92969 56.5606V54.6816H13.2737L23.7264 67.3413ZM23.7264 62.4461L19.7577 57.6394V54.6816H23.7264V62.4461Z" fill="#C88B4E"/>
<path d="M120.737 43.68C113.897 43.68 107.057 41.82 103.097 39.06L106.997 30.36C110.717 32.88 115.997 34.5 120.857 34.5C125.837 34.5 127.757 33.12 127.757 31.02C127.757 24.3 103.877 29.22 103.877 13.56C103.877 6.12 109.997 0 122.417 0C127.817 0 133.457 1.26 137.537 3.72L133.997 12.36C129.977 10.2 126.017 9.18 122.297 9.18C117.317 9.18 115.457 10.86 115.457 12.96C115.457 19.5 139.337 14.7 139.337 30.12C139.337 37.44 133.217 43.68 120.737 43.68Z" fill="white"/>
<path d="M53.459 10.0798L53.519 0.839844H72.539C83.999 0.839844 91.199 6.77985 91.199 16.3198C91.199 25.8598 83.999 31.7998 72.539 31.7998H65.219V42.8398H53.459V22.5598H71.879C76.919 22.5598 79.379 20.2198 79.379 16.3198C79.379 12.4198 76.919 10.0798 71.879 10.0798H53.459Z" fill="white"/>
<path d="M23.8203 19.4395L41.8799 42.8398H28.2598L16.0801 27.4795L11.5801 32.3398V42.8398H0V30.8945L28.0537 0.839844H40.9199L23.8203 19.4395ZM11.5801 5.29883L0 17.7041V0.839844H11.5801V5.29883Z" fill="white"/>
</svg>
