<svg width="570" height="56" viewBox="0 0 570 56" fill="none" xmlns="http://www.w3.org/2000/svg">
<path d="M553.935 39.42V54.48H542.246V39.3L526.182 12.48H538.59L548.6 29.28L558.671 12.48H570L553.935 39.42Z" fill="#322624"/>
<path d="M508.889 41.22L518 54.48H505.472L497.8 43.26H491.206V54.48H479.457V34.2H497.86C502.895 34.2 505.352 31.86 505.352 27.96C505.352 24.06 502.895 21.72 497.86 21.72H479.457V12.48H498.519C509.968 12.48 517.161 18.42 517.161 27.96C517.161 34.2 514.164 38.76 508.889 41.22Z" fill="#322624"/>
<path d="M430.792 37.56V28.8H463.581V37.56H430.792ZM430.792 21.6V12.48H463.581V21.6H430.792ZM430.792 45.36V54.48H463.581V45.36H430.792ZM449.434 9.06H441.402L449.374 0H460.704L449.434 9.06Z" fill="#322624"/>
<path d="M413.894 54.48H402.146V12.48H413.894V54.48Z" fill="#322624"/>
<path d="M378.815 41.22L387.926 54.48H375.398L367.725 43.26H361.132V54.48H349.383V34.2H367.785C372.821 34.2 375.278 31.86 375.278 27.96C375.278 24.06 372.821 21.72 367.785 21.72H349.383V12.48H368.445C379.894 12.48 387.087 18.42 387.087 27.96C387.087 34.2 384.09 38.76 378.815 41.22Z" fill="#322624"/>
<path d="M300.716 37.56V28.8H333.505V37.56H300.716ZM300.716 21.6V12.48H333.505V21.6H300.716ZM300.716 45.36V54.48H333.505V45.36H300.716Z" fill="#322624"/>
<path d="M274.954 54.48H263.205V21.78H250.317V12.48H287.842V21.78H274.954V54.48Z" fill="#322624"/>
<path d="M180.749 54.48H169V12.48H180.749V54.48Z" fill="#322624"/>
<path d="M209.156 45.9922V54.4805H197.647V32.04L209.156 45.9922ZM237.449 49.0361V54.4805H227.817L197.647 17.9053V12.4795H207.295L237.449 49.0361ZM237.449 34.9004L226 21.0205V12.4795H237.449V34.9004Z" fill="#322624"/>
<path d="M120.656 55.3201C113.82 55.3201 106.985 53.4601 103.027 50.7001L106.925 42.0001C110.642 44.5201 115.919 46.1401 120.775 46.1401C125.752 46.1401 127.671 44.7601 127.671 42.6601C127.671 35.9401 103.807 40.8601 103.807 25.2001C103.807 17.7601 109.923 11.6401 122.334 11.6401C127.731 11.6401 133.367 12.9001 137.444 15.3601L133.907 24.0001C129.889 21.8401 125.932 20.8201 122.214 20.8201C117.238 20.8201 115.379 22.5001 115.379 24.6001C115.379 31.1401 139.243 26.3401 139.243 41.7601C139.243 49.0801 133.127 55.3201 120.656 55.3201Z" fill="#322624"/>
<path d="M53.4229 21.72L53.4828 12.48H72.4901C83.9424 12.48 91.1376 18.42 91.1376 27.96C91.1376 37.5 83.9424 43.44 72.4901 43.44H65.175V54.48H53.4229V34.2H71.8305C76.8672 34.2 79.3255 31.86 79.3255 27.96C79.3255 24.06 76.8672 21.72 71.8305 21.72H53.4229Z" fill="#322624"/>
<path d="M23.8044 31.0796L41.8519 54.48H28.2409L16.0693 39.1196L11.5723 43.98V54.48H0V42.5347L28.0349 12.48H40.8926L23.8044 31.0796ZM11.5723 16.939L0 29.3442V12.48H11.5723V16.939Z" fill="#322624"/>
</svg>
