<svg width="570" height="99" viewBox="0 0 570 99" fill="none" xmlns="http://www.w3.org/2000/svg">
<path d="M553.935 39.42V54.48H542.246V39.3L526.182 12.48H538.59L548.6 29.28L558.671 12.48H570L553.935 39.42Z" fill="#F5ECE6"/>
<path d="M508.889 41.22L518 54.48H505.472L497.8 43.26H491.206V54.48H479.457V34.2H497.86C502.895 34.2 505.352 31.86 505.352 27.96C505.352 24.06 502.895 21.72 497.86 21.72H479.457V12.48H498.519C509.968 12.48 517.161 18.42 517.161 27.96C517.161 34.2 514.164 38.76 508.889 41.22Z" fill="#F5ECE6"/>
<path d="M430.792 37.56V28.8H463.581V37.56H430.792ZM430.792 21.6V12.48H463.581V21.6H430.792ZM430.792 45.36V54.48H463.581V45.36H430.792ZM449.434 9.06H441.402L449.374 0H460.704L449.434 9.06Z" fill="#F5ECE6"/>
<path d="M413.894 54.48H402.146V12.48H413.894V54.48Z" fill="#F5ECE6"/>
<path d="M378.815 41.22L387.926 54.48H375.398L367.725 43.26H361.132V54.48H349.383V34.2H367.785C372.821 34.2 375.278 31.86 375.278 27.96C375.278 24.06 372.821 21.72 367.785 21.72H349.383V12.48H368.445C379.894 12.48 387.087 18.42 387.087 27.96C387.087 34.2 384.09 38.76 378.815 41.22Z" fill="#F5ECE6"/>
<path d="M300.716 37.56V28.8H333.505V37.56H300.716ZM300.716 21.6V12.48H333.505V21.6H300.716ZM300.716 45.36V54.48H333.505V45.36H300.716Z" fill="#F5ECE6"/>
<path d="M274.954 54.48H263.205V21.78H250.317V12.48H287.842V21.78H274.954V54.48Z" fill="#F5ECE6"/>
<path d="M180.749 54.48H169V12.48H180.749V54.48Z" fill="#F5ECE6"/>
<path d="M209.156 45.9922V54.4805H197.647V32.04L209.156 45.9922ZM237.449 49.0361V54.4805H227.817L197.647 17.9053V12.4795H207.295L237.449 49.0361ZM237.449 34.9004L226 21.0205V12.4795H237.449V34.9004Z" fill="#F5ECE6"/>
<path d="M120.656 55.3201C113.82 55.3201 106.985 53.4601 103.027 50.7001L106.925 42.0001C110.642 44.5201 115.919 46.1401 120.775 46.1401C125.752 46.1401 127.671 44.7601 127.671 42.6601C127.671 35.9401 103.807 40.8601 103.807 25.2001C103.807 17.7601 109.923 11.6401 122.334 11.6401C127.731 11.6401 133.367 12.9001 137.444 15.3601L133.907 24.0001C129.889 21.8401 125.932 20.8201 122.214 20.8201C117.238 20.8201 115.379 22.5001 115.379 24.6001C115.379 31.1401 139.243 26.3401 139.243 41.7601C139.243 49.0801 133.127 55.3201 120.656 55.3201Z" fill="#F5ECE6"/>
<path d="M53.4229 21.72L53.4828 12.48H72.4901C83.9424 12.48 91.1376 18.42 91.1376 27.96C91.1376 37.5 83.9424 43.44 72.4901 43.44H65.175V54.48H53.4229V34.2H71.8305C76.8672 34.2 79.3255 31.86 79.3255 27.96C79.3255 24.06 76.8672 21.72 71.8305 21.72H53.4229Z" fill="#F5ECE6"/>
<path d="M23.8044 31.0796L41.8519 54.48H28.2409L16.0693 39.1196L11.5723 43.98V54.48H0V42.5347L28.0349 12.48H40.8926L23.8044 31.0796ZM11.5723 16.939L0 29.3442V12.48H11.5723V16.939Z" fill="#F5ECE6"/>
<path d="M512.024 93.8064C511.476 93.8064 511.01 93.6213 510.623 93.2511C510.237 92.8648 510.044 92.382 510.044 91.8026C510.044 91.191 510.237 90.7082 510.623 90.3541C511.01 89.9839 511.476 89.7988 512.024 89.7988C512.571 89.7988 513.038 89.9839 513.424 90.3541C513.81 90.7082 514.003 91.191 514.003 91.8026C514.003 92.382 513.81 92.8648 513.424 93.2511C513.038 93.6213 512.571 93.8064 512.024 93.8064Z" fill="#C88B4E"/>
<path d="M503.512 93.8064C502.096 93.8064 501.001 93.4443 500.229 92.7201C499.456 91.9797 499.07 90.8933 499.07 89.4609V77.897H502.088V89.3885C502.088 90.0001 502.24 90.4749 502.546 90.8129C502.868 91.1508 503.311 91.3198 503.874 91.3198C504.55 91.3198 505.113 91.1428 505.564 90.7887L506.409 92.9373C506.055 93.227 505.62 93.4443 505.105 93.5892C504.59 93.734 504.059 93.8064 503.512 93.8064ZM496.945 83.2565V80.8423H505.54V83.2565H496.945Z" fill="#C88B4E"/>
<path d="M488.287 93.8062C487.209 93.8062 486.171 93.6694 485.173 93.3958C484.191 93.1061 483.41 92.76 482.831 92.3577L483.99 90.0642C484.569 90.4344 485.261 90.7402 486.066 90.9816C486.871 91.223 487.676 91.3437 488.48 91.3437C489.43 91.3437 490.114 91.2149 490.532 90.9574C490.967 90.6999 491.184 90.3539 491.184 89.9193C491.184 89.5653 491.039 89.2997 490.75 89.1227C490.46 88.9295 490.082 88.7847 489.615 88.6881C489.148 88.5915 488.625 88.503 488.046 88.4225C487.482 88.3421 486.911 88.2375 486.332 88.1087C485.768 87.9638 485.253 87.7627 484.787 87.5051C484.32 87.2315 483.942 86.8694 483.652 86.4188C483.362 85.9681 483.217 85.3726 483.217 84.6323C483.217 83.8114 483.451 83.1033 483.917 82.5078C484.384 81.8962 485.036 81.4295 485.873 81.1076C486.726 80.7696 487.732 80.6006 488.891 80.6006C489.76 80.6006 490.637 80.6972 491.522 80.8903C492.407 81.0834 493.14 81.357 493.719 81.7111L492.56 84.0046C491.949 83.6344 491.329 83.3849 490.701 83.2562C490.09 83.1113 489.478 83.0389 488.867 83.0389C487.949 83.0389 487.265 83.1757 486.814 83.4493C486.38 83.7229 486.163 84.069 486.163 84.4874C486.163 84.8737 486.307 85.1634 486.597 85.3565C486.887 85.5497 487.265 85.7026 487.732 85.8152C488.199 85.9279 488.714 86.0245 489.277 86.1049C489.856 86.1693 490.428 86.2739 490.991 86.4188C491.554 86.5636 492.069 86.7648 492.536 87.0223C493.019 87.2637 493.405 87.6098 493.695 88.0604C493.985 88.5111 494.129 89.0985 494.129 89.8228C494.129 90.6275 493.888 91.3276 493.405 91.9231C492.938 92.5186 492.271 92.9853 491.401 93.3233C490.532 93.6452 489.494 93.8062 488.287 93.8062Z" fill="#C88B4E"/>
<path d="M472.606 93.8062C471.287 93.8062 470.112 93.5245 469.082 92.9612C468.052 92.3818 467.239 91.5932 466.643 90.5953C466.048 89.5974 465.75 88.4628 465.75 87.1913C465.75 85.9037 466.048 84.7691 466.643 83.7873C467.239 82.7894 468.052 82.0089 469.082 81.4456C470.112 80.8822 471.287 80.6006 472.606 80.6006C473.942 80.6006 475.125 80.8822 476.155 81.4456C477.201 82.0089 478.014 82.7814 478.593 83.7632C479.189 84.7449 479.487 85.8876 479.487 87.1913C479.487 88.4628 479.189 89.5974 478.593 90.5953C478.014 91.5932 477.201 92.3818 476.155 92.9612C475.125 93.5245 473.942 93.8062 472.606 93.8062ZM472.606 91.223C473.347 91.223 474.006 91.062 474.586 90.7402C475.165 90.4183 475.616 89.9515 475.938 89.3399C476.276 88.7283 476.445 88.0121 476.445 87.1913C476.445 86.3544 476.276 85.6382 475.938 85.0427C475.616 84.4311 475.165 83.9643 474.586 83.6425C474.006 83.3206 473.355 83.1596 472.63 83.1596C471.89 83.1596 471.23 83.3206 470.651 83.6425C470.087 83.9643 469.637 84.4311 469.299 85.0427C468.961 85.6382 468.792 86.3544 468.792 87.1913C468.792 88.0121 468.961 88.7283 469.299 89.3399C469.637 89.9515 470.087 90.4183 470.651 90.7402C471.23 91.062 471.882 91.223 472.606 91.223Z" fill="#C88B4E"/>
<path d="M455.645 80.6006C456.675 80.6006 457.593 80.8018 458.397 81.2041C459.218 81.6065 459.862 82.2261 460.329 83.0631C460.795 83.8839 461.029 84.9461 461.029 86.2498V93.6372H458.011V86.636C458.011 85.4933 457.737 84.6403 457.19 84.077C456.659 83.5137 455.911 83.232 454.945 83.232C454.237 83.232 453.609 83.3769 453.062 83.6666C452.515 83.9563 452.088 84.3909 451.782 84.9703C451.493 85.5336 451.348 86.2498 451.348 87.1189V93.6372H448.33V80.7454H451.203V84.2219L450.696 83.1596C451.147 82.3388 451.798 81.7111 452.651 81.2766C453.521 80.8259 454.518 80.6006 455.645 80.6006Z" fill="#C88B4E"/>
<path d="M437.44 93.8062C436.008 93.8062 434.752 93.5245 433.674 92.9612C432.612 92.3818 431.783 91.5932 431.187 90.5953C430.608 89.5974 430.318 88.4628 430.318 87.1913C430.318 85.9037 430.6 84.7691 431.163 83.7873C431.743 82.7894 432.531 82.0089 433.529 81.4456C434.543 80.8822 435.694 80.6006 436.981 80.6006C438.237 80.6006 439.355 80.8742 440.337 81.4214C441.319 81.9686 442.092 82.7412 442.655 83.739C443.218 84.7369 443.5 85.9118 443.5 87.2637C443.5 87.3925 443.492 87.5373 443.476 87.6983C443.476 87.8592 443.468 88.0121 443.451 88.157H432.708V86.1532H441.858L440.675 86.7809C440.691 86.0405 440.538 85.3887 440.217 84.8254C439.895 84.2621 439.452 83.8195 438.889 83.4976C438.341 83.1757 437.706 83.0148 436.981 83.0148C436.241 83.0148 435.589 83.1757 435.026 83.4976C434.479 83.8195 434.044 84.2701 433.722 84.8495C433.417 85.4129 433.264 86.0808 433.264 86.8533V87.3362C433.264 88.1087 433.441 88.7927 433.795 89.3882C434.149 89.9837 434.648 90.4424 435.292 90.7643C435.935 91.0862 436.676 91.2471 437.513 91.2471C438.237 91.2471 438.889 91.1345 439.468 90.9091C440.047 90.6838 440.563 90.3297 441.013 89.8469L442.631 91.7058C442.051 92.3818 441.319 92.9049 440.434 93.275C439.565 93.6291 438.567 93.8062 437.44 93.8062Z" fill="#C88B4E"/>
<path d="M421.002 98.49C420.438 98.49 419.907 98.4256 419.408 98.2969C418.893 98.1842 418.459 97.9991 418.104 97.7416L418.974 95.4964C419.44 95.8344 420.028 96.0034 420.736 96.0034C421.283 96.0034 421.71 95.8264 422.015 95.4723C422.321 95.1343 422.474 94.6273 422.474 93.9513V80.7458H425.492V93.8789C425.492 95.2952 425.098 96.4138 424.309 97.2346C423.536 98.0715 422.434 98.49 421.002 98.49ZM423.971 78.6213C423.408 78.6213 422.941 78.4442 422.571 78.0902C422.217 77.7361 422.04 77.3096 422.04 76.8106C422.04 76.2956 422.217 75.8691 422.571 75.5311C422.941 75.177 423.408 75 423.971 75C424.534 75 424.993 75.169 425.347 75.507C425.717 75.8289 425.902 76.2393 425.902 76.7382C425.902 77.2693 425.725 77.72 425.371 78.0902C425.017 78.4442 424.55 78.6213 423.971 78.6213Z" fill="#C88B4E"/>
<path d="M410.632 93.8062C409.312 93.8062 408.137 93.5245 407.107 92.9612C406.077 92.3818 405.264 91.5932 404.669 90.5953C404.073 89.5974 403.775 88.4628 403.775 87.1913C403.775 85.9037 404.073 84.7691 404.669 83.7873C405.264 82.7894 406.077 82.0089 407.107 81.4456C408.137 80.8822 409.312 80.6006 410.632 80.6006C411.967 80.6006 413.15 80.8822 414.181 81.4456C415.227 82.0089 416.039 82.7814 416.619 83.7632C417.214 84.7449 417.512 85.8876 417.512 87.1913C417.512 88.4628 417.214 89.5974 416.619 90.5953C416.039 91.5932 415.227 92.3818 414.181 92.9612C413.15 93.5245 411.967 93.8062 410.632 93.8062ZM410.632 91.223C411.372 91.223 412.032 91.062 412.611 90.7402C413.191 90.4183 413.641 89.9515 413.963 89.3399C414.301 88.7283 414.47 88.0121 414.47 87.1913C414.47 86.3544 414.301 85.6382 413.963 85.0427C413.641 84.4311 413.191 83.9643 412.611 83.6425C412.032 83.3206 411.38 83.1596 410.656 83.1596C409.915 83.1596 409.256 83.3206 408.676 83.6425C408.113 83.9643 407.662 84.4311 407.324 85.0427C406.986 85.6382 406.817 86.3544 406.817 87.1913C406.817 88.0121 406.986 88.7283 407.324 89.3399C407.662 89.9515 408.113 90.4183 408.676 90.7402C409.256 91.062 409.907 91.223 410.632 91.223Z" fill="#C88B4E"/>
<path d="M390.54 90.7645L390.612 86.9742L397.348 80.7456H400.969L395.247 86.4914L393.654 87.8192L390.54 90.7645ZM388.077 93.6374V75.7241H391.095V93.6374H388.077ZM397.806 93.6374L393.099 87.8192L395.006 85.405L401.476 93.6374H397.806Z" fill="#C88B4E"/>
<path d="M376.38 93.8062C375.06 93.8062 373.885 93.5245 372.855 92.9612C371.825 92.3818 371.012 91.5932 370.417 90.5953C369.821 89.5974 369.523 88.4628 369.523 87.1913C369.523 85.9037 369.821 84.7691 370.417 83.7873C371.012 82.7894 371.825 82.0089 372.855 81.4456C373.885 80.8822 375.06 80.6006 376.38 80.6006C377.716 80.6006 378.899 80.8822 379.929 81.4456C380.975 82.0089 381.787 82.7814 382.367 83.7632C382.962 84.7449 383.26 85.8876 383.26 87.1913C383.26 88.4628 382.962 89.5974 382.367 90.5953C381.787 91.5932 380.975 92.3818 379.929 92.9612C378.899 93.5245 377.716 93.8062 376.38 93.8062ZM376.38 91.223C377.12 91.223 377.78 91.062 378.359 90.7402C378.939 90.4183 379.389 89.9515 379.711 89.3399C380.049 88.7283 380.218 88.0121 380.218 87.1913C380.218 86.3544 380.049 85.6382 379.711 85.0427C379.389 84.4311 378.939 83.9643 378.359 83.6425C377.78 83.3206 377.128 83.1596 376.404 83.1596C375.664 83.1596 375.004 83.3206 374.424 83.6425C373.861 83.9643 373.41 84.4311 373.072 85.0427C372.734 85.6382 372.565 86.3544 372.565 87.1913C372.565 88.0121 372.734 88.7283 373.072 89.3399C373.41 89.9515 373.861 90.4183 374.424 90.7402C375.004 91.062 375.655 91.223 376.38 91.223Z" fill="#C88B4E"/>
<path d="M359.25 93.8062C358.203 93.8062 357.246 93.5647 356.377 93.0819C355.524 92.5991 354.84 91.8748 354.325 90.9091C353.826 89.9274 353.576 88.6881 353.576 87.1913C353.576 85.6784 353.818 84.4391 354.3 83.4735C354.799 82.5078 355.475 81.7916 356.328 81.3248C357.181 80.842 358.155 80.6006 359.25 80.6006C360.521 80.6006 361.64 80.8742 362.605 81.4214C363.587 81.9686 364.36 82.7331 364.923 83.7149C365.502 84.6966 365.792 85.8555 365.792 87.1913C365.792 88.5272 365.502 89.694 364.923 90.6919C364.36 91.6736 363.587 92.4381 362.605 92.9853C361.64 93.5326 360.521 93.8062 359.25 93.8062ZM352.104 98.3207V80.7454H354.976V83.7873L354.88 87.2154L355.121 90.6436V98.3207H352.104ZM358.912 91.223C359.636 91.223 360.28 91.062 360.843 90.7402C361.422 90.4183 361.881 89.9515 362.219 89.3399C362.557 88.7283 362.726 88.0121 362.726 87.1913C362.726 86.3544 362.557 85.6382 362.219 85.0427C361.881 84.4311 361.422 83.9643 360.843 83.6425C360.28 83.3206 359.636 83.1596 358.912 83.1596C358.187 83.1596 357.535 83.3206 356.956 83.6425C356.377 83.9643 355.918 84.4311 355.58 85.0427C355.242 85.6382 355.073 86.3544 355.073 87.1913C355.073 88.0121 355.242 88.7283 355.58 89.3399C355.918 89.9515 356.377 90.4183 356.956 90.7402C357.535 91.062 358.187 91.223 358.912 91.223Z" fill="#C88B4E"/>
<path d="M340.519 93.8787C339.199 93.8787 337.935 93.6936 336.728 93.3234C335.521 92.9372 334.564 92.4463 333.855 91.8508L334.942 89.4125C335.618 89.9436 336.455 90.3862 337.453 90.7403C338.45 91.0943 339.472 91.2714 340.519 91.2714C341.404 91.2714 342.12 91.1748 342.667 90.9817C343.214 90.7885 343.617 90.531 343.874 90.2091C344.132 89.8712 344.261 89.4929 344.261 89.0745C344.261 88.5594 344.076 88.149 343.705 87.8432C343.335 87.5214 342.852 87.2719 342.257 87.0948C341.677 86.9017 341.026 86.7247 340.301 86.5637C339.593 86.4028 338.877 86.2177 338.153 86.0085C337.445 85.7831 336.793 85.5015 336.197 85.1635C335.618 84.8094 335.143 84.3427 334.773 83.7633C334.403 83.1839 334.218 82.4435 334.218 81.5422C334.218 80.6248 334.459 79.7879 334.942 79.0315C335.441 78.2589 336.189 77.6473 337.187 77.1967C338.201 76.73 339.481 76.4966 341.026 76.4966C342.04 76.4966 343.045 76.6253 344.043 76.8829C345.041 77.1404 345.91 77.5105 346.651 77.9934L345.661 80.4317C344.904 79.9811 344.124 79.6511 343.319 79.4419C342.514 79.2166 341.742 79.1039 341.001 79.1039C340.132 79.1039 339.424 79.2085 338.877 79.4177C338.346 79.627 337.952 79.9006 337.694 80.2386C337.453 80.5766 337.332 80.9628 337.332 81.3974C337.332 81.9124 337.509 82.3309 337.863 82.6527C338.233 82.9585 338.708 83.2 339.287 83.377C339.883 83.554 340.543 83.7311 341.267 83.9081C341.991 84.0691 342.707 84.2542 343.416 84.4634C344.14 84.6726 344.792 84.9462 345.371 85.2842C345.967 85.6222 346.441 86.0809 346.795 86.6603C347.166 87.2397 347.351 87.972 347.351 88.8572C347.351 89.7585 347.101 90.5954 346.602 91.3679C346.12 92.1244 345.371 92.736 344.357 93.2027C343.343 93.6534 342.064 93.8787 340.519 93.8787Z" fill="#C88B4E"/>
<path d="M319.526 93.8064C318.979 93.8064 318.513 93.6213 318.126 93.2511C317.74 92.8648 317.547 92.382 317.547 91.8026C317.547 91.191 317.74 90.7082 318.126 90.3541C318.513 89.9839 318.979 89.7988 319.526 89.7988C320.074 89.7988 320.54 89.9839 320.927 90.3541C321.313 90.7082 321.506 91.191 321.506 91.8026C321.506 92.382 321.313 92.8648 320.927 93.2511C320.54 93.6213 320.074 93.8064 319.526 93.8064Z" fill="#C88B4E"/>
<path d="M311.015 93.8064C309.599 93.8064 308.504 93.4443 307.732 92.7201C306.959 91.9797 306.573 90.8933 306.573 89.4609V77.897H309.59V89.3885C309.59 90.0001 309.743 90.4749 310.049 90.8129C310.371 91.1508 310.814 91.3198 311.377 91.3198C312.053 91.3198 312.616 91.1428 313.067 90.7887L313.912 92.9373C313.558 93.227 313.123 93.4443 312.608 93.5892C312.093 93.734 311.562 93.8064 311.015 93.8064ZM304.448 83.2565V80.8423H313.043V83.2565H304.448Z" fill="#C88B4E"/>
<path d="M295.79 93.8062C294.712 93.8062 293.674 93.6694 292.676 93.3958C291.694 93.1061 290.913 92.76 290.334 92.3577L291.493 90.0642C292.072 90.4344 292.764 90.7402 293.569 90.9816C294.374 91.223 295.178 91.3437 295.983 91.3437C296.933 91.3437 297.617 91.2149 298.035 90.9574C298.47 90.6999 298.687 90.3539 298.687 89.9193C298.687 89.5653 298.542 89.2997 298.253 89.1227C297.963 88.9295 297.585 88.7847 297.118 88.6881C296.651 88.5915 296.128 88.503 295.549 88.4225C294.985 88.3421 294.414 88.2375 293.835 88.1087C293.271 87.9638 292.756 87.7627 292.289 87.5051C291.823 87.2315 291.445 86.8694 291.155 86.4188C290.865 85.9681 290.72 85.3726 290.72 84.6323C290.72 83.8114 290.954 83.1033 291.42 82.5078C291.887 81.8962 292.539 81.4295 293.376 81.1076C294.229 80.7696 295.235 80.6006 296.394 80.6006C297.263 80.6006 298.14 80.6972 299.025 80.8903C299.91 81.0834 300.643 81.357 301.222 81.7111L300.063 84.0046C299.452 83.6344 298.832 83.3849 298.204 83.2562C297.593 83.1113 296.981 83.0389 296.369 83.0389C295.452 83.0389 294.768 83.1757 294.317 83.4493C293.883 83.7229 293.666 84.069 293.666 84.4874C293.666 84.8737 293.81 85.1634 294.1 85.3565C294.39 85.5497 294.768 85.7026 295.235 85.8152C295.702 85.9279 296.217 86.0245 296.78 86.1049C297.359 86.1693 297.931 86.2739 298.494 86.4188C299.057 86.5636 299.572 86.7648 300.039 87.0223C300.522 87.2637 300.908 87.6098 301.198 88.0604C301.488 88.5111 301.632 89.0985 301.632 89.8228C301.632 90.6275 301.391 91.3276 300.908 91.9231C300.441 92.5186 299.773 92.9853 298.904 93.3233C298.035 93.6452 296.997 93.8062 295.79 93.8062Z" fill="#C88B4E"/>
<path d="M280.109 93.8062C278.789 93.8062 277.615 93.5245 276.584 92.9612C275.554 92.3818 274.742 91.5932 274.146 90.5953C273.551 89.5974 273.253 88.4628 273.253 87.1913C273.253 85.9037 273.551 84.7691 274.146 83.7873C274.742 82.7894 275.554 82.0089 276.584 81.4456C277.615 80.8822 278.789 80.6006 280.109 80.6006C281.445 80.6006 282.628 80.8822 283.658 81.4456C284.704 82.0089 285.517 82.7814 286.096 83.7632C286.692 84.7449 286.99 85.8876 286.99 87.1913C286.99 88.4628 286.692 89.5974 286.096 90.5953C285.517 91.5932 284.704 92.3818 283.658 92.9612C282.628 93.5245 281.445 93.8062 280.109 93.8062ZM280.109 91.223C280.85 91.223 281.509 91.062 282.089 90.7402C282.668 90.4183 283.119 89.9515 283.441 89.3399C283.779 88.7283 283.948 88.0121 283.948 87.1913C283.948 86.3544 283.779 85.6382 283.441 85.0427C283.119 84.4311 282.668 83.9643 282.089 83.6425C281.509 83.3206 280.858 83.1596 280.133 83.1596C279.393 83.1596 278.733 83.3206 278.154 83.6425C277.59 83.9643 277.14 84.4311 276.802 85.0427C276.464 85.6382 276.295 86.3544 276.295 87.1913C276.295 88.0121 276.464 88.7283 276.802 89.3399C277.14 89.9515 277.59 90.4183 278.154 90.7402C278.733 91.062 279.385 91.223 280.109 91.223Z" fill="#C88B4E"/>
<path d="M263.148 80.6006C264.178 80.6006 265.095 80.8018 265.9 81.2041C266.721 81.6065 267.365 82.2261 267.831 83.0631C268.298 83.8839 268.532 84.9461 268.532 86.2498V93.6372H265.514V86.636C265.514 85.4933 265.24 84.6403 264.693 84.077C264.162 83.5137 263.414 83.232 262.448 83.232C261.74 83.232 261.112 83.3769 260.565 83.6666C260.018 83.9563 259.591 84.3909 259.285 84.9703C258.996 85.5336 258.851 86.2498 258.851 87.1189V93.6372H255.833V80.7454H258.706V84.2219L258.199 83.1596C258.65 82.3388 259.301 81.7111 260.154 81.2766C261.023 80.8259 262.021 80.6006 263.148 80.6006Z" fill="#C88B4E"/>
<path d="M239.99 93.6373V91.7301L247.933 82.1217L248.488 83.1598H240.135V80.7456H250.902V82.6528L242.96 92.2613L242.356 91.2232H251.12V93.6373H239.99Z" fill="#C88B4E"/>
<path d="M232.143 93.6375V80.7458H235.161V93.6375H232.143ZM233.664 78.6213C233.1 78.6213 232.634 78.4442 232.264 78.0902C231.909 77.7361 231.732 77.3096 231.732 76.8106C231.732 76.2956 231.909 75.8691 232.264 75.5311C232.634 75.177 233.1 75 233.664 75C234.227 75 234.686 75.169 235.04 75.507C235.41 75.8289 235.595 76.2393 235.595 76.7382C235.595 77.2693 235.418 77.72 235.064 78.0902C234.71 78.4442 234.243 78.6213 233.664 78.6213Z" fill="#C88B4E"/>
<path d="M222.216 93.8062C220.864 93.8062 219.657 93.5245 218.595 92.9612C217.549 92.3818 216.728 91.5932 216.133 90.5953C215.537 89.5974 215.239 88.4628 215.239 87.1913C215.239 85.9037 215.537 84.7691 216.133 83.7873C216.728 82.7894 217.549 82.0089 218.595 81.4456C219.657 80.8822 220.864 80.6006 222.216 80.6006C223.472 80.6006 224.574 80.8581 225.524 81.3731C226.489 81.8721 227.222 82.6124 227.721 83.5942L225.403 84.9461C225.017 84.3345 224.542 83.8839 223.979 83.5942C223.431 83.3045 222.836 83.1596 222.192 83.1596C221.452 83.1596 220.784 83.3206 220.188 83.6425C219.593 83.9643 219.126 84.4311 218.788 85.0427C218.45 85.6382 218.281 86.3544 218.281 87.1913C218.281 88.0282 218.45 88.7525 218.788 89.3641C219.126 89.9596 219.593 90.4183 220.188 90.7402C220.784 91.062 221.452 91.223 222.192 91.223C222.836 91.223 223.431 91.0781 223.979 90.7884C224.542 90.4987 225.017 90.0481 225.403 89.4365L227.721 90.7884C227.222 91.7541 226.489 92.5025 225.524 93.0336C224.574 93.5487 223.472 93.8062 222.216 93.8062Z" fill="#C88B4E"/>
<path d="M205.412 93.8062C203.979 93.8062 202.724 93.5245 201.646 92.9612C200.584 92.3818 199.755 91.5932 199.159 90.5953C198.58 89.5974 198.29 88.4628 198.29 87.1913C198.29 85.9037 198.572 84.7691 199.135 83.7873C199.714 82.7894 200.503 82.0089 201.501 81.4456C202.515 80.8822 203.666 80.6006 204.953 80.6006C206.209 80.6006 207.327 80.8742 208.309 81.4214C209.291 81.9686 210.063 82.7412 210.627 83.739C211.19 84.7369 211.471 85.9118 211.471 87.2637C211.471 87.3925 211.463 87.5373 211.447 87.6983C211.447 87.8592 211.439 88.0121 211.423 88.157H200.68V86.1532H209.83L208.647 86.7809C208.663 86.0405 208.51 85.3887 208.188 84.8254C207.866 84.2621 207.424 83.8195 206.86 83.4976C206.313 83.1757 205.677 83.0148 204.953 83.0148C204.213 83.0148 203.561 83.1757 202.998 83.4976C202.45 83.8195 202.016 84.2701 201.694 84.8495C201.388 85.4129 201.235 86.0808 201.235 86.8533V87.3362C201.235 88.1087 201.412 88.7927 201.766 89.3882C202.121 89.9837 202.619 90.4424 203.263 90.7643C203.907 91.0862 204.647 91.2471 205.484 91.2471C206.209 91.2471 206.86 91.1345 207.44 90.9091C208.019 90.6838 208.534 90.3297 208.985 89.8469L210.602 91.7058C210.023 92.3818 209.291 92.9049 208.405 93.275C207.536 93.6291 206.538 93.8062 205.412 93.8062Z" fill="#C88B4E"/>
<path d="M187.519 93.6372V80.7454H190.391V84.2943L190.053 83.2562C190.44 82.3871 191.043 81.7272 191.864 81.2766C192.701 80.8259 193.739 80.6006 194.978 80.6006V83.4735C194.85 83.4413 194.729 83.4252 194.616 83.4252C194.504 83.4091 194.391 83.401 194.278 83.401C193.136 83.401 192.226 83.739 191.55 84.415C190.874 85.0749 190.536 86.0647 190.536 87.3844V93.6372H187.519Z" fill="#C88B4E"/>
<path d="M168.714 93.6371V76.7378H175.667C177.164 76.7378 178.443 76.9792 179.505 77.462C180.584 77.9449 181.412 78.6369 181.992 79.5382C182.571 80.4395 182.861 81.5098 182.861 82.7491C182.861 83.9884 182.571 85.0587 181.992 85.96C181.412 86.8613 180.584 87.5533 179.505 88.0362C178.443 88.519 177.164 88.7604 175.667 88.7604H170.452L171.852 87.2878V93.6371H168.714ZM171.852 87.6258L170.452 86.1048H175.522C176.906 86.1048 177.944 85.8151 178.636 85.2357C179.344 84.6402 179.698 83.8113 179.698 82.7491C179.698 81.6708 179.344 80.8419 178.636 80.2625C177.944 79.6831 176.906 79.3934 175.522 79.3934H170.452L171.852 77.8483V87.6258Z" fill="#C88B4E"/>
<path d="M152.961 93.8064C152.414 93.8064 151.947 93.6213 151.561 93.2511C151.175 92.8648 150.981 92.382 150.981 91.8026C150.981 91.191 151.175 90.7082 151.561 90.3541C151.947 89.9839 152.414 89.7988 152.961 89.7988C153.508 89.7988 153.975 89.9839 154.361 90.3541C154.748 90.7082 154.941 91.191 154.941 91.8026C154.941 92.382 154.748 92.8648 154.361 93.2511C153.975 93.6213 153.508 93.8064 152.961 93.8064Z" fill="#C88B4E"/>
<path d="M143.342 93.6372V91.0299L143.173 90.4746V85.9118C143.173 85.0266 142.908 84.3426 142.377 83.8597C141.846 83.3608 141.041 83.1113 139.963 83.1113C139.238 83.1113 138.522 83.224 137.814 83.4493C137.122 83.6746 136.534 83.9885 136.052 84.3909L134.869 82.1939C135.561 81.6628 136.382 81.2685 137.331 81.011C138.297 80.7374 139.295 80.6006 140.325 80.6006C142.192 80.6006 143.632 81.0512 144.646 81.9525C145.676 82.8377 146.191 84.2138 146.191 86.0808V93.6372H143.342ZM139.287 93.8062C138.321 93.8062 137.476 93.6452 136.752 93.3233C136.027 92.9853 135.464 92.5266 135.062 91.9472C134.676 91.3517 134.482 90.6838 134.482 89.9435C134.482 89.2192 134.651 88.5674 134.989 87.988C135.343 87.4086 135.915 86.9499 136.703 86.6119C137.492 86.2739 138.538 86.1049 139.842 86.1049H143.584V88.1087H140.059C139.029 88.1087 138.337 88.2777 137.983 88.6157C137.629 88.9376 137.452 89.3399 137.452 89.8228C137.452 90.37 137.669 90.8045 138.104 91.1264C138.538 91.4483 139.142 91.6093 139.914 91.6093C140.655 91.6093 141.315 91.4403 141.894 91.1023C142.489 90.7643 142.916 90.2654 143.173 89.6055L143.68 91.4161C143.391 92.1726 142.868 92.76 142.111 93.1785C141.371 93.5969 140.429 93.8062 139.287 93.8062Z" fill="#C88B4E"/>
<path d="M128.09 93.8064C126.674 93.8064 125.579 93.4443 124.807 92.7201C124.034 91.9797 123.648 90.8933 123.648 89.4609V77.897H126.666V89.3885C126.666 90.0001 126.819 90.4749 127.124 90.8129C127.446 91.1508 127.889 91.3198 128.452 91.3198C129.128 91.3198 129.691 91.1428 130.142 90.7887L130.987 92.9373C130.633 93.227 130.198 93.4443 129.683 93.5892C129.168 93.734 128.637 93.8064 128.09 93.8064ZM121.523 83.2565V80.8423H130.118V83.2565H121.523Z" fill="#C88B4E"/>
<path d="M114.326 93.6375V80.7458H117.344V93.6375H114.326ZM115.847 78.6213C115.284 78.6213 114.817 78.4442 114.447 78.0902C114.093 77.7361 113.916 77.3096 113.916 76.8106C113.916 76.2956 114.093 75.8691 114.447 75.5311C114.817 75.177 115.284 75 115.847 75C116.411 75 116.869 75.169 117.223 75.507C117.594 75.8289 117.779 76.2393 117.779 76.7382C117.779 77.2693 117.602 77.72 117.248 78.0902C116.894 78.4442 116.427 78.6213 115.847 78.6213Z" fill="#C88B4E"/>
<path d="M105.417 93.6374V75.7241H108.435V93.6374H105.417Z" fill="#C88B4E"/>
<path d="M96.7634 93.6372V91.0299L96.5944 90.4746V85.9118C96.5944 85.0266 96.3288 84.3426 95.7977 83.8597C95.2666 83.3608 94.4619 83.1113 93.3835 83.1113C92.6593 83.1113 91.9431 83.224 91.2349 83.4493C90.5428 83.6746 89.9554 83.9885 89.4725 84.3909L88.2896 82.1939C88.9817 81.6628 89.8025 81.2685 90.7521 81.011C91.7177 80.7374 92.7156 80.6006 93.7456 80.6006C95.6126 80.6006 97.0531 81.0512 98.067 81.9525C99.0971 82.8377 99.6121 84.2138 99.6121 86.0808V93.6372H96.7634ZM92.7075 93.8062C91.7419 93.8062 90.8969 93.6452 90.1727 93.3233C89.4484 92.9853 88.8851 92.5266 88.4827 91.9472C88.0965 91.3517 87.9033 90.6838 87.9033 89.9435C87.9033 89.2192 88.0723 88.5674 88.4103 87.988C88.7644 87.4086 89.3357 86.9499 90.1244 86.6119C90.913 86.2739 91.9592 86.1049 93.2628 86.1049H97.0048V88.1087H93.4801C92.45 88.1087 91.758 88.2777 91.4039 88.6157C91.0498 88.9376 90.8728 89.3399 90.8728 89.8228C90.8728 90.37 91.09 90.8045 91.5246 91.1264C91.9591 91.4483 92.5627 91.6093 93.3352 91.6093C94.0756 91.6093 94.7355 91.4403 95.3149 91.1023C95.9104 90.7643 96.3369 90.2654 96.5944 89.6055L97.1014 91.4161C96.8117 92.1726 96.2886 92.76 95.5321 93.1785C94.7918 93.5969 93.8503 93.8062 92.7075 93.8062Z" fill="#C88B4E"/>
<path d="M76.7619 93.6373L71.2334 80.7456H74.3718L79.1278 92.1164H77.5827L82.5076 80.7456H85.4047L79.8762 93.6373H76.7619Z" fill="#C88B4E"/>
<path d="M57.8005 89.6537L57.6315 85.9358L66.4915 76.7378H70.0162L62.653 84.5597L60.9147 86.467L57.8005 89.6537ZM55 93.6371V76.7378H58.1384V93.6371H55ZM66.7812 93.6371L60.3112 85.9358L62.3874 83.6424L70.4508 93.6371H66.7812Z" fill="#C88B4E"/>
</svg>
