<svg width="572" height="56" viewBox="0 0 572 56" fill="none" xmlns="http://www.w3.org/2000/svg">
<path d="M555.492 39.42V54.48H543.792V39.3L527.712 12.48H540.132L550.152 29.28L560.232 12.48H571.572L555.492 39.42Z" fill="#2C3E50"/>
<path d="M510.403 41.22L519.523 54.48H506.983L499.303 43.26H492.703V54.48H480.943V34.2H499.363C504.403 34.2 506.863 31.86 506.863 27.96C506.863 24.06 504.403 21.72 499.363 21.72H480.943V12.48H500.023C511.483 12.48 518.683 18.42 518.683 27.96C518.683 34.2 515.683 38.76 510.403 41.22Z" fill="#2C3E50"/>
<path d="M432.231 37.56V28.8H465.051V37.56H432.231ZM432.231 21.6V12.48H465.051V21.6H432.231ZM432.231 45.36V54.48H465.051V45.36H432.231ZM450.891 9.06H442.851L450.831 0H462.171L450.891 9.06Z" fill="#2C3E50"/>
<path d="M415.318 54.48H403.558V12.48H415.318V54.48Z" fill="#2C3E50"/>
<path d="M380.204 41.22L389.324 54.48H376.784L369.104 43.26H362.504V54.48H350.744V34.2H369.164C374.204 34.2 376.664 31.86 376.664 27.96C376.664 24.06 374.204 21.72 369.164 21.72H350.744V12.48H369.824C381.284 12.48 388.484 18.42 388.484 27.96C388.484 34.2 385.484 38.76 380.204 41.22Z" fill="#2C3E50"/>
<path d="M302.031 37.56V28.8H334.851V37.56H302.031ZM302.031 21.6V12.48H334.851V21.6H302.031ZM302.031 45.36V54.48H334.851V45.36H302.031Z" fill="#2C3E50"/>
<path d="M276.244 54.48H264.484V21.78H251.584V12.48H289.144V21.78H276.244V54.48Z" fill="#2C3E50"/>
<path d="M181.95 54.48H170.19V12.48H181.95V54.48Z" fill="#2C3E50"/>
<path d="M210.384 45.9922V54.4805H198.864V32.04L210.384 45.9922ZM238.704 49.0361V54.4805H229.062L198.864 17.9053V12.4795H208.521L238.704 49.0361ZM238.704 34.9004L227.244 21.0205V12.4795H238.704V34.9004Z" fill="#2C3E50"/>
<path d="M120.927 55.3201C114.087 55.3201 107.247 53.4601 103.287 50.7001L107.187 42.0001C110.907 44.5201 116.187 46.1401 121.047 46.1401C126.027 46.1401 127.947 44.7601 127.947 42.6601C127.947 35.9401 104.067 40.8601 104.067 25.2001C104.067 17.7601 110.187 11.6401 122.607 11.6401C128.007 11.6401 133.647 12.9001 137.727 15.3601L134.187 24.0001C130.167 21.8401 126.207 20.8201 122.487 20.8201C117.507 20.8201 115.647 22.5001 115.647 24.6001C115.647 31.1401 139.527 26.3401 139.527 41.7601C139.527 49.0801 133.407 55.3201 120.927 55.3201Z" fill="#2C3E50"/>
<path d="M53.6494 21.72L53.7094 12.48H72.7294C84.1894 12.48 91.3894 18.42 91.3894 27.96C91.3894 37.5 84.1894 43.44 72.7294 43.44H65.4094V54.48H53.6494V34.2H72.0694C77.1094 34.2 79.5694 31.86 79.5694 27.96C79.5694 24.06 77.1094 21.72 72.0694 21.72H53.6494Z" fill="#2C3E50"/>
<path d="M24.0107 31.0796L42.0703 54.48H28.4502L16.2705 39.1196L11.7705 43.98V54.48H0.19043V42.5347L28.2441 12.48H41.1104L24.0107 31.0796ZM11.7705 16.939L0.19043 29.3442V12.48H11.7705V16.939Z" fill="#2C3E50"/>
</svg>
