<svg width="200" height="37" viewBox="0 0 200 37" fill="none" xmlns="http://www.w3.org/2000/svg">
<path fill-rule="evenodd" clip-rule="evenodd" d="M32.6096 37V0.497757H46.2925V24.5561H57.1897V37H32.6096ZM98.8939 37V0.663682H112.003L120.606 18.417V0.829598H133.469V37H120.361L111.512 18.7489V37H98.8939ZM161.083 14.6839V1.90808C161.083 1.90808 156.575 0.0829668 152.562 0.0829668C134.699 0.0829668 134.207 18.2511 134.207 18.2511C134.207 18.2511 135.11 37 152.562 37C159.116 37 161.492 35.009 161.492 35.009V22.0673C161.492 22.0673 158.296 24.9709 154.282 24.9709C147.072 24.9709 147.317 18.2511 147.317 18.2511C147.317 18.2511 147.646 11.5314 154.282 11.5314C158.378 11.5314 161.083 14.6839 161.083 14.6839ZM12.7816 22.3161V26.796H15.4035C15.4035 26.796 17.9435 26.796 17.9435 24.6402C17.9435 22.3161 15.8132 22.3161 15.8132 22.3161H12.7816ZM12.6997 9.95516V13.6883H14.7481C14.7481 13.6883 16.6325 13.6883 16.7145 11.8632C16.7964 9.95516 14.9939 9.95516 14.9939 9.95516H12.6997ZM0 36.917V0.497757H16.3048C16.3048 0.497757 29.743 -0.497753 29.743 10.5359C29.743 15.5964 26.138 17.7534 26.138 17.7534C26.138 17.7534 31.2986 19.9103 31.2986 26.1323C31.2986 37.4966 15.1577 36.9159 15.1577 36.9159L0 36.917ZM76.0344 22.7309H79.6395L77.837 14.7668L76.0344 22.7309ZM58.0909 37L70.381 0.331841H84.8832L97.6649 37H83.6542L82.3433 32.0224H73.4945L72.1835 37H58.0909ZM174.517 18.583C174.517 14.8486 177.304 11.7803 180.828 11.7803C184.268 11.7803 187.135 14.8498 187.135 18.583C187.135 22.3991 184.268 25.4686 180.828 25.4686C177.306 25.4686 174.517 22.3991 174.517 18.583ZM161.736 18.5C161.736 8.213 170.34 0 180.911 0C191.479 0 200 8.213 200 18.5C200 28.7029 191.479 37 180.911 37C170.34 37 161.736 28.704 161.736 18.5Z" fill="black"/>
</svg>
