<svg width="200" height="52" viewBox="0 0 200 52" fill="none" xmlns="http://www.w3.org/2000/svg">
<path fill-rule="evenodd" clip-rule="evenodd" d="M192.141 4.39739C192.141 3.33564 192.544 2.36835 193.293 1.6184C193.655 1.25071 194.088 0.959444 194.565 0.761832C195.042 0.564219 195.554 0.464269 196.07 0.467886C196.587 0.463947 197.099 0.563749 197.576 0.76138C198.053 0.959011 198.486 1.25045 198.848 1.6184C199.216 1.98099 199.508 2.41378 199.706 2.89113C199.904 3.36849 200.004 3.88068 200 4.39739C200 5.45801 199.599 6.42531 198.848 7.17638C198.486 7.54398 198.053 7.83517 197.576 8.03278C197.099 8.23038 196.587 8.33039 196.07 8.3269C195.554 8.33007 195.042 8.22991 194.565 8.03232C194.088 7.83474 193.655 7.54372 193.293 7.17638C192.925 6.81352 192.633 6.38068 192.436 5.90339C192.238 5.42611 192.138 4.91403 192.141 4.39739ZM192.659 4.39739C192.659 3.47561 193.006 2.63464 193.657 1.9837C193.972 1.66426 194.348 1.41116 194.762 1.23936C195.177 1.06756 195.622 0.980527 196.07 0.983394C196.993 0.983394 197.833 1.33163 198.484 1.9837C199.137 2.63464 199.484 3.47675 199.484 4.39739C199.484 5.31803 199.137 6.15901 198.484 6.81109C198.169 7.13079 197.793 7.38405 197.379 7.55587C196.964 7.72769 196.519 7.81457 196.07 7.81139C195.622 7.81425 195.177 7.72722 194.762 7.55542C194.348 7.38362 193.972 7.13053 193.657 6.81109C193.337 6.49593 193.085 6.11994 192.913 5.70535C192.742 5.29077 192.655 4.84601 192.659 4.39739ZM195.439 4.06738H196.25C196.305 4.06692 196.359 4.05517 196.41 4.03287C196.46 4.01057 196.505 3.97818 196.542 3.93774C196.579 3.89729 196.607 3.84965 196.625 3.79775C196.643 3.74586 196.65 3.69082 196.646 3.63607C196.638 3.53666 196.592 3.44407 196.519 3.37664C196.445 3.3092 196.349 3.27183 196.249 3.27191H195.44L195.439 4.06738ZM195.43 6.48221H194.137V2.31144H196.653C196.94 2.3103 197.202 2.38314 197.446 2.53449C197.581 2.61292 197.695 2.72089 197.782 2.85024C197.868 2.97959 197.924 3.12691 197.945 3.28102C198.003 3.64745 197.889 4.00593 197.634 4.27336C197.52 4.39558 197.372 4.48179 197.21 4.52143C197.501 4.59199 197.723 4.81732 197.79 5.10979C197.814 5.21448 197.827 5.31007 197.837 5.41704C197.859 5.70837 197.883 5.97239 197.909 6.26372C197.917 6.34572 197.951 6.42293 198.007 6.48334H196.709C196.652 6.39777 196.617 6.2991 196.609 6.19657C196.578 5.93844 196.553 5.67968 196.534 5.42045C196.527 5.31379 196.479 5.21386 196.4 5.14165C196.324 5.06793 196.222 5.02672 196.116 5.02671L195.431 5.02557V6.48221H195.43ZM2.60488 49.7296L10.8463 29.0897C11.0329 28.5742 11.4494 28.1941 11.9809 28.0564C12.2395 27.9886 12.5108 27.9855 12.771 28.0472C13.0311 28.1089 13.2721 28.2336 13.4728 28.4103C14.4326 29.1639 15.353 29.9665 16.2301 30.8149C16.4964 31.0755 16.9118 31.1233 17.2304 30.931C17.5491 30.7387 17.6982 30.346 17.5912 29.991C17.2498 24.8575 16.8959 20.1962 16.4589 15.0718C16.4255 14.8872 16.3431 14.715 16.2204 14.573C16.0977 14.4311 15.9391 14.3247 15.7613 14.265C15.5839 14.2041 15.3935 14.192 15.2099 14.23C15.0263 14.2681 14.8563 14.3548 14.7177 14.4812L3.53349 24.8302C3.42588 24.9286 3.35253 25.0588 3.32414 25.2018C3.29576 25.3448 3.31383 25.4932 3.37571 25.6252C3.4376 25.7572 3.54006 25.866 3.66814 25.9357C3.79622 26.0054 3.94323 26.0323 4.08769 26.0125C5.21773 26.1457 6.25786 26.1707 7.39358 26.0877C7.73067 26.0876 8.063 26.1672 8.36343 26.3201C8.66386 26.473 8.92386 26.6948 9.1222 26.9673C9.32298 27.2384 9.45682 27.5531 9.51279 27.8858C9.56876 28.2184 9.54528 28.5596 9.44425 28.8814L1.20628 49.725L0 49.8764L8.05931 28.9918C8.20952 28.6072 8.16173 28.185 7.93071 27.847C7.81857 27.6796 7.66655 27.5428 7.48835 27.4488C7.31015 27.3549 7.11138 27.3067 6.90993 27.3087C5.73774 27.227 4.56201 27.2084 3.38782 27.253C3.05672 27.2406 2.73648 27.1315 2.46669 26.9392C2.19689 26.7469 1.98936 26.4797 1.86973 26.1707C1.74896 25.8621 1.72102 25.5249 1.78936 25.2006C1.85769 24.8763 2.01933 24.579 2.25438 24.3454L14.0964 13.2749C14.3807 12.9822 14.7435 12.7777 15.1411 12.6859C15.5387 12.594 15.9543 12.6188 16.3383 12.7571C17.1246 13.0394 17.6697 13.7483 17.7391 14.5813C18.0908 20.095 18.4629 25.1033 18.9306 30.6078C18.9772 30.9561 18.9221 31.3104 18.7721 31.6281C18.6221 31.9459 18.3836 32.2136 18.0851 32.399C17.7874 32.5853 17.4423 32.682 17.0912 32.6773C16.74 32.6727 16.3976 32.567 16.105 32.3728C15.0295 31.6169 14.0342 30.7528 13.1348 29.7941C13.0391 29.6878 12.9189 29.6066 12.7846 29.5574C12.6503 29.5082 12.5061 29.4926 12.3644 29.5119C12.2227 29.5311 12.0878 29.5848 11.9716 29.6681C11.8554 29.7514 11.7613 29.8619 11.6975 29.9899C8.70587 36.418 6.08865 43.0139 3.85895 49.7444L2.60488 49.7296ZM37.9432 40.4856C38.6578 41.5144 39.8493 42.0595 41.3867 42.0595C42.9253 42.0595 44.539 41.5144 46.0525 40.4856C47.4181 39.5619 48.6168 38.4129 49.5974 37.0876C51.6265 34.2847 52.7235 31.4556 52.8692 28.6504C52.9238 27.3258 52.6268 26.2185 51.961 25.2524C51.2373 24.2327 50.0446 23.6956 48.5095 23.6967C46.9732 23.6967 45.364 24.2361 43.8505 25.2569C42.4852 26.1809 41.2866 27.3299 40.3056 28.655C38.2186 31.4488 37.1056 34.3029 37.0146 37.0989C36.9622 38.4213 37.2649 39.5286 37.9432 40.4856ZM17.6868 50.1188L36.3864 1.90859H50.2415L43.904 18.2468C48.8679 15.4223 53.8979 14.1387 58.5853 14.5006C63.6084 14.859 66.9997 17.7063 67.6893 22.1468C68.8102 28.9338 65.6887 36.8873 59.2511 43.6436C55.0541 48.0954 49.4665 50.978 44.0861 51.4673C39.0664 51.8736 35.0526 50.3714 32.6685 47.1953L31.5339 50.1176L17.6868 50.1188ZM62.0687 50.1188L80.7683 1.90859H95.1811L76.4815 50.1188H62.0687ZM130.96 15.8377L117.661 50.1199H104.09L105.378 46.8015C103.526 48.2149 101.635 49.2311 99.5465 49.9424C94.7168 51.5185 90.2968 51.58 86.6006 50.1199C82.3968 48.4641 80.9026 43.9702 82.8998 38.9891L91.8798 15.8388H106.024L98.0887 36.2932C97.5572 37.7043 97.6096 38.9846 98.2412 39.9894C98.8739 40.9943 99.9721 41.5451 101.413 41.5826C102.884 41.5986 104.447 41.0694 105.89 40.06C107.333 39.0506 108.401 37.7419 108.957 36.308L116.896 15.8377H130.96ZM132.573 15.8377H145.25L143.874 19.6409C148.904 15.6158 154.709 13.7779 159.591 14.6656C162.718 15.1879 164.878 17.0246 165.743 19.8969C167.921 18.0693 170.168 16.7481 172.65 15.8388C176.927 14.265 180.863 14.0419 184.303 15.1777C188.729 16.6809 190.42 21.5027 188.411 26.8786L179.995 50.121H166.962L174.335 29.7566C174.85 28.3181 174.794 27.0094 174.179 25.9943C173.565 24.9804 172.496 24.4398 171.112 24.4432C169.769 24.4649 168.367 24.9986 167.068 25.9784C165.768 26.9582 164.804 28.2146 164.279 29.6041L156.852 50.121H143.447L150.851 29.6655C151.399 28.1873 151.342 26.8365 150.688 25.8111C150.033 24.7858 148.899 24.2703 147.452 24.342C146.122 24.408 144.756 24.9588 143.495 25.9352C142.235 26.9104 141.299 28.1417 140.79 29.5005L133.326 50.1199H120.161L132.573 15.8377Z" fill="#DF9E3A"/>
</svg>
