<svg width="200" height="23" viewBox="0 0 200 23" fill="none" xmlns="http://www.w3.org/2000/svg">
<path fill-rule="evenodd" clip-rule="evenodd" d="M12.9466 0.165321C19.202 -0.488358 25.0051 0.796441 30.3563 4.0198C31.4361 5.10177 32.5155 6.1837 33.5953 7.26568C30.4673 7.95595 27.6331 7.41499 25.0929 5.64274C19.2821 3.5007 13.6139 3.77117 8.08805 6.45421C4.26451 10.0816 4.39946 13.598 8.49293 17.0033C11.1143 18.5627 13.9484 19.1713 16.9954 18.8291C20.6684 19.0668 24.0423 18.1876 27.1173 16.1918C29.155 15.8555 31.1794 15.9231 33.1905 16.3947C30.1879 20.1304 26.2739 22.2267 21.449 22.6836C15.0297 23.6415 9.09154 22.4243 3.6344 19.032C-1.46783 13.6047 -1.1979 8.46535 4.44415 3.61406C7.14708 2.02983 9.98122 0.880266 12.9466 0.165321Z" fill="#0A0A0A"/>
<path fill-rule="evenodd" clip-rule="evenodd" d="M200 6.25136C192.847 6.25136 185.694 6.25136 178.541 6.25136C178.541 4.49319 178.541 2.73498 178.541 0.976807C185.694 0.976807 192.847 0.976807 200 0.976807C200 2.73498 200 4.49319 200 6.25136Z" fill="#BBBBBB"/>
<path d="M48.5762 0.165039C54.8098 -0.402572 60.6132 0.882352 65.9854 4.01953C69.3774 6.69807 70.5244 10.1473 69.4268 14.3662C67.6307 18.3258 64.5943 20.8277 60.3174 21.8721C55.1831 23.198 50.0542 23.198 44.9316 21.8721C39.1182 20.139 36.0818 16.2845 35.8223 10.3086C36.5648 7.265 38.2516 4.89788 40.8828 3.20801C43.3542 1.82173 45.919 0.807439 48.5762 0.165039ZM61.5322 6.4541C57.5956 4.42936 53.4114 3.68563 48.9805 4.22266C46.8153 4.88303 44.7907 5.89737 42.9072 7.26562C41.3923 9.09829 40.9198 11.1949 41.4902 13.5547C42.9097 16.266 45.1368 17.9562 48.1709 18.626C51.1398 18.8965 54.1092 18.8965 57.0781 18.626C59.8034 18.1911 62.0304 16.9063 63.7588 14.7715C65.1336 11.3783 64.3916 8.60577 61.5322 6.4541Z" fill="#0B0B0B"/>
<path d="M110.522 0.976807C118.351 0.909217 126.179 0.977069 134.005 1.17993C138.739 2.21608 140.696 5.12339 139.876 9.90259C139.518 10.9585 138.911 11.838 138.054 12.5403C136.717 13.1891 135.367 13.7971 134.005 14.3655C135.747 16.7198 137.704 18.8841 139.876 20.8577C144.534 14.4415 149.055 7.8823 153.439 1.17993C155.464 0.909469 157.488 0.909442 159.513 1.17993C164.152 8.11003 168.74 15.0748 173.278 22.0745C171.389 22.6153 169.499 22.6153 167.609 22.0745C166.8 20.7224 165.99 19.37 165.181 18.0178C159.378 17.4769 153.574 17.4769 147.771 18.0178C146.776 19.4029 145.831 20.8228 144.937 22.2776C141.563 22.5482 138.188 22.5482 134.814 22.2776C132.52 19.708 130.226 17.1382 127.932 14.5686C123.75 14.3658 119.567 14.2979 115.381 14.3655V22.0745H110.522V0.976807ZM156.476 5.03442C154.564 7.69102 152.742 10.3957 151.01 13.1487C154.654 13.6896 158.298 13.6896 161.941 13.1487C160.223 10.405 158.401 7.70037 156.476 5.03442ZM131.576 4.8313C126.18 4.62848 120.781 4.56058 115.381 4.62817V10.7141C121.051 10.7817 126.719 10.7138 132.386 10.511C133.231 10.1896 133.973 9.71629 134.612 9.09106C135.349 6.44535 134.337 5.02552 131.576 4.8313Z" fill="#060606"/>
<path fill-rule="evenodd" clip-rule="evenodd" d="M178.51 6.23218C185.673 6.23218 192.836 6.23218 200 6.23218C200 11.5131 200 16.794 200 22.0749C192.836 22.0749 185.673 22.0749 178.51 22.0749C178.51 16.794 178.51 11.5131 178.51 6.23218Z" fill="#E10E21"/>
<path d="M74.4883 0.976807C82.4517 0.909216 90.4146 0.977067 98.376 1.17993C103.603 2.12786 105.29 5.03511 103.437 9.90259C103.002 10.3564 102.53 10.7627 102.02 11.1204C105.083 12.6433 106.095 15.0773 105.057 18.4231C103.512 20.8542 101.285 22.0712 98.376 22.0745H74.4883V0.976807ZM98.7803 13.7571C92.3036 13.5543 85.8258 13.4864 79.3467 13.554V18.4231C85.6911 18.4907 92.0344 18.4228 98.376 18.22C100.886 16.9482 101.021 15.4606 98.7803 13.7571ZM97.1611 4.8313C91.2245 4.62847 85.2862 4.56058 79.3467 4.62817V9.49731C85.2862 9.56491 91.2245 9.49701 97.1611 9.29419C97.9017 9.18322 98.5093 8.84481 98.9834 8.27954C99.637 6.4365 99.0295 5.28711 97.1611 4.8313Z" fill="#060606"/>
</svg>
