<svg width="200" height="37" viewBox="0 0 200 37" fill="none" xmlns="http://www.w3.org/2000/svg">
<path fill-rule="evenodd" clip-rule="evenodd" d="M18.5065 0.175138C17.8152 0.17592 17.1298 0.233824 16.4502 0.348817C16.8236 0.10122 17.252 -0.0145539 17.7354 0.00145929C18.0279 0.00293556 18.2849 0.0608227 18.5065 0.175138Z" fill="#849FC5"/>
<path fill-rule="evenodd" clip-rule="evenodd" d="M18.5069 0.175171C19.0155 0.343205 19.3582 0.690563 19.535 1.21724C19.6454 3.1944 19.5311 5.10487 19.1923 6.94864C18.28 6.77583 17.3661 6.60215 16.4506 6.42761C16.1761 6.15424 15.8334 6.03839 15.4224 6.08025C13.9462 5.71136 12.4611 5.364 10.967 5.03818C10.6926 4.76481 10.3499 4.64896 9.93889 4.69082C8.46271 4.32193 6.9776 3.97457 5.48354 3.64875C5.20909 3.37538 4.86637 3.25953 4.45538 3.30139C4.06111 3.20413 3.66128 3.11729 3.25586 3.04087C4.43264 2.72686 5.63216 2.46639 6.85441 2.25932C7.35619 2.24801 7.81314 2.13222 8.22529 1.91196C10.0547 1.56438 11.8825 1.21702 13.7088 0.869886C14.222 0.905699 14.679 0.789907 15.0797 0.522528C15.5245 0.389612 15.9815 0.331708 16.4506 0.34885C17.1302 0.233857 17.8156 0.175952 18.5069 0.175171Z" fill="#1E5092"/>
<path fill-rule="evenodd" clip-rule="evenodd" d="M15.0799 0.52258C14.6792 0.789959 14.2222 0.90575 13.709 0.869938C14.1097 0.602559 14.5666 0.486768 15.0799 0.52258Z" fill="#7C9BBF"/>
<path fill-rule="evenodd" clip-rule="evenodd" d="M19.5351 1.21729C19.7056 3.1545 19.7627 5.12297 19.7065 7.12236C19.4852 7.16353 19.3139 7.10569 19.1924 6.94869C19.5312 5.10491 19.6455 3.19444 19.5351 1.21729Z" fill="#95AECB"/>
<path fill-rule="evenodd" clip-rule="evenodd" d="M8.22537 1.91211C7.81322 2.13237 7.35627 2.24816 6.85449 2.25946C7.25518 1.99209 7.71213 1.87629 8.22537 1.91211Z" fill="#83A5C9"/>
<path fill-rule="evenodd" clip-rule="evenodd" d="M4.45508 3.30142C4.86607 3.25957 5.20879 3.37541 5.48324 3.64878C5.07225 3.69064 4.72953 3.57479 4.45508 3.30142Z" fill="#A8BAD6"/>
<path fill-rule="evenodd" clip-rule="evenodd" d="M9.93848 4.69083C10.3495 4.64897 10.6922 4.76481 10.9666 5.03819C10.5556 5.08004 10.2129 4.9642 9.93848 4.69083Z" fill="#AABCD6"/>
<path fill-rule="evenodd" clip-rule="evenodd" d="M1.37088 4.86465C0.873287 5.13472 0.416327 5.48208 0 5.90672C0 5.79088 0 5.67521 0 5.55936C0.250459 5.39298 0.478938 5.19047 0.685439 4.95149C0.907046 4.86639 1.13553 4.83738 1.37088 4.86465Z" fill="#85A1C4"/>
<path fill-rule="evenodd" clip-rule="evenodd" d="M1.37088 4.8645C6.68961 6.15667 12.0018 7.45926 17.3073 8.77227C18.1105 9.03644 18.7389 9.52865 19.1923 10.2485C19.3621 18.8093 19.4192 27.3776 19.3636 35.953C19.2591 36.1078 19.2021 36.2814 19.1923 36.474C19.1147 36.6404 19.0005 36.7853 18.8496 36.9082C18.2212 37.0241 17.593 37.0241 16.9646 36.9082C12.0024 35.6076 7.03301 34.3338 2.05632 33.0873C1.7136 32.9136 1.37088 32.7399 1.02816 32.5663C0.702729 32.0473 0.36001 31.5553 0 31.09C0 22.6956 0 14.301 0 5.90657C0.416327 5.48193 0.873287 5.13457 1.37088 4.8645Z" fill="#1A4F92"/>
<path fill-rule="evenodd" clip-rule="evenodd" d="M41.1268 6.25399C41.1201 6.47213 41.2058 6.64581 41.3839 6.77503C41.4695 14.8219 41.4981 22.869 41.4695 30.9164C41.3624 31.9809 40.7911 32.6466 39.7559 32.9137C34.7171 34.2111 29.6906 35.5425 24.6763 36.9083C23.789 37.1158 22.9892 36.971 22.2772 36.4741C22.1486 36.322 22.0629 36.1483 22.0202 35.9531C21.8783 27.5463 21.9069 19.1519 22.1059 10.7696C22.3823 10.6925 22.5823 10.5188 22.7056 10.2486C22.7627 10.3644 22.8199 10.4801 22.877 10.596C22.979 10.353 22.9503 10.1215 22.7913 9.90124C23.63 9.37031 24.544 9.05196 25.5331 8.94601C25.7166 8.79804 25.888 8.65336 26.0472 8.51181C30.265 7.67399 34.4918 6.77659 38.7278 5.81979C39.2989 5.70395 39.8702 5.70395 40.4414 5.81979C40.7532 5.85453 40.9817 5.99938 41.1268 6.25399Z" fill="#1D9ED9"/>
<path fill-rule="evenodd" clip-rule="evenodd" d="M15.4229 6.08035C15.8338 6.0385 16.1766 6.15434 16.451 6.42771C16.04 6.46957 15.6973 6.35372 15.4229 6.08035Z" fill="#AABCD6"/>
<path fill-rule="evenodd" clip-rule="evenodd" d="M72.6564 6.42761C73.4031 6.44255 74.1456 6.50056 74.8841 6.60129C77.4393 6.89672 79.3528 8.17031 80.6247 10.4222C80.764 10.7585 80.8497 11.1058 80.8817 11.4643C81.5051 16.3737 81.5622 21.2947 81.0531 26.227C80.6898 28.7938 79.3189 30.5306 76.9404 31.4374C76.2893 31.4528 75.6611 31.337 75.0555 31.09C74.8749 31.1213 74.7035 31.1791 74.5414 31.2637C74.5433 31.1002 74.4576 30.9844 74.2844 30.9163C69.1953 30.9452 64.0831 30.9452 58.9477 30.9163C58.9477 29.5269 58.9477 28.1375 58.9477 26.748C62.4324 26.777 65.9167 26.748 69.4006 26.6612C65.887 26.632 62.4028 26.5452 58.9477 26.4007C62.8026 26.2562 66.6868 26.1693 70.6001 26.1402C70.8671 26.1037 71.0955 26.0168 71.2856 25.8796C71.6271 25.5908 72.0269 25.3881 72.4851 25.2718C73.2829 24.0404 73.6827 22.6798 73.6846 21.1903C73.883 19.5419 73.9116 17.863 73.7703 16.1536C73.7305 15.9388 73.6448 15.7651 73.5132 15.6326C73.1631 14.0627 72.1922 13.1363 70.6001 12.8537C70.6469 12.5149 70.5328 12.2544 70.2574 12.0722C66.4875 11.9563 62.7176 11.9563 58.9477 12.0722C58.7907 12.1371 58.6478 12.224 58.5193 12.3327C58.4336 10.3653 58.405 8.39678 58.4336 6.42761C63.1746 6.42761 67.9154 6.42761 72.6564 6.42761Z" fill="#1A4F92"/>
<path fill-rule="evenodd" clip-rule="evenodd" d="M48.4944 6.25391C48.4944 14.88 48.4944 23.5059 48.4944 32.132C51.0648 32.132 53.6352 32.132 56.2056 32.132C53.6081 32.305 50.9807 32.363 48.3231 32.3057C48.2662 23.5924 48.3232 14.9085 48.4944 6.25391Z" fill="#4973A3"/>
<path fill-rule="evenodd" clip-rule="evenodd" d="M48.4951 6.25391C51.0655 6.25391 53.6359 6.25391 56.2063 6.25391C56.2063 14.88 56.2063 23.5059 56.2063 32.132C53.6359 32.132 51.0655 32.132 48.4951 32.132C48.4951 23.5059 48.4951 14.88 48.4951 6.25391Z" fill="#1A5090"/>
<path fill-rule="evenodd" clip-rule="evenodd" d="M41.1263 6.25391C41.2905 6.33258 41.4334 6.44825 41.5547 6.60126C41.6973 14.7355 41.6687 22.8406 41.4691 30.9163C41.4977 22.8689 41.4691 14.8218 41.3834 6.77494C41.2053 6.64573 41.1197 6.47205 41.1263 6.25391Z" fill="#5EB4DF"/>
<path fill-rule="evenodd" clip-rule="evenodd" d="M49.0088 7.29602C50.9508 7.29602 52.893 7.29602 54.835 7.29602C54.835 15.1694 54.835 23.043 54.835 30.9163C52.893 30.9163 50.9508 30.9163 49.0088 30.9163C49.0088 23.043 49.0088 15.1694 49.0088 7.29602Z" fill="#1A4F92"/>
<path fill-rule="evenodd" clip-rule="evenodd" d="M102.987 7.81702C102.987 9.14861 102.987 10.48 102.987 11.8116C98.5318 11.8116 94.0764 11.8116 89.6211 11.8116C89.6211 10.48 89.6211 9.14861 89.6211 7.81702C94.0764 7.81702 98.5318 7.81702 102.987 7.81702Z" fill="#1C9DD9"/>
<path fill-rule="evenodd" clip-rule="evenodd" d="M26.0467 8.51184C25.8875 8.65339 25.7162 8.79806 25.5327 8.94604C24.5436 9.05198 23.6295 9.37034 22.7909 9.90127C22.9499 10.1215 22.9785 10.353 22.8766 10.596C22.8195 10.4801 22.7623 10.3645 22.7052 10.2486C22.5818 10.5189 22.3819 10.6926 22.1055 10.7697C22.2359 10.1871 22.5215 9.69511 22.9623 9.2934C23.9551 8.90349 24.9833 8.64297 26.0467 8.51184Z" fill="#49AAD5"/>
<path fill-rule="evenodd" clip-rule="evenodd" d="M19.5351 10.9432C19.7347 19.3085 19.7634 27.7029 19.6208 36.1267C19.4995 36.2797 19.3565 36.3953 19.1924 36.474C19.2022 36.2814 19.2592 36.1077 19.3637 35.953C19.5349 27.6459 19.592 19.3093 19.5351 10.9432Z" fill="#94AECC"/>
<path fill-rule="evenodd" clip-rule="evenodd" d="M102.988 7.817C98.5323 7.817 94.0769 7.817 89.6216 7.817C89.6216 9.14859 89.6216 10.48 89.6216 11.8116C94.0769 11.8116 98.5323 11.8116 102.988 11.8116C98.5047 11.9849 93.9921 12.0428 89.4502 11.9853C89.4502 10.538 89.4502 9.09058 89.4502 7.64332C93.9921 7.58583 98.5047 7.64366 102.988 7.817Z" fill="#79C5EC"/>
<path fill-rule="evenodd" clip-rule="evenodd" d="M19.1924 10.2485C19.4672 10.3852 19.5815 10.6167 19.5351 10.9433C19.592 19.3094 19.5349 27.6459 19.3637 35.953C19.4193 27.3776 19.3622 18.8093 19.1924 10.2485Z" fill="#2A578B"/>
<path fill-rule="evenodd" clip-rule="evenodd" d="M131.604 17.5432C131.591 17.7603 131.477 17.9049 131.261 17.9774C131.409 18.4522 131.552 18.4812 131.69 18.0642C131.924 19.1226 132.181 20.1647 132.461 21.1904C132.461 24.4325 132.461 27.6744 132.461 30.9164C132.176 27.7355 132.005 24.4934 131.947 21.1904C131.775 24.4304 131.718 27.6723 131.775 30.9164C129.89 30.9164 128.006 30.9164 126.121 30.9164C126.149 27.9054 126.121 24.895 126.035 21.8851C125.969 21.7886 125.884 21.7307 125.778 21.7115C125.71 20.1666 124.911 19.2692 123.379 19.0194C122.925 18.9331 122.468 18.9041 122.008 18.9326C121.07 18.7608 120.099 18.703 119.095 18.7589C119.043 17.1812 119.1 15.6181 119.266 14.0696C119.266 14.0117 119.266 13.9537 119.266 13.8959C122.611 13.2288 125.867 13.5183 129.034 14.7643C129.424 15.1896 129.881 15.508 130.405 15.7195C130.957 16.2329 131.357 16.8408 131.604 17.5432Z" fill="#1C4F93"/>
<path fill-rule="evenodd" clip-rule="evenodd" d="M139.83 13.7222C137.509 13.67 135.224 13.8436 132.976 14.2433C135.226 13.5694 137.511 13.3957 139.83 13.7222Z" fill="#5879A4"/>
<path fill-rule="evenodd" clip-rule="evenodd" d="M139.83 13.7222C142.794 13.9054 144.993 15.2949 146.427 17.8905C146.691 18.6799 146.834 19.4903 146.856 20.322C146.856 23.8534 146.856 27.385 146.856 30.9164C144.971 30.9164 143.086 30.9164 141.201 30.9164C141.229 28.137 141.201 25.3582 141.115 22.5798C141.058 25.706 141.001 28.8323 140.944 31.9585C140.902 31.55 140.76 31.2026 140.515 30.9164C140.572 28.1072 140.515 25.3283 140.344 22.5798C140.396 21.7319 140.254 20.9214 139.915 20.1483C139.268 19.5165 138.497 19.1401 137.602 19.0194C136.404 18.9326 135.204 18.9037 134.004 18.9326C133.849 17.1392 133.049 15.6919 131.604 14.5906C132.035 14.3657 132.492 14.25 132.975 14.2432C135.224 13.8436 137.509 13.6699 139.83 13.7222Z" fill="#1B4F92"/>
<path fill-rule="evenodd" clip-rule="evenodd" d="M183.697 13.7221C182.652 14.0082 181.567 14.1818 180.441 14.2431C181.475 13.8871 182.559 13.7134 183.697 13.7221Z" fill="#5577A3"/>
<path fill-rule="evenodd" clip-rule="evenodd" d="M191.922 13.7222C194.364 13.616 196.535 14.3107 198.434 15.8064C198.683 16.1742 198.796 16.5794 198.777 17.0221C198.852 17.6568 198.91 18.2936 198.948 18.9326C196.72 18.9326 194.493 18.9326 192.265 18.9326C192.301 18.641 192.188 18.4673 191.922 18.4116C191.734 18.2278 191.506 18.083 191.237 17.9774C190.519 17.9468 189.834 17.86 189.181 17.7169C189.181 16.3853 189.181 15.0538 189.181 13.7222C190.094 13.7222 191.009 13.7222 191.922 13.7222Z" fill="#1C5092"/>
<path fill-rule="evenodd" clip-rule="evenodd" d="M94.5909 13.7223C94.7564 15.0388 94.8135 16.3704 94.7623 17.7169C94.3793 17.6657 94.0365 17.7237 93.7341 17.8906C92.5865 17.9069 91.7581 18.4279 91.2494 19.4537C91.1351 21.8852 91.1351 24.3167 91.2494 26.7482C91.5616 27.2381 91.9329 27.6723 92.3632 28.0508C93.2087 28.2523 94.0655 28.3391 94.9336 28.3113C94.9336 29.7007 94.9336 31.0902 94.9336 32.4796C92.2972 32.6675 89.7839 32.2333 87.3938 31.177C87.0195 30.9403 86.6768 30.6798 86.3656 30.3955C86.2662 30.0048 86.0378 29.7155 85.6802 29.5271C85.2047 28.7929 84.919 27.9824 84.8234 27.0956C84.5612 25.1378 84.4469 23.1694 84.4807 21.1905C84.3336 17.4955 85.9902 15.1508 89.4501 14.1565C91.1484 13.8246 92.862 13.6799 94.5909 13.7223Z" fill="#1D5092"/>
<path fill-rule="evenodd" clip-rule="evenodd" d="M159.022 13.7222C159.651 13.7222 160.279 13.7222 160.907 13.7222C160.907 15.3431 160.907 16.9642 160.907 18.5852C160.357 18.5313 159.842 18.5892 159.365 18.7589C157.678 18.6995 156.736 19.5098 156.537 21.1904C156.452 22.5786 156.423 23.968 156.452 25.3586C156.541 25.9474 156.684 26.5263 156.88 27.0954C156.937 27.0376 156.994 26.9796 157.052 26.9218C157.59 27.4442 158.247 27.6759 159.022 27.6165C159.479 27.6165 159.936 27.6165 160.393 27.6165C160.515 27.7735 160.686 27.8313 160.907 27.7902C160.907 29.3533 160.907 30.9164 160.907 32.4795C159.822 32.4795 158.737 32.4795 157.651 32.4795C155.47 32.5493 153.47 31.9994 151.654 30.8295C151.212 30.4693 150.869 30.0351 150.626 29.5269C149.873 27.514 149.587 25.4299 149.769 23.2745C149.763 21.6475 149.849 20.0265 150.026 18.4115C150.2 17.7347 150.457 17.0978 150.797 16.501C151.155 16.3126 151.383 16.0232 151.482 15.6326C152.193 14.9252 153.05 14.491 154.053 14.33C155.689 13.9651 157.345 13.7625 159.022 13.7222Z" fill="#1B4F92"/>
<path fill-rule="evenodd" clip-rule="evenodd" d="M94.5902 13.7222C94.9273 15.0416 95.0416 16.431 94.9329 17.8905C94.5331 17.8905 94.1332 17.8905 93.7334 17.8905C94.0358 17.7236 94.3786 17.6655 94.7616 17.7168C94.8128 16.3702 94.7557 15.0387 94.5902 13.7222Z" fill="#375C8C"/>
<path fill-rule="evenodd" clip-rule="evenodd" d="M107.442 21.1903C107.442 22.2324 107.442 23.2745 107.442 24.3165C102.605 24.4285 97.8072 24.3127 93.0479 23.9692C93.0479 22.9271 93.0479 21.885 93.0479 20.8429C95.7325 20.8429 98.4171 20.8429 101.102 20.8429C101.313 19.2137 100.628 18.2584 99.0454 17.9772C98.3624 17.8906 97.677 17.8616 96.9891 17.8904C96.9891 16.501 96.9891 15.1115 96.9891 13.7221C98.9445 13.6811 100.887 13.8258 102.815 14.1563C104.168 14.6048 105.338 15.3285 106.328 16.3273C107.143 17.8381 107.515 19.4591 107.442 21.1903Z" fill="#1C4F92"/>
<path fill-rule="evenodd" clip-rule="evenodd" d="M116.868 14.0696C116.753 14.0696 116.639 14.0696 116.525 14.0696C114.469 14.0696 112.412 14.0696 110.356 14.0696C110.327 20.0907 110.356 26.1116 110.442 32.1322C110.513 32.0528 110.598 31.9948 110.699 31.9585C112.663 32.0709 114.605 32.1865 116.525 32.3059C114.412 32.3059 112.298 32.3059 110.185 32.3059C110.185 26.1693 110.185 20.0325 110.185 13.8959C112.443 13.8388 114.67 13.8968 116.868 14.0696Z" fill="#6B8AB2"/>
<path fill-rule="evenodd" clip-rule="evenodd" d="M116.524 14.0695C116.695 20.1355 116.752 26.2143 116.696 32.3057C116.639 32.3057 116.581 32.3057 116.524 32.3057C114.604 32.1864 112.662 32.0707 110.698 31.9584C110.598 31.9947 110.512 32.0527 110.441 32.1321C110.355 26.1115 110.327 20.0906 110.355 14.0695C112.412 14.0695 114.468 14.0695 116.524 14.0695Z" fill="#194F92"/>
<path fill-rule="evenodd" clip-rule="evenodd" d="M116.524 14.0695C116.639 14.0695 116.753 14.0695 116.867 14.0695C116.924 20.1779 116.867 26.2567 116.696 32.3057C116.752 26.2143 116.695 20.1355 116.524 14.0695Z" fill="#2B5282"/>
<path fill-rule="evenodd" clip-rule="evenodd" d="M119.266 13.8959C119.266 13.9537 119.266 14.0117 119.266 14.0696C118.928 15.6222 118.814 17.2432 118.924 18.9326C118.753 17.285 118.696 15.6063 118.752 13.8959C118.924 13.8959 119.095 13.8959 119.266 13.8959Z" fill="#93ADCB"/>
<path fill-rule="evenodd" clip-rule="evenodd" d="M119.267 14.0695C119.1 15.618 119.043 17.1811 119.095 18.7588C120.099 18.7029 121.07 18.7607 122.008 18.9325C120.98 18.9325 119.952 18.9325 118.924 18.9325C118.814 17.2431 118.929 15.6221 119.267 14.0695Z" fill="#406496"/>
<path fill-rule="evenodd" clip-rule="evenodd" d="M159.021 13.7221C159.672 13.5514 160.358 13.4934 161.078 13.5484C161.078 15.2852 161.078 17.022 161.078 18.7588C160.507 18.7588 159.935 18.7588 159.364 18.7588C159.842 18.5891 160.356 18.5313 160.906 18.5851C160.906 16.9642 160.906 15.3431 160.906 13.7221C160.278 13.7221 159.65 13.7221 159.021 13.7221Z" fill="#839FC4"/>
<path fill-rule="evenodd" clip-rule="evenodd" d="M164.505 13.7221C164.048 13.7221 163.592 13.7221 163.135 13.7221C163.135 15.343 163.135 16.9641 163.135 18.5851C162.964 16.9376 162.907 15.2588 162.963 13.5484C163.514 13.4946 164.028 13.5524 164.505 13.7221Z" fill="#6D87A9"/>
<path fill-rule="evenodd" clip-rule="evenodd" d="M164.506 13.7222C167.418 13.4618 170.103 14.0987 172.56 15.6327C173.672 16.773 174.215 18.1625 174.187 19.8009C174.302 22.1166 174.302 24.4324 174.187 26.7481C173.793 30.0657 171.938 31.8893 168.618 32.219C167.709 32.3631 166.795 32.45 165.877 32.4795C164.963 32.4795 164.049 32.4795 163.135 32.4795C163.135 30.8586 163.135 29.2374 163.135 27.6165C164.433 27.7641 165.633 27.5036 166.733 26.8349C167.49 25.7795 167.775 24.5927 167.59 23.2745C167.637 22.0899 167.494 20.9321 167.162 19.8009C165.977 18.9055 164.635 18.5003 163.135 18.5852C163.135 16.9642 163.135 15.3431 163.135 13.7222C163.592 13.7222 164.049 13.7222 164.506 13.7222Z" fill="#1C4F92"/>
<path fill-rule="evenodd" clip-rule="evenodd" d="M183.698 13.7222C184.841 13.7222 185.982 13.7222 187.125 13.7222C187.125 15.1116 187.125 16.501 187.125 17.8905C185.77 17.7654 184.485 17.9971 183.27 18.5852C183.074 19.2606 183.216 19.8395 183.698 20.322C184.824 20.5908 185.967 20.7067 187.125 20.6693C187.125 22.2324 187.125 23.7955 187.125 25.3586C186.154 25.3586 185.184 25.3586 184.212 25.3586C183.168 25.0818 182.082 24.966 180.956 25.0113C177.849 24.6997 176.307 22.9629 176.329 19.8009C176.162 17.6187 176.96 15.9107 178.729 14.6774C179.261 14.3719 179.832 14.2272 180.442 14.2432C181.568 14.1819 182.653 14.0082 183.698 13.7222Z" fill="#1D5092"/>
<path fill-rule="evenodd" clip-rule="evenodd" d="M191.923 13.7221C191.01 13.7221 190.095 13.7221 189.182 13.7221C189.182 15.0537 189.182 16.3851 189.182 17.7167C189.012 16.3593 188.954 14.9698 189.01 13.5484C190.014 13.4925 190.984 13.5504 191.923 13.7221Z" fill="#89A2BE"/>
<path fill-rule="evenodd" clip-rule="evenodd" d="M151.482 15.6326C151.383 16.0232 151.155 16.3125 150.797 16.501C150.896 16.1104 151.125 15.821 151.482 15.6326Z" fill="#7D9EC6"/>
<path fill-rule="evenodd" clip-rule="evenodd" d="M80.8818 11.4644C81.242 12.3326 81.442 13.2588 81.4816 14.2432C81.5959 17.4853 81.5959 20.7272 81.4816 23.9692C81.435 24.764 81.2922 25.5165 81.0532 26.2271C81.5623 21.2947 81.5052 16.3737 80.8818 11.4644Z" fill="#3A6293"/>
<path fill-rule="evenodd" clip-rule="evenodd" d="M131.604 17.5431C132.182 18.6689 132.467 19.8846 132.461 21.1903C132.181 20.1646 131.924 19.1225 131.69 18.0641C131.552 18.4811 131.409 18.4521 131.262 17.9773C131.477 17.9049 131.591 17.7602 131.604 17.5431Z" fill="#3E6497"/>
<path fill-rule="evenodd" clip-rule="evenodd" d="M198.777 17.0221C199.058 17.6664 199.171 18.3612 199.12 19.1062C196.777 19.1062 194.437 19.1062 192.094 19.1062C192.106 18.8528 192.048 18.6213 191.923 18.4115C192.188 18.4673 192.302 18.641 192.266 18.9326C194.493 18.9326 196.721 18.9326 198.949 18.9326C198.911 18.2936 198.853 17.6567 198.777 17.0221Z" fill="#5F7FAA"/>
<path fill-rule="evenodd" clip-rule="evenodd" d="M73.5137 15.6326C73.6453 15.7651 73.731 15.9388 73.7707 16.1536C73.9121 17.863 73.8835 19.5419 73.685 21.1903C73.7256 19.3323 73.6686 17.4796 73.5137 15.6326Z" fill="#7292BA"/>
<path fill-rule="evenodd" clip-rule="evenodd" d="M189.01 20.6692C192.105 20.4224 195.132 20.7408 198.092 21.6244C199.504 22.8185 200.133 24.3528 199.977 26.2269C200.162 29.7752 198.505 31.7725 195.007 32.2188C193.011 32.4141 191.011 32.5587 189.01 32.653C189.01 31.2636 189.01 29.8742 189.01 28.4848C190.172 28.4823 191.313 28.3376 192.437 28.0506C193.628 27.1064 193.571 26.267 192.266 25.5322C191.188 25.3726 190.101 25.3146 189.01 25.3585C189.01 23.7954 189.01 22.2323 189.01 20.6692Z" fill="#1F5093"/>
<path fill-rule="evenodd" clip-rule="evenodd" d="M140.344 22.5797C140.514 25.3282 140.572 28.107 140.515 30.9163C140.515 31.3215 140.515 31.7269 140.515 32.132C142.602 32.0751 144.658 32.1329 146.684 32.3057C144.571 32.3057 142.457 32.3057 140.344 32.3057C140.344 29.0637 140.344 25.8218 140.344 22.5797Z" fill="#6082AD"/>
<path fill-rule="evenodd" clip-rule="evenodd" d="M107.442 21.1903C107.612 22.2576 107.669 23.3575 107.613 24.4902C102.758 24.4902 97.903 24.4902 93.0479 24.4902C93.0479 24.3165 93.0479 24.1428 93.0479 23.9692C97.8072 24.3127 102.605 24.4285 107.442 24.3165C107.442 23.2745 107.442 22.2324 107.442 21.1903Z" fill="#6987A9"/>
<path fill-rule="evenodd" clip-rule="evenodd" d="M84.4803 21.1903C84.4465 23.1692 84.5608 25.1377 84.823 27.0954C84.542 26.5764 84.399 25.9976 84.3946 25.3586C84.2536 23.9384 84.2822 22.549 84.4803 21.1903Z" fill="#4F72A0"/>
<path fill-rule="evenodd" clip-rule="evenodd" d="M180.956 25.0114C182.082 24.9661 183.168 25.0819 184.212 25.3588C183.088 25.3871 182.003 25.2712 180.956 25.0114Z" fill="#5E84B0"/>
<path fill-rule="evenodd" clip-rule="evenodd" d="M71.2855 25.8796C71.0954 26.0168 70.867 26.1037 70.6 26.1402C66.6867 26.1693 62.8025 26.2562 58.9476 26.4007C58.8362 26.3479 58.7219 26.29 58.6048 26.227C58.4337 28.134 58.3766 30.0445 58.4335 31.9584C58.263 30.0212 58.2059 28.0527 58.2621 26.0533C62.607 26.103 66.948 26.0452 71.2855 25.8796Z" fill="#264D82"/>
<path fill-rule="evenodd" clip-rule="evenodd" d="M107.443 26.5745C105.329 26.5745 103.216 26.5745 101.102 26.5745C101.175 26.9706 101.061 27.2602 100.76 27.4429C100.871 27.1068 100.928 26.7594 100.931 26.4008C103.132 26.3436 105.303 26.4017 107.443 26.5745Z" fill="#51719F"/>
<path fill-rule="evenodd" clip-rule="evenodd" d="M107.442 26.5743C107.47 27.0985 107.442 27.6195 107.357 28.1375C107.081 28.6842 106.91 29.2631 106.842 29.8742C105.356 31.3357 103.557 32.1751 101.445 32.3926C99.9606 32.4794 98.4755 32.5083 96.9893 32.4794C96.9893 31.1478 96.9893 29.8164 96.9893 28.4848C98.403 28.6396 99.6597 28.2922 100.759 27.4427C101.06 27.26 101.174 26.9705 101.102 26.5743C103.215 26.5743 105.329 26.5743 107.442 26.5743Z" fill="#1D5092"/>
<path fill-rule="evenodd" clip-rule="evenodd" d="M176.158 26.748C178.47 26.575 180.812 26.5171 183.184 26.5743C183.222 27.0969 183.393 27.5601 183.698 27.9637C183.169 27.7614 182.941 27.3562 183.013 26.748C180.728 26.748 178.442 26.748 176.158 26.748Z" fill="#6885A9"/>
<path fill-rule="evenodd" clip-rule="evenodd" d="M156.451 25.3586C156.783 25.9999 157.183 26.6077 157.651 27.1823C158.144 27.2771 158.601 27.4218 159.022 27.6165C158.246 27.6759 157.589 27.4442 157.051 26.9218C156.994 26.9796 156.937 27.0376 156.88 27.0954C156.684 26.5263 156.541 25.9474 156.451 25.3586Z" fill="#446799"/>
<path fill-rule="evenodd" clip-rule="evenodd" d="M176.158 26.748C178.442 26.748 180.728 26.748 183.012 26.748C182.94 27.3563 183.168 27.7615 183.698 27.9638C184.734 28.3968 185.821 28.5705 186.954 28.4848C187.007 29.8025 186.95 31.1051 186.782 32.3926C185.298 32.4794 183.813 32.5083 182.327 32.4794C179.688 32.5974 177.746 31.4975 176.501 29.1796C176.245 28.389 176.132 27.5784 176.158 26.748Z" fill="#1C4F92"/>
<path fill-rule="evenodd" clip-rule="evenodd" d="M160.393 27.6165C160.622 27.6165 160.85 27.6165 161.079 27.6165C161.079 29.2954 161.079 30.9742 161.079 32.6531C159.904 32.7094 158.762 32.6516 157.651 32.4795C158.737 32.4795 159.822 32.4795 160.907 32.4795C160.907 30.9164 160.907 29.3532 160.907 27.7901C160.686 27.8313 160.515 27.7735 160.393 27.6165Z" fill="#6B8AB1"/>
<path fill-rule="evenodd" clip-rule="evenodd" d="M163.135 27.6165C163.135 29.2374 163.135 30.8585 163.135 32.4795C164.048 32.4795 164.962 32.4795 165.876 32.4795C164.938 32.6512 163.967 32.7091 162.963 32.6531C162.907 30.9428 162.964 29.264 163.135 27.6165Z" fill="#6783A7"/>
<path fill-rule="evenodd" clip-rule="evenodd" d="M186.954 28.4849C187.124 29.8423 187.182 31.2318 187.125 32.6532C185.496 32.7099 183.895 32.6521 182.327 32.4795C183.813 32.5083 185.299 32.4795 186.783 32.3926C186.95 31.1052 187.007 29.8026 186.954 28.4849Z" fill="#426594"/>
<path fill-rule="evenodd" clip-rule="evenodd" d="M85.6797 29.527C86.0373 29.7154 86.2657 30.0048 86.3651 30.3954C86.0075 30.2069 85.7791 29.9176 85.6797 29.527Z" fill="#9AAFCA"/>
<path fill-rule="evenodd" clip-rule="evenodd" d="M58.9475 26.4007C62.4026 26.5452 65.8869 26.6321 69.4004 26.6612C65.9165 26.7481 62.4323 26.7771 58.9475 26.7481C58.9475 28.1375 58.9475 29.5269 58.9475 30.9164C64.083 30.9452 69.1951 30.9452 74.2842 30.9164C74.4574 30.9845 74.5431 31.1003 74.5412 31.2637C74.7033 31.1792 74.8747 31.1213 75.0553 31.0901C75.6609 31.337 76.2891 31.4529 76.9403 31.4374C76.0279 31.8362 75.057 32.0677 74.0271 32.1321C68.8217 32.1874 63.6239 32.1295 58.4334 31.9585C58.3765 30.0445 58.4336 28.134 58.6048 26.2271C58.7218 26.2901 58.8361 26.3479 58.9475 26.4007Z" fill="#1A4F8E"/>
<path fill-rule="evenodd" clip-rule="evenodd" d="M132.461 30.9163C132.461 31.3795 132.461 31.8425 132.461 32.3058C130.234 32.3058 128.006 32.3058 125.778 32.3058C125.778 28.7743 125.778 25.2428 125.778 21.7113C125.884 21.7306 125.97 21.7885 126.035 21.885C126.121 24.8949 126.15 27.9053 126.121 30.9163C128.006 30.9163 129.891 30.9163 131.776 30.9163C131.719 27.6722 131.776 24.4303 131.947 21.1903C132.006 24.4933 132.177 27.7354 132.461 30.9163Z" fill="#2C5A95"/>
<path fill-rule="evenodd" clip-rule="evenodd" d="M146.855 20.3219C146.969 22.2893 147.026 24.2866 147.026 26.3138C147.026 28.3724 146.912 30.3697 146.684 32.3057C144.658 32.1329 142.601 32.0751 140.515 32.1321C140.515 31.7269 140.515 31.3215 140.515 30.9163C140.759 31.2025 140.902 31.5499 140.943 31.9584C141 28.8322 141.057 25.7059 141.114 22.5797C141.2 25.3581 141.229 28.1369 141.2 30.9163C143.085 30.9163 144.97 30.9163 146.855 30.9163C146.855 27.3849 146.855 23.8533 146.855 20.3219Z" fill="#20518C"/>
<path fill-rule="evenodd" clip-rule="evenodd" d="M58.2626 26.0533C58.2064 28.0527 58.2634 30.0212 58.4339 31.9584C63.6244 32.1295 68.8223 32.1873 74.0277 32.1321C68.7448 32.3054 63.4327 32.3633 58.0912 32.3058C58.035 30.1907 58.0921 28.1066 58.2626 26.0533Z" fill="#5F86B8"/>
</svg>
