<svg width="200" height="39" viewBox="0 0 200 39" fill="none" xmlns="http://www.w3.org/2000/svg">
<path fill-rule="evenodd" clip-rule="evenodd" d="M0 0.150635C2.59307 0.150635 5.18628 0.150635 7.77935 0.150635C7.77935 13.0974 7.77935 26.0443 7.77935 38.9911C5.18628 38.9911 2.59307 38.9911 0 38.9911C0 26.0443 0 13.0974 0 0.150635Z" fill="#89AA3A"/>
<path fill-rule="evenodd" clip-rule="evenodd" d="M9.61816 0.00887954C16.1719 -0.0147933 22.7254 0.00887953 29.2787 0.0797563C26.6856 2.67853 24.0924 5.27744 21.4993 7.87621C17.5392 7.94708 13.5788 7.97075 9.61816 7.94708C9.61816 5.30097 9.61816 2.65499 9.61816 0.00887954Z" fill="#8AAA3C"/>
<path fill-rule="evenodd" clip-rule="evenodd" d="M30.8342 1.00122C30.9755 13.3572 31.0228 25.7369 30.9757 38.1407C28.3874 35.6177 25.818 33.0662 23.267 30.486C23.1727 23.162 23.1727 15.8381 23.267 8.51416C25.7745 5.97734 28.297 3.47312 30.8342 1.00122Z" fill="#8AAA3B"/>
<path fill-rule="evenodd" clip-rule="evenodd" d="M137.766 9.64798C139.087 9.62445 140.406 9.64798 141.726 9.71886C144.774 13.6941 147.791 17.6868 150.778 21.697C150.787 21.774 150.834 21.8212 150.92 21.8388C151.061 17.7763 151.108 13.7126 151.061 9.64798C152.429 9.64798 153.795 9.64798 155.163 9.64798C155.163 16.2159 155.163 22.7839 155.163 29.3517C153.937 29.3517 152.712 29.3517 151.486 29.3517C148.374 25.2409 145.262 21.13 142.15 17.0192C142.142 16.9422 142.095 16.895 142.009 16.8774C141.867 21.0345 141.821 25.1925 141.867 29.3517C140.5 29.3517 139.133 29.3517 137.766 29.3517C137.766 22.7839 137.766 16.2159 137.766 9.64798Z" fill="#3F3F3F"/>
<path fill-rule="evenodd" clip-rule="evenodd" d="M150.92 9.64819C150.966 9.64819 151.015 9.64819 151.061 9.64819C151.108 13.7128 151.061 17.7765 150.92 21.839C150.833 21.8214 150.787 21.7742 150.778 21.6973C150.92 17.7052 150.966 13.6889 150.92 9.64819Z" fill="#555555"/>
<path fill-rule="evenodd" clip-rule="evenodd" d="M150.919 9.64805C152.355 9.50715 153.817 9.4598 155.304 9.5063C155.304 16.1687 155.304 22.8311 155.304 29.4936C154.005 29.5399 152.732 29.4926 151.485 29.3518C152.711 29.3518 153.936 29.3518 155.162 29.3518C155.162 22.7839 155.162 16.2159 155.162 9.64805C153.794 9.64805 152.428 9.64805 151.06 9.64805C151.014 9.64805 150.966 9.64805 150.919 9.64805Z" fill="#989898"/>
<path fill-rule="evenodd" clip-rule="evenodd" d="M164.498 9.64805C163.084 9.64805 161.669 9.64805 160.255 9.64805C160.255 16.2159 160.255 22.7839 160.255 29.3518C161.669 29.3518 163.084 29.3518 164.498 29.3518C163.062 29.4927 161.6 29.5401 160.113 29.4936C160.113 22.8311 160.113 16.1687 160.113 9.5063C161.6 9.4598 163.062 9.50715 164.498 9.64805Z" fill="#979797"/>
<path fill-rule="evenodd" clip-rule="evenodd" d="M164.498 9.64819C164.498 16.2161 164.498 22.7841 164.498 29.3519C163.084 29.3519 161.669 29.3519 160.255 29.3519C160.255 22.7841 160.255 16.2161 160.255 9.64819C161.669 9.64819 163.084 9.64819 164.498 9.64819Z" fill="#3F3E3E"/>
<path fill-rule="evenodd" clip-rule="evenodd" d="M177.086 13.6173C176.944 18.8381 176.898 24.083 176.944 29.3519C175.53 29.3519 174.116 29.3519 172.701 29.3519C172.701 24.1071 172.701 18.8622 172.701 13.6173C170.674 13.6173 168.646 13.6173 166.619 13.6173C166.619 12.2943 166.619 10.9712 166.619 9.64819C172.089 9.64819 177.557 9.64819 183.026 9.64819C183.026 10.9712 183.026 12.2943 183.026 13.6173C181.046 13.6173 179.066 13.6173 177.086 13.6173Z" fill="#3F3F3E"/>
<path fill-rule="evenodd" clip-rule="evenodd" d="M185.007 9.64819C189.957 9.64819 194.908 9.64819 199.858 9.64819C199.858 10.924 199.858 12.1998 199.858 13.4755C196.322 13.4755 192.786 13.4755 189.25 13.4755C189.25 14.7985 189.25 16.1217 189.25 17.4446C192.338 17.586 195.45 17.6333 198.585 17.5864C198.585 18.8622 198.585 20.138 198.585 21.4137C195.474 21.4137 192.362 21.4137 189.25 21.4137C189.25 22.7841 189.25 24.1543 189.25 25.5246C192.833 25.5246 196.417 25.5246 200 25.5246C200 26.8004 200 28.0762 200 29.3519C195.003 29.3519 190.004 29.3519 185.007 29.3519C185.007 22.7841 185.007 16.2161 185.007 9.64819Z" fill="#3F3F3F"/>
<path d="M77.5107 9.22266C82.8103 8.88713 86.559 11.1086 88.7559 15.8857C90.0865 20.2189 89.1665 23.9749 85.9971 27.1543C81.7555 30.3268 77.3243 30.6104 72.7021 28.0049C69.005 25.1118 67.6611 21.3552 68.6709 16.7354C69.696 13.3931 71.8411 11.1011 75.1064 9.86035C75.9201 9.62139 76.7214 9.4089 77.5107 9.22266ZM84.6533 18.0117C83.5085 14.4826 81.0805 12.9235 77.3691 13.334C76.6357 13.6071 75.9286 13.9611 75.248 14.3965C72.5664 16.941 72.1186 19.8471 73.9043 23.1143C75.8909 25.6984 78.4134 26.3838 81.4717 25.1699C84.1399 23.5328 85.2002 21.1468 84.6533 18.0117Z" fill="#404040"/>
<path d="M101.414 9.2229C106.619 8.84073 110.368 10.967 112.659 15.6018C114.215 20.3219 113.154 24.315 109.477 27.5803C105.123 30.4563 100.738 30.5033 96.3223 27.7219C92.868 24.772 91.666 21.0625 92.7158 16.594C94.2085 12.4577 97.1077 10.0006 101.414 9.2229ZM108.698 18.1536C107.609 14.5464 105.181 12.9392 101.414 13.3333C98.0634 14.5655 96.5786 16.9756 96.959 20.5627C97.4462 23.13 98.9312 24.8074 101.414 25.595C103.336 25.9801 105.08 25.6023 106.647 24.4612C108.407 22.7253 109.091 20.6228 108.698 18.1536Z" fill="#404040"/>
<path d="M47.1006 9.64819C50.3069 9.62452 53.5132 9.64861 56.7188 9.71948C61.9392 10.7221 64.8153 13.8639 65.3467 19.1453C64.9723 25.309 61.7189 28.7348 55.5869 29.4226C52.7586 29.4935 49.9298 29.5176 47.1006 29.4939V9.64819ZM55.5869 13.6169C54.1981 13.476 52.7837 13.429 51.3438 13.4753C51.2969 17.516 51.3442 21.5331 51.4854 25.5251V25.5242C52.8533 25.5477 54.2205 25.5247 55.5869 25.4539C58.9054 24.8436 60.6498 22.8354 60.8203 19.4294C60.6036 16.0943 58.8592 14.1565 55.5869 13.6169Z" fill="#3F3F3F"/>
<path d="M117.256 9.64819C120.887 9.62452 124.518 9.64861 128.147 9.71948C132.89 10.9371 134.609 13.9373 133.31 18.7205C132.551 20.4494 131.301 21.6778 129.562 22.406C131.147 24.7571 132.749 27.0961 134.37 29.4226C132.673 29.5171 130.976 29.5171 129.278 29.4226C127.864 27.3436 126.45 25.2643 125.035 23.1853C123.905 23.1144 122.774 23.0915 121.641 23.115C121.499 25.169 121.452 27.2483 121.499 29.3523H117.256V9.64819ZM126.591 13.6169C124.919 13.4759 123.222 13.4289 121.499 13.4753V19.2878C123.175 19.3343 124.825 19.2863 126.45 19.1453C127.839 19.1236 128.758 18.4622 129.208 17.1609C129.571 15.0533 128.7 13.8718 126.591 13.6169Z" fill="#3F3F3F"/>
<path fill-rule="evenodd" clip-rule="evenodd" d="M177.086 13.6172C177.086 18.9093 177.086 24.2015 177.086 29.4936C175.599 29.5401 174.137 29.4927 172.701 29.3518C174.116 29.3518 175.53 29.3518 176.944 29.3518C176.898 24.0829 176.944 18.838 177.086 13.6172Z" fill="#939393"/>
<path fill-rule="evenodd" clip-rule="evenodd" d="M137.765 9.64819C137.765 16.2161 137.765 22.7841 137.765 29.3519C139.133 29.3519 140.499 29.3519 141.867 29.3519C141.821 25.1928 141.867 21.0347 142.009 16.8776C142.095 16.8952 142.142 16.9424 142.15 17.0194C142.009 21.1532 141.962 25.3113 142.009 29.4937C140.548 29.4937 139.085 29.4937 137.624 29.4937C137.577 22.8545 137.624 16.2393 137.765 9.64819Z" fill="#7F7F7F"/>
<path fill-rule="evenodd" clip-rule="evenodd" d="M189.25 17.4446C192.408 17.4446 195.568 17.4446 198.727 17.4446C198.773 18.7934 198.725 20.1164 198.585 21.4137C198.585 20.1379 198.585 18.8621 198.585 17.5863C195.449 17.6333 192.338 17.5859 189.25 17.4446Z" fill="#B0B0B0"/>
<path fill-rule="evenodd" clip-rule="evenodd" d="M121.641 23.1147C121.641 25.2411 121.641 27.3674 121.641 29.4937C120.154 29.5402 118.692 29.4928 117.256 29.3519C118.67 29.3519 120.085 29.3519 121.499 29.3519C121.452 27.2479 121.499 25.1688 121.641 23.1147Z" fill="#8F8F8F"/>
<path fill-rule="evenodd" clip-rule="evenodd" d="M185.008 9.64819C185.008 16.2161 185.008 22.7841 185.008 29.3519C190.005 29.3519 195.003 29.3519 200 29.3519C194.979 29.4934 189.935 29.5408 184.866 29.4937C184.819 22.8545 184.866 16.2393 185.008 9.64819Z" fill="#A4A4A4"/>
<path fill-rule="evenodd" clip-rule="evenodd" d="M9.61816 31.0528C13.5788 31.0292 17.5392 31.0528 21.4993 31.1237C24.0924 33.7225 26.6856 36.3214 29.2787 38.9202C22.7254 38.991 16.1719 39.0147 9.61816 38.991C9.61816 36.3449 9.61816 33.6989 9.61816 31.0528Z" fill="#8AAA3B"/>
</svg>
