<svg width="200" height="46" viewBox="0 0 200 46" fill="none" xmlns="http://www.w3.org/2000/svg">
<g clip-path="url(#clip0_1_30)">
<path d="M44.2998 0.124268H198.175V15.6399H44.2998V0.124268Z" fill="#D4082C"/>
<path d="M44.2998 31.5037V45.8756H71.6998C71.6998 45.8756 71.6998 43.1031 71.6998 42.8172C71.6998 42.5312 71.5248 42.4318 71.2998 42.4193C71.0873 42.4193 53.3498 42.4193 53.3498 42.4193V37.2847H68.9123V34.2637C68.9123 34.0026 68.7748 33.8658 68.5123 33.8658H53.3623V28.6069H71.6998V25.5485C71.6998 25.275 71.5248 25.188 71.2998 25.188H50.6123C47.1123 25.188 44.2998 28.0102 44.2998 31.5037Z" fill="#1A1A18"/>
<path d="M81.7377 25.1882H102.663C102.925 25.1882 103.075 25.2877 103.075 25.5488V28.5947H84.4752V42.0839H99.5002V37.2601H90.2127V34.239C90.2127 34.0277 90.3627 33.8536 90.6377 33.8536C92.9627 33.8536 102.488 33.8536 102.688 33.8536C102.9 33.8536 103.1 34.0401 103.1 34.2515V45.8633H75.4502V31.4915C75.4502 28.0104 78.2752 25.1758 81.7627 25.1758L81.7377 25.1882Z" fill="#1A1A18"/>
<path d="M113.575 25.1882H134.5C134.763 25.1882 134.913 25.2877 134.913 25.5488V28.5947H116.313V42.0839H131.325V37.2601H122.038C122.038 37.2601 122.038 34.4504 122.038 34.2515C122.038 34.0525 122.175 33.8536 122.45 33.8536C124.775 33.8536 134.313 33.8536 134.5 33.8536C134.713 33.8536 134.913 34.0401 134.913 34.2515V45.8633H107.263V31.4915C107.263 28.0104 110.088 25.1758 113.575 25.1758V25.1882Z" fill="#1A1A18"/>
<path d="M139.125 31.5037V45.8756H166.537V42.8172C166.537 42.5437 166.363 42.4318 166.138 42.4193C165.925 42.4193 148.188 42.4193 148.188 42.4193V37.2723H163.75V34.2637C163.75 34.0026 163.612 33.8658 163.35 33.8658H148.188V28.6069H166.525V25.5485C166.525 25.275 166.35 25.188 166.125 25.188H145.425C141.937 25.188 139.125 28.0102 139.125 31.5037Z" fill="#1A1A18"/>
<path d="M0 25.188H30.175V29.042H14.15V33.555H30.175V37.5458H14.225V42.0215H30.175V45.8756L0 45.8631V25.188Z" fill="#D4082C"/>
<path fill-rule="evenodd" clip-rule="evenodd" d="M191.475 33.8785C192.437 33.8785 193.812 32.8839 193.812 31.2428C193.812 29.4277 192.525 28.6196 191.475 28.6196H179.262V33.8785H191.475ZM192.712 25.1882C195.725 25.1882 198.175 28.2217 198.175 31.2304C198.175 34.239 195.712 37.2725 192.7 37.2725H190.237L199.55 45.1298C199.55 45.1298 200.475 45.8633 199.5 45.8633H189.6C189.187 45.8633 189 45.6271 188.575 45.2915C188.9 45.5152 179.262 37.2725 179.262 37.2725V45.8633H170.225V31.4915C170.225 28.0104 173.037 25.1758 176.525 25.1758H192.725L192.712 25.1882Z" fill="#1A1A18"/>
</g>
<defs>
<clipPath id="clip0_1_30">
<rect width="200" height="46" fill="white"/>
</clipPath>
</defs>
</svg>
