<svg width="200" height="63" viewBox="0 0 200 63" fill="none" xmlns="http://www.w3.org/2000/svg">
<path d="M65.2852 63H0V0H65.2852V63ZM132.987 63H67.7041V0H132.987V63ZM200 63H134.715V0H200V63ZM3.31543 17.8291V23.3291H5.53711V39.8262H3.31543V45.3457H19.9258V39.8262H17.084V34.3281H21.9062V28.9268H17.084V23.3281H23.4434V26.3887H30.4443V17.8291H3.31543ZM99.9893 17.8291V23.3291H102.177V39.8262H99.9893V45.3457H111.253V39.8262H108.586V28.2461L119.13 45.3457H129.419V23.2891H131.605V17.8291H120.35V23.2891H122.954V33.8447L113.21 17.8291H99.9893ZM135.596 17.8291V23.3291H137.782V39.8262H135.596V45.3457H151.333V39.8262H149.145V23.3291H151.333V17.8291H135.596ZM170.652 17.8291V23.3291H172.841V39.8262H170.652V45.3457H197.353V36.3447H190.462V39.8262H184.203V34.3281H189.559V28.9268H184.203V23.3281H190.462V26.3887H197.354V17.8291H170.652ZM31.6475 17.8281V23.3281H33.9492V39.8252H31.6475V45.3447H47.6299V39.8252H44.6221V33.9951H48.082L54.0557 45.3447H64.9404V39.8252H63.2139L58.7129 32.3311C60.1773 31.6241 61.2694 30.7313 61.9824 29.6602C62.704 28.5889 63.0615 27.3066 63.0615 25.8262C63.0615 22.9702 61.91 20.9282 59.6084 19.6855C57.2993 18.4493 53.4591 17.8281 48.083 17.8281H31.6475ZM73.8428 17.8281V23.2881H76.0723L70.2295 39.8252H68.6377V45.3447H79.0762V39.8252H77.1406L78.5312 35.7422H85.8008L86.998 39.8252H84.8115V45.3447H99.5156V39.8252H97.874L92.0811 23.2881H94.3467V17.8281H73.8428ZM154.479 17.8281V23.2881H157.359L149.711 31.1533L156.858 39.8252H154.814V45.3447H170.445V39.8252H169.794L160.509 28.96L166.014 23.2881H167.777V17.8281H154.479ZM84.8545 32.5303H79.6855L82.4795 24.6826L84.8545 32.5303ZM45.6289 23.2881C47.3617 23.2881 48.6519 23.5329 49.5039 24.0225C50.3558 24.5184 50.7861 25.2519 50.7861 26.2363C50.7861 27.2412 50.3632 27.982 49.5176 28.4512C48.672 28.9202 47.3464 29.1582 45.54 29.1582H44.6221V23.3281C44.7973 23.3264 44.9725 23.3198 45.1475 23.3086C45.3666 23.2947 45.5273 23.2881 45.6289 23.2881Z" fill="#CC2229"/>
</svg>
