<svg width="200" height="43" viewBox="0 0 200 43" fill="none" xmlns="http://www.w3.org/2000/svg">
<g clip-path="url(#clip0_4_29)">
<path opacity="0.951" fill-rule="evenodd" clip-rule="evenodd" d="M97.4832 -0.097168C98.6449 -0.097168 99.8065 -0.097168 100.968 -0.097168C100.968 7.94506 100.968 15.9873 100.968 24.0295C99.8065 24.0295 98.6449 24.0295 97.4832 24.0295C97.5153 23.2485 97.483 22.4702 97.3864 21.6947C96.4431 23.288 95.0555 24.2286 93.2238 24.516C86.6561 25.1483 83.3647 22.1325 83.3496 15.4684C83.5124 8.38393 87.0621 5.43294 93.9982 6.6155C95.4642 7.05085 96.5936 7.92642 97.3864 9.2422C97.4832 6.12976 97.5155 3.01664 97.4832 -0.097168ZM91.2877 9.04763C94.6106 8.81605 96.6435 10.3078 97.3864 13.5227C97.7496 15.7789 97.4269 17.9192 96.4183 19.9436C94.44 21.8202 92.1488 22.3066 89.5452 21.4028C88.2499 20.716 87.4431 19.6459 87.125 18.1924C86.5115 15.525 86.834 12.9956 88.0931 10.6042C88.9881 9.69059 90.053 9.17173 91.2877 9.04763Z" fill="#000100"/>
<path opacity="0.898" fill-rule="evenodd" clip-rule="evenodd" d="M-0.0966797 1.07007C1.12952 1.07007 2.35573 1.07007 3.58193 1.07007C3.58193 2.30234 3.58193 3.53463 3.58193 4.7669C2.35573 4.7669 1.12952 4.7669 -0.0966797 4.7669C-0.0966797 3.53463 -0.0966797 2.30234 -0.0966797 1.07007Z" fill="#000100"/>
<path opacity="0.935" fill-rule="evenodd" clip-rule="evenodd" d="M19.0703 1.07007C20.232 1.07007 21.3936 1.07007 22.5553 1.07007C22.5553 2.30234 22.5553 3.53463 22.5553 4.7669C21.3936 4.7669 20.232 4.7669 19.0703 4.7669C19.0703 3.53463 19.0703 2.30234 19.0703 1.07007Z" fill="#000100"/>
<path opacity="0.941" fill-rule="evenodd" clip-rule="evenodd" d="M28.9443 1.26465C34.3654 1.26465 39.7865 1.26465 45.2076 1.26465C45.2076 2.2375 45.2076 3.21035 45.2076 4.1832C41.0127 4.1832 36.8179 4.1832 32.6229 4.1832C32.6229 6.51804 32.6229 8.85288 32.6229 11.1877C36.4307 11.1877 40.2382 11.1877 44.046 11.1877C44.046 12.1606 44.046 13.1334 44.046 14.1063C40.2382 14.1063 36.4307 14.1063 32.6229 14.1063C32.6229 17.414 32.6229 20.7217 32.6229 24.0294C31.3968 24.0294 30.1705 24.0294 28.9443 24.0294C28.9443 16.4411 28.9443 8.85288 28.9443 1.26465Z" fill="#000100"/>
<path opacity="0.956" fill-rule="evenodd" clip-rule="evenodd" d="M73.4752 6.32345C75.1208 6.21332 76.7342 6.37547 78.3154 6.80987C80.3447 8.06522 81.3449 9.91363 81.3164 12.3551C81.4132 16.246 81.4455 20.1373 81.4132 24.0293C80.2515 24.0293 79.0899 24.0293 77.9282 24.0293C78.0115 19.8708 77.9147 15.72 77.6378 11.5768C77.0165 9.94922 75.8225 9.17094 74.056 9.242C71.0349 9.52193 69.3892 11.2082 69.1189 14.3008C69.0221 17.543 68.9898 20.7858 69.0221 24.0293C67.8604 24.0293 66.6988 24.0293 65.5371 24.0293C65.5371 18.3219 65.5371 12.6145 65.5371 6.90716C66.6988 6.90716 67.8604 6.90716 69.0221 6.90716C68.99 7.94688 69.0223 8.9846 69.1189 10.0203C69.9187 7.98474 71.3708 6.75245 73.4752 6.32345Z" fill="#000100"/>
<path opacity="0.946" fill-rule="evenodd" clip-rule="evenodd" d="M110.068 6.32364C117.177 5.87973 120.597 9.25227 120.329 16.4413C115.811 16.4413 111.294 16.4413 106.776 16.4413C106.886 19.9885 108.693 21.8694 112.197 22.0838C114.548 22.1692 116.161 21.1314 117.038 18.9707C118.135 18.7113 119.232 18.7113 120.329 18.9707C119.536 22.1352 117.535 23.9836 114.327 24.5159C107.42 25.4528 103.741 22.437 103.291 15.4684C103.265 10.639 105.524 7.59079 110.068 6.32364ZM111.229 8.85305C114.75 8.66352 116.686 10.3174 117.038 13.8146C113.615 13.9767 110.195 13.9442 106.776 13.7173C107.076 10.9605 108.56 9.33907 111.229 8.85305Z" fill="#000100"/>
<path opacity="0.955" fill-rule="evenodd" clip-rule="evenodd" d="M143.176 6.32349C146.756 5.83406 149.176 7.26092 150.436 10.604C151.637 7.12949 154.057 5.73507 157.696 6.42077C160.419 7.24793 161.935 9.09634 162.246 11.966C162.343 15.9866 162.375 20.0078 162.343 24.0294C161.181 24.0294 160.02 24.0294 158.858 24.0294C158.944 19.8049 158.847 15.5892 158.568 11.3823C158.04 9.94835 157.007 9.23492 155.47 9.24204C153.195 9.34884 151.775 10.5163 151.21 12.7443C151.034 13.5799 150.905 14.423 150.823 15.2737C150.726 18.1915 150.694 21.11 150.726 24.0294C149.565 24.0294 148.403 24.0294 147.241 24.0294C147.274 20.0078 147.241 15.9866 147.145 11.966C146.568 9.68005 145.116 8.80449 142.788 9.33932C141.045 9.92436 139.98 11.1242 139.594 12.9389C139.395 13.9671 139.266 15.0048 139.207 16.052C139.11 18.7103 139.077 21.3694 139.11 24.0294C138.013 24.0294 136.916 24.0294 135.818 24.0294C135.818 18.322 135.818 12.6146 135.818 6.9072C136.98 6.9072 138.142 6.9072 139.303 6.9072C139.271 7.75282 139.304 8.59595 139.4 9.43661C140.226 7.85944 141.485 6.82174 143.176 6.32349Z" fill="#000100"/>
<path opacity="0.941" fill-rule="evenodd" clip-rule="evenodd" d="M170.861 6.32364C172.681 6.24848 174.488 6.34576 176.282 6.6155C178.322 7.10885 179.581 8.37356 180.058 10.4096C180.104 14.9524 180.201 19.4923 180.348 24.0295C179.313 24.0618 178.281 24.0293 177.25 23.9322C177.094 22.8783 176.997 21.8081 176.96 20.7218C175.821 23.3843 173.788 24.6813 170.861 24.6132C166.384 24.3636 164.545 22.0288 165.343 17.6087C165.881 16.0546 166.946 15.0493 168.538 14.5929C171.07 14.1364 173.587 13.6175 176.089 13.0363C177.255 12.0407 177.319 10.9381 176.282 9.72862C174.282 8.82062 172.281 8.82062 170.28 9.72862C169.552 10.3808 169.101 11.1915 168.925 12.1607C167.771 12.3545 166.609 12.4194 165.44 12.3553C165.759 8.98707 167.566 6.97652 170.861 6.32364ZM176.863 14.8847C177.337 18.9186 175.562 21.2534 171.539 21.8893C169.859 21.8548 168.859 21.0117 168.538 19.3598C168.67 18.2164 169.251 17.4057 170.28 16.9277C171.755 16.5085 173.24 16.1193 174.733 15.7603C175.502 15.5584 176.212 15.2665 176.863 14.8847Z" fill="#000100"/>
<path opacity="0.942" fill-rule="evenodd" clip-rule="evenodd" d="M131.365 6.51807C132.01 6.51807 132.656 6.51807 133.301 6.51807C133.301 7.68549 133.301 8.85291 133.301 10.0203C129.44 9.54136 127.278 11.2276 126.815 15.0792C126.718 18.0619 126.686 21.0453 126.718 24.0294C125.557 24.0294 124.395 24.0294 123.233 24.0294C123.233 18.322 123.233 12.6146 123.233 6.90721C124.395 6.90721 125.557 6.90721 126.718 6.90721C126.686 8.01166 126.719 9.11424 126.815 10.2149C127.738 8.21443 129.255 6.98216 131.365 6.51807Z" fill="#000100"/>
<path opacity="0.952" fill-rule="evenodd" clip-rule="evenodd" d="M46.7572 6.90723C47.9189 6.90723 49.0806 6.90723 50.2422 6.90723C50.2099 10.9937 50.2422 15.0797 50.339 19.1651C50.9102 20.8711 52.1042 21.7142 53.9208 21.6946C56.0029 21.6698 57.455 20.697 58.2771 18.776C58.7085 17.5813 58.9665 16.349 59.0515 15.0792C59.1483 12.356 59.1807 9.63199 59.1483 6.90723C60.31 6.90723 61.4717 6.90723 62.6333 6.90723C62.6333 12.6146 62.6333 18.322 62.6333 24.0294C61.4717 24.0294 60.31 24.0294 59.1483 24.0294C59.1805 22.925 59.1481 21.8224 59.0515 20.7217C58.2577 22.7518 56.8056 24.0166 54.6953 24.5158C52.7369 24.8215 50.8653 24.5621 49.0806 23.7375C47.8103 22.7087 47.068 21.379 46.8541 19.7489C46.7572 15.4688 46.7249 11.1883 46.7572 6.90723Z" fill="#000100"/>
<path opacity="0.941" fill-rule="evenodd" clip-rule="evenodd" d="M182.284 6.90714C183.641 6.87478 184.997 6.90722 186.35 7.00442C187.867 9.04741 189.384 11.0904 190.9 13.1334C192.281 11.039 193.733 8.99602 195.256 7.00442C196.612 6.8747 197.967 6.8747 199.322 7.00442C197.216 9.77843 195.086 12.5348 192.933 15.2737C195.053 18.1829 197.247 21.0366 199.516 23.8347C198.164 24.0612 196.809 24.0937 195.45 23.932C193.845 21.8416 192.264 19.7338 190.707 17.6085C189.153 19.6565 187.636 21.732 186.157 23.8347C184.806 24.0612 183.451 24.0937 182.091 23.932C184.248 21.0829 186.442 18.2616 188.674 15.4682C186.446 12.6726 184.316 9.81888 182.284 6.90714Z" fill="#000100"/>
<path opacity="0.898" fill-rule="evenodd" clip-rule="evenodd" d="M-0.0966797 20.5271C1.12952 20.5271 2.35573 20.5271 3.58193 20.5271C3.58193 21.7593 3.58193 22.9917 3.58193 24.2239C2.35573 24.2239 1.12952 24.2239 -0.0966797 24.2239C-0.0966797 22.9917 -0.0966797 21.7593 -0.0966797 20.5271Z" fill="#000100"/>
<path opacity="0.922" fill-rule="evenodd" clip-rule="evenodd" d="M19.0703 20.5271C20.232 20.5271 21.3936 20.5271 22.5553 20.5271C22.5553 21.7593 22.5553 22.9917 22.5553 24.2239C21.3936 24.2239 20.232 24.2239 19.0703 24.2239C19.0703 22.9917 19.0703 21.7593 19.0703 20.5271Z" fill="#000100"/>
<path opacity="0.849" fill-rule="evenodd" clip-rule="evenodd" d="M100.774 31.8123C102.969 31.8123 105.163 31.8123 107.357 31.8123C107.357 32.2014 107.357 32.5905 107.357 32.9797C105.679 32.9797 104.001 32.9797 102.323 32.9797C102.323 33.8227 102.323 34.666 102.323 35.5091C103.872 35.5091 105.421 35.5091 106.97 35.5091C106.97 35.8982 106.97 36.2874 106.97 36.6765C105.421 36.6765 103.872 36.6765 102.323 36.6765C102.323 37.9087 102.323 39.1411 102.323 40.3733C101.807 40.3733 101.291 40.3733 100.774 40.3733C100.774 37.5196 100.774 34.666 100.774 31.8123Z" fill="#000100"/>
<path opacity="0.853" fill-rule="evenodd" clip-rule="evenodd" d="M148.984 32.396C149.307 32.396 149.629 32.396 149.952 32.396C149.952 32.9149 149.952 33.4336 149.952 33.9526C150.597 33.9526 151.243 33.9526 151.888 33.9526C151.888 34.2769 151.888 34.6011 151.888 34.9254C151.243 34.9254 150.597 34.9254 149.952 34.9254C149.952 36.3522 149.952 37.7792 149.952 39.206C150.533 39.206 151.114 39.206 151.694 39.206C151.694 39.5951 151.694 39.9842 151.694 40.3734C150.917 40.4057 150.143 40.3732 149.371 40.2761C149.094 40.1856 148.868 40.0233 148.693 39.7897C148.428 38.1817 148.331 36.5604 148.403 34.9254C148.016 34.9254 147.629 34.9254 147.241 34.9254C147.191 34.6378 147.255 34.3785 147.435 34.1471C148.432 33.9887 148.948 33.405 148.984 32.396Z" fill="#000100"/>
<path opacity="0.894" fill-rule="evenodd" clip-rule="evenodd" d="M190.222 32.396C190.48 32.396 190.739 32.396 190.997 32.396C190.997 32.9149 190.997 33.4336 190.997 33.9526C191.642 33.9526 192.287 33.9526 192.933 33.9526C192.933 34.2769 192.933 34.6011 192.933 34.9254C192.287 34.9254 191.642 34.9254 190.997 34.9254C190.997 36.3522 190.997 37.7792 190.997 39.206C191.642 39.206 192.287 39.206 192.933 39.206C192.933 39.5951 192.933 39.9842 192.933 40.3734C192.091 40.4057 191.252 40.3732 190.416 40.2761C190.239 40.2033 190.077 40.106 189.932 39.9842C189.653 38.3191 189.556 36.633 189.641 34.9254C189.19 34.9254 188.738 34.9254 188.286 34.9254C188.286 34.666 188.286 34.4065 188.286 34.1471C189.418 34.1121 190.064 33.5284 190.222 32.396Z" fill="#000100"/>
<path opacity="0.862" fill-rule="evenodd" clip-rule="evenodd" d="M109.681 33.758C113.269 33.4405 114.721 35.0618 114.037 38.6223C113.472 40.0093 112.439 40.6578 110.939 40.568C108.743 40.4685 107.613 39.3011 107.551 37.0657C107.59 35.479 108.3 34.3765 109.681 33.758ZM110.068 34.9254C112.475 34.7254 113.347 35.8278 112.681 38.2331C112.549 38.7306 112.258 39.0875 111.81 39.3032C111.229 39.433 110.649 39.433 110.068 39.3032C109.648 39.1412 109.358 38.8493 109.196 38.4277C109.067 37.5846 109.067 36.7413 109.196 35.8983C109.395 35.4727 109.685 35.1484 110.068 34.9254Z" fill="#000100"/>
<path opacity="0.829" fill-rule="evenodd" clip-rule="evenodd" d="M118.199 33.7578C118.522 33.7578 118.844 33.7578 119.167 33.7578C119.167 34.2117 119.167 34.6659 119.167 35.1198C118.359 35.0552 117.681 35.3148 117.134 35.8981C116.864 37.3729 116.767 38.8647 116.844 40.3732C116.327 40.3732 115.811 40.3732 115.295 40.3732C115.295 38.2329 115.295 36.0927 115.295 33.9524C115.811 33.9524 116.327 33.9524 116.844 33.9524C116.813 34.2195 116.846 34.4791 116.941 34.7307C117.29 34.2781 117.71 33.9539 118.199 33.7578Z" fill="#000100"/>
<path opacity="0.869" fill-rule="evenodd" clip-rule="evenodd" d="M131.752 33.758C135.227 33.3922 136.679 34.9488 136.108 38.4277C135.912 39.2727 135.428 39.8889 134.656 40.2761C130.77 41.0412 129.189 39.4521 129.912 35.5091C130.275 34.6347 130.888 34.051 131.752 33.758ZM131.945 34.9254C134.4 34.6571 135.336 35.7598 134.753 38.2331C134.501 39.1062 133.92 39.4953 133.01 39.4005C131.579 39.3256 130.902 38.5474 130.977 37.0657C131.042 36.2222 131.365 35.5088 131.945 34.9254Z" fill="#000100"/>
<path opacity="0.865" fill-rule="evenodd" clip-rule="evenodd" d="M154.404 33.758C155.456 33.6921 156.488 33.7894 157.502 34.0499C159.103 35.4726 159.458 37.1912 158.567 39.206C157.311 40.5867 155.794 40.9433 154.017 40.2761C153.469 39.9843 153.049 39.5626 152.759 39.0114C152.318 37.6171 152.383 36.2551 152.952 34.9254C153.361 34.4155 153.846 34.0263 154.404 33.758ZM154.791 34.9254C156.631 34.5509 157.599 35.2967 157.696 37.163C157.599 39.0606 156.631 39.7739 154.791 39.3033C154.343 39.0875 154.053 38.7307 153.92 38.2331C153.791 37.5196 153.791 36.8064 153.92 36.0929C154.076 35.578 154.366 35.1889 154.791 34.9254Z" fill="#000100"/>
<path opacity="0.861" fill-rule="evenodd" clip-rule="evenodd" d="M165.053 33.758C166.104 33.6921 167.137 33.7894 168.151 34.0499C168.952 34.6217 169.403 35.4 169.506 36.3847C169.054 36.5145 168.602 36.5145 168.151 36.3847C167.556 34.9149 166.523 34.5258 165.053 35.2173C164.498 36.1475 164.337 37.1529 164.569 38.2331C165.349 39.4511 166.382 39.7105 167.667 39.0114C167.899 38.043 168.512 37.6539 169.506 37.844C169 40.1438 167.58 41.0194 165.246 40.4707C164.182 40.1788 163.504 39.4978 163.213 38.4277C162.68 36.3647 163.293 34.8081 165.053 33.758Z" fill="#000100"/>
<path opacity="0.861" fill-rule="evenodd" clip-rule="evenodd" d="M173.379 33.7578C173.702 33.7578 174.024 33.7578 174.347 33.7578C174.347 34.2117 174.347 34.6659 174.347 35.1198C173.332 35.0145 172.59 35.4037 172.12 36.2872C171.882 37.6385 171.785 39.0005 171.83 40.3732C171.378 40.3732 170.926 40.3732 170.475 40.3732C170.475 38.2329 170.475 36.0927 170.475 33.9524C170.926 33.9524 171.378 33.9524 171.83 33.9524C171.799 34.3468 171.831 34.7359 171.927 35.1198C172.269 34.4832 172.753 34.0292 173.379 33.7578Z" fill="#000100"/>
<path opacity="0.836" fill-rule="evenodd" clip-rule="evenodd" d="M176.864 33.7579C179.825 33.3613 181.245 34.6585 181.123 37.6493C179.51 37.6493 177.896 37.6493 176.283 37.6493C176.329 38.8305 176.942 39.479 178.122 39.595C178.557 39.471 178.976 39.3089 179.38 39.1085C179.678 38.8926 179.807 38.6007 179.768 38.233C180.219 38.233 180.671 38.233 181.123 38.233C181.024 39.3397 180.443 40.0855 179.38 40.4705C176.012 41.098 174.496 39.7035 174.831 36.2873C175.057 35.044 175.734 34.2009 176.864 33.7579ZM177.638 34.7307C178.875 34.677 179.585 35.2607 179.768 36.4818C178.606 36.4818 177.444 36.4818 176.283 36.4818C176.374 35.6125 176.826 35.0288 177.638 34.7307Z" fill="#000100"/>
<path opacity="0.864" fill-rule="evenodd" clip-rule="evenodd" d="M183.64 33.7579C184.756 33.6896 185.853 33.7869 186.932 34.0498C187.232 34.286 187.457 34.5779 187.609 34.9254C187.644 36.724 187.741 38.5076 187.9 40.276C187.452 40.3727 187.001 40.405 186.544 40.3733C186.575 40.0428 186.543 39.7184 186.448 39.4005C185.942 40.222 185.2 40.6111 184.221 40.5679C182.486 40.4764 181.809 39.5684 182.188 37.8439C182.34 37.4964 182.566 37.2046 182.866 36.9684C183.996 36.6658 185.125 36.3739 186.254 36.0928C186.527 35.1659 186.172 34.7119 185.189 34.7308C184.254 34.7415 183.738 35.1956 183.64 36.0928C183.189 36.0928 182.737 36.0928 182.285 36.0928C182.242 35.0104 182.694 34.2321 183.64 33.7579ZM186.157 37.0656C186.3 37.0401 186.429 37.0726 186.544 37.1629C186.293 39.1119 185.293 39.7281 183.543 39.0113C183.365 38.465 183.527 38.0434 184.027 37.7466C184.788 37.6058 185.498 37.3787 186.157 37.0656Z" fill="#000100"/>
<path opacity="0.891" fill-rule="evenodd" clip-rule="evenodd" d="M199.903 36.4818C199.903 36.871 199.903 37.2601 199.903 37.6492C198.225 37.6492 196.548 37.6492 194.869 37.6492C195.195 39.3052 196.163 39.8566 197.773 39.3031C198.068 39.0402 198.325 38.7484 198.548 38.4275C198.982 38.238 199.435 38.173 199.903 38.2329C199.903 38.3627 199.903 38.4923 199.903 38.6221C199.708 39.3646 199.256 39.9158 198.548 40.2759C194.141 41.0346 192.625 39.2511 193.998 34.9253C195.096 33.8139 196.418 33.4572 197.967 33.8551C199.111 34.3766 199.756 35.2521 199.903 36.4818ZM196.225 34.7307C197.512 34.5669 198.286 35.1181 198.548 36.3845C197.316 36.5462 196.091 36.5137 194.869 36.2872C195.059 35.5134 195.512 34.9945 196.225 34.7307Z" fill="#000100"/>
<path opacity="0.865" fill-rule="evenodd" clip-rule="evenodd" d="M125.363 42.9027C124.588 42.9027 123.814 42.9027 123.039 42.9027C123.039 42.5136 123.039 42.1244 123.039 41.7353C123.688 41.7674 124.333 41.7349 124.975 41.638C125.132 41.2318 125.325 40.8426 125.556 40.4706C125.379 40.3978 125.217 40.3005 125.072 40.1787C124.271 38.1186 123.529 36.0433 122.846 33.9525C123.353 33.9004 123.837 33.9651 124.298 34.1471C124.84 35.7188 125.421 37.2754 126.04 38.8167C126.75 37.2263 127.364 35.605 127.88 33.9525C128.4 33.9206 128.916 33.9531 129.428 34.0498C128.3 36.8029 127.171 39.5592 126.04 42.319C125.819 42.54 125.593 42.7346 125.363 42.9027Z" fill="#000100"/>
<path opacity="0.888" fill-rule="evenodd" clip-rule="evenodd" d="M137.367 33.9524C137.818 33.9524 138.27 33.9524 138.722 33.9524C138.69 35.4455 138.722 36.9373 138.819 38.4275C139.6 39.6589 140.504 39.7239 141.529 38.6221C141.959 37.0982 142.12 35.5416 142.013 33.9524C142.465 33.9524 142.917 33.9524 143.369 33.9524C143.369 36.0927 143.369 38.2329 143.369 40.3732C142.917 40.3732 142.465 40.3732 142.013 40.3732C142.044 40.0426 142.012 39.7183 141.917 39.4004C141.489 40.2964 140.779 40.6855 139.787 40.5678C138.885 40.666 138.175 40.3417 137.657 39.5949C137.382 37.7298 137.285 35.8489 137.367 33.9524Z" fill="#000100"/>
</g>
<defs>
<clipPath id="clip0_4_29">
<rect width="200" height="43" fill="white"/>
</clipPath>
</defs>
</svg>
