<svg width="200" height="51" viewBox="0 0 200 51" fill="none" xmlns="http://www.w3.org/2000/svg">
<path d="M112.052 0.0332031H139.89V6.57082H120.587V12.9083H137.123V19.5127H120.587V25.7167H140.19V32.8881H112.052V0.0332031Z" fill="#939598"/>
<path d="M171.328 0L199.299 0.0333522V6.57097H179.996V12.9085H196.232V19.5128H179.996V25.6835H199.599V32.9216H171.361L171.328 0Z" fill="#939598"/>
<path d="M0 0H8.50141V12.3414H24.8708V0H33.3722V32.9216L24.8708 32.8883V20.1466H8.50141V32.8883H0V0Z" fill="#939598"/>
<path d="M81.2471 0.0332031H110.119V6.53748H89.9485V12.8083H106.918V19.5127H89.9485V32.9214H81.2471V0.0332031Z" fill="#939598"/>
<path d="M53.542 0.0332031H61.0433L79.3797 32.9214H70.2115L66.2108 25.9168H48.0411L44.0738 32.9214H35.3057L53.542 0.0332031ZM57.0093 8.20524L50.9416 19.3459H63.0103L57.0093 8.20524Z" fill="#D91E48"/>
<path d="M47.2746 0.0332031H39.3066V5.73694H47.2746V0.0332031Z" fill="#D91E48"/>
<path d="M74.9457 0.0332031H66.9443V5.73694H74.9457V0.0332031Z" fill="#D91E48"/>
<path d="M151.592 0.0332031L142.391 0.0665604V32.8881L169.462 32.9214V25.5833H151.592V0.0332031Z" fill="#939598"/>
<path d="M35.2725 40.3264H40.8401V41.6273H36.7727V44.696H40.64V46.0302H36.7727V50.8H35.2725V40.3264Z" fill="#939598"/>
<path d="M44.6409 40.3264H43.1406V50.8H44.6409V40.3264Z" fill="#939598"/>
<path d="M47.6074 40.3264H49.6411L54.2752 48.7653H54.3085V40.3264H55.8088V50.8H53.8751L49.141 42.161H49.1077V50.8H47.6074V40.3264Z" fill="#939598"/>
<path d="M58.6768 40.3264H61.7773C64.8778 40.3264 67.3782 42.261 67.3782 45.4631C67.3782 48.9654 65.2445 50.8 61.7773 50.8H58.6768V40.3264ZM60.177 49.4657H61.7439C64.311 49.4657 65.7446 48.2316 65.7446 45.5298C65.7446 43.0949 64.0777 41.6273 61.9106 41.6273H60.1437V49.4657H60.177Z" fill="#939598"/>
<path d="M71.4114 40.3264H69.9111V50.8H71.4114V40.3264Z" fill="#939598"/>
<path d="M74.4453 40.3264H76.479L81.1131 48.7653H81.1464V40.3264H82.6467V50.8H80.713L75.9789 42.161H75.9456V50.8H74.4453V40.3264Z" fill="#939598"/>
<path d="M93.5494 42.1609C92.8159 41.6939 92.0158 41.4271 90.6823 41.4271C88.2819 41.4271 86.6483 43.1949 86.6483 45.5298C86.6483 47.9981 88.4152 49.6325 90.5822 49.6325C91.6158 49.6325 91.8825 49.5324 92.2492 49.4657V46.2969H90.0488V45.0628H93.7494V50.4997C93.1827 50.6998 92.1825 50.9667 90.5489 50.9667C87.215 50.9667 85.0146 48.8319 85.0146 45.4964C85.0146 42.261 87.3484 40.1262 90.5489 40.1262C92.0825 40.1262 92.7493 40.3597 93.6161 40.6599L93.5494 42.1609Z" fill="#939598"/>
<path d="M101.116 40.3264H103.95C106.117 40.3264 107.617 41.0269 107.617 42.9615C107.617 44.3958 106.784 45.1296 105.45 45.4631V45.4965C106.884 45.6299 107.884 46.5638 107.884 48.0315C107.884 50.2996 106.017 50.8333 103.883 50.8333H101.083V40.3264M102.617 44.796H103.45C104.917 44.796 106.151 44.6626 106.151 43.1283C106.151 41.8941 105.084 41.5606 104.217 41.5606H102.65V44.796H102.617ZM102.617 49.5658H103.75C105.117 49.5658 106.317 49.2656 106.317 47.8647C106.317 46.2303 104.884 46.0302 103.617 46.0302H102.65V49.5658H102.617Z" fill="#939598"/>
<path d="M110.618 40.3264H116.486V41.6273H112.118V44.696H116.086V46.0302H112.118V49.4657H116.486V50.8H110.618V40.3264Z" fill="#939598"/>
<path d="M121.421 41.6273H118.153V40.3264H126.188V41.6273H122.921V50.8H121.421V41.6273Z" fill="#939598"/>
<path d="M130.655 41.6273H127.421V40.3264H135.422V41.6273H132.155V50.8H130.655V41.6273Z" fill="#939598"/>
<path d="M137.289 40.3264H143.157V41.6273H138.789V44.696H142.79V46.0302H138.789V49.4657H143.157V50.8H137.289V40.3264Z" fill="#939598"/>
<path d="M145.791 40.3264H148.358C150.425 40.3264 152.426 40.66 152.426 43.1616C152.426 44.4291 151.492 45.3297 150.259 45.5632V45.5965C150.725 45.7633 150.959 45.9968 151.292 46.6639L153.259 50.8333H151.559L149.925 47.1642C149.458 46.1302 148.958 46.1302 148.158 46.1302H147.258V50.8H145.758V40.3264M147.291 44.8294H148.558C149.992 44.8294 150.825 44.1956 150.825 43.195C150.825 42.261 150.092 41.6606 148.725 41.6606H147.291V44.8294Z" fill="#939598"/>
<path d="M158.359 40.3264H160.026L162.527 49.299H162.56L164.794 40.3264H166.927L169.195 49.299H169.228L171.728 40.3264H173.329L170.095 50.8H168.161L165.861 41.6273H165.827L163.527 50.8H161.527L158.359 40.3264Z" fill="#939598"/>
<path d="M177.763 40.3264H179.33L183.764 50.8H182.131L181.064 48.1649H175.93L174.863 50.8H173.296L177.763 40.3264ZM178.497 41.7273L176.396 46.9307H180.597L178.497 41.7273Z" fill="#939598"/>
<path d="M187.331 46.3971L183.23 40.3264H184.964L188.098 45.0295L191.132 40.3264H192.899L188.831 46.3971V50.8H187.331V46.3971Z" fill="#939598"/>
<path d="M199.3 41.8941C198.533 41.5939 198.1 41.4604 197.333 41.4604C196.5 41.4604 195.5 41.7606 195.5 42.8614C195.5 44.8627 200 44.3957 200 47.8646C200 50.0994 198.267 51 196.166 51C195.433 51 194.699 50.7999 194.033 50.5664L194.199 49.1655C194.699 49.3656 195.6 49.6658 196.366 49.6658C197.233 49.6658 198.433 49.1988 198.433 47.9647C198.433 45.6298 193.933 46.2636 193.933 42.9948C193.933 41.1269 195.4 40.1262 197.3 40.1262C198 40.1262 198.8 40.2596 199.534 40.4931L199.3 41.8941Z" fill="#939598"/>
</svg>
