<svg width="200" height="125" viewBox="0 0 200 125" fill="none" xmlns="http://www.w3.org/2000/svg">
<g clip-path="url(#clip0_5_120)">
<path d="M123.388 82.9119L179.621 50.3787V40.9173L123.388 73.4433V82.9119Z" fill="#E30613"/>
<path d="M123.388 41.9946L179.621 9.4615V1.64297e-05L123.388 32.5261V41.9946Z" fill="#00569D"/>
<path d="M27.2999 124.118V103.057H10.8721V124.118H1.06327H0V72.9367H10.8721V94.3644H27.2999V72.9367H38.172V124.118H27.2999ZM179.615 105.83C179.615 102.782 180.277 99.8818 181.586 97.1302C182.199 95.9731 182.988 94.9289 183.974 94.0681C184.593 93.5177 185.262 93.165 186.016 93.0097C187.149 92.7769 188.374 92.8122 188.881 94.0116C189.022 94.3291 189.1 94.6819 189.163 94.9994C189.515 96.7351 189.529 99.9736 189.529 101.194V124.118H200V97.0102C199.958 93.4542 199.268 89.5807 196.789 86.8855C194.782 84.663 192.29 83.647 189.621 83.6118C185.318 83.5553 180.819 86.2223 179.615 90.3851V66.9113L169.2 72.9367V124.118H179.615V105.83ZM43.4602 116.801C42.3336 114.924 41.4956 112.765 40.9323 110.345C40.369 107.918 40.0873 105.237 40.0873 102.309C40.0873 100.496 40.2141 98.6471 40.538 96.8409C40.8267 95.2534 41.2703 93.6871 41.9181 92.2125C42.6927 90.4556 43.77 88.8329 45.1572 87.5135C46.7556 85.9965 48.7484 84.8747 51.1214 84.2326C52.7127 83.7952 54.4802 83.5694 56.4095 83.5765C57.8178 83.5694 59.2261 83.7176 60.5992 84.0492C62.3103 84.4655 63.8383 85.1499 65.148 86.0812C66.7183 87.196 67.9717 88.6635 68.8871 90.3569C69.9996 92.3959 70.6616 94.8019 70.901 97.483C71.0136 98.7318 71.0066 99.9806 71.0066 101.237V103.057H60.4795H49.9595C50.0933 104.722 50.4735 106.415 51.065 108.017C51.5931 109.421 52.2973 110.797 53.1986 112.024C54.0929 113.252 55.1843 114.332 56.4799 115.136C58.2192 116.215 60.1979 116.709 62.2399 116.709C64.4157 116.716 66.6549 116.11 68.6829 115.355L70.1053 114.825V123.186L69.387 123.426C67.4506 124.096 65.4438 124.534 63.268 124.774C61.916 124.922 60.5288 125.007 59.1346 125C57.7474 124.985 56.3602 124.88 55.0224 124.64C53.5507 124.379 52.1635 123.962 50.8819 123.405C49.5934 122.841 48.4174 122.135 47.3471 121.288C45.7839 120.047 44.4812 118.508 43.4602 116.801ZM60.9513 95.6485C60.895 95.2887 60.8034 94.9077 60.6837 94.5408C60.3739 93.6165 59.8458 92.791 59.0501 92.2125C58.6839 91.9514 58.2474 91.7256 57.7052 91.5704C56.2476 91.14 54.5013 91.1965 53.1564 91.9161C52.1283 92.4665 51.3467 93.3837 50.8397 94.4209C50.6355 94.8301 50.4806 95.2534 50.3679 95.6485H60.9513ZM87.533 92.6429V109.329C87.533 110.134 87.5471 110.903 87.6034 111.622C87.695 112.772 87.878 114.078 88.4906 115.079C88.9836 115.891 89.7229 116.349 90.6242 116.554C91.6734 116.801 92.8071 116.723 93.8492 116.526C94.8984 116.335 95.9335 116.032 96.9545 115.764V124.181L96.0814 124.336C94.8984 124.548 93.6943 124.71 92.4832 124.823C91.3002 124.929 90.0891 125 88.885 124.993C87.6738 124.978 86.4697 124.894 85.3008 124.682C83.6531 124.393 82.0265 123.842 80.6675 122.841C79.5479 122.015 78.703 120.936 78.1326 119.659C77.8016 118.911 77.5693 118.12 77.4144 117.302C77.0834 115.602 77.1116 113.88 77.1116 112.158V92.6429H70.1546V84.4443H77.1116V72.9367L87.526 66.9113L87.533 84.4443H100.687V72.9367L111.101 66.9113L111.108 84.4443H121.635V92.6429H111.108V109.329C111.108 110.134 111.129 110.903 111.185 111.622C111.27 112.772 111.46 114.078 112.073 115.079C112.566 115.891 113.298 116.349 114.199 116.554C115.248 116.801 116.382 116.723 117.431 116.526C118.473 116.335 119.509 116.032 120.537 115.764V124.181L119.656 124.336C118.473 124.548 117.269 124.71 116.058 124.823C114.882 124.929 113.671 125 112.46 124.993C111.249 124.978 110.045 124.894 108.876 124.682C107.228 124.393 105.602 123.842 104.243 122.841C103.123 122.015 102.278 120.936 101.708 119.659C101.377 118.911 101.144 118.12 100.989 117.302C100.665 115.602 100.687 113.88 100.687 112.158V92.6429H87.533ZM124.445 124.118H123.388V84.4443H133.81V124.118H124.445ZM138.837 116.42C137.746 114.607 136.901 112.483 136.345 110.056C135.915 108.151 135.648 106.112 135.577 104.066C135.507 102.02 135.619 99.9665 135.943 98.0192C136.239 96.2271 136.732 94.5126 137.429 92.9321C138.394 90.752 139.788 88.7764 141.626 87.2454C143.513 85.6649 145.879 84.5219 148.71 83.9645C151.4 83.4354 154.448 83.4213 157.138 83.9645C159.251 84.3949 161.004 85.164 162.419 86.1941C164.201 87.4923 165.497 89.2632 166.32 91.3023C167.102 93.2496 167.44 95.3875 167.525 97.5182C167.546 98.1532 167.539 98.7882 167.539 99.4232H156.596V98.3649C156.596 97.8075 156.575 97.2501 156.519 96.7068C156.406 95.5991 156.167 94.3997 155.547 93.4472C155.033 92.6499 154.301 92.1631 153.392 91.9655C152.582 91.7891 151.66 91.8103 150.871 92.0431C150.076 92.276 149.386 92.7275 148.815 93.3343C148.139 94.061 147.66 94.9712 147.322 95.9025C147.062 96.6151 146.865 97.4195 146.731 98.2732C146.407 100.312 146.47 102.464 146.801 104.489C146.984 105.611 147.259 106.719 147.632 107.784C148.562 110.444 150.139 112.864 152.47 114.501C153.737 115.397 155.244 116.06 157.04 116.413C158.758 116.752 160.575 116.78 162.314 116.603C163.595 116.469 164.694 116.208 165.743 115.827L167.165 115.305V122.961L166.433 123.2C164.243 123.913 161.863 124.485 159.349 124.774C158.117 124.915 156.871 124.993 155.617 124.985C154.371 124.985 153.118 124.901 151.892 124.717C149.836 124.414 147.879 123.857 146.09 123.01C143.041 121.564 140.563 119.306 138.837 116.42Z" fill="#1D1D1B"/>
<path d="M123.388 69.2727L179.621 36.7396V27.2781L123.388 59.8042V69.2727Z" fill="#F9B000"/>
<path d="M123.388 55.6338L179.621 23.1007V13.6392L123.388 46.1652V55.6338Z" fill="#00975F"/>
</g>
<defs>
<clipPath id="clip0_5_120">
<rect width="200" height="125" fill="white"/>
</clipPath>
</defs>
</svg>
