<svg width="200" height="93" viewBox="0 0 200 93" fill="none" xmlns="http://www.w3.org/2000/svg">
<g clip-path="url(#clip0_10_944)">
<path d="M2.00177 56.7338C0.708761 65.7795 2.0852 71.9907 7.17383 79.5357C12.0539 86.8306 17.6014 90.9575 25.2343 92.875H31.2823V56.6921L2.00177 56.7338Z" fill="#3E3D40"/>
<path d="M67.1951 9.62939H37.7061V92.875H42.7947L67.1951 50.6895V9.62939Z" fill="#3E3D40"/>
<path d="M200 9.62939H139.271V30.7222H200V9.62939Z" fill="#3E3D40"/>
<path d="M139.396 49.6055L164.255 92.8332H168.342V58.8179H200V37.4333H139.396V49.6055Z" fill="#3E3D40"/>
<path d="M107.362 53.1488L130.261 92.8333H156.372L120.376 30.3469L107.362 53.1488Z" fill="#D95017"/>
<path d="M61.7726 72.9495L50.3857 92.8334H122.377L110.865 72.9495H61.7726Z" fill="#D95017"/>
<path d="M116.497 23.7607L103.316 1.00049L65.6104 66.4465H91.8043L116.497 23.7607Z" fill="#D95017"/>
</g>
<defs>
<clipPath id="clip0_10_944">
<rect width="200" height="93" fill="white"/>
</clipPath>
</defs>
</svg>
