<svg width="200" height="115" viewBox="0 0 200 115" fill="none" xmlns="http://www.w3.org/2000/svg">
<path d="M5.5557 104.311V115H0V89.3828H5.5557V99.3348L18.8903 89.3828H26.8516L11.2964 101.178L28.5185 115H19.9977L6.29633 103.942L5.5557 104.311Z" fill="white"/>
<path d="M32.7783 114.999L46.2966 89.1987H51.4817L65.1856 114.999H59.2579L56.1098 109.47H40.9265L38.1484 114.999H32.7783ZM43.5191 104.863H53.8892L48.3335 94.3614L43.5191 104.863Z" fill="white"/>
<path d="M93.8896 114.999V89.3828H97.9634L116.854 105.969V89.1987H123.15V114.999H118.335L99.2597 98.0448V114.999H93.8896Z" fill="white"/>
<path d="M176.481 114.999V89.1987H181.851V110.577H200V114.999H176.481Z" fill="white"/>
<path d="M136.111 89.1987H151.852C159.26 89.1987 165.185 93.2529 165.185 102.099C165.185 110.761 159.445 114.999 151.852 114.999H136.111V89.1987ZM141.852 110.208H149.815C156.297 110.208 159.26 108.734 159.26 102.099C159.26 95.28 156.483 93.99 150.187 93.99H141.852V110.208Z" fill="white"/>
<path d="M79.9999 89.3828H74.6299V115H79.9999V89.3828Z" fill="white"/>
<path d="M128.519 32.6204L141.852 37.7805L105.926 69.2948L62.0371 52.7085L72.4072 43.4936L102.963 55.1038L128.519 32.6204Z" fill="#A5B0CA"/>
<path d="M125 16.218L138.518 21.3781L102.592 53.0779L58.5186 36.3062L69.0711 27.276L99.4414 38.7021L125 16.218Z" fill="#A5B0CA"/>
<path d="M121.667 0L135 4.97602L99.0742 36.6758L55.1855 20.0882L65.3707 10.8732L95.926 22.4835L121.667 0Z" fill="#A5B0CA"/>
</svg>
