<svg width="200" height="57" viewBox="0 0 200 57" fill="none" xmlns="http://www.w3.org/2000/svg">
<path opacity="0.963" fill-rule="evenodd" clip-rule="evenodd" d="M0 0.0181275C2.62545 -0.0302457 5.24916 0.0181943 7.87111 0.163445C8.01687 0.308762 8.16264 0.454079 8.3084 0.599396C8.40547 9.70593 8.50284 18.8125 8.59992 27.919C12.1364 22.6598 15.7804 17.4768 19.532 12.3701C22.5443 12.1763 25.5569 12.1763 28.5692 12.3701C28.8823 12.5848 29.0768 12.8754 29.1523 13.242C25.8292 18.4448 22.3309 23.5309 18.6575 28.5003C21.9534 33.2876 25.3059 38.0346 28.715 42.7414C29.3403 43.4375 29.2916 44.0673 28.5692 44.6305C25.5569 44.8244 22.5443 44.8244 19.532 44.6305C15.8521 39.57 12.2081 34.4839 8.59992 29.3722C8.54715 34.3258 8.40139 39.2666 8.16264 44.1946C8.00959 44.3957 7.81514 44.541 7.57959 44.6305C5.055 44.7758 2.52838 44.8241 0 44.7758C0 29.8567 0 14.9374 0 0.0181275Z" fill="#EC1C26"/>
<path opacity="0.947" fill-rule="evenodd" clip-rule="evenodd" d="M158.588 0.0181275C161.213 -0.0302457 163.837 0.0181943 166.459 0.163445C166.809 0.425748 167.052 0.764823 167.188 1.18067C167.285 9.99657 167.382 18.8125 167.479 27.6284C171.026 22.5423 174.573 17.4562 178.12 12.3701C181.23 12.1763 184.339 12.1763 187.449 12.3701C187.827 13.1096 187.778 13.8362 187.303 14.5499C183.976 19.1492 180.72 23.7994 177.537 28.5003C180.817 33.3949 184.17 38.2386 187.594 43.032C187.789 43.5165 187.789 44.0007 187.594 44.4852C184.458 44.8203 181.3 44.8688 178.12 44.6305C174.537 39.5697 170.99 34.4836 167.479 29.3722C167.471 34.3394 167.277 39.2802 166.896 44.1946C166.751 44.3399 166.605 44.4852 166.459 44.6305C163.837 44.7758 161.213 44.8241 158.588 44.7758C158.588 29.8567 158.588 14.9374 158.588 0.0181275Z" fill="#EC1C25"/>
<path opacity="0.715" fill-rule="evenodd" clip-rule="evenodd" d="M193.862 4.37769C199.379 4.62153 201.177 7.33411 199.256 12.5155C196.618 15.097 193.896 15.1939 191.093 12.8061C189.045 8.95864 189.968 6.14916 193.862 4.37769ZM197.652 12.2248C197.308 11.4908 196.919 10.7642 196.486 10.0451C197.317 9.30121 197.56 8.38086 197.215 7.28403C196.952 6.93486 196.612 6.69265 196.195 6.55744C195.126 6.46058 194.057 6.36368 192.988 6.26681C196.246 4.93663 198.287 6.0023 199.11 9.46379C199.03 10.6273 198.544 11.5477 197.652 12.2248ZM197.652 12.2248C195.71 13.8187 193.815 13.7219 191.967 11.9342C190.861 9.94546 191.056 8.10478 192.55 6.41213C192.696 8.34726 192.745 10.2848 192.696 12.2248C193.279 12.2248 193.862 12.2248 194.445 12.2248C194.142 9.56888 194.628 9.52043 195.903 12.0795C196.478 12.2235 197.061 12.2719 197.652 12.2248ZM194.154 8.15593C194.668 7.87652 195.251 7.77965 195.903 7.8653C195.903 8.15593 195.903 8.44657 195.903 8.7372C195.312 8.78431 194.729 8.73589 194.154 8.59189C194.515 8.39135 194.515 8.24603 194.154 8.15593Z" fill="#EC1D26"/>
<path opacity="0.95" fill-rule="evenodd" clip-rule="evenodd" d="M43.145 12.2248C49.1034 11.7975 54.0106 13.832 57.8669 18.3281C58.4237 19.1001 58.8609 19.9235 59.1787 20.7985C58.6473 21.9153 57.8701 22.8841 56.8465 23.7049C52.8745 26.7921 48.9877 29.989 45.1856 33.2958C44.6997 33.4897 44.214 33.4897 43.728 33.2958C42.3503 31.8267 41.0871 30.2767 39.9382 28.6457C42.6497 26.3229 45.3704 23.9979 48.1008 21.6704C43.7639 20.0447 40.4114 21.2557 38.0433 25.3034C36.3752 30.8039 38.2701 34.4368 43.728 36.2022C47.1881 36.5117 49.9089 35.2524 51.8906 32.4239C52.2597 32.3341 52.5999 32.1888 52.911 31.988C55.126 33.4687 57.2153 35.1158 59.1787 36.9287C54.6645 43.5177 48.4454 45.9881 40.5213 44.3399C31.1992 40.7221 27.4578 33.989 29.2976 24.1408C31.5651 17.4212 36.1811 13.4492 43.145 12.2248Z" fill="#EC1D25"/>
<path opacity="0.94" fill-rule="evenodd" clip-rule="evenodd" d="M76.6705 12.2249C77.6471 12.177 78.6188 12.2254 79.5858 12.3702C79.8286 12.6124 80.0717 12.8546 80.3146 13.0968C80.4603 15.7107 80.5087 18.3264 80.4603 20.944C75.8158 20.5691 72.8522 22.6036 71.5689 27.0473C71.4718 32.7632 71.3744 38.4788 71.2774 44.1947C71.1316 44.34 70.9858 44.4854 70.8401 44.6307C68.121 44.776 65.4 44.8242 62.6774 44.776C62.6288 38.7689 62.6774 32.7623 62.8232 26.7566C64.3117 18.9276 68.9277 14.0837 76.6705 12.2249Z" fill="#EC1D25"/>
<path opacity="0.945" fill-rule="evenodd" clip-rule="evenodd" d="M93.5787 12.2248C94.7693 12.092 95.8867 12.2858 96.9312 12.8061C97.077 15.517 97.1254 18.2295 97.077 20.9439C92.6817 20.6853 89.8152 22.6229 88.4771 26.7565C88.38 32.4725 88.2826 38.1881 88.1856 43.904C87.9427 44.1461 87.6996 44.3885 87.4568 44.6306C84.8348 44.7759 82.2111 44.8241 79.5856 44.7759C79.537 38.4781 79.5856 32.181 79.7314 25.8846C81.4126 18.3473 86.0283 13.794 93.5787 12.2248Z" fill="#EC1D25"/>
<path opacity="0.958" fill-rule="evenodd" clip-rule="evenodd" d="M113.403 12.225C119.275 11.8646 124.085 13.899 127.833 18.3283C134.22 11.7619 141.459 10.6478 149.551 14.986C151.349 16.3908 152.953 17.9893 154.361 19.7815C154.569 20.3241 154.423 20.76 153.924 21.0894C152.285 22.2387 150.73 23.4981 149.26 24.8676C148.677 25.0614 148.094 25.0614 147.511 24.8676C143.309 19.9646 138.887 19.7224 134.246 24.141C131.705 28.9377 132.726 32.7644 137.307 35.6211C139.924 36.6758 142.451 36.4819 144.887 35.0398C145.925 33.9072 147.042 32.89 148.239 31.9882C150.21 33.2725 152.105 34.6774 153.924 36.2024C154.644 36.6639 154.692 37.1969 154.07 37.8008C148.929 44.3526 142.37 46.3385 134.392 43.7589C131.869 42.6219 129.683 41.0234 127.833 38.9634C121.551 45.4285 114.409 46.5426 106.406 42.3057C98.469 36.055 96.8656 28.4503 101.596 19.4909C104.563 15.4704 108.499 13.0484 113.403 12.225ZM113.694 20.944C119.17 20.5928 122.28 23.1117 123.023 28.5005C122.008 34.7957 118.412 37.1693 112.236 35.6211C108.413 33.5669 107.004 30.4184 108.009 26.1755C109.035 23.4559 110.93 21.7121 113.694 20.944Z" fill="#364E57"/>
<path opacity="0.698" fill-rule="evenodd" clip-rule="evenodd" d="M158.589 52.0416C158.539 52.3299 158.636 52.5235 158.88 52.6229C159.009 55.2651 157.892 56.137 155.528 55.2386C155.132 55.4944 154.695 55.5914 154.216 55.5292C154.216 53.5916 154.216 51.6542 154.216 49.7166C154.604 49.7166 154.993 49.7166 155.382 49.7166C155.295 50.328 155.392 50.9093 155.673 51.4604C156.774 51.0209 157.745 51.2148 158.589 52.0416ZM155.965 52.3323C157.391 52.3712 157.877 53.0493 157.423 54.3667C156.84 54.3667 156.256 54.3667 155.673 54.3667C155.723 53.9825 155.626 53.6433 155.382 53.3495C155.617 53.026 155.811 52.6871 155.965 52.3323Z" fill="#EC1D25"/>
<path opacity="0.678" fill-rule="evenodd" clip-rule="evenodd" d="M169.957 49.7166C169.759 50.7143 169.176 51.6347 168.208 52.4776C169.254 53.4079 169.886 54.5222 170.103 55.8199C169.695 55.6086 169.258 55.4633 168.791 55.3839C168.361 54.6733 167.826 54.0435 167.188 53.4948C166.794 54.1034 166.648 54.7814 166.751 55.5292C166.265 55.5292 165.779 55.5292 165.293 55.5292C165.293 53.6887 165.293 51.8478 165.293 50.0072C165.779 50.0072 166.265 50.0072 166.751 50.0072C166.703 50.6922 166.751 51.3703 166.896 52.0416C167.737 50.952 168.758 50.1769 169.957 49.7166Z" fill="#ED1C26"/>
<path opacity="0.693" fill-rule="evenodd" clip-rule="evenodd" d="M171.998 50.0073C174.345 49.6228 175.803 50.5433 176.371 52.7684C175.752 55.3053 174.197 56.1772 171.707 55.3841C169.702 53.4514 169.799 51.659 171.998 50.0073ZM172.581 51.1699C174.774 51.2193 175.357 52.188 174.331 54.0762C172.924 54.7174 171.952 54.3297 171.415 52.9137C171.543 52.1217 171.931 51.5404 172.581 51.1699Z" fill="#ED1C25"/>
<path opacity="0.71" fill-rule="evenodd" clip-rule="evenodd" d="M176.954 50.0073C177.343 50.0073 177.732 50.0073 178.12 50.0073C178.12 51.4605 178.12 52.9137 178.12 54.3668C178.898 54.3668 179.675 54.3668 180.452 54.3668C180.452 54.7543 180.452 55.142 180.452 55.5294C179.286 55.5294 178.12 55.5294 176.954 55.5294C176.954 53.6888 176.954 51.8479 176.954 50.0073Z" fill="#ED1C26"/>
<path opacity="0.732" fill-rule="evenodd" clip-rule="evenodd" d="M181.035 50.0071C182.205 49.9588 183.371 50.0073 184.533 50.1524C185.96 51.2173 186.058 52.3798 184.825 53.64C183.994 54.0146 183.119 54.1599 182.201 54.0759C182.201 54.5604 182.201 55.0446 182.201 55.5291C181.813 55.5291 181.424 55.5291 181.035 55.5291C181.035 53.6885 181.035 51.8476 181.035 50.0071ZM182.201 51.1696C182.792 51.1225 183.375 51.171 183.95 51.3149C184.385 51.9026 184.288 52.3868 183.659 52.7681C183.183 52.9117 182.697 52.9599 182.201 52.9134C182.201 52.3321 182.201 51.7509 182.201 51.1696Z" fill="#EC1C26"/>
<path opacity="0.71" fill-rule="evenodd" clip-rule="evenodd" d="M187.449 50.0073C187.935 50.0073 188.421 50.0073 188.907 50.0073C189.47 51.7866 190.15 53.5304 190.948 55.2387C190.089 55.7014 189.506 55.459 189.199 54.5122C188.421 54.3183 187.644 54.3183 186.866 54.5122C186.622 54.806 186.525 55.1452 186.575 55.5294C186.054 55.6122 185.568 55.5154 185.117 55.2387C185.899 53.4874 186.676 51.7436 187.449 50.0073ZM187.741 52.0418C188.213 52.1252 188.505 52.4158 188.615 52.9137C188.227 53.3011 187.838 53.3011 187.449 52.9137C187.632 52.6472 187.73 52.3565 187.741 52.0418Z" fill="#ED1C26"/>
<path opacity="0.629" fill-rule="evenodd" clip-rule="evenodd" d="M158.88 52.6228C158.93 52.3345 158.833 52.141 158.589 52.0416C158.589 51.7509 158.589 51.4603 158.589 51.1697C159.068 51.1075 159.505 51.2046 159.9 51.4603C160.249 52.2128 160.541 52.9879 160.775 53.7854C161.198 53.0565 161.538 52.2814 161.795 51.4603C162.142 51.1903 162.531 51.0935 162.961 51.1697C162.544 53.2117 161.767 55.1008 160.629 56.837C159.956 56.9815 159.276 57.0297 158.589 56.9824C158.494 56.0541 158.834 55.7634 159.609 56.1105C159.884 55.8887 160.03 55.5981 160.046 55.2386C159.764 54.2902 159.375 53.4183 158.88 52.6228Z" fill="#EC1D25"/>
</svg>
