<svg width="200" height="28" viewBox="0 0 200 28" fill="none" xmlns="http://www.w3.org/2000/svg">
<g clip-path="url(#clip0_5_134)">
<path opacity="0.973" fill-rule="evenodd" clip-rule="evenodd" d="M126.367 0.0388434C128.041 0.0335685 128.809 0.863194 128.672 2.52773C128.147 4.02498 127.145 4.45276 125.664 3.81107C124.501 2.74833 124.449 1.63351 125.508 0.466621C125.781 0.279021 126.067 0.136428 126.367 0.0388434Z" fill="#089A65"/>
<path opacity="0.969" fill-rule="evenodd" clip-rule="evenodd" d="M131.445 0.0388192C133.164 0.0378505 133.958 0.893403 133.828 2.60549C133.409 3.75393 132.589 4.23356 131.367 4.04437C130.321 3.63511 129.865 2.8703 130 1.74993C130.173 0.907185 130.655 0.336818 131.445 0.0388192Z" fill="#089A64"/>
<path opacity="0.986" fill-rule="evenodd" clip-rule="evenodd" d="M128.242 5.17212C131.76 4.88032 134.221 6.33218 135.625 9.52768C135.804 10.034 135.935 10.5526 136.016 11.0832C136.068 13.1573 136.068 15.2314 136.016 17.3055C135.542 20.1887 133.914 22.0942 131.133 23.0221C127.981 23.7134 125.494 22.7412 123.672 20.1055C123.115 19.1668 122.776 18.1556 122.656 17.0721C122.604 15.1536 122.604 13.2351 122.656 11.3166C123.146 8.01669 125.008 5.96855 128.242 5.17212ZM128.711 8.7499C130.415 8.64296 131.587 9.38184 132.227 10.9666C132.321 11.2582 132.386 11.5564 132.422 11.861C132.474 13.4166 132.474 14.9721 132.422 16.5277C132.243 18.0276 131.423 18.9739 129.961 19.3666C127.988 19.5552 126.778 18.6866 126.328 16.761C126.254 14.917 126.28 13.0763 126.406 11.2388C126.76 10.0188 127.528 9.18919 128.711 8.7499Z" fill="#089A64"/>
<path opacity="0.983" fill-rule="evenodd" clip-rule="evenodd" d="M72.6172 5.71655C74.4141 5.71655 76.2109 5.71655 78.0078 5.71655C78.0078 6.88322 78.0078 8.04989 78.0078 9.21655C76.0284 9.20356 74.0493 9.21655 72.0703 9.25544C71.3272 9.4117 70.9366 9.86545 70.8984 10.6166C70.945 11.5056 71.4137 12.0112 72.3047 12.1332C73.2144 12.2742 74.1258 12.4038 75.0391 12.5221C78.0164 12.9189 79.5266 14.6041 79.5703 17.5777C79.4609 20.3305 78.055 21.9897 75.3516 22.5554C72.7753 22.6663 70.1972 22.7052 67.6172 22.6721C67.6172 21.4536 67.6172 20.2351 67.6172 19.0166C69.8569 19.0295 72.0965 19.0166 74.3359 18.9777C75.498 18.7037 75.9537 17.9907 75.7031 16.8388C75.4204 16.3407 74.9907 16.0426 74.4141 15.9443C73.5055 15.7956 72.5941 15.666 71.6797 15.5554C68.4397 14.9293 67.0204 12.9718 67.4219 9.68322C67.7366 7.71049 68.8694 6.47901 70.8203 5.98877C71.4251 5.86053 72.0241 5.7698 72.6172 5.71655Z" fill="#089A65"/>
<path opacity="0.984" fill-rule="evenodd" clip-rule="evenodd" d="M85.8984 5.71655C87.6953 5.71655 89.4922 5.71655 91.2891 5.71655C91.2891 6.88322 91.2891 8.04989 91.2891 9.21655C89.3094 9.20356 87.3305 9.21655 85.3516 9.25544C84.5922 9.41528 84.2016 9.88194 84.1797 10.6554C84.1859 11.3169 84.4984 11.7576 85.1172 11.9777C86.3039 12.2415 87.5016 12.4489 88.7109 12.5999C91.8789 13.2931 93.2461 15.2506 92.8125 18.4721C92.3797 20.7955 90.9867 22.1566 88.6328 22.5554C86.0828 22.6662 83.5305 22.7051 80.9766 22.6721C80.9766 21.4536 80.9766 20.2351 80.9766 19.0166C83.1906 19.0295 85.4039 19.0166 87.6172 18.9777C88.7789 18.7037 89.2352 17.9907 88.9844 16.8388C88.7016 16.3407 88.2719 16.0426 87.6953 15.9443C86.7867 15.7956 85.875 15.666 84.9609 15.5554C81.7211 14.9293 80.3016 12.9718 80.7031 9.68322C81.018 7.71049 82.1508 6.47901 84.1016 5.98877C84.7063 5.86053 85.3055 5.7698 85.8984 5.71655Z" fill="#089A64"/>
<path opacity="0.981" fill-rule="evenodd" clip-rule="evenodd" d="M40.8203 5.79433C42.0443 5.79433 43.2682 5.79433 44.4922 5.79433C44.4791 8.02414 44.4922 10.2537 44.5312 12.4832C46.0644 10.2733 47.5878 8.05665 49.1016 5.83321C50.5085 5.76843 51.9148 5.78139 53.3203 5.8721C51.6016 8.46467 49.8828 11.0573 48.1641 13.6499C50.0195 16.6445 51.8945 19.6259 53.7891 22.5943C52.2787 22.698 50.7682 22.698 49.2578 22.5943C47.6977 20.0692 46.1223 17.5543 44.5312 15.0499C44.4922 17.5905 44.4791 20.1313 44.4922 22.6721C43.2682 22.6721 42.0443 22.6721 40.8203 22.6721C40.8203 17.0462 40.8203 11.4202 40.8203 5.79433Z" fill="#089A64"/>
<path opacity="0.982" fill-rule="evenodd" clip-rule="evenodd" d="M56.5235 5.79443C59.5443 5.79443 62.5651 5.79443 65.586 5.79443C65.586 6.98702 65.586 8.17964 65.586 9.37221C63.086 9.37221 60.586 9.37221 58.086 9.37221C58.086 10.3833 58.086 11.3944 58.086 12.4055C60.4297 12.4055 62.7735 12.4055 65.1172 12.4055C65.1172 13.5203 65.1172 14.6352 65.1172 15.75C62.7733 15.737 60.4296 15.75 58.086 15.7889C58.1901 16.8519 58.1901 17.9148 58.086 18.9778C60.5858 19.0167 63.0858 19.0296 65.586 19.0167C65.586 20.2352 65.586 21.4537 65.586 22.6722C62.6692 22.6852 59.7525 22.6722 56.836 22.6333C55.4695 22.4137 54.6752 21.6229 54.4531 20.2611C54.401 16.2167 54.401 12.1722 54.4531 8.12777C54.6385 6.89395 55.3285 6.11617 56.5235 5.79443Z" fill="#089A64"/>
<path opacity="0.983" fill-rule="evenodd" clip-rule="evenodd" d="M96.8361 5.79443C99.8572 5.79443 102.878 5.79443 105.899 5.79443C105.899 6.98702 105.899 8.17964 105.899 9.37221C103.424 9.37221 100.951 9.37221 98.4768 9.37221C98.4768 10.3833 98.4768 11.3944 98.4768 12.4055C100.795 12.4055 103.112 12.4055 105.43 12.4055C105.43 13.5203 105.43 14.6352 105.43 15.75C103.112 15.75 100.795 15.75 98.4768 15.75C98.5018 16.832 98.476 17.908 98.3986 18.9778C100.899 19.0167 103.399 19.0296 105.899 19.0167C105.899 20.2352 105.899 21.4537 105.899 22.6722C102.982 22.6852 100.065 22.6722 97.1486 22.6333C95.9338 22.4376 95.1658 21.7505 94.8439 20.5722C94.7916 16.3203 94.7916 12.0685 94.8439 7.81666C95.1572 6.79202 95.8213 6.11795 96.8361 5.79443Z" fill="#089A64"/>
<path opacity="0.985" fill-rule="evenodd" clip-rule="evenodd" d="M108.555 5.79441C110.951 5.78145 113.347 5.79441 115.742 5.8333C118.343 6.3291 119.723 7.8976 119.883 10.5389C119.88 11.3784 119.659 12.1562 119.219 12.8722C119.023 13.1574 118.828 13.4425 118.633 13.7277C120.373 15.0745 121.011 16.8375 120.547 19.0166C119.918 21.2745 118.421 22.4801 116.055 22.6333C113.555 22.6722 111.055 22.6852 108.555 22.6722C108.555 17.0463 108.555 11.4203 108.555 5.79441ZM112.305 9.37219C113.295 9.3592 114.284 9.37219 115.273 9.41108C116.385 9.8233 116.71 10.5881 116.25 11.7055C116.016 12.0157 115.717 12.236 115.352 12.3666C114.31 12.4185 113.268 12.4185 112.227 12.3666C112.304 11.3747 112.33 10.3765 112.305 9.37219ZM112.305 15.75C113.503 15.737 114.701 15.75 115.898 15.7889C116.854 16.1484 117.232 16.8354 117.031 17.85C116.864 18.4313 116.487 18.8072 115.898 18.9777C114.674 19.0296 113.451 19.0296 112.227 18.9777C112.304 17.908 112.33 16.832 112.305 15.75Z" fill="#089A64"/>
<path opacity="0.98" fill-rule="evenodd" clip-rule="evenodd" d="M138.633 5.79443C139.857 5.79443 141.08 5.79443 142.305 5.79443C142.305 7.99811 142.305 10.2019 142.305 12.4055C144.05 12.4185 145.795 12.4055 147.539 12.3667C147.461 10.1816 147.435 7.99096 147.461 5.79443C148.685 5.79443 149.909 5.79443 151.133 5.79443C151.133 11.4203 151.133 17.0463 151.133 22.6722C149.909 22.6722 148.685 22.6722 147.461 22.6722C147.435 20.372 147.461 18.0776 147.539 15.7889C145.795 15.75 144.05 15.737 142.305 15.75C142.305 18.0574 142.305 20.3648 142.305 22.6722C141.08 22.6722 139.857 22.6722 138.633 22.6722C138.633 17.0463 138.633 11.4203 138.633 5.79443Z" fill="#089965"/>
<path opacity="0.982" fill-rule="evenodd" clip-rule="evenodd" d="M154.18 5.79443C156.029 5.79443 157.877 5.79443 159.727 5.79443C160.484 9.5602 161.277 13.3195 162.109 17.0722C162.909 13.3129 163.703 9.55367 164.492 5.79443C166.341 5.79443 168.19 5.79443 170.039 5.79443C170.039 11.4203 170.039 17.0463 170.039 22.6722C168.815 22.6722 167.591 22.6722 166.367 22.6722C166.38 18.6796 166.367 14.6869 166.328 10.6944C165.379 14.6826 164.454 18.6751 163.555 22.6722C162.559 22.7216 161.582 22.6697 160.625 22.5167C159.749 18.6514 158.864 14.7885 157.969 10.9278C157.93 14.8425 157.916 18.7573 157.93 22.6722C156.68 22.6722 155.43 22.6722 154.18 22.6722C154.18 17.0463 154.18 11.4203 154.18 5.79443Z" fill="#089A65"/>
<path opacity="0.979" fill-rule="evenodd" clip-rule="evenodd" d="M175.196 5.79443C178.217 5.79443 181.237 5.79443 184.258 5.79443C184.258 6.98702 184.258 8.17964 184.258 9.37221C181.758 9.37221 179.258 9.37221 176.758 9.37221C176.758 10.3833 176.758 11.3944 176.758 12.4055C179.102 12.4055 181.446 12.4055 183.789 12.4055C183.789 13.5203 183.789 14.6352 183.789 15.75C181.446 15.75 179.102 15.75 176.758 15.75C176.758 16.8389 176.758 17.9278 176.758 19.0167C179.258 19.0167 181.758 19.0167 184.258 19.0167C184.258 20.2352 184.258 21.4537 184.258 22.6722C181.342 22.6852 178.424 22.6722 175.508 22.6333C174.177 22.4226 173.382 21.6578 173.125 20.3389C173.073 16.2426 173.073 12.1463 173.125 8.04999C173.346 6.85869 174.036 6.10684 175.196 5.79443Z" fill="#089A64"/>
<path opacity="0.981" fill-rule="evenodd" clip-rule="evenodd" d="M199.961 22.3611C199.961 22.4648 199.961 22.5685 199.961 22.6722C198.58 22.6981 197.199 22.6722 195.82 22.5944C194.935 20.3389 194.049 18.0833 193.164 15.8277C192.306 15.75 191.447 15.7241 190.586 15.75C190.586 18.0574 190.586 20.3648 190.586 22.6722C189.362 22.6722 188.138 22.6722 186.914 22.6722C186.914 17.0463 186.914 11.4203 186.914 5.79441C189.545 5.78145 192.174 5.79441 194.805 5.8333C196.907 6.21521 198.274 7.42077 198.906 9.44997C199.312 11.4253 198.87 13.1883 197.578 14.7389C197.38 14.9622 197.159 15.1567 196.914 15.3222C197.034 15.4683 197.178 15.5849 197.344 15.6722C198.18 17.9249 199.052 20.1545 199.961 22.3611ZM190.586 9.37219C191.81 9.3592 193.034 9.37219 194.258 9.41108C195.388 9.88412 195.688 10.6748 195.156 11.7833C194.927 12.0852 194.628 12.2796 194.258 12.3666C193.034 12.4055 191.81 12.4185 190.586 12.4055C190.586 11.3944 190.586 10.3833 190.586 9.37219Z" fill="#089A65"/>
<path opacity="0.995" d="M6.99219 1.63354C13.086 0.129847 19.1798 0.129847 25.2734 1.63354C27.5016 2.11116 29.1813 3.31633 30.3125 5.24976C31.738 8.08616 32.4021 11.0938 32.3047 14.2722C32.3832 17.4464 31.7191 20.4541 30.3125 23.2947C29.5528 24.673 28.446 25.671 26.9922 26.2888C25.9062 26.7342 24.7863 27.0708 23.6328 27.2996C21.9934 27.6146 20.3527 27.835 18.7109 27.9607H13.5547C11.4548 27.8155 9.37138 27.4919 7.30469 26.989C5.98216 26.6543 4.75821 26.1094 3.63281 25.3552C2.65053 24.4757 1.90818 23.426 1.40625 22.2058C0.619815 20.2726 0.138044 18.2759 -0.0390625 16.2166V12.2498C0.163362 9.73389 0.85352 7.34885 2.03125 5.09448C3.1806 3.25405 4.8343 2.10051 6.99219 1.63354ZM4.88281 5.56128C5.75522 8.49132 6.17194 11.486 6.13281 14.5447C6.17274 17.2722 5.80816 19.9424 5.03906 22.5554C5.06503 22.5942 5.09122 22.6329 5.11719 22.6716C5.57877 22.5304 6.04761 22.4141 6.52344 22.322C9.03843 21.9894 11.5645 21.7953 14.1016 21.739V6.57202C10.9944 6.53078 7.92139 6.1941 4.88281 5.56128ZM23.7891 14.6609C20.7814 14.5574 17.7866 14.5574 14.8047 14.6609C16.0202 17.0033 17.2181 19.3629 18.3984 21.739C19.7521 21.813 21.1063 21.8777 22.4609 21.9333C24.2587 22.1878 26.0556 22.4214 27.8516 22.6335C26.5485 19.9483 25.1944 17.2904 23.7891 14.6609ZM27.6172 5.71655C26.3096 5.99721 24.9815 6.2176 23.6328 6.37769C21.835 6.54921 20.0381 6.71803 18.2422 6.88354C17.1112 9.12244 15.9914 11.365 14.8828 13.6111C17.8259 13.6759 20.7686 13.6628 23.7109 13.572C25.1531 10.9728 26.5855 8.36733 28.0078 5.75562C27.8802 5.71723 27.7499 5.70409 27.6172 5.71655Z" fill="#099A65"/>
</g>
<defs>
<clipPath id="clip0_5_134">
<rect width="200" height="28" fill="white"/>
</clipPath>
</defs>
</svg>
