<svg width="200" height="56" viewBox="0 0 200 56" fill="none" xmlns="http://www.w3.org/2000/svg">
<g clip-path="url(#clip0_11_1783)">
<path d="M37.7812 26.093L51.4964 55.9697H66.2615L52.451 26.0918L37.7812 26.093Z" fill="#1E8D29"/>
<path d="M52.451 19.1493L66.0208 0.0919189H52.4033L37.7812 19.1481L52.451 19.1493Z" fill="#00722D"/>
<path d="M0 19.1481L18.6128 0.0919189H45.5651L30.9884 19.1481H0Z" fill="#78A91A"/>
<path d="M30.9488 26.093L44.493 55.9698H15.7977L0 26.0942L30.9488 26.093Z" fill="#A7C500"/>
<path d="M164.032 55.9697V10.852C164.032 7.52678 163.781 5.51793 163.285 4.82309C162.786 4.12942 161.278 3.70577 158.76 3.55679L158.05 3.48347V0.00463867H175.092V55.9697H164.032Z" fill="#035E27"/>
<path d="M200 5.18505C200 6.81565 199.474 8.14247 198.425 9.15737C197.374 10.1746 195.997 10.6832 194.298 10.6832C192.737 10.6832 191.455 10.2037 190.451 9.24582C189.446 8.28795 188.941 7.04027 188.941 5.50279C188.941 3.82448 189.476 2.49882 190.538 1.52931C191.603 0.558636 192.986 0.0744629 194.682 0.0744629C196.245 0.0744629 197.519 0.5179 198.515 1.40478C199.504 2.29165 200 3.55213 200 5.18505Z" fill="#035E27"/>
<path d="M188.924 56.0011V25.3853C188.924 22.0007 188.672 19.9604 188.174 19.2679C187.674 18.5731 186.17 18.1355 183.652 17.9609L182.945 17.9202V14.3971H199.985V56.0011H188.924Z" fill="#035E27"/>
<path d="M149.945 5.18505C149.945 6.81565 149.418 8.14247 148.369 9.15737C147.321 10.1746 145.939 10.6832 144.243 10.6832C142.68 10.6832 141.4 10.2037 140.394 9.24582C139.39 8.28795 138.886 7.04027 138.886 5.50279C138.886 3.82448 139.418 2.49882 140.481 1.52931C141.546 0.558636 142.929 0.0744629 144.626 0.0744629C146.189 0.0744629 147.462 0.5179 148.456 1.40478C149.449 2.29165 149.945 3.55213 149.945 5.18505Z" fill="#035E27"/>
<path d="M138.866 56.0011V25.3853C138.866 22.0007 138.617 19.9604 138.118 19.2679C137.617 18.5731 136.112 18.1355 133.595 17.9609L132.886 17.9202V14.3971H149.928V56.0011H138.866Z" fill="#035E27"/>
<path d="M115.158 55.9697L93.4729 28.7268V55.9674H82.4089V10.8101C82.4089 7.48606 82.1659 5.48885 81.6822 4.81729C81.1938 4.14923 79.6822 3.71394 77.138 3.51491L76.4287 3.47767V0H93.4706V25.5506L121.288 0H127.122L102.36 22.9365L130.865 55.9697H115.158Z" fill="#035E27"/>
</g>
<defs>
<clipPath id="clip0_11_1783">
<rect width="200" height="56" fill="white"/>
</clipPath>
</defs>
</svg>
