<svg width="200" height="56" viewBox="0 0 200 56" fill="none" xmlns="http://www.w3.org/2000/svg">
<g clip-path="url(#clip0_5_169)">
<path fill-rule="evenodd" clip-rule="evenodd" d="M-0.166992 -0.165771C66.4997 -0.165771 133.166 -0.165771 199.833 -0.165771C199.833 11.3214 199.833 22.8086 199.833 34.2958C133.166 34.2958 66.4997 34.2958 -0.166992 34.2958C-0.166992 22.8086 -0.166992 11.3214 -0.166992 -0.165771Z" fill="#2E7C3A"/>
<path fill-rule="evenodd" clip-rule="evenodd" d="M20.167 6.4615C21.8938 6.02586 23.6715 6.02586 25.5003 6.4615C25.4591 6.66253 25.348 6.77298 25.167 6.79286C23.5652 6.46574 21.8985 6.35529 20.167 6.4615Z" fill="#B3D2B4"/>
<path fill-rule="evenodd" clip-rule="evenodd" d="M46.5 12.7575C46.7733 14.8442 46.8843 16.9428 46.8333 19.0533C45.7046 25.5792 41.816 28.6166 35.1666 28.1658C29.4998 26.333 26.722 22.4118 26.8333 16.4024C27.5975 9.17815 31.5975 5.69886 38.8333 5.96458C42.6623 6.86422 45.218 9.12851 46.5 12.7575Z" fill="#F7FAF7"/>
<path fill-rule="evenodd" clip-rule="evenodd" d="M58.5004 5.79883C67.4861 5.95195 71.4304 10.4806 70.3337 19.3846C69.0434 25.801 65.0991 28.728 58.5004 28.1657C54.0087 26.9207 51.3977 23.9937 50.6671 19.3846C49.5221 12.5934 52.1331 8.06484 58.5004 5.79883Z" fill="#F7FAF7"/>
<path fill-rule="evenodd" clip-rule="evenodd" d="M124.5 6.46149C122.802 6.36914 121.135 6.47958 119.5 6.79285C120.19 6.35923 121.024 6.13834 122 6.13013C122.897 6.13109 123.73 6.24153 124.5 6.46149Z" fill="#B2D2B3"/>
<path fill-rule="evenodd" clip-rule="evenodd" d="M139.5 14.0829C140.172 14.5547 140.95 14.7756 141.834 14.7456C143.311 15.2733 144.866 15.6599 146.5 15.9054C150.045 17.3746 151.322 19.9702 150.334 23.6924C148.913 26.2028 146.746 27.6939 143.834 28.1658C140.071 28.8335 136.904 27.7842 134.334 25.0178C133.572 23.7961 133.183 22.4707 133.167 21.0415C134.5 21.0415 135.834 21.0415 137.167 21.0415C137.532 23.7208 139.087 24.9358 141.834 24.6865C143.552 24.8734 144.941 24.3211 146 23.0297C146.652 21.026 145.929 19.8663 143.834 19.5504C141.253 18.8268 138.698 18.0536 136.167 17.2308C135.543 16.6663 134.987 16.0587 134.5 15.4084C133.987 13.7967 133.764 12.1399 133.834 10.4379C135.918 6.37459 139.251 4.88347 143.834 5.96457C147.643 6.49226 149.643 8.6461 149.834 12.4261C148.606 12.4809 147.384 12.4256 146.167 12.2604C145.752 11.0735 144.974 10.1898 143.834 9.60954C142.389 9.38862 140.945 9.38862 139.5 9.60954C137.305 11.0984 137.305 12.5896 139.5 14.0829Z" fill="#F6FAF7"/>
<path fill-rule="evenodd" clip-rule="evenodd" d="M12.167 6.46165C12.0566 9.2318 12.1677 11.9931 12.5003 14.7457C12.7026 14.7047 12.8137 14.5943 12.8337 14.4143C15.1553 11.6641 17.5997 9.01317 20.167 6.46165C21.8985 6.35545 23.5652 6.46589 25.167 6.79301C22.496 9.44821 19.9405 12.2096 17.5003 15.077C20.3585 19.1006 23.1363 23.1874 25.8337 27.3374C24.3437 27.6641 22.7881 27.7746 21.167 27.6688C19.0261 24.4052 16.8039 21.202 14.5003 18.0593C13.728 18.661 13.0058 19.3238 12.3337 20.0475C12.1671 22.5855 12.1115 25.1259 12.167 27.6688C10.8337 27.6688 9.50033 27.6688 8.16699 27.6688C8.16699 20.5997 8.16699 13.5307 8.16699 6.46165C9.50033 6.46165 10.8337 6.46165 12.167 6.46165Z" fill="#F8FBF8"/>
<path fill-rule="evenodd" clip-rule="evenodd" d="M85.167 6.46143C88.9783 7.10427 90.9783 9.36856 91.167 13.2543C90.8513 17.6001 88.518 19.8644 84.167 20.0472C82.3893 20.0472 80.6113 20.0472 78.8337 20.0472C78.8337 22.5877 78.8337 25.1281 78.8337 27.6685C77.6113 27.6685 76.3893 27.6685 75.167 27.6685C75.167 20.5995 75.167 13.5304 75.167 6.46143C78.5003 6.46143 81.8337 6.46143 85.167 6.46143Z" fill="#F9FBF9"/>
<path fill-rule="evenodd" clip-rule="evenodd" d="M94.5 6.46143C95.8333 6.46143 97.1667 6.46143 98.5 6.46143C98.39 12.4837 98.501 18.4482 98.8333 24.3549C102.278 24.3549 105.722 24.3549 109.167 24.3549C109.167 25.5699 109.167 26.7849 109.167 27.9999C104.278 27.9999 99.389 27.9999 94.5 27.9999C94.5 20.8204 94.5 13.6409 94.5 6.46143Z" fill="#F8FAF8"/>
<path fill-rule="evenodd" clip-rule="evenodd" d="M124.5 6.46147C125.624 9.48176 126.624 12.5745 127.5 15.7396C127.67 17.4636 128.225 19.01 129.167 20.3786C129.74 22.511 130.407 24.6096 131.167 26.6745C131.167 27.0059 131.167 27.3372 131.167 27.6686C129.833 27.6686 128.5 27.6686 127.167 27.6686C126.722 26.3431 126.278 25.0177 125.833 23.6922C124.631 23.2535 123.298 23.0326 121.833 23.0295C120.369 23.0326 119.036 23.2535 117.833 23.6922C117.588 25.1189 117.144 26.4444 116.5 27.6686C115.099 27.7735 113.766 27.6631 112.5 27.3372C114.701 20.4421 117.034 13.594 119.5 6.79283C121.135 6.47957 122.802 6.36912 124.5 6.46147Z" fill="#F8FBF8"/>
<path fill-rule="evenodd" clip-rule="evenodd" d="M157.834 27.6686C157.834 21.5936 157.834 15.5187 157.834 9.44374C155.611 9.44374 153.389 9.44374 151.167 9.44374C151.167 8.33921 151.167 7.23465 151.167 6.13013C156.945 6.13013 162.723 6.13013 168.5 6.13013C168.5 7.34513 168.5 8.5601 168.5 9.7751C166.389 9.7751 164.278 9.7751 162.167 9.7751C162.223 15.7406 162.167 21.7051 162 27.6686C160.578 28.1066 159.189 28.1066 157.834 27.6686Z" fill="#F3F8F3"/>
<path fill-rule="evenodd" clip-rule="evenodd" d="M12.1663 6.13013C12.1663 6.24057 12.1663 6.35105 12.1663 6.46149C10.833 6.46149 9.49967 6.46149 8.16634 6.46149C8.16634 13.5305 8.16634 20.5996 8.16634 27.6686C9.49967 27.6686 10.833 27.6686 12.1663 27.6686C10.7882 27.9949 9.34377 28.1054 7.83301 28C7.83301 20.71 7.83301 13.4201 7.83301 6.13013C9.27744 6.13013 10.7219 6.13013 12.1663 6.13013Z" fill="#92BC9D"/>
<path fill-rule="evenodd" clip-rule="evenodd" d="M85.1663 6.46156C81.833 6.46156 78.4997 6.46156 75.1663 6.46156C75.1663 13.5306 75.1663 20.5996 75.1663 27.6687C75.0553 27.6687 74.944 27.6687 74.833 27.6687C74.833 20.4892 74.833 13.3097 74.833 6.1302C78.3377 6.02164 81.782 6.13212 85.1663 6.46156Z" fill="#D3E8D2"/>
<path fill-rule="evenodd" clip-rule="evenodd" d="M94.5 6.46154C95.878 6.13518 97.3227 6.02474 98.8333 6.13018C98.8333 12.2051 98.8333 18.2801 98.8333 24.355C98.501 18.4483 98.39 12.4838 98.5 6.46154C97.1667 6.46154 95.8333 6.46154 94.5 6.46154Z" fill="#BAD6BA"/>
<path fill-rule="evenodd" clip-rule="evenodd" d="M12.1663 6.13013C12.3885 8.89146 12.6107 11.6528 12.8329 14.4142C12.8129 14.5941 12.7018 14.7046 12.4996 14.7455C12.167 11.993 12.0559 9.23163 12.1663 6.46149C12.1663 6.35105 12.1663 6.24057 12.1663 6.13013Z" fill="#5E986D"/>
<path fill-rule="evenodd" clip-rule="evenodd" d="M35.8336 9.44388C39.22 9.32483 41.4976 10.8712 42.667 14.0829C43.6043 17.9115 42.66 21.1699 39.8336 23.8581C36.0196 25.3049 33.2974 24.1452 31.667 20.3788C30.8272 17.5232 31.0494 14.7619 32.3336 12.0948C33.3136 10.9228 34.4803 10.0392 35.8336 9.44388Z" fill="#2F7D3C"/>
<path fill-rule="evenodd" clip-rule="evenodd" d="M58.5 9.44385C64.4747 9.47569 67.0857 12.4579 66.3334 18.3906C65.349 23.8761 62.2934 25.5882 57.1667 23.5267C56.1314 22.3231 55.409 20.9424 55 19.3847C53.9644 15.2358 55.131 11.9222 58.5 9.44385Z" fill="#307D3C"/>
<path fill-rule="evenodd" clip-rule="evenodd" d="M79.167 9.77523C80.9483 9.72022 82.726 9.77543 84.5003 9.94091C85.9343 10.5821 86.601 11.6867 86.5003 13.2545C86.6627 14.812 85.996 15.8061 84.5003 16.2368C82.755 16.6805 80.977 16.8461 79.167 16.7338C79.167 14.4143 79.167 12.0948 79.167 9.77523Z" fill="#2F7C3B"/>
<path fill-rule="evenodd" clip-rule="evenodd" d="M151.167 9.44385C153.389 9.44385 155.611 9.44385 157.834 9.44385C157.834 15.5188 157.834 21.5938 157.834 27.6687C157.501 21.762 157.39 15.7975 157.5 9.77521C155.326 9.8824 153.215 9.77196 151.167 9.44385Z" fill="#8BB38E"/>
<path fill-rule="evenodd" clip-rule="evenodd" d="M133.833 10.438C133.764 12.1399 133.986 13.7967 134.5 15.4084C134.069 14.9637 133.791 14.4114 133.666 13.7516C133.397 12.583 133.453 11.4784 133.833 10.438Z" fill="#ACD0AE"/>
<path fill-rule="evenodd" clip-rule="evenodd" d="M139.5 14.0828C140.384 14.0528 141.162 14.2737 141.833 14.7455C140.949 14.7755 140.172 14.5546 139.5 14.0828Z" fill="#88B38E"/>
<path fill-rule="evenodd" clip-rule="evenodd" d="M46.5 12.7573C47.013 13.8722 47.2353 15.0872 47.1667 16.4023C47.1657 17.3485 47.0547 18.2321 46.8333 19.0532C46.8843 16.9427 46.7733 14.844 46.5 12.7573Z" fill="#A8C8AE"/>
<path fill-rule="evenodd" clip-rule="evenodd" d="M127.5 15.7397C128.179 17.211 128.735 18.7573 129.167 20.3788C128.225 19.0102 127.67 17.4638 127.5 15.7397Z" fill="#B2D0B6"/>
<path fill-rule="evenodd" clip-rule="evenodd" d="M121.834 11.1006C122.93 13.8982 123.93 16.77 124.834 19.716C122.958 20.0458 121.069 20.1563 119.167 20.0473C119.924 17.0176 120.813 14.0354 121.834 11.1006Z" fill="#357F40"/>
<path fill-rule="evenodd" clip-rule="evenodd" d="M84.1663 20.0474C82.5647 20.3745 80.898 20.4849 79.1663 20.3787C79.1663 22.9192 79.1663 25.4596 79.1663 28C77.6557 28.1055 76.211 27.995 74.833 27.6687C74.944 27.6687 75.0553 27.6687 75.1663 27.6687C76.3887 27.6687 77.6107 27.6687 78.833 27.6687C78.833 25.1282 78.833 22.5878 78.833 20.0474C80.6107 20.0474 82.3887 20.0474 84.1663 20.0474Z" fill="#A5C8AB"/>
<path fill-rule="evenodd" clip-rule="evenodd" d="M125.833 23.6923C123.166 23.2505 120.5 23.2505 117.833 23.6923C119.035 23.2535 120.369 23.0326 121.833 23.0295C123.297 23.0326 124.631 23.2535 125.833 23.6923Z" fill="#AACDAD"/>
<path fill-rule="evenodd" clip-rule="evenodd" d="M25.8337 27.3372C26.0147 27.357 26.1258 27.4675 26.167 27.6685C24.4496 28.1038 22.7829 28.1038 21.167 27.6685C22.7881 27.7744 24.3437 27.6639 25.8337 27.3372Z" fill="#9CBD9D"/>
<path fill-rule="evenodd" clip-rule="evenodd" d="M112.5 27.3372C113.766 27.663 115.1 27.7735 116.5 27.6685C115.106 28.103 113.662 28.103 112.167 27.6685C112.208 27.4675 112.319 27.357 112.5 27.3372Z" fill="#96BF9D"/>
<path fill-rule="evenodd" clip-rule="evenodd" d="M131.167 26.6746C131.478 27.0283 131.59 27.4702 131.5 28C129.99 28.1054 128.545 27.995 127.167 27.6686C128.5 27.6686 129.834 27.6686 131.167 27.6686C131.167 27.3373 131.167 27.0059 131.167 26.6746Z" fill="#95BC9A"/>
<path fill-rule="evenodd" clip-rule="evenodd" d="M-0.166992 34.2959C66.4997 34.2959 133.166 34.2959 199.833 34.2959C199.833 41.4755 199.833 48.6548 199.833 55.8344C133.166 55.8344 66.4997 55.8344 -0.166992 55.8344C-0.166992 48.6548 -0.166992 41.4755 -0.166992 34.2959Z" fill="#FCFCFC"/>
<path fill-rule="evenodd" clip-rule="evenodd" d="M147.833 38.9349C148.069 38.6354 148.403 38.5251 148.833 38.6036C148.833 39.156 148.833 39.708 148.833 40.2604C148.389 40.2604 147.944 40.2604 147.5 40.2604C147.41 39.7305 147.522 39.2888 147.833 38.9349Z" fill="#929292"/>
<path fill-rule="evenodd" clip-rule="evenodd" d="M147.833 38.9348C148.488 39.0833 148.599 39.4146 148.167 39.9289C147.871 39.6555 147.76 39.3242 147.833 38.9348Z" fill="#1B1B1B"/>
<path fill-rule="evenodd" clip-rule="evenodd" d="M20.833 38.6035C21.1663 38.6035 21.4997 38.6035 21.833 38.6035C21.833 42.0275 21.833 45.4518 21.833 48.8757C21.4997 48.8757 21.1663 48.8757 20.833 48.8757C20.833 45.4518 20.833 42.0275 20.833 38.6035Z" fill="#4E4E4E"/>
<path fill-rule="evenodd" clip-rule="evenodd" d="M86.8337 38.6036C87.2913 38.5516 87.736 38.6069 88.167 38.7693C87.5693 39.3591 87.0137 39.9665 86.5003 40.5918C86.3893 40.4261 86.278 40.2604 86.167 40.0948C86.4717 39.6289 86.6937 39.1318 86.8337 38.6036Z" fill="#333333"/>
<path fill-rule="evenodd" clip-rule="evenodd" d="M155.5 38.9348C156.158 42.1195 156.381 45.4331 156.167 48.8756C155.509 45.6909 155.287 42.3773 155.5 38.9348Z" fill="#262624"/>
<path fill-rule="evenodd" clip-rule="evenodd" d="M155.5 38.9349C155.736 38.6354 156.07 38.5251 156.5 38.6036C156.609 42.0875 156.498 45.5115 156.167 48.8758C156.38 45.4333 156.158 42.1197 155.5 38.9349Z" fill="#6E6E6C"/>
<path fill-rule="evenodd" clip-rule="evenodd" d="M12.4997 41.5858C11.5873 41.553 10.6984 41.6636 9.83301 41.9171C10.1636 41.4115 10.6636 41.1905 11.333 41.2544C11.7946 41.2591 12.1835 41.3697 12.4997 41.5858Z" fill="#979797"/>
<path fill-rule="evenodd" clip-rule="evenodd" d="M87.5003 41.5859C86.6993 41.5686 85.9217 41.679 85.167 41.9172C85.4377 41.4225 85.882 41.2015 86.5003 41.2545C86.909 41.2611 87.2423 41.3715 87.5003 41.5859Z" fill="#929292"/>
<path fill-rule="evenodd" clip-rule="evenodd" d="M9.83366 41.9171C10.699 41.6636 11.5879 41.5529 12.5003 41.5857C14.3837 42.8538 14.9948 44.621 14.3337 46.8875C13.2116 48.8034 11.6005 49.3558 9.50033 48.5443C9.48033 48.3644 9.36923 48.254 9.16699 48.2129C8.83799 49.2958 8.72686 50.4006 8.83366 51.5265C8.39116 49.996 8.16893 48.3392 8.16699 46.5561C8.27809 44.8993 8.38923 43.2425 8.50033 41.5857C8.84306 42.2749 9.28749 42.3856 9.83366 41.9171Z" fill="#2A2A2A"/>
<path fill-rule="evenodd" clip-rule="evenodd" d="M139.833 38.935C140.429 38.8406 140.985 38.9509 141.5 39.2664C141.225 39.5599 140.892 39.6703 140.5 39.5977C140.5 40.2604 140.5 40.9232 140.5 41.5859C141.833 41.8069 141.833 42.0276 140.5 42.2486C140.5 44.4578 140.5 46.6666 140.5 48.8758C140.167 48.8758 139.833 48.8758 139.5 48.8758C139.5 46.6666 139.5 44.4578 139.5 42.2486C138.167 42.0276 138.167 41.8069 139.5 41.5859C139.426 40.665 139.537 39.7813 139.833 38.935Z" fill="#2C2C2C"/>
<path fill-rule="evenodd" clip-rule="evenodd" d="M127.833 41.5857C130.923 40.9614 132.589 42.1762 132.833 45.2307C132.715 48.4972 131.049 49.657 127.833 48.71C125.622 46.3354 125.622 43.9609 127.833 41.5857Z" fill="#292929"/>
<path fill-rule="evenodd" clip-rule="evenodd" d="M148.5 48.8756C148.278 39.5975 148.056 39.5975 147.833 48.8756C147.503 46.5071 147.392 44.0772 147.5 41.5857C147.944 41.5857 148.389 41.5857 148.833 41.5857C148.942 44.0772 148.831 46.5071 148.5 48.8756Z" fill="#898A88"/>
<path fill-rule="evenodd" clip-rule="evenodd" d="M148.5 48.8758C148.277 48.8758 148.055 48.8758 147.833 48.8758C148.055 39.5977 148.277 39.5977 148.5 48.8758Z" fill="#20201E"/>
<path fill-rule="evenodd" clip-rule="evenodd" d="M10.1664 42.2485C13.045 42.2992 14.1006 43.735 13.3331 46.5562C11.8887 48.7654 10.4442 48.7654 8.99977 46.5562C8.5558 44.8713 8.94467 43.4351 10.1664 42.2485Z" fill="#F1F1F1"/>
<path fill-rule="evenodd" clip-rule="evenodd" d="M128.5 42.2485C131.544 42.3579 132.599 43.904 131.667 46.8876C130.239 48.6196 128.795 48.6196 127.334 46.8876C126.832 45.0684 127.221 43.522 128.5 42.2485Z" fill="#F1F1F1"/>
<path fill-rule="evenodd" clip-rule="evenodd" d="M52.5003 39.5977C52.5003 40.2604 52.5003 40.9231 52.5003 41.5858C51.167 41.8068 51.167 42.0275 52.5003 42.2485C52.5003 44.2367 52.5003 46.2249 52.5003 48.213C52.1707 46.3988 52.0597 44.521 52.167 42.5799C51.8337 42.5799 51.5003 42.5799 51.167 42.5799C51.167 42.1382 51.167 41.6962 51.167 41.2545C51.5003 41.2545 51.8337 41.2545 52.167 41.2545C52.0723 40.6199 52.1833 40.0679 52.5003 39.5977Z" fill="#A8A8A8"/>
<path fill-rule="evenodd" clip-rule="evenodd" d="M32.8337 44.2366C32.0737 44.8075 31.1848 45.0282 30.167 44.8993C30.9687 44.4791 31.8576 44.2581 32.8337 44.2366Z" fill="#717170"/>
<path fill-rule="evenodd" clip-rule="evenodd" d="M118.5 41.9171C118.06 42.8874 117.838 43.9918 117.833 45.2307C117.838 46.4697 118.06 47.5741 118.5 48.5443C118.264 48.8439 117.93 48.9542 117.5 48.8757C117.5 46.4458 117.5 44.0156 117.5 41.5858C117.93 41.5072 118.264 41.6176 118.5 41.9171Z" fill="#4B4B4B"/>
<path fill-rule="evenodd" clip-rule="evenodd" d="M52.5 39.5977C52.8333 39.5977 53.1667 39.5977 53.5 39.5977C53.5 40.2604 53.5 40.9231 53.5 41.5858C54.8333 41.8068 54.8333 42.0275 53.5 42.2485C53.5 44.2367 53.5 46.2249 53.5 48.213C54.8073 48.4175 54.8073 48.6385 53.5 48.8758C52.99 48.8294 52.6567 48.6084 52.5 48.213C52.5 46.2249 52.5 44.2367 52.5 42.2485C51.1667 42.0275 51.1667 41.8068 52.5 41.5858C52.5 40.9231 52.5 40.2604 52.5 39.5977Z" fill="#353535"/>
<path fill-rule="evenodd" clip-rule="evenodd" d="M118.5 48.5443C118.06 47.5741 117.838 46.4696 117.833 45.2307C117.838 43.9917 118.06 42.8873 118.5 41.9171C118.456 42.162 118.512 42.383 118.666 42.5798C119.192 41.6855 119.914 41.4644 120.833 41.9171C119.845 42.2912 119.123 42.9539 118.666 43.9052C118.5 45.4477 118.444 46.9939 118.5 48.5443Z" fill="#242424"/>
<path fill-rule="evenodd" clip-rule="evenodd" d="M87.5 41.5857C89.1957 42.1915 89.9737 43.4066 89.8334 45.2307C87.9444 45.2307 86.0557 45.2307 84.1667 45.2307C84.0877 45.6585 84.1987 45.9898 84.5 46.2248C84.7644 47.973 85.7644 48.5804 87.5 48.0473C88.1637 47.6636 88.7194 47.1665 89.1667 46.5561C89.5387 47.533 89.2054 48.2507 88.1667 48.71C84.1354 49.3369 82.6354 47.6251 83.6667 43.5739C83.9987 42.8582 84.4987 42.3058 85.1667 41.9171C85.9214 41.6788 86.699 41.5685 87.5 41.5857Z" fill="#272727"/>
<path fill-rule="evenodd" clip-rule="evenodd" d="M85.5 42.2484C87.366 42.0108 88.4773 42.7839 88.8333 44.568C87.389 44.568 85.9443 44.568 84.5 44.568C84.5627 43.6713 84.896 42.8982 85.5 42.2484Z" fill="#EFEFEF"/>
<path fill-rule="evenodd" clip-rule="evenodd" d="M89.8329 45.2307C87.9739 45.3487 86.1962 45.68 84.4996 46.2248C84.1982 45.9899 84.0872 45.6585 84.1662 45.2307C86.0552 45.2307 87.9439 45.2307 89.8329 45.2307Z" fill="#858584"/>
<path fill-rule="evenodd" clip-rule="evenodd" d="M162.167 41.5858C162.608 41.5295 162.997 41.6398 163.334 41.9172C163.997 43.6734 164.664 45.4405 165.334 47.2189C166.085 45.4763 166.808 43.7088 167.5 41.9172C167.834 41.4755 168.167 41.4755 168.5 41.9172C167.301 44.8865 166.134 47.8687 165 50.8639C164.218 51.6701 163.495 51.6701 162.834 50.8639C164.19 50.6989 164.856 49.9258 164.834 48.5444C163.84 46.2428 162.952 43.9232 162.167 41.5858Z" fill="#2C2C2C"/>
<path fill-rule="evenodd" clip-rule="evenodd" d="M30.1666 44.8995C31.1844 45.0284 32.0733 44.8077 32.8333 44.2367C33.3646 42.9312 32.8645 42.2685 31.3333 42.2486C30.1324 42.1727 29.5212 42.7251 29.5 43.9054C29.1666 43.9054 28.8333 43.9054 28.5 43.9054C28.3602 42.9693 28.6935 42.2516 29.5 41.7515C31.1453 41.3794 32.6453 41.6554 34 42.5799C33.9783 44.6387 34.256 46.6268 34.8333 48.5444C34.3183 48.8599 33.7626 48.9702 33.1666 48.8758C33.1856 47.672 32.8523 47.6166 32.1666 48.7101C28.943 49.7536 27.7208 48.7045 28.5 45.5622C28.9499 45.0817 29.5055 44.8607 30.1666 44.8995Z" fill="#2E2E2E"/>
<path fill-rule="evenodd" clip-rule="evenodd" d="M32.8333 46.5561C32.8333 46.2248 32.8333 45.8934 32.8333 45.562C31.7222 45.6724 30.6111 45.783 29.5 45.8934C30.6149 45.3244 31.8372 45.1034 33.1667 45.2307C33.2559 45.7605 33.1448 46.2022 32.8333 46.5561Z" fill="#A8A8A8"/>
<path fill-rule="evenodd" clip-rule="evenodd" d="M32.833 46.5561C32.2132 48.0227 31.1021 48.5197 29.4996 48.0472C29.077 47.3305 29.077 46.6124 29.4996 45.8934C30.6107 45.783 31.7219 45.6724 32.833 45.562C32.833 45.8934 32.833 46.2247 32.833 46.5561Z" fill="#F5F5F5"/>
<path fill-rule="evenodd" clip-rule="evenodd" d="M106.166 48.5443C106.146 48.3643 106.035 48.254 105.833 48.2129C105.504 49.2958 105.393 50.4006 105.5 51.5265C105.057 49.996 104.835 48.3392 104.833 46.5561C104.944 44.8993 105.055 43.2425 105.166 41.5857C105.389 41.8067 105.611 42.0274 105.833 42.2484C109.953 40.9823 111.675 42.5287 111 46.8875C109.91 48.8475 108.299 49.3998 106.166 48.5443Z" fill="#252525"/>
<path fill-rule="evenodd" clip-rule="evenodd" d="M106.833 42.2485C109.712 42.2992 110.767 43.735 110 46.5562C108.556 48.7654 107.111 48.7654 105.667 46.5562C105.223 44.8713 105.612 43.4351 106.833 42.2485Z" fill="#F3F3F3"/>
<path fill-rule="evenodd" clip-rule="evenodd" d="M61.5005 41.5859C66.0395 41.22 67.6508 43.2082 66.3338 47.5503C65.0861 48.7959 63.5861 49.1826 61.8338 48.7101C60.2628 47.3529 59.7628 45.6407 60.3338 43.574C60.6425 42.8477 61.0315 42.185 61.5005 41.5859Z" fill="#2B2B2B"/>
<path fill-rule="evenodd" clip-rule="evenodd" d="M62.1664 42.2485C65.216 42.1345 66.3827 43.5706 65.6664 46.5562C65.0954 48.0599 64.0397 48.5569 62.4997 48.0473C61.8887 47.8816 61.4997 47.4949 61.333 46.8875C60.935 45.1873 61.2127 43.6409 62.1664 42.2485Z" fill="#F3F3F3"/>
<path fill-rule="evenodd" clip-rule="evenodd" d="M41.5003 41.5858C42.617 41.5311 43.728 41.5865 44.8337 41.7515C46.2587 43.7811 46.0363 44.0021 44.167 42.4142C42.942 41.9844 42.053 42.3158 41.5003 43.4083C41.5867 43.8261 41.809 44.1575 42.167 44.4024C43.3793 44.5084 44.4907 44.8948 45.5003 45.5621C46.1673 46.9628 45.834 48.0119 44.5003 48.7101C42.195 49.4785 40.7507 48.7608 40.167 46.5562C40.5177 46.5069 40.851 46.5619 41.167 46.7219C41.993 48.3446 43.1597 48.6206 44.667 47.5503C44.907 47.0162 44.8517 46.5191 44.5003 46.0592C43.115 45.7861 41.8373 45.2891 40.667 44.5681C40.3093 43.3752 40.587 42.3811 41.5003 41.5858Z" fill="#2B2B2B"/>
<path fill-rule="evenodd" clip-rule="evenodd" d="M71.833 41.5857C72.2773 41.5857 72.722 41.5857 73.1663 41.5857C73.7713 43.5434 74.3827 45.5315 74.9997 47.5502C75.6833 45.6797 76.4057 43.8018 77.1663 41.9171C77.4997 41.4754 77.833 41.4754 78.1663 41.9171C77.2773 44.1262 76.3887 46.3351 75.4997 48.5443C75.2247 48.8379 74.8913 48.9482 74.4997 48.8756C73.613 46.4613 72.7243 44.0315 71.833 41.5857Z" fill="#2B2B2B"/>
<path fill-rule="evenodd" clip-rule="evenodd" d="M9.49987 48.5445C9.27763 49.5386 9.05543 50.5327 8.8332 51.5267C8.7264 50.4008 8.83753 49.296 9.16653 48.2131C9.36877 48.2542 9.47987 48.3646 9.49987 48.5445Z" fill="#8F8F8E"/>
<path fill-rule="evenodd" clip-rule="evenodd" d="M106.167 48.5445C105.944 49.5386 105.722 50.5327 105.5 51.5267C105.393 50.4008 105.504 49.296 105.833 48.2131C106.036 48.2542 106.147 48.3646 106.167 48.5445Z" fill="#959594"/>
</g>
<defs>
<clipPath id="clip0_5_169">
<rect width="200" height="56" fill="white"/>
</clipPath>
</defs>
</svg>
