<svg width="200" height="40" viewBox="0 0 200 40" fill="none" xmlns="http://www.w3.org/2000/svg">
<g clip-path="url(#clip0_1_39)">
<path d="M180.584 10.1617H187.897V29.0118H180.584V10.1617ZM191.395 29.0118V10.1019H194.065C197.103 10.1019 198.62 11.7131 198.616 14.9354V29.0118H191.395ZM189.103 8.89493H179.373V30.159H189.103V8.88949V8.89493ZM200.005 15.0931C200.005 10.961 197.933 8.89493 193.789 8.89493H190.162V30.159H200.005V15.0931ZM162.065 28.9792C159.29 28.9792 157.903 27.4641 157.903 24.4339V22.2047C157.838 21.1217 158.181 20.0539 158.865 19.2144C159.21 18.8468 159.63 18.5591 160.097 18.3713C160.564 18.1836 161.066 18.1002 161.568 18.127H165.286V28.9792H162.043H162.065ZM158.059 14.2341C158.06 13.6378 158.153 13.0453 158.335 12.4779C158.865 10.8541 160.306 10.0403 162.659 10.0367H165.286V14.2286H158.043L158.059 14.2341ZM169.146 10.1889H176.459V28.9792H169.151V10.1944L169.146 10.1889ZM166.508 16.9199H161.568C160.886 16.8754 160.203 16.9873 159.571 17.2473C158.939 17.5073 158.374 17.9085 157.919 18.4206C157.043 19.5419 156.597 20.9432 156.665 22.3678V24.4121C156.665 28.2579 158.51 30.1808 162.2 30.1808H166.524V16.9254L166.508 16.9199ZM166.508 8.91668H162.924C160.64 8.91668 159.018 9.46038 158.059 10.5478C157.101 11.6352 156.629 13.2427 156.643 15.3704H166.481V8.92211L166.508 8.91668ZM177.697 8.91668H167.913V30.1917H177.697V8.92211V8.91668ZM135.108 10.2759H142.389V38.6407H135.114V10.2759H135.108ZM149.27 29.0064H146.243V10.2759H149.486C152.142 10.2759 153.47 11.7566 153.47 14.718V24.3686C153.47 27.4605 152.061 29.0082 149.243 29.0118M143.659 8.92211H133.854V40H143.659V8.92211ZM154.741 14.8811C154.741 10.8939 152.939 8.90037 149.335 8.90037H144.876V30.159H149.016C152.832 30.159 154.741 28.1057 154.741 23.9989V14.8811ZM117.151 29.0173C115.501 29.0173 114.323 28.6548 113.616 27.9299C113.241 27.4906 112.956 26.981 112.778 26.4304C112.6 25.8798 112.532 25.2992 112.578 24.722H119.805V29.0064H117.173L117.151 29.0173ZM128.951 28.6149C128.314 28.8795 126.89 29.0136 124.681 29.0173H123.486V24.1783C123.486 23.2704 122.984 22.6668 121.989 22.3733L115.422 20.541C114.579 20.3572 113.801 19.9499 113.168 19.3612C112.757 18.8936 112.557 18.1161 112.557 17.0232V15.1257C112.557 12.8386 113.202 11.3488 114.492 10.6565C115.281 10.2324 116.703 10.0186 118.757 10.015H119.546V14.9083C119.521 15.1796 119.557 15.4531 119.651 15.7089C119.744 15.9647 119.893 16.1963 120.086 16.3871C120.549 16.7111 121.077 16.93 121.632 17.0287L127.87 18.6108C129.928 19.1183 130.957 20.3561 130.957 22.3243V24.4991C130.957 26.6739 130.29 28.044 128.957 28.6095M123.616 14.3265V10.015H126.276C127.969 10.015 129.173 10.3883 129.886 11.135C130.654 12.0144 131.043 13.1643 130.968 14.3319H123.632L123.616 14.3265ZM120.795 23.602H111.438C111.438 25.8421 111.885 27.4732 112.778 28.4953C113.751 29.6045 115.306 30.159 117.443 30.159H120.827V23.602H120.795ZM132.103 21.8404C132.103 19.6004 130.933 18.1741 128.595 17.5615L122.881 16.0772C121.497 15.7147 120.805 15.2091 120.805 14.5603V8.92211H118.432C116.112 8.92211 114.532 9.14866 113.692 9.60174C112.189 10.4282 111.438 12.0828 111.438 14.5657V17.2462C111.384 18.2491 111.649 19.2432 112.195 20.0843C112.816 20.8523 113.687 21.3759 114.654 21.5631L120.778 23.1671L121.73 23.4443L122 23.5585C122.159 23.7059 122.281 23.8893 122.355 24.0936C122.429 24.2979 122.454 24.5171 122.427 24.7329V30.159H125.303C127.587 30.159 129.13 29.9325 129.93 29.4794C131.393 28.653 132.124 26.9983 132.124 24.5154V21.8404H132.103ZM130.859 10.5858C129.897 9.49844 128.276 8.95474 125.995 8.95474H122.416V15.4791H132.308C132.308 13.3043 131.825 11.6732 130.859 10.5858ZM98.8919 8.95474H94.4811C90.9027 8.95474 89.1135 10.9483 89.1135 14.9354V23.9989C89.1135 28.1057 91.009 30.159 94.8 30.159H98.8973V8.92211L98.8919 8.95474ZM109.67 14.9354C109.67 10.9483 107.881 8.95474 104.303 8.95474H99.8919V30.159H103.984C107.778 30.159 109.674 28.1057 109.67 23.9989V14.8811V14.9354ZM76.5622 8.95474H66.8324V30.159H76.5622V8.88949V8.95474ZM87.4595 15.1529C87.4595 11.0208 85.3928 8.95474 81.2595 8.95474H77.6487V30.159H87.4595V15.0931V15.1529ZM54.3513 8.92211H49.9405C46.3622 8.92211 44.5748 10.9157 44.5784 14.9028V23.9989C44.5748 28.1057 46.4667 30.159 50.254 30.159H54.3513V8.92211ZM65.1297 14.9028C65.1297 10.9157 63.3405 8.92211 59.7622 8.92211H55.3513V30.159H59.4432C63.2342 30.159 65.1297 28.1057 65.1297 23.9989V14.8811V14.9028ZM42.8 12.6193C42.6042 11.8751 42.2522 11.1817 41.7676 10.5858C40.7838 9.46581 39.1622 8.9058 36.9027 8.9058H33.3676V19.5569H43.0973C43.0973 15.6132 42.991 13.2953 42.7784 12.603M32.2541 8.92211H22.4703V30.1917H32.2541V8.92211ZM9.81081 0H0V30.1917H9.81081V0ZM20.8865 22.2917C20.9088 21.6634 20.6945 21.0498 20.2865 20.5736L18.373 19.0512C19.0895 18.6036 19.7579 18.0825 20.3676 17.4963C20.734 17.0007 20.9244 16.3956 20.9081 15.7782V8.92211H11.1081V30.1917H20.8865V22.3134V22.2917Z" fill="#05377B"/>
</g>
<defs>
<clipPath id="clip0_1_39">
<rect width="200" height="40" fill="white"/>
</clipPath>
</defs>
</svg>
