<svg width="200" height="24" viewBox="0 0 200 24" fill="none" xmlns="http://www.w3.org/2000/svg">
<path opacity="0.92" fill-rule="evenodd" clip-rule="evenodd" d="M41.8789 18.21C41.7847 17.7861 41.6485 17.3725 41.4703 16.9693C38.681 16.7282 35.889 16.6936 33.0945 16.8659C32.2442 19.0336 31.393 21.2049 30.5409 23.3796C29.4344 23.6152 28.3109 23.6497 27.1701 23.483C27.0635 23.367 26.9954 23.2291 26.9658 23.0694C28.9734 17.5431 31.0843 12.1667 33.2988 6.94016C33.2307 6.8713 33.1625 6.80223 33.0945 6.73337C33.7519 5.60949 34.2967 4.43764 34.7288 3.21802C34.9304 2.41631 35.2708 1.58916 35.7502 0.736587C35.5545 0.499404 35.6226 0.292618 35.9545 0.11623C36.8373 0.0130437 37.7224 -0.0214895 38.6103 0.012837C41.6066 7.87069 44.6027 15.7286 47.599 23.5864C46.3608 23.6464 45.1351 23.5775 43.9218 23.3796C43.5535 23.0271 43.4174 22.648 43.5132 22.2423C42.9659 20.8025 42.4211 19.4583 41.8789 18.21ZM36.7717 7.25034C35.939 9.25823 35.1218 11.2918 34.3202 13.3505C36.2256 13.4539 38.1325 13.4882 40.0403 13.4539C40.0818 13.0631 39.9457 12.7529 39.6317 12.5234C39.6998 12.4545 39.768 12.3854 39.836 12.3166C39.435 11.9522 39.1627 11.6075 39.0189 11.2827C39.0869 11.2138 39.1551 11.1447 39.2232 11.0759C38.5972 9.23631 37.9502 7.47863 37.2824 5.80284C37.0503 6.26666 36.88 6.74909 36.7717 7.25034Z" fill="black"/>
<path opacity="0.927" fill-rule="evenodd" clip-rule="evenodd" d="M198.978 17.1761C198.262 18.3451 197.445 19.4479 196.526 20.4847C196.044 20.9043 195.568 21.3178 195.096 21.7254C194.455 22.0856 193.842 22.4992 193.257 22.9661C193.137 22.9229 193.035 22.8538 192.951 22.7593C192.428 23.0159 191.917 23.2916 191.419 23.5865C191.298 23.5433 191.196 23.4742 191.112 23.3797C190.51 23.4643 189.966 23.671 189.478 24C188.843 23.9064 188.23 23.9064 187.639 24C187.537 23.8966 187.435 23.7933 187.333 23.6899C184.066 23.3472 181.411 21.934 179.366 19.4508C178.459 18.4718 177.776 17.4034 177.323 16.2456C177.39 16.1767 177.46 16.1077 177.527 16.0388C175.676 10.2653 177.243 5.50926 182.226 1.77058C188.218 -1.26214 193.427 -0.262746 197.854 4.76897C200.273 8.70844 200.647 12.8442 198.978 17.1761ZM180.592 10.1454C180.969 7.99896 182.058 6.34468 183.86 5.18254C184.375 4.68874 185.09 4.27517 186.005 3.94183C186.073 4.01069 186.142 4.07975 186.209 4.14861C186.43 3.75696 186.702 3.6881 187.027 3.94183C187.231 3.8039 187.435 3.66618 187.639 3.52826C188.024 3.71374 188.467 3.71374 188.967 3.52826C189.202 3.59401 189.372 3.73173 189.478 3.94183C190.152 3.69182 190.765 3.82975 191.317 4.3554C191.384 4.28654 191.454 4.21747 191.521 4.14861C194.026 5.41683 195.66 7.41583 196.424 10.1454C196.483 10.772 196.516 11.358 196.526 11.9031C196.389 11.9719 196.254 12.041 196.117 12.1099C196.412 12.3427 196.549 12.6529 196.526 13.0404C195.784 17.2568 193.094 19.6691 188.457 20.2779C185.611 20.1133 183.364 18.8726 181.715 16.5558C180.459 14.5446 180.083 12.4078 180.592 10.1454Z" fill="black"/>
<path opacity="0.938" fill-rule="evenodd" clip-rule="evenodd" d="M0 0.633303C1.18692 0.428585 2.41265 0.359726 3.6772 0.426517C3.6772 6.90573 3.6772 13.3852 3.6772 19.8644C7.21814 19.8644 10.7593 19.8644 14.3002 19.8644C14.3002 21.0362 14.3002 22.2079 14.3002 23.3797C9.66041 23.3129 5.0298 23.382 0.408578 23.5865C0.243512 23.5228 0.107252 23.4194 0 23.2763C0.272113 15.7084 0.272113 8.16072 0 0.633303Z" fill="black"/>
<path opacity="0.927" fill-rule="evenodd" clip-rule="evenodd" d="M65.7809 9.93863C65.4438 9.56662 65.1032 9.18759 64.7594 8.80131C64.8922 8.46859 64.7901 8.15841 64.453 7.87078C64.3508 13.04 64.3167 18.2096 64.3508 23.3797C63.1931 23.3797 62.0356 23.3797 60.8779 23.3797C60.8779 15.7286 60.8779 8.07756 60.8779 0.426491C61.8338 0.392164 62.787 0.426697 63.738 0.529883C66.1563 4.11307 68.6078 7.66296 71.0924 11.1793C73.5524 7.62243 75.9359 4.10707 78.2425 0.633276C79.2549 0.427731 80.2764 0.358872 81.3068 0.426491C81.3068 8.07756 81.3068 15.7286 81.3068 23.3797C80.1411 23.4477 78.9836 23.3787 77.8339 23.1729C77.7912 23.0517 77.723 22.9483 77.6296 22.8627C77.6646 17.9344 77.6987 12.8682 77.7318 7.66399C75.8844 10.4736 74.0117 13.2652 72.1138 16.0388C71.3557 16.2094 70.6066 16.1751 69.8666 15.9354C69.6229 15.5163 69.2824 15.2061 68.8452 15.0049C69.0395 14.8564 69.0734 14.6842 68.9473 14.4879C68.0391 13.2846 67.256 12.1128 66.598 10.9726C66.1811 10.723 65.9087 10.3783 65.7809 9.93863Z" fill="black"/>
<path opacity="0.935" fill-rule="evenodd" clip-rule="evenodd" d="M96.2197 0.633251C100.951 0.426879 105.718 0.35802 110.52 0.426466C110.554 1.53153 110.52 2.63432 110.418 3.73504C110.214 3.87296 110.009 4.01068 109.805 4.14861C106.528 4.20341 103.226 4.13455 99.8969 3.94182C99.8969 6.00968 99.8969 8.07754 99.8969 10.1454C103.302 10.1454 106.706 10.1454 110.111 10.1454C110.111 11.3172 110.111 12.4889 110.111 13.6607C106.706 13.6607 103.302 13.6607 99.8969 13.6607C99.8969 15.7286 99.8969 17.7965 99.8969 19.8643C103.438 19.8643 106.979 19.8643 110.52 19.8643C110.535 21.1627 110.535 22.4034 110.52 23.5865C105.83 23.3817 101.132 23.3129 96.424 23.3797C96.4918 15.7623 96.4236 8.1801 96.2197 0.633251Z" fill="black"/>
<path opacity="0.939" fill-rule="evenodd" clip-rule="evenodd" d="M124.616 0.426514C125.774 0.426514 126.931 0.426514 128.089 0.426514C128.089 6.90573 128.089 13.3852 128.089 19.8644C131.63 19.8644 135.171 19.8644 138.712 19.8644C138.746 21.1069 138.712 22.3477 138.61 23.5865C133.961 23.381 129.296 23.3121 124.616 23.3797C124.616 15.7287 124.616 8.07758 124.616 0.426514Z" fill="black"/>
<path opacity="0.895" fill-rule="evenodd" clip-rule="evenodd" d="M151.991 0.426514C152.4 0.426514 152.808 0.426514 153.217 0.426514C153.217 8.07758 153.217 15.7287 153.217 23.3797C152.808 23.3797 152.4 23.3797 151.991 23.3797C151.991 15.7287 151.991 8.07758 151.991 0.426514Z" fill="black"/>
<path opacity="0.889" fill-rule="evenodd" clip-rule="evenodd" d="M154.238 0.426514C154.647 0.426514 155.055 0.426514 155.464 0.426514C155.499 8.14686 155.464 15.8668 155.362 23.5865C155.015 23.3992 154.641 23.3303 154.238 23.3797C154.238 15.7287 154.238 8.07758 154.238 0.426514Z" fill="black"/>
<path opacity="0.945" fill-rule="evenodd" clip-rule="evenodd" d="M156.281 0.426514C157.44 0.426514 158.596 0.426514 159.754 0.426514C159.756 8.20352 159.756 15.9234 159.754 23.5865C158.514 23.4031 157.289 23.3342 156.077 23.3797C156.279 15.7375 156.349 8.08648 156.281 0.426514Z" fill="black"/>
<path opacity="0.012" fill-rule="evenodd" clip-rule="evenodd" d="M65.7809 9.93872C65.6446 10.0766 65.6446 10.0766 65.7809 9.93872Z" fill="black"/>
<path opacity="0.012" fill-rule="evenodd" clip-rule="evenodd" d="M198.978 17.176C199.249 17.314 199.249 17.314 198.978 17.176Z" fill="black"/>
<path opacity="0.012" fill-rule="evenodd" clip-rule="evenodd" d="M41.8795 18.21C41.7433 18.3479 41.7433 18.3479 41.8795 18.21Z" fill="black"/>
<path opacity="0.012" fill-rule="evenodd" clip-rule="evenodd" d="M179.365 19.4507C179.228 19.5886 179.228 19.5886 179.365 19.4507Z" fill="black"/>
<path opacity="0.012" fill-rule="evenodd" clip-rule="evenodd" d="M196.526 20.4846C196.798 20.6225 196.798 20.6225 196.526 20.4846Z" fill="black"/>
<path opacity="0.012" fill-rule="evenodd" clip-rule="evenodd" d="M195.096 21.7253C195.367 21.8633 195.367 21.8633 195.096 21.7253Z" fill="black"/>
</svg>
