<svg width="200" height="34" viewBox="0 0 200 34" fill="none" xmlns="http://www.w3.org/2000/svg">
<path fill-rule="evenodd" clip-rule="evenodd" d="M14.6825 0.258719C18.8318 -0.455345 22.5353 0.481613 25.7937 3.07C31.0147 -0.300323 36.4381 -0.634865 42.0635 2.06597C43.358 3.10694 44.35 4.37885 45.0397 5.88127C45.2381 15.1175 45.3044 24.3546 45.2381 33.5924C41.8314 33.7197 38.4583 33.5856 35.1191 33.1908C34.9869 25.2923 34.8544 17.3943 34.7222 9.49577C34.5238 9.29497 34.3254 9.09416 34.127 8.89336C32.5893 8.28291 31.002 8.14877 29.3651 8.49174C28.7699 8.82629 28.3068 9.29497 27.9762 9.89738C27.9052 14.0115 27.7068 18.0943 27.381 22.1465C24.2064 22.4144 21.0318 22.4144 17.8571 22.1465C17.5313 17.9605 17.3329 13.7436 17.2619 9.49577C15.5891 7.84114 13.6711 7.50659 11.5079 8.49174C11.0312 8.8544 10.7005 9.32268 10.5159 9.89738C10.3175 17.7947 10.2514 25.6931 10.3175 33.5924C6.8783 33.5924 3.43917 33.5924 0 33.5924C0 22.6152 0 11.6376 0 0.66033C3.43917 0.66033 6.8783 0.66033 10.3175 0.66033C10.2539 1.34267 10.32 2.01215 10.5159 2.66839C11.8772 1.74629 13.2661 0.943064 14.6825 0.258719Z" fill="#E0352B"/>
<path fill-rule="evenodd" clip-rule="evenodd" d="M195.238 0.258789C196.825 0.258789 198.413 0.258789 200 0.258789C200 2.93633 200 5.61347 200 8.29101C196.233 7.54963 192.992 8.48659 190.278 11.1023C189.936 11.7396 189.671 12.4091 189.484 13.1103C189.286 16.0525 189.22 18.9976 189.286 21.9458C185.846 21.9458 182.408 21.9458 178.968 21.9458C178.902 14.9831 178.968 8.02193 179.167 1.06201C182.506 0.667227 185.879 0.533089 189.286 0.6604C189.167 1.50539 189.299 2.30861 189.683 3.07007C191.571 2.11463 193.423 1.17727 195.238 0.258789Z" fill="#E0362C"/>
<path fill-rule="evenodd" clip-rule="evenodd" d="M48.0156 0.660278C51.4549 0.660278 54.8938 0.660278 58.3331 0.660278C58.3331 11.6375 58.3331 22.6151 58.3331 33.5924C54.8938 33.5924 51.4549 33.5924 48.0156 33.5924C48.0156 22.6151 48.0156 11.6375 48.0156 0.660278Z" fill="#E0342A"/>
<path fill-rule="evenodd" clip-rule="evenodd" d="M77.3812 0.660278C80.9527 0.660278 84.5241 0.660278 88.0955 0.660278C84.103 11.5769 80.2669 22.5541 76.5876 33.5924C73.4447 33.7189 70.3364 33.5852 67.2622 33.1908C64.8094 26.0871 62.3622 18.9918 59.9209 11.9054C63.2304 11.8387 66.5372 11.9054 69.8415 12.1062C70.5653 14.3042 71.2931 16.5131 72.0241 18.7328C73.6868 12.6524 75.4725 6.62822 77.3812 0.660278Z" fill="#E0352B"/>
<path fill-rule="evenodd" clip-rule="evenodd" d="M117.46 0.660364C120.9 0.660364 124.339 0.660364 127.778 0.660364C127.712 4.67888 127.778 8.69499 127.976 12.7087C131.085 8.75965 134.193 4.81021 137.302 0.861169C140.738 0.660364 144.177 0.593696 147.619 0.660364C147.678 1.08286 147.612 1.48447 147.421 1.8652C143.906 5.83673 140.533 9.91991 137.302 14.1143C141.155 19.9726 145.057 25.796 149.008 31.5844C149.408 32.1969 149.607 32.8663 149.603 33.5925C146.029 33.6591 142.458 33.5925 138.889 33.3917C136.31 29.1747 133.73 24.9578 131.151 20.7409C130.093 21.812 129.035 22.8827 127.976 23.9538C127.778 27.1639 127.712 30.3768 127.778 33.5925C124.371 33.7198 120.998 33.5856 117.659 33.1908C117.46 22.3482 117.394 11.5047 117.46 0.660364Z" fill="#E0362C"/>
<path d="M97.2217 0.258423C102.509 -0.527521 107.403 0.477181 111.904 3.27112C113.005 4.22811 113.865 5.36579 114.484 6.6842C115.128 13.2168 115.26 19.7775 114.881 26.3639C112.937 30.9958 109.432 33.4726 104.365 33.7936C91.33 35.1928 85.6423 29.3026 87.3018 16.1227C85.8799 7.67048 89.1862 2.38179 97.2217 0.258423ZM103.571 8.49182C102.122 8.29142 100.667 8.22438 99.2061 8.29065C98.8259 8.87773 98.3633 9.4132 97.8174 9.89709C97.5527 14.5827 97.5527 19.2682 97.8174 23.9537C98.1289 24.671 98.5914 25.2738 99.2061 25.7614C100.529 26.0292 101.852 26.0292 103.175 25.7614C103.742 25.5746 104.205 25.2396 104.563 24.7574C104.828 19.6702 104.828 14.5829 104.563 9.49573C104.233 9.1612 103.902 8.82635 103.571 8.49182Z" fill="#E0362C"/>
<path d="M157.937 0.258789C161.394 0.157586 164.833 0.358544 168.254 0.861328C171.505 1.79909 173.953 3.74036 175.596 6.68457C176.226 13.0919 176.358 19.5177 175.992 25.9619C175.23 28.7843 173.576 30.8588 171.032 32.1865C164.443 34.9548 158.094 34.5539 151.984 30.9824C150.554 29.8949 149.562 28.4884 149.008 26.7646C148.38 20.7591 148.248 14.7349 148.611 8.69238C150.169 4.10336 153.277 1.29216 157.937 0.258789ZM164.683 8.49219C163.233 8.29179 161.778 8.22475 160.317 8.29102C159.665 8.61874 159.202 9.15459 158.929 9.89746C158.664 14.7168 158.664 19.5362 158.929 24.3555C160.381 25.9085 162.167 26.3768 164.286 25.7607C165.013 25.5599 165.476 25.0915 165.675 24.3555C165.939 19.4025 165.939 14.449 165.675 9.49609C165.344 9.16161 165.013 8.82667 164.683 8.49219Z" fill="#E0362C"/>
</svg>
