<svg width="200" height="104" viewBox="0 0 200 104" fill="none" xmlns="http://www.w3.org/2000/svg">
<path d="M43.6356 43.5707C44.341 40.8426 44.9457 38.1117 45.6511 35.2811C47.465 28.1036 49.5813 20.926 51.496 13.7499C52.6046 9.40154 53.7131 5.05457 54.7208 0.707614L55.4263 0.304651L82.7377 -2.80057e-05L83.3409 0.606523C83.6433 12.8387 83.8462 18.198 84.7518 34.9792C85.3564 47.0078 86.0619 59.0392 86.6665 71.0677L86.0619 71.6757C77.7983 71.5746 74.8758 71.6757 66.31 71.9775L65.8061 71.3724L64.9999 31.844V16.6816L61.2712 30.4301L59.6588 36.5953L50.4883 71.0677L49.6821 71.6757C43.0309 71.5746 41.217 71.5746 33.9612 71.9775L33.2558 71.3724C29.2248 55.6006 28.217 51.658 24.9922 39.5284L23.3798 33.5625L18.6434 16.075L18.2403 30.4301C18.0387 39.0215 17.8372 47.6157 17.8372 56.2072C17.8372 61.464 17.938 65.7112 18.0387 71.0677L17.3333 71.6757L0.503876 71.9775L0 71.3724C2.0155 43.0666 2.4186 34.4738 3.32558 0.808709L3.93023 0.304651H17.5349C22.3721 0.202155 27.1085 0.101064 31.8449 -2.80057e-05L32.4496 0.304651L43.6356 43.5707Z" fill="black"/>
<path d="M115.4 33.9122C113.476 31.2094 112.475 29.8194 112.475 28.2749C112.475 26.6547 113.708 24.8771 115.785 24.8771C116.172 24.8771 119.02 24.9544 119.02 28.5066C119.02 31.1336 116.863 32.7539 115.4 33.9122ZM143.883 46.1921L136.261 36.9253L135.646 37.0012C133.568 43.1804 131.029 47.1174 128.258 50.5152L121.788 42.1751C128.563 37.2328 130.797 33.7578 130.797 28.7383C130.797 25.5735 129.719 22.0971 126.87 19.4729C123.56 16.3054 117.71 15.9965 115.71 15.9965C108.012 15.9965 99.1574 19.4729 99.1574 30.1297C99.1574 35.5339 101.467 38.6228 103.624 41.4815C99.0034 44.3388 91.8428 49.048 91.8428 57.5425C91.8428 67.736 100.928 72.9099 109.936 72.9099C116.015 72.9099 120.789 70.9793 124.793 68.4324L127.332 71.5971L127.948 71.9832C131.106 71.8302 134.336 71.753 137.494 71.6757C139.957 71.6757 142.421 71.6757 144.883 71.753L145.269 71.0566C141.113 66.5018 139.88 65.1876 135.34 59.32C140.881 52.2913 141.572 51.3647 144.039 47.0416L143.883 46.1921ZM118.016 59.4731C116.401 60.2467 115.091 60.8631 113.091 60.8631C109.55 60.8631 107.625 58.5464 107.625 55.9222C107.625 53.4511 109.856 51.9052 111.166 50.9027L118.016 59.4731Z" fill="black"/>
<path d="M183.273 15.3662C183.273 21.6339 183.172 27.903 183.172 34.1707C183.172 46.3004 183.371 58.2293 183.675 70.9683L182.969 71.6745C174.304 71.5748 171.479 71.6745 162.008 71.9778L161.403 71.3726C161.805 50.6488 161.906 44.4807 162.008 15.5684L145.985 15.9742L145.479 15.4673L146.087 0.910049L146.792 0.303492H199.498L200 0.405991C199.498 6.97557 199.397 8.99741 199.194 15.2665L198.589 15.8717L183.273 15.3662Z" fill="black"/>
<path d="M24.0096 92.5329C24.0096 91.2903 23.7954 90.4675 23.3643 90.0687C22.9347 89.6672 22.2292 89.4678 21.2439 89.4678C20.4167 89.4678 19.5587 89.875 18.6755 90.6907C18.6461 91.6399 18.6293 92.568 18.6293 93.4764C18.6293 94.7751 18.6545 96.7099 18.7007 99.2808H16.5844C16.7552 97.0666 16.842 94.8173 16.842 92.5329C16.842 91.2903 16.6264 90.4675 16.1967 90.0687C15.7656 89.6672 15.0784 89.4678 14.1336 89.4678C13.1665 89.4678 12.2595 89.875 11.4155 90.6907C11.4155 93.1549 11.4309 96.0177 11.4617 99.2808H9.34682C9.49519 96.6397 9.56797 94.7274 9.56797 93.5466C9.56797 91.7522 9.39441 89.9887 9.0459 88.2561L11.0908 87.9641L11.2993 89.3737H11.4155C12.4233 88.3418 13.5416 87.8237 14.7719 87.8237C16.6096 87.8237 17.7909 88.3418 18.3172 89.3737H18.4432C19.6133 88.3418 20.768 87.8237 21.9073 87.8237C23.209 87.8237 24.1915 88.1115 24.8564 88.6872C25.524 89.2614 25.8571 90.2765 25.8571 91.7283C25.8571 91.8758 25.8487 92.1678 25.8333 92.6031C25.8179 93.0383 25.8109 93.329 25.8109 93.4764C25.8109 94.7751 25.8263 96.7099 25.8571 99.2808H23.7423C23.9214 97.2449 24.0096 94.9956 24.0096 92.5329Z" fill="black"/>
<path d="M35.5689 97.0199C35.5311 95.8391 35.5101 94.7777 35.5101 93.8383C34.0545 93.8383 32.9473 93.9479 32.1887 94.1641C30.9178 94.553 30.2838 95.2943 30.2838 96.3909C30.2838 97.4468 31.027 97.9761 32.5134 97.9761C33.7899 97.9761 34.8103 97.6574 35.5689 97.0199ZM37.6264 99.2805L35.8012 99.3507C35.7089 98.9702 35.6613 98.6093 35.6613 98.2667H35.5451C34.5933 99.1373 33.2959 99.5725 31.6527 99.5725C30.7625 99.5725 29.9969 99.31 29.3544 98.7862C28.7106 98.2611 28.3887 97.5142 28.3887 96.5426C28.3887 95.3463 28.8911 94.3845 29.8989 93.6572C30.9066 92.9313 32.7766 92.548 35.5101 92.5101C35.5353 92.3234 35.5451 92.1085 35.5451 91.8685C35.5451 90.9123 35.2918 90.2762 34.7837 89.9575C34.277 89.6388 33.5086 89.4787 32.4785 89.4787C31.2622 89.4787 30.0655 89.6304 28.8897 89.9337L29.0857 88.326C30.2474 87.9918 31.5841 87.8248 33.0929 87.8248C34.473 87.8248 35.5381 88.1098 36.2897 88.6812C37.0413 89.2527 37.415 90.2257 37.415 91.6003C37.415 91.9653 37.3996 92.628 37.3632 93.5884C37.3297 94.5474 37.3115 95.1862 37.3115 95.505C37.3115 96.9188 37.415 98.1783 37.6264 99.2805Z" fill="black"/>
<path d="M50.4175 99.281H48.3012C48.472 97.2367 48.5588 95.0085 48.5588 92.5907C48.5588 91.3944 48.3152 90.5773 47.8309 90.1378C47.3481 89.6983 46.6552 89.4793 45.7581 89.4793C44.6579 89.4793 43.6432 89.8794 42.7138 90.6798C42.7138 93.3292 42.7292 96.1963 42.76 99.281H40.6465C40.7767 96.64 40.8439 94.7276 40.8439 93.5468C40.8439 91.7286 40.6731 89.9651 40.333 88.2549L42.3779 87.9643L42.5976 89.3866H42.69C43.8377 88.3448 45.0652 87.8239 46.3739 87.8239C47.6588 87.8239 48.6539 88.1103 49.3594 88.6804C50.0648 89.2518 50.4175 90.2684 50.4175 91.7286C50.4175 91.876 50.4091 92.1681 50.3923 92.6033C50.3783 93.0386 50.3713 93.3292 50.3713 93.4766C50.3713 94.7754 50.3867 96.7088 50.4175 99.281Z" fill="black"/>
<path d="M63.2551 99.2692L61.4537 99.3394C61.346 98.9042 61.2914 98.5461 61.2914 98.2667H61.1752C60.1437 99.1373 58.8938 99.5725 57.4213 99.5725C56.0819 99.5725 55.1091 99.2482 54.5003 98.5995C53.8928 97.9508 53.5891 96.6422 53.5891 94.6766C53.5891 94.3972 53.5961 93.9816 53.6101 93.4298C53.6269 92.878 53.6353 92.5017 53.6353 92.2995C53.6353 91.158 53.5681 89.8129 53.4365 88.267L55.5976 88.1856C55.5052 89.6851 55.459 90.967 55.459 92.0313C55.459 94.4786 55.6158 96.0736 55.9293 96.8149C56.2428 97.5577 56.9497 97.9284 58.0498 97.9284C59.2885 97.9284 60.3102 97.6181 61.1178 96.9961C61.1178 92.6772 61.0772 89.7666 61.0002 88.267L63.0913 88.1856C63.0297 89.6458 62.9976 91.6663 62.9976 94.2455C62.9976 95.9009 63.0843 97.5745 63.2551 99.2692Z" fill="black"/>
<path d="M72.734 82.7429L72.3967 84.2817C71.932 84.1652 71.4673 84.1062 71.0027 84.1062C70.2902 84.1062 69.8073 84.3884 69.5554 84.9514C69.3049 85.5145 69.1789 86.6784 69.1789 88.4419C69.9459 88.4419 71.018 88.4026 72.3967 88.3254L72.3281 90.0622C70.7633 90.0159 69.7136 89.992 69.1789 89.992C69.1789 93.5274 69.2251 96.6234 69.3189 99.2812H67.2376C67.3468 96.6936 67.4013 93.5976 67.4013 89.992C66.9297 89.992 66.1039 90.0159 64.9268 90.0622L65.0065 88.3493C66.0759 88.411 66.8737 88.4419 67.4013 88.4419C67.4013 86.3836 67.6883 84.8855 68.2607 83.9489C68.8346 83.0124 69.7472 82.5449 71.0027 82.5449C71.5527 82.5449 72.1294 82.6109 72.734 82.7429Z" fill="black"/>
<path d="M80.9361 97.0199C80.8983 95.8391 80.8773 94.7777 80.8773 93.8383C79.4217 93.8383 78.3145 93.9479 77.5559 94.1641C76.285 94.553 75.651 95.2943 75.651 96.3909C75.651 97.4468 76.3942 97.9761 77.8806 97.9761C79.1571 97.9761 80.1775 97.6574 80.9361 97.0199ZM82.9936 99.2805L81.1684 99.3507C81.076 98.9702 81.0285 98.6093 81.0285 98.2667H80.9123C79.9605 99.1373 78.663 99.5725 77.0199 99.5725C76.1297 99.5725 75.3641 99.31 74.7216 98.7862C74.0778 98.2611 73.7559 97.5142 73.7559 96.5426C73.7559 95.3463 74.2583 94.3845 75.2661 93.6572C76.2738 92.9313 78.1438 92.548 80.8773 92.5101C80.9025 92.3234 80.9123 92.1085 80.9123 91.8685C80.9123 90.9123 80.6589 90.2762 80.1509 89.9575C79.6442 89.6388 78.8758 89.4787 77.8456 89.4787C76.6293 89.4787 75.4326 89.6304 74.2569 89.9337L74.4529 88.326C75.6146 87.9918 76.9513 87.8248 78.4601 87.8248C79.8402 87.8248 80.9053 88.1098 81.6569 88.6812C82.4085 89.2527 82.7822 90.2257 82.7822 91.6003C82.7822 91.9653 82.7668 92.628 82.7304 93.5884C82.6968 94.5474 82.6786 95.1862 82.6786 95.505C82.6786 96.9188 82.7822 98.1783 82.9936 99.2805Z" fill="black"/>
<path d="M94.391 97.4978L94.2734 99.0591C93.6477 99.4171 92.8066 99.5955 91.7526 99.5955C89.7469 99.5955 88.2129 99.0409 87.152 97.9288C86.091 96.8182 85.5605 95.4774 85.5605 93.9076C85.5605 92.2452 86.119 90.8159 87.2345 89.6196C88.3501 88.4234 89.8239 87.8238 91.6602 87.8238C92.5812 87.8238 93.3328 87.9179 93.9137 88.1047L93.6016 89.9341C92.787 89.6309 91.9626 89.4792 91.1256 89.4792C90.0254 89.4792 89.1507 89.8639 88.4998 90.6334C87.849 91.4028 87.5243 92.366 87.5243 93.5229C87.5243 94.7824 87.9106 95.8312 88.686 96.6708C89.4614 97.509 90.5559 97.9288 91.9738 97.9288C92.5546 97.9288 93.3608 97.7856 94.391 97.4978Z" fill="black"/>
<path d="M103.058 97.6728L102.918 99.1877C102.306 99.4138 101.729 99.5261 101.188 99.5261C99.7937 99.5261 98.8392 99.1695 98.3283 98.4604C97.8174 97.7486 97.5627 96.4765 97.5627 94.6428C97.5627 93.4536 97.5697 91.9035 97.5851 89.9926C97.1512 89.9926 96.5129 90.015 95.6689 90.0628L95.7389 88.3723C96.4737 88.4186 97.133 88.4425 97.7138 88.4425C97.7138 87.9764 97.7516 86.8686 97.83 85.1205L99.6538 84.9338C99.5222 86.5653 99.4564 87.7349 99.4564 88.4425C100.215 88.4425 101.331 88.4032 102.802 88.326L102.722 90.0628C101.328 90.015 100.208 89.9926 99.3626 89.9926C99.3486 91.165 99.3402 92.4862 99.3402 93.9548C99.3402 95.5555 99.5082 96.6141 99.8455 97.1308C100.181 97.6475 100.808 97.9058 101.721 97.9058C102.025 97.9058 102.468 97.8286 103.058 97.6728Z" fill="black"/>
<path d="M115.026 99.2692L113.224 99.3394C113.116 98.9042 113.062 98.5461 113.062 98.2667H112.946C111.914 99.1373 110.664 99.5725 109.192 99.5725C107.852 99.5725 106.88 99.2482 106.271 98.5995C105.663 97.9508 105.36 96.6422 105.36 94.6766C105.36 94.3972 105.367 93.9816 105.381 93.4298C105.397 92.878 105.406 92.5017 105.406 92.2995C105.406 91.158 105.339 89.8129 105.207 88.267L107.368 88.1856C107.276 89.6851 107.23 90.967 107.23 92.0313C107.23 94.4786 107.386 96.0736 107.7 96.8149C108.013 97.5577 108.72 97.9284 109.82 97.9284C111.059 97.9284 112.081 97.6181 112.888 96.9961C112.888 92.6772 112.848 89.7666 112.771 88.267L114.862 88.1856C114.8 89.6458 114.768 91.6663 114.768 94.2455C114.768 95.9009 114.855 97.5745 115.026 99.2692Z" fill="black"/>
<path d="M124.993 88.2089L124.471 90.0622C123.866 89.8207 123.303 89.7 122.784 89.7C121.33 89.7 120.384 90.3964 119.95 91.7864C119.95 95.3611 119.974 97.8589 120.02 99.2812H117.964C118.087 96.8171 118.15 94.9062 118.15 93.5471C118.15 91.705 117.966 89.9415 117.603 88.2552L119.636 87.9646C119.783 88.8196 119.857 89.3897 119.857 89.6775H119.95C120.785 88.4419 121.761 87.8241 122.876 87.8241C123.467 87.8241 124.17 87.9519 124.993 88.2089Z" fill="black"/>
<path d="M133.996 92.4629C133.996 90.2795 133.089 89.1872 131.268 89.1872C129.409 89.1872 128.312 90.3231 127.978 92.5906L133.996 92.4629ZM135.937 92.439C135.937 92.7661 135.923 93.2168 135.891 93.7911L127.907 93.9315C127.987 95.066 128.425 96.0151 129.223 96.7817C130.021 97.5469 131.076 97.9288 132.393 97.9288C133.571 97.9288 134.673 97.7856 135.705 97.4978L135.507 99.1405C134.747 99.4438 133.651 99.5955 132.218 99.5955C130.207 99.5955 128.67 99.0437 127.612 97.9401C126.555 96.8379 126.027 95.4928 126.027 93.9076C126.027 92.2143 126.507 90.7555 127.473 89.5326C128.438 88.3082 129.734 87.6961 131.36 87.6961C132.856 87.6961 133.99 88.1384 134.77 89.0243C135.548 89.9103 135.937 91.049 135.937 92.439Z" fill="black"/>
<path d="M148.241 99.281H146.253C146.338 97.6425 146.382 95.9408 146.382 94.1759C146.382 92.133 146.338 90.625 146.253 89.6548L143.603 90.983L143.058 89.9693L147.24 86.8804H148.241C148.161 89.3908 148.123 91.8227 148.123 94.1759C148.123 95.8383 148.161 97.54 148.241 99.281Z" fill="black"/>
<path d="M160.195 93.815C160.195 92.036 159.867 90.698 159.208 89.7994C158.549 88.9022 157.771 88.4543 156.874 88.4543C155.967 88.4543 155.256 88.7758 154.742 89.4217C154.224 90.0661 153.968 90.8384 153.968 91.7398C153.968 92.7268 154.276 93.5889 154.897 94.3275C155.517 95.066 156.381 95.4353 157.488 95.4353C158.664 95.4353 159.569 94.8947 160.195 93.815ZM162.217 93.5468C162.217 100.182 159.408 103.669 153.793 104L153.457 102.616C157.677 102.326 159.916 99.8749 160.173 95.2597H160.055C159.282 96.3718 158.046 96.9264 156.349 96.9264C154.978 96.9264 153.905 96.4504 153.125 95.4998C152.347 94.5465 151.958 93.4148 151.958 92.102C151.958 90.6952 152.404 89.4736 153.3 88.436C154.195 87.3984 155.452 86.8803 157.071 86.8803C158.494 86.8803 159.708 87.442 160.711 88.5638C161.715 89.687 162.217 91.348 162.217 93.5468Z" fill="black"/>
<path d="M173.243 93.815C173.243 92.036 172.915 90.698 172.256 89.7994C171.597 88.9022 170.819 88.4543 169.921 88.4543C169.014 88.4543 168.303 88.7758 167.79 89.4217C167.272 90.0661 167.016 90.8384 167.016 91.7398C167.016 92.7268 167.324 93.5889 167.945 94.3275C168.565 95.066 169.429 95.4353 170.536 95.4353C171.712 95.4353 172.617 94.8947 173.243 93.815ZM175.265 93.5468C175.265 100.182 172.456 103.669 166.841 104L166.505 102.616C170.725 102.326 172.964 99.8749 173.22 95.2597H173.103C172.33 96.3718 171.094 96.9264 169.397 96.9264C168.026 96.9264 166.953 96.4504 166.173 95.4998C165.395 94.5465 165.006 93.4148 165.006 92.102C165.006 90.6952 165.452 89.4736 166.348 88.436C167.243 87.3984 168.499 86.8803 170.119 86.8803C171.542 86.8803 172.756 87.442 173.759 88.5638C174.763 89.687 175.265 91.348 175.265 93.5468Z" fill="black"/>
<path d="M186.859 86.9852C186.859 88.423 186.299 90.4041 185.175 92.9286C184.711 93.9774 183.672 96.0484 182.061 99.1416C180.946 101.287 180.389 102.615 180.389 103.128L178.344 102.881C178.344 102.385 178.929 101.114 180.099 99.0714C182.119 95.5051 183.196 93.5899 183.328 93.326C184.498 91.0949 185.082 89.5224 185.082 88.6055C183.409 88.6055 180.873 88.7066 177.472 88.9088L177.543 86.9852H186.859Z" fill="black"/>
</svg>
