<svg width="200" height="42" viewBox="0 0 200 42" fill="none" xmlns="http://www.w3.org/2000/svg">
<path d="M179.795 2.71785H20.206C15.3955 2.71785 11.0197 4.76883 7.8462 8.07353C4.66535 11.3864 2.68895 15.9626 2.68895 20.9989C2.68895 26.0367 4.66461 30.6129 7.8462 33.9242C11.0197 37.2289 15.3955 39.2807 20.206 39.2807H179.795C184.606 39.2807 188.981 37.2282 192.155 33.9242C195.337 30.6121 197.311 26.0367 197.311 20.9989C197.311 15.9626 195.337 11.3864 192.155 8.07353C188.981 4.76883 184.605 2.71785 179.795 2.71785ZM20.206 0H179.795C185.357 0 190.413 2.36811 194.077 6.18333C197.732 9.98966 200 15.2349 200 20.9996C200 26.7651 197.732 32.0096 194.077 35.8152C190.413 39.6311 185.357 42 179.795 42H20.206C14.6441 42 9.58874 39.6319 5.92479 35.8152C2.26963 32.0089 0 26.7643 0 20.9989C0 15.2349 2.26963 9.98966 5.92479 6.18259C9.58874 2.36737 14.6441 0 20.206 0Z" fill="black"/>
<path d="M183.298 19.2598C183.298 19.1724 183.284 19.0931 183.252 19.0249C183.223 18.9575 183.175 18.9005 183.109 18.856C183.052 18.8197 182.987 18.7923 182.913 18.7767C182.836 18.7612 182.744 18.7523 182.632 18.7523H182.237V19.8971H182.588C182.701 19.8971 182.806 19.8867 182.896 19.8667C182.987 19.8459 183.066 19.8037 183.129 19.7407C183.187 19.6837 183.231 19.6162 183.258 19.5369C183.286 19.4577 183.298 19.3658 183.298 19.2598ZM183.943 21.4397H183.426L182.694 20.2342H182.237V21.4397H181.838V18.4077H182.611C182.783 18.4077 182.929 18.4173 183.045 18.4359C183.161 18.4551 183.272 18.4981 183.374 18.5685C183.481 18.6359 183.564 18.7234 183.625 18.8315C183.687 18.9382 183.715 19.0716 183.715 19.2309C183.715 19.454 183.66 19.6392 183.549 19.7881C183.437 19.9371 183.286 20.0475 183.094 20.1201L183.943 21.4397Z" fill="black"/>
<path fill-rule="evenodd" clip-rule="evenodd" d="M182.714 17.9046C183.876 17.9046 184.816 18.8553 184.816 20.0275C184.816 21.2004 183.876 22.1503 182.714 22.1503C181.555 22.1503 180.617 21.1997 180.617 20.0275C180.617 18.8545 181.555 17.9046 182.714 17.9046ZM182.714 17.6438C184.017 17.6438 185.076 18.71 185.076 20.0275C185.076 21.3449 184.018 22.4119 182.714 22.4119C181.413 22.4119 180.354 21.3442 180.354 20.0275C180.354 18.7108 181.413 17.6438 182.714 17.6438Z" fill="black"/>
<path d="M131.301 30.1016H155.043V25.7892H141.696V22.689H151.884V18.3766H141.696V15.4868H155.043V11.1752H131.301V30.1016Z" fill="black"/>
<path d="M111.42 30.1016H122.41V15.4868H129.461V11.1752H104.367V15.4868H111.42V30.1016Z" fill="black"/>
<path d="M96.2301 30.1016C98.5921 30.1016 99.7343 29.9193 100.846 29.2747C102.541 28.2899 103.281 25.8848 102.469 23.9249C102.176 23.2151 101.414 22.3748 100.796 21.948L91.1667 15.4868H102.51V14.6006V11.1752C96.4171 11.1752 90.3237 11.1752 84.2288 11.1752C81.9599 11.1752 80.2936 11.3582 79.1368 11.9561C77.9793 12.5534 77.3994 13.4373 77.3994 14.6006V15.2697C77.3994 17.4245 78.9528 18.224 80.2658 19.105L90.2298 25.7892H89.2314H77.3994V26.6754V30.1016C83.6775 30.1016 89.9535 30.1016 96.2301 30.1016Z" fill="black"/>
<path d="M59.4662 16.6991C59.4662 16.233 59.6355 15.887 59.9749 15.6624C60.3136 15.4365 60.8979 15.3231 61.727 15.3231C63.2709 15.3231 64.0435 15.7825 64.0435 16.6991V24.5777C64.0435 25.0438 63.8749 25.3861 63.5348 25.6032C63.1968 25.8203 62.5935 25.9292 61.7277 25.9292C60.8986 25.9292 60.3143 25.8203 59.9757 25.6032C59.637 25.3861 59.4669 25.0438 59.4669 24.5777V16.6991H59.4662ZM55.325 30.2424H67.8805C69.2462 30.2424 70.4162 30.169 71.3898 30.0201C72.3633 29.8741 73.1528 29.6237 73.7606 29.2747C74.3676 28.9257 74.8096 28.4581 75.0889 27.8765C75.366 27.2933 75.506 26.5672 75.506 25.6958V15.0904C75.506 13.5989 74.8925 12.5526 73.666 11.9562C72.4396 11.3575 70.5115 11.0581 67.8805 11.0581H55.325C52.7958 11.0581 50.9433 11.373 49.7667 12.0028C48.5909 12.6319 48.0029 13.6611 48.0029 15.0904V25.6958C48.0029 26.5353 48.1364 27.2474 48.401 27.8298C48.6664 28.4122 49.0967 28.8827 49.6905 29.2391C50.285 29.5963 51.043 29.8526 51.9667 30.009C52.8904 30.1646 54.0098 30.2424 55.325 30.2424Z" fill="black"/>
<path d="M29.6119 15.4868H32.4797C33.009 15.4868 33.3968 15.6358 33.6446 15.9351C33.8916 16.2352 34.0155 16.7665 34.0155 17.5319C34.0155 18.2632 33.8916 18.7782 33.6446 19.0775C33.3975 19.3754 33.009 19.5266 32.4797 19.5266H29.6119V15.4868ZM34.0155 30.1023H45.6503V27.9484C45.6503 26.379 45.275 25.1786 44.5243 24.3465C43.7744 23.5152 42.4687 22.9683 40.6118 22.7038C42.0795 22.4763 43.204 22.1199 43.9826 21.6376C46.3519 20.1668 46.25 13.61 43.7421 12.1999C43.1058 11.842 42.2979 11.582 41.3178 11.4189C40.3391 11.2567 39.1618 11.1752 37.788 11.1752H18.167V30.1023H29.6119V23.6523H31.6037C31.8104 23.6523 32.0619 23.6626 32.3162 23.6826C33.7296 23.7916 34.0155 24.8089 34.0155 26.3627V30.1023Z" fill="black"/>
<path fill-rule="evenodd" clip-rule="evenodd" d="M184.185 11.1752H175.647L171.661 15.1297L168.35 11.1752H156.563L165.218 21.5198L156.563 30.1016H165.1L169.087 26.1471L172.397 30.1016H184.185L175.531 19.757L184.185 11.1752Z" fill="black"/>
</svg>
