<svg width="200" height="67" viewBox="0 0 200 67" fill="none" xmlns="http://www.w3.org/2000/svg">
<g clip-path="url(#clip0_6_300)">
<path opacity="0.963" fill-rule="evenodd" clip-rule="evenodd" d="M0.250277 -0.251953C66.5826 -0.251953 132.915 -0.251953 199.248 -0.251953C199.248 0.419726 199.248 1.09141 199.248 1.76308C157.477 1.76308 115.705 1.76308 73.9345 1.76308C73.9345 22.7531 73.9345 43.743 73.9345 64.733C115.873 64.733 157.811 64.733 199.749 64.733C199.749 65.4045 199.749 66.0765 199.749 66.748C133.249 66.748 66.75 66.748 0.250277 66.748C0.250277 66.412 0.0831923 66.2443 -0.250977 66.2443C-0.250977 44.2468 -0.250977 22.2493 -0.250977 0.251806C0.0831923 0.251806 0.250277 0.0838866 0.250277 -0.251953ZM14.2854 3.77812C18.4437 7.36791 22.5372 11.0621 26.5661 14.8608C27.4015 14.525 28.2369 14.1892 29.0723 13.8533C29.3228 10.4991 29.4063 7.14072 29.323 3.77812C33.5001 3.77812 37.6772 3.77812 41.8543 3.77812C41.8543 7.13653 41.8543 10.4949 41.8543 13.8533C43.0759 13.9824 44.2456 14.3182 45.3631 14.8608C45.8643 14.6089 46.3656 14.3571 46.8668 14.1052C50.4112 10.6047 54.0037 7.16233 57.6438 3.77812C60.6558 6.38624 63.5796 9.07294 66.4157 11.8383C63.3996 15.2892 60.1415 18.4796 56.6413 21.4097C56.3069 21.9135 56.3069 22.4172 56.6413 22.921C57.4919 24.0287 58.2438 25.2042 58.8969 26.4473C61.5495 26.9484 64.2227 27.1164 66.9169 26.9511C66.9169 30.8132 66.9169 34.6753 66.9169 38.5375C64.7194 38.3735 62.5475 38.5414 60.4007 39.0413C59.8017 40.6656 59.133 42.2608 58.3956 43.827C61.553 47.1671 64.8949 50.3576 68.4207 53.3984C65.6483 56.3535 62.724 59.1242 59.6488 61.7105C56.2979 58.5942 52.8728 55.5716 49.3731 52.6428C47.003 53.9188 44.4967 54.7586 41.8543 55.1616C41.8543 57.8481 41.8543 60.5352 41.8543 63.2217C37.6772 63.2217 33.5001 63.2217 29.323 63.2217C29.4875 60.514 29.3204 57.8275 28.8217 55.1616C26.7354 54.5188 24.7304 53.679 22.8067 52.6428C19.3154 55.4789 15.9737 58.5015 12.7816 61.7105C9.54867 59.2184 6.54115 56.4477 3.75905 53.3984C7.10075 50.3759 10.4424 47.3533 13.7841 44.3308C12.7544 42.5684 11.919 40.7213 11.2778 38.7894C8.94461 38.5379 6.60541 38.454 4.2603 38.5375C4.2603 34.6753 4.2603 30.8132 4.2603 26.9511C7.10561 27.0347 9.94607 26.9508 12.7816 26.6992C13.6851 25.0367 14.6876 23.4415 15.7891 21.9135C12.601 18.3735 9.25925 15.0151 5.76406 11.8383C8.61469 9.14064 11.4551 6.45394 14.2854 3.77812Z" fill="#29639E"/>
<path opacity="0.984" fill-rule="evenodd" clip-rule="evenodd" d="M91.4788 38.5375C88.3405 34.626 84.9154 30.9318 81.2031 27.4548C80.7019 26.4473 80.2006 25.4398 79.6994 24.4323C76.4462 7.5511 83.2131 0.750342 100 4.03002C103.982 5.17708 106.405 7.77986 107.268 11.8383C107.519 15.8649 107.602 19.895 107.519 23.9285C103.342 23.9285 99.1645 23.9285 94.9876 23.9285C95.0708 20.0627 94.9876 16.2005 94.7369 12.3421C93.569 11.5704 92.5665 11.7384 91.7294 12.8458C91.3029 15.744 91.4703 18.5986 92.2307 21.4097C96.5595 26.2644 101.071 30.9662 105.765 35.515C106.099 36.1866 106.433 36.8584 106.767 37.53C111.8 55.6351 105.2 63.2751 86.9675 60.4511C83.2081 59.3594 80.7856 56.9248 79.6994 53.1466C79.4487 48.2798 79.3655 43.4101 79.4487 38.5375C83.4588 38.5375 87.4688 38.5375 91.4788 38.5375ZM91.4788 38.5375C92.8161 39.4622 93.9019 40.6376 94.7369 42.0639C95.0713 45.2543 95.0713 48.4448 94.7369 51.6353C93.569 52.407 92.5665 52.2388 91.7294 51.1315C91.4788 46.9369 91.3956 42.7389 91.4788 38.5375Z" fill="#29639E"/>
<path opacity="0.981" fill-rule="evenodd" clip-rule="evenodd" d="M118.546 4.28198C123.726 4.28198 128.906 4.28198 134.085 4.28198C136.629 22.8932 138.969 41.5323 141.103 60.1993C136.926 60.1993 132.748 60.1993 128.571 60.1993C128.044 55.5153 127.626 50.8137 127.318 46.094C126.554 45.4794 125.634 45.1435 124.561 45.0865C123.594 45.1064 122.676 45.2743 121.804 45.5903C121.254 50.4515 120.836 55.3209 120.551 60.1993C116.708 60.1993 112.866 60.1993 109.022 60.1993C112.034 41.5328 115.209 22.8937 118.546 4.28198ZM124.561 18.891C125.215 19.8467 125.549 21.0222 125.564 22.4173C125.924 27.1199 126.258 31.8217 126.566 36.5226C125.397 36.5226 124.227 36.5226 123.058 36.5226C123.6 30.6483 124.102 24.7712 124.561 18.891Z" fill="#29639E"/>
<path opacity="0.993" fill-rule="evenodd" clip-rule="evenodd" d="M143.107 4.28198C147.284 4.28198 151.462 4.28198 155.639 4.28198C155.639 19.8985 155.639 35.5151 155.639 51.1316C159.148 51.1316 162.656 51.1316 166.165 51.1316C166.165 54.1542 166.165 57.1767 166.165 60.1993C158.479 60.1993 150.793 60.1993 143.107 60.1993C143.107 41.5602 143.107 22.9211 143.107 4.28198Z" fill="#29639E"/>
<path opacity="0.979" fill-rule="evenodd" clip-rule="evenodd" d="M168.672 4.28198C172.682 4.28198 176.692 4.28198 180.702 4.28198C180.618 19.8994 180.702 35.516 180.953 51.1316C181.79 52.2389 182.792 52.4071 183.96 51.6354C184.211 35.8518 184.295 20.0673 184.211 4.28198C188.388 4.28198 192.565 4.28198 196.742 4.28198C196.975 20.7589 196.724 37.215 195.99 53.6504C195.072 57.2608 192.816 59.5278 189.223 60.4512C183.522 61.8043 178.008 61.3005 172.682 58.9399C170.452 57.2286 169.199 54.9617 168.923 52.1391C168.672 36.1876 168.588 20.2352 168.672 4.28198Z" fill="#29639E"/>
</g>
<defs>
<clipPath id="clip0_6_300">
<rect width="200" height="67" fill="white"/>
</clipPath>
</defs>
</svg>
