<svg width="200" height="60" viewBox="0 0 200 60" fill="none" xmlns="http://www.w3.org/2000/svg">
<g clip-path="url(#clip0_8_400)">
<path d="M69.4363 1.04442H90.7842C101.422 1.04442 109.153 8.15671 109.153 19.2114C109.153 30.1964 101.493 37.5902 90.7842 37.5902H77.6635V58.9966H69.4363V1.04442ZM89.5079 30.5482C96.5281 30.5482 100.855 26.1829 100.855 19.2114C100.855 12.2406 96.5289 8.15597 89.578 8.15597H77.6635V30.5482H89.5079ZM113.195 1.04442H147.095V8.08561H121.352V26.2533H142.274V33.2945H121.352V51.9547H148.516V58.9966H113.198L113.195 1.04442ZM152.982 1.04442H161.139V51.954H187.308V58.9959H152.982V1.04442ZM191.778 1.04442H200.005V58.9966H191.849V1.04369L191.778 1.04442ZM9.5788 16.043C9.5788 11.4659 13.9762 7.59236 20.1468 7.59236C24.1892 7.59236 27.6646 9.07139 29.9339 10.4097C32.0621 8.64923 34.3313 7.09983 36.6013 5.76225C35.8919 5.05864 30.2889 -0.0117188 20.1468 -0.0117188C9.15434 0.0586419 1.35233 7.17093 1.35233 16.254C1.35233 34.0692 29.6511 31.394 29.6511 43.927C29.6511 49.4195 25.0411 52.448 19.5799 52.448C10.9275 52.448 4.68603 46.1807 4.68603 46.1807L0.00585938 52.3769C0.00585938 52.3769 6.95525 59.9824 19.3666 59.9824C30.9267 59.9824 37.8769 52.5887 37.8769 43.6456C37.8769 24.8446 9.5788 28.0841 9.5788 16.0415V16.043Z" fill="black"/>
<path d="M56.5992 59.0759H63.7626V1.26514C59.9321 1.54731 42.4856 3.44851 30.6419 15.3482C19.4361 26.6858 15.2513 38.6559 13.6199 46.2607C12.4845 51.4015 11.9884 55.8371 11.7042 58.1612C11.7042 58.3019 11.5625 58.9359 11.5625 58.9359L11.7758 59.0063C15.8182 60.1328 19.8606 59.992 19.8606 59.992V59.7099C19.7897 57.8087 19.8606 45.6268 26.8107 33.867C34.1159 21.5451 38.3 18.7981 41.9172 16.2637C48.7972 11.4755 56.5276 10.7008 56.5276 10.7008V59.0766L56.5992 59.0759Z" fill="#E4101F"/>
</g>
<defs>
<clipPath id="clip0_8_400">
<rect width="200" height="60" fill="white"/>
</clipPath>
</defs>
</svg>
