<svg width="200" height="31" viewBox="0 0 200 31" fill="none" xmlns="http://www.w3.org/2000/svg">
<path d="M12.8286 30.8904C8.09358 30.8904 3.5788 29.2473 0.165173 26.1802C-0.0550576 25.9611 -0.0550576 25.742 0.165173 25.523L3.90917 21.0318C4.0193 20.9223 4.1294 20.8127 4.23953 20.8127C4.34966 20.8127 4.45976 20.8127 4.5699 20.9223C7.43293 23.2226 10.0757 24.3181 12.9388 24.3181C15.2513 24.3181 16.6828 23.4417 16.6828 22.0177C16.6828 20.8127 16.3524 20.0459 11.177 18.7315C5.45078 17.3074 1.15623 15.6643 1.15623 9.42047C1.15623 3.94345 5.56091 0.109497 11.8376 0.109497C16.022 0.109497 19.8761 1.424 22.9594 3.94341C23.1796 4.05293 23.1796 4.38157 23.0695 4.60064L19.766 9.42043C19.6559 9.52999 19.5458 9.63951 19.4357 9.63951H19.3255C19.2154 9.63951 19.1053 9.63951 18.9952 9.52999C16.2423 7.66781 13.9298 6.7915 11.7274 6.7915C9.74533 6.7915 8.42395 7.55829 8.42395 8.87275C8.42395 10.4063 9.19477 10.954 14.3703 12.2685C20.0964 13.8021 23.9505 15.8834 23.9505 21.4699C24.0606 27.1661 19.6559 30.8904 12.8286 30.8904Z" fill="#010101"/>
<path d="M45.7533 31C36.9439 31 30.3369 24.318 30.3369 15.5548C30.3369 6.682 37.054 0 46.0836 0C51.0389 0 54.6728 1.42403 57.9763 4.60071C58.1965 4.81979 58.1965 5.03886 57.9763 5.25794L53.9019 9.9682C53.7918 10.0778 53.6817 10.0778 53.5716 10.1873C53.4615 10.1873 53.3513 10.1873 53.2412 10.0777C50.8186 7.88691 48.6163 6.90104 46.0836 6.90104C41.5688 6.90104 38.1552 10.6254 38.1552 15.4452C38.1552 20.4841 41.5688 24.2085 46.0836 24.2085C49.1669 24.2085 51.149 23.0035 53.4614 20.9223C53.5715 20.8127 53.6817 20.8127 53.7918 20.8127C53.9019 20.8127 54.012 20.8127 54.1221 20.9223L58.1965 24.9753C58.4167 25.1943 58.4167 25.4134 58.1965 25.6325C54.5627 29.4664 50.8187 31 45.7533 31Z" fill="#010101"/>
<path d="M83.9642 30.5619C83.744 30.5619 83.5238 30.3428 83.5238 30.1237V18.9506H72.6222V30.0141C72.6222 30.2332 72.402 30.4523 72.1817 30.4523H65.795C65.5747 30.4523 65.3545 30.2332 65.3545 30.0141V0.985885C65.3545 0.766807 65.5747 0.547729 65.795 0.547729H72.1817C72.402 0.547729 72.6222 0.766807 72.6222 0.985885V12.0495H83.5238V0.985885C83.5238 0.766807 83.744 0.547729 83.9642 0.547729H90.4611C90.6814 0.547729 90.9016 0.766807 90.9016 0.985885V30.0141C90.9016 30.2332 90.6814 30.4523 90.4611 30.4523H83.9642V30.5619Z" fill="#010101"/>
<path d="M114.467 6.90108C109.732 6.90108 106.208 10.6255 106.208 15.4453C106.208 20.4841 109.842 24.2085 114.577 24.2085C119.312 24.2085 122.836 20.4841 122.836 15.6643C122.836 10.6254 119.312 6.90108 114.467 6.90108ZM114.467 31C105.327 31 98.5 24.318 98.5 15.5548C98.5 6.79152 105.547 0 114.577 0C123.717 0 130.544 6.68196 130.544 15.4452C130.544 24.2085 123.497 31 114.467 31Z" fill="#010101"/>
<path d="M152.347 31C143.538 31 136.931 24.318 136.931 15.5548C136.931 6.682 143.648 0 152.677 0C157.633 0 161.267 1.42403 164.57 4.60071C164.79 4.81979 164.79 5.03886 164.57 5.25794L160.496 9.9682C160.386 10.0778 160.275 10.0778 160.165 10.1873C160.055 10.1873 159.945 10.1873 159.835 10.0777C157.412 7.88691 155.21 6.90104 152.677 6.90104C148.163 6.90104 144.749 10.6254 144.749 15.4452C144.749 20.4841 148.163 24.2085 152.677 24.2085C155.761 24.2085 157.743 23.0035 160.055 20.9223C160.165 20.8127 160.275 20.8127 160.386 20.8127C160.496 20.8127 160.606 20.8127 160.716 20.9223L164.79 24.9753C165.01 25.1943 165.01 25.4134 164.79 25.6325C161.156 29.4664 157.523 31 152.347 31Z" fill="#010101"/>
<path d="M179.325 30.0141C179.325 30.2332 179.105 30.4523 178.885 30.4523H172.498C172.278 30.4523 172.058 30.2332 172.058 30.0141V0.985885C172.058 0.766807 172.278 0.547729 172.498 0.547729H178.885C179.105 0.547729 179.325 0.766807 179.325 0.985885V30.0141Z" fill="#010101"/>
<path d="M191.769 30.5619C191.659 30.5619 191.438 30.4523 191.328 30.3428L180.537 15.6644C180.427 15.5549 180.427 15.4453 180.537 15.3357L191.328 0.65731C191.438 0.547752 191.548 0.438232 191.769 0.438232H199.477C199.697 0.438232 199.807 0.547752 199.917 0.65731C200.027 0.766868 200.027 0.985947 199.917 1.20502L189.346 15.4453L199.917 29.6856C200.027 29.7951 200.027 30.0142 199.917 30.2333C199.807 30.3428 199.697 30.4524 199.477 30.4524H191.769V30.5619Z" fill="#010101"/>
</svg>
