<svg width="200" height="49" viewBox="0 0 200 49" fill="none" xmlns="http://www.w3.org/2000/svg">
<path fill-rule="evenodd" clip-rule="evenodd" d="M34.25 2.77833C34.265 2.64116 34.3483 2.55697 34.5 2.52576C34.825 3.2353 34.825 3.90884 34.5 4.54638C34.5755 3.89995 34.492 3.31062 34.25 2.77833Z" fill="#F9F4A8"/>
<path d="M36.25 0C36.5387 5.70658 36.5805 11.4315 36.375 17.1748C36.1425 17.6932 35.7674 18.0722 35.25 18.3115C32.6258 19.7632 30.0425 21.2792 27.5 22.8584C27.1768 22.9821 26.8432 23.024 26.5 22.9844C26.4583 17.2588 26.5 11.5339 26.625 5.80957C29.7037 3.89847 32.7455 1.96176 35.75 0H36.25ZM34.25 2.77832C32.4655 3.97547 30.632 5.11246 28.75 6.18848C28.4747 6.79467 28.4329 7.42581 28.625 8.08203C30.5785 6.86499 32.5368 5.68618 34.5 4.5459C34.5754 3.89965 34.4919 3.31048 34.25 2.77832Z" fill="#F2E840"/>
<path d="M10.5 3.03088C11.0386 2.99858 11.5387 3.1249 12 3.40979C16.3959 6.11436 20.771 8.85091 25.125 11.6188C25.25 15.4062 25.2917 19.1947 25.25 22.984C24.9067 23.0236 24.5733 22.9818 24.25 22.858C20.0416 20.1846 15.7916 17.5745 11.5 15.028C11.2084 14.7333 10.9166 14.4388 10.625 14.1442C10.5 10.4407 10.4584 6.73628 10.5 3.03088ZM12 5.55627C11.917 8.08765 12.0004 10.6142 12.25 13.1344C12.6893 13.293 13.0646 13.5448 13.375 13.8912C13.583 11.3614 13.5414 8.8355 13.25 6.31409C12.7849 6.12215 12.3683 5.8695 12 5.55627Z" fill="#F7AD41"/>
<path fill-rule="evenodd" clip-rule="evenodd" d="M74.0001 6.31445C74.0416 8.75748 74.0001 11.1991 73.8751 13.6392C73.7279 13.0423 73.3529 12.7897 72.7501 12.8815C70.8796 12.6309 68.9631 12.5467 67.0001 12.6289C66.9171 22.1857 67.0006 31.6995 67.2501 41.1701C67.1824 41.645 67.3491 41.9817 67.7501 42.1804C64.8334 42.5171 61.9169 42.5171 59.0001 42.1804C59.4011 41.9817 59.5679 41.645 59.5001 41.1701C59.7496 31.6995 59.8331 22.1857 59.7501 12.6289C57.7041 12.5466 55.7041 12.6308 53.7501 12.8815C53.3684 12.863 53.1184 13.0314 53.0001 13.3866C52.7516 11.0751 52.6684 8.71773 52.7501 6.31445C59.8334 6.31445 66.9169 6.31445 74.0001 6.31445Z" fill="#565455"/>
<path fill-rule="evenodd" clip-rule="evenodd" d="M131 6.567C133.455 6.31594 135.955 6.23173 138.5 6.31442C138.458 10.8616 138.5 15.408 138.625 19.9536C138.804 19.8161 138.929 19.6477 139 19.4484C142.392 16.5453 146.059 16.1665 150 18.3118C151.796 19.7939 152.921 21.6882 153.375 23.9948C153.458 29.8882 153.542 35.7819 153.625 41.6752C153.833 41.8856 154.042 42.0963 154.25 42.3067C151.417 42.4752 148.583 42.4752 145.75 42.3067C145.958 42.0963 146.167 41.8856 146.375 41.6752C146.542 36.2026 146.542 30.7303 146.375 25.2577C145.007 22.7781 143.048 22.1466 140.5 23.3634C139.596 24.0561 138.971 24.9401 138.625 26.0155C138.458 31.067 138.458 36.1185 138.625 41.1701C138.675 41.6298 138.884 41.9665 139.25 42.1804C136.5 42.5171 133.75 42.5171 131 42.1804C131.204 41.9458 131.412 41.6932 131.625 41.4227C131.792 30.0567 131.792 18.6907 131.625 7.32473C131.531 6.96044 131.322 6.70786 131 6.567Z" fill="#575556"/>
<path fill-rule="evenodd" clip-rule="evenodd" d="M86.25 17.1752C86.8333 17.1752 87.4168 17.1752 88 17.1752C88.0818 19.7466 87.9985 22.2723 87.75 24.7525C87.5393 24.3299 87.206 24.0352 86.75 23.8685C83.94 23.4147 81.8983 24.4671 80.625 27.0257C80.218 31.8082 80.1345 36.6072 80.375 41.4226C80.4693 41.7868 80.6775 42.0394 81 42.1803C78.25 42.517 75.5 42.517 72.75 42.1803C73.1165 41.9664 73.325 41.6297 73.375 41.17C73.5418 33.5927 73.5418 26.0154 73.375 18.4381C73.0833 18.1434 72.7918 17.8487 72.5 17.554C75.082 17.4278 77.6653 17.3857 80.25 17.4277C80.2085 18.4415 80.2503 19.4519 80.375 20.4587C81.797 18.4137 83.7553 17.3192 86.25 17.1752Z" fill="#565555"/>
<path fill-rule="evenodd" clip-rule="evenodd" d="M122 17.1752C124 17.1752 126 17.1752 128 17.1752C128.041 19.2817 128 21.3865 127.875 23.4896C127.791 21.5532 127.708 19.6168 127.625 17.6803C127.5 19.2778 127.458 20.8774 127.5 22.4793C126.589 22.6259 125.672 22.7522 124.75 22.8582C125.333 22.9423 125.916 23.0266 126.5 23.1107C125.701 23.1563 124.951 23.2826 124.25 23.4896C119.862 24.6884 118.237 27.551 119.375 32.0772C120.208 34.4348 121.833 35.9081 124.25 36.4973C125.58 36.6234 126.914 36.6656 128.25 36.6236C128.25 38.7284 128.25 40.8333 128.25 42.9381C122.855 43.7175 118.313 42.1179 114.625 38.1391C112.295 34.8018 111.462 31.0975 112.125 27.0257C113.403 21.6509 116.694 18.3674 122 17.1752Z" fill="#575656"/>
<path fill-rule="evenodd" clip-rule="evenodd" d="M91.75 17.1752C91.4212 19.4732 91.4212 21.7464 91.75 23.9948C91.735 24.1319 91.6517 24.2161 91.5 24.2473C91.4167 23.0686 91.3333 21.89 91.25 20.7113C91.2518 19.4355 91.4182 18.2568 91.75 17.1752Z" fill="#828282"/>
<path fill-rule="evenodd" clip-rule="evenodd" d="M122 17.1752C124.037 16.9245 126.121 16.8403 128.25 16.9226C128.333 19.37 128.25 21.8116 128 24.2474C126.859 23.5586 125.609 23.306 124.25 23.4896C124.951 23.2827 125.701 23.1564 126.5 23.1108C125.917 23.0266 125.333 22.9424 124.75 22.8582C125.673 22.7522 126.59 22.6259 127.5 22.4793C127.459 20.8775 127.5 19.2778 127.625 17.6804C127.708 19.6168 127.792 21.5532 127.875 23.4896C128 21.3865 128.041 19.2817 128 17.1752C126 17.1752 124 17.1752 122 17.1752Z" fill="#676566"/>
<path d="M40.75 16.1652C41.5734 16.1043 42.3235 16.3143 43 16.796C45.9257 18.5251 48.7593 20.3774 51.5 22.3527C51.4353 22.6712 51.2684 22.9239 51 23.1105C46.3352 25.6143 41.6267 28.0145 36.875 30.3097C33.601 28.6553 30.4343 26.8022 27.375 24.7521C27.2485 24.3744 27.3734 24.0797 27.75 23.8683C32.1402 21.3575 36.4736 18.79 40.75 16.1652ZM42 18.4376C41.8175 18.7438 41.5674 18.9965 41.25 19.1954C43.1668 20.4162 45.0832 21.6377 47 22.8585C47.6494 22.8268 48.2328 22.5741 48.75 22.1007C46.635 20.6115 44.385 19.39 42 18.4376Z" fill="#97C122"/>
<path d="M165.001 16.7968C172.373 16.0026 176.748 19.2434 178.126 26.5204C178.251 28.1178 178.292 29.7175 178.251 31.3192H163.001C162.942 31.6453 163.025 31.8979 163.251 32.077C163.703 34.4303 165.037 36.0726 167.251 37.0028C169.518 37.5384 171.769 37.454 174.001 36.7499C174.287 36.587 174.538 36.377 174.751 36.119C175 38.3013 175.084 40.4902 175.001 42.6854C171.743 43.0355 168.493 42.9936 165.251 42.5594C158.892 40.3289 155.809 35.7821 156.001 28.9198C156.168 22.6946 159.168 18.6538 165.001 16.7968ZM171.25 26.7733C171.053 23.4611 169.303 21.9452 166 22.2264C164.197 23.1717 163.28 24.6877 163.25 26.7733H171.25Z" fill="#585657"/>
<path d="M14.875 18.6904C17.9621 20.3136 21.0038 22.0395 24 23.8682C24.2685 24.0547 24.4352 24.3075 24.5 24.626C19.8983 27.6241 15.1483 30.3605 10.25 32.835C6.80705 30.8843 3.39028 28.864 0 26.7734V26.2676C4.90817 23.6409 9.86661 21.1152 14.875 18.6904ZM3 26.8994C5.05092 28.1706 7.13436 29.3911 9.25 30.5615C9.70809 30.3726 10.1248 30.1199 10.5 29.8037C8.47361 28.4267 6.39011 27.1643 4.25 26.0156C3.84998 26.3045 3.43324 26.5991 3 26.8994Z" fill="#E83680"/>
<path d="M91.75 17.1753C95.6114 16.3969 99.4449 16.5232 103.25 17.5542C106.311 18.8801 108.187 21.1952 108.875 24.4995C108.958 30.1402 109.042 35.7817 109.125 41.4224C109.219 41.7866 109.428 42.0392 109.75 42.1802C107.462 42.4312 105.129 42.5157 102.75 42.4331C102.831 41.4089 102.748 40.3983 102.5 39.4019C102.348 39.4332 102.265 39.5176 102.25 39.6548C100.553 41.9213 98.261 43.0154 95.375 42.938C90.3438 42.4818 88.177 39.7036 88.875 34.603C89.6383 32.6537 90.9298 31.1802 92.75 30.1831C95.8436 28.8185 98.9271 27.4288 102 26.0151C102.347 24.9014 102.013 24.0176 101 23.3638C98.0766 21.8595 95.1599 21.8595 92.25 23.3638C92.0299 23.5426 91.8632 23.7527 91.75 23.9946C91.4213 21.7463 91.4213 19.4733 91.75 17.1753ZM97.5 32.9614C95.6658 34.0637 95.3322 35.4952 96.5 37.2554C98.4038 38.0202 100.029 37.6413 101.375 36.1187C102.334 34.3403 102.459 32.5716 101.75 30.814C100.356 31.5179 98.9397 32.2343 97.5 32.9614Z" fill="#575556"/>
<path d="M181.5 17.175C184.829 16.6111 188.163 16.5693 191.5 17.0491C195.812 17.9535 198.353 20.6055 199.125 25.0051C199.208 30.5618 199.292 36.1184 199.375 41.675C199.479 41.9922 199.688 42.1604 200 42.1799V42.4329H192.75C192.791 41.419 192.75 40.4084 192.625 39.4016C191.387 41.2389 189.678 42.3758 187.5 42.8118C184.765 43.4616 182.39 42.83 180.375 40.9172C177.504 36.2323 178.463 32.5696 183.25 29.9299C186.196 28.7365 189.112 27.4742 192 26.1418C192.399 25.193 192.232 24.3505 191.5 23.6155C190.601 22.9666 189.601 22.5457 188.5 22.3528C185.825 21.6923 183.533 22.3239 181.625 24.2473C181.5 21.8914 181.459 19.5339 181.5 17.175ZM191.75 30.8147C190.585 31.5716 189.335 32.2024 188 32.7083C185.795 33.9661 185.462 35.5665 187 37.5081C190.501 37.9703 192.251 36.4123 192.25 32.8352C192.245 32.0548 192.078 31.3812 191.75 30.8147Z" fill="#585657"/>
<path d="M26.5 25.7627C31.37 28.4557 36.1615 31.3186 40.875 34.3506C41.159 36.3461 41.284 38.3666 41.25 40.4121C41.248 42.3256 41.1647 44.2206 41 46.0957C38.2978 44.7285 35.631 43.2126 33 41.5488C30.8113 40.2542 28.6862 38.8654 26.625 37.3818C26.5 33.5098 26.4583 29.6365 26.5 25.7627ZM38.25 35.3604C38.167 37.8078 38.2505 40.2497 38.5 42.6855C38.8332 42.854 39.1668 43.022 39.5 43.1904C39.8332 40.7489 39.8332 38.3077 39.5 35.8662C39.1062 35.6247 38.6895 35.4556 38.25 35.3604Z" fill="#30AAE1"/>
<path d="M24.25 26.1415C24.5732 26.0178 24.9068 25.9759 25.25 26.0155C25.2917 31.741 25.25 37.4661 25.125 43.1903C22.0463 45.1012 19.0044 47.0382 16 48.9999H15.5C15.2112 43.2933 15.1696 37.5683 15.375 31.8251C15.5833 31.5725 15.7917 31.3198 16 31.0673C18.7499 29.4255 21.5001 27.7832 24.25 26.1415ZM23.25 40.9178C21.1753 42.0117 19.1753 43.1904 17.25 44.454C17.1747 45.1002 17.258 45.6895 17.5 46.2216C19.3679 44.9822 21.2848 43.8035 23.25 42.6854C23.5831 42.0964 23.583 41.5069 23.25 40.9178Z" fill="#91328A"/>
</svg>
