<svg width="200" height="67" viewBox="0 0 200 67" fill="none" xmlns="http://www.w3.org/2000/svg">
<path opacity="0.956" fill-rule="evenodd" clip-rule="evenodd" d="M2.50029 17.5875C5.05826 17.5318 7.61383 17.5876 10.167 17.755C10.3336 17.9225 10.5003 18.09 10.667 18.2575C13.2446 25.8057 15.689 33.399 18.0003 41.0375C20.6874 33.6059 23.243 26.1242 25.667 18.5925C25.9447 18.3134 26.2225 18.0342 26.5003 17.755C29.1739 17.4765 31.8406 17.5323 34.5003 17.9225C34.7226 18.1459 34.9446 18.3692 35.167 18.5925C37.8123 26.177 40.4233 33.7704 43.0003 41.3725C45.4446 33.7791 47.8893 26.1859 50.3336 18.5925C50.6113 18.3134 50.8893 18.0342 51.167 17.755C53.5083 17.4766 55.8416 17.5325 58.167 17.9225C58.349 18.3487 58.46 18.7954 58.5003 19.2625C55.3513 28.7011 51.907 38.0252 48.167 47.235C47.7763 47.3754 47.443 47.5985 47.167 47.905C44.167 48.1285 41.167 48.1285 38.167 47.905C37.5716 47.6421 37.0716 47.2515 36.667 46.7325C34.4446 40.4791 32.2225 34.226 30.0003 27.9725C27.955 34.2508 25.8439 40.5042 23.667 46.7325C23.2623 47.2515 22.7623 47.6421 22.167 47.905C19.167 48.1285 16.167 48.1285 13.167 47.905C12.69 47.7493 12.3011 47.4699 12.0003 47.0675C8.60139 38.0483 5.26806 29.0034 2.00029 19.9325C1.72256 19.0378 1.88923 18.2561 2.50029 17.5875Z" fill="#37323B"/>
<path opacity="0.963" fill-rule="evenodd" clip-rule="evenodd" d="M68.5001 17.5875C70.8361 17.5318 73.1694 17.5877 75.5001 17.755C75.9004 18.0574 76.1784 18.4482 76.3334 18.9275C76.5558 28.1959 76.5558 37.4641 76.3334 46.7325C76.1784 47.2119 75.9004 47.6025 75.5001 47.905C73.1668 48.1285 70.8334 48.1285 68.5001 47.905C68.1948 47.7797 67.9168 47.6122 67.6668 47.4025C67.3891 37.6855 67.4444 27.9706 67.8334 18.2575C68.1741 18.1384 68.3964 17.9151 68.5001 17.5875Z" fill="#37323B"/>
<path opacity="0.936" fill-rule="evenodd" clip-rule="evenodd" d="M85.4995 17.5876C90.9452 17.5318 96.3895 17.5876 101.833 17.7551C104.942 18.1635 107.831 19.1685 110.5 20.7701C113.14 23.6508 113.529 26.8333 111.666 30.3176C110.036 32.2262 107.98 33.3987 105.5 33.8351C107.196 34.8679 108.696 36.1523 110 37.6876C111.666 40.591 113.333 43.4941 115 46.3976C115.237 47.023 115.07 47.5255 114.5 47.9051C111.833 48.1285 109.166 48.1285 106.5 47.9051C104.679 45.3075 103.067 42.5715 101.666 39.6976C99.8115 36.6159 97.0892 35.2759 93.4995 35.6776C93.3522 33.9386 93.5189 32.2635 93.9995 30.6526C96.0425 31.0258 98.0982 30.97 100.166 30.4851C103.698 29.5859 104.642 27.5201 103 24.2876C102.06 23.611 101.116 23.2202 100.166 23.1151C94.8339 22.9476 89.5005 22.8918 84.1662 22.9476C84.1109 21.603 84.1665 20.263 84.3329 18.9276C84.7915 18.5239 85.1802 18.0772 85.4995 17.5876Z" fill="#E10536"/>
<path opacity="0.926" fill-rule="evenodd" clip-rule="evenodd" d="M125.834 17.5876C133.279 17.5318 140.723 17.5876 148.167 17.7551C149.471 19.4406 149.471 21.1156 148.167 22.7801C143.168 22.9475 138.168 23.0034 133.167 22.9476C133.112 25.2952 133.167 27.6402 133.334 29.9826C137.03 29.5962 140.753 29.5404 144.5 29.8151C145.634 30.2574 146.079 31.0949 145.834 32.3276C146.079 33.5604 145.634 34.3979 144.5 34.8401C140.753 35.1148 137.03 35.0588 133.334 34.6726C133.167 37.3502 133.112 40.0302 133.167 42.7126C138.168 42.6566 143.168 42.7126 148.167 42.8801C148.556 43.0476 148.834 43.3266 149 43.7176C149.336 45.1484 149.17 46.4884 148.5 47.7376C140.947 48.1282 133.392 48.1841 125.834 47.9051C125.474 47.5848 125.085 47.3058 124.667 47.0676C124.12 37.9318 124.009 28.775 124.334 19.5976C124.547 18.689 125.047 18.019 125.834 17.5876Z" fill="#37323B"/>
<path opacity="0.928" fill-rule="evenodd" clip-rule="evenodd" d="M159.167 17.5875C161.503 17.5318 163.836 17.5877 166.167 17.755C166.445 18.0342 166.723 18.3134 167 18.5925C167.276 26.4893 167.22 34.362 166.834 42.21C171.278 42.3216 175.723 42.4335 180.167 42.545C180.556 42.7125 180.834 42.9916 181 43.3825C181.342 44.9228 181.175 46.3747 180.5 47.7375C173.614 48.1281 166.725 48.1841 159.834 47.905C159.238 47.642 158.738 47.2514 158.334 46.7325C158.056 37.239 158.111 27.7472 158.5 18.2575C158.841 18.1384 159.063 17.9151 159.167 17.5875Z" fill="#37323B"/>
<path opacity="0.964" fill-rule="evenodd" clip-rule="evenodd" d="M189.833 17.5875C192.169 17.5318 194.502 17.5877 196.833 17.755C197 17.9225 197.166 18.09 197.333 18.2575C197.555 27.9725 197.555 37.6875 197.333 47.4025C197.083 47.6122 196.805 47.7797 196.5 47.905C194.277 48.1285 192.055 48.1285 189.833 47.905C189.528 47.7797 189.25 47.6122 189 47.4025C188.722 37.6855 188.777 27.9706 189.166 18.2575C189.507 18.1384 189.729 17.9151 189.833 17.5875Z" fill="#37323B"/>
</svg>
