<svg width="200" height="52" viewBox="0 0 200 52" fill="none" xmlns="http://www.w3.org/2000/svg">
<path fill-rule="evenodd" clip-rule="evenodd" d="M54.6763 0.012563C57.001 -0.0296445 59.322 0.0345006 61.6395 0.204998C63.0786 0.252594 64.411 0.637465 65.6368 1.35961C66.3744 1.99272 66.6537 2.78389 66.475 3.73298C65.9726 5.00229 65.1775 6.04991 64.0895 6.8761C62.3493 8.06265 60.587 9.21727 58.8026 10.3399C43.0372 18.7628 27.2627 27.1873 11.4789 35.6131C9.69533 36.554 8.08348 37.73 6.6434 39.1411C6.25205 39.8683 6.44547 40.36 7.22366 40.6165C15.5559 41.8773 23.9374 42.6043 32.3684 42.7974C45.7008 43.1503 58.9824 42.5089 72.2131 40.873C76.0817 40.2847 79.907 39.515 83.6895 38.5638C84.8907 38.3878 86.0513 38.5161 87.171 38.9487C87.4986 39.2316 87.778 39.5523 88.0092 39.9109C88.1069 40.2019 88.0854 40.48 87.9447 40.7447C83.0844 42.1738 78.1415 43.2428 73.1158 43.952C59.2503 45.7977 45.324 46.4819 31.3368 46.0046C23.8334 45.9696 16.3544 45.542 8.89998 44.7217C7.12553 44.494 5.36321 44.1946 3.61314 43.8237C2.31502 43.6084 1.21897 43.0311 0.32498 42.0918C0.00983243 41.398 -0.0760465 40.6711 0.0670851 39.9109C0.823877 38.3435 1.91993 37.0393 3.35524 35.998C8.14177 32.7612 13.1278 29.8534 18.3131 27.2743C29.8713 21.5031 41.4337 15.6872 53 9.82677C55.0081 8.72745 56.9852 7.57284 58.9316 6.36293C59.7051 5.86093 60.4143 5.28363 61.0592 4.63101C61.2472 4.0818 61.0968 3.67564 60.6079 3.41226C60.2725 3.29423 59.9286 3.20866 59.5763 3.15568C53.9633 3.03265 48.4186 3.58853 42.9421 4.82345C37.01 6.17178 31.2074 7.92513 25.5342 10.0834C24.2425 10.4614 23.0391 10.2904 21.9237 9.57019C21.3482 9.13349 21.1332 8.57761 21.2789 7.90242C32.0209 3.64805 43.1533 1.0181 54.6763 0.012563Z" fill="#2D2F36"/>
<path d="M81.1104 2.70703C81.9897 2.83309 82.5266 3.3459 82.7217 4.24609C83.0034 5.66988 82.5523 6.80292 81.3682 7.64551C79.3113 9.13586 77.2911 10.676 75.3076 12.2646C69.252 17.4572 63.1483 22.5885 56.9971 27.6592C56.116 28.3647 55.3205 29.1557 54.6113 30.0322C54.5049 30.3146 54.5694 30.5502 54.8047 30.7383C55.6664 30.781 56.5263 30.7375 57.3838 30.6094C61.0782 29.9364 64.7323 29.0814 68.3447 28.0439C68.9675 27.8374 69.5689 27.5809 70.1494 27.2744C71.2205 26.357 72.3379 25.5011 73.502 24.708C76.1976 23.1343 78.6052 23.4765 80.7236 25.7344C81.267 26.0261 81.8253 26.2835 82.3994 26.5049C84.1837 26.6573 85.9461 26.5281 87.6865 26.1191C89.208 25.7 90.7121 25.2297 92.1992 24.708C92.9294 24.5653 93.553 24.7586 94.0693 25.2861C94.1962 25.5254 94.2608 25.782 94.2627 26.0557C94.1102 26.9192 93.9169 27.7744 93.6826 28.6211C93.5628 29.1014 93.6272 29.551 93.876 29.9688C94.0344 30.0688 94.2063 30.1331 94.3916 30.1611C98.1064 28.6127 101.76 26.9236 105.353 25.0938C106.229 24.6585 107.132 24.5728 108.061 24.8369C108.681 25.3571 108.875 26.02 108.641 26.8252C108.397 27.6042 108.203 28.3953 108.061 29.1982C108.089 29.7043 108.346 30.0258 108.834 30.1611C112.573 28.4296 116.311 26.6971 120.052 24.9648C120.966 24.528 121.869 24.5498 122.76 25.0293C123.088 25.3189 123.26 25.6821 123.275 26.1191C123.006 27.4255 122.728 28.7301 122.438 30.0322C122.119 31.6808 122.785 32.2586 124.437 31.7646C125.536 31.6991 126.568 31.3992 127.531 30.8662C127.816 30.626 128.052 30.3478 128.24 30.0322C129.099 26.0988 131.55 24.0034 135.591 23.7461C138.83 23.977 139.474 25.3881 137.524 27.9795C137.031 28.4712 136.536 28.9634 136.042 29.4551C135.075 30.0751 134.108 30.6954 133.141 31.3154C133.025 31.6394 133.089 31.9175 133.334 32.1494C134.91 32.3077 136.457 32.1794 137.976 31.7646C145.706 29.5445 152.754 26.0372 159.123 21.2441C166.554 15.5638 173.604 9.40604 180.271 2.77051C180.744 2.72088 181.108 2.91349 181.366 3.34766C182.02 4.52818 181.913 5.64034 181.044 6.68359C172.781 13.2673 164.722 20.1094 156.866 27.21C156.371 27.6832 156.005 28.2394 155.771 28.8779C155.774 29.074 155.861 29.224 156.028 29.3271C156.511 29.4054 156.983 29.3621 157.447 29.1982C158.966 28.6781 160.47 28.1227 161.96 27.5312C163.97 26.5845 165.969 25.6221 167.956 24.6445C168.4 24.8645 168.593 25.2276 168.536 25.7344C168.47 26.315 168.277 26.8497 167.956 27.3379C167.1 27.9459 166.175 28.4378 165.184 28.8135C164.295 29.1854 164.058 29.8057 164.475 30.6738C165.388 31.2901 166.397 31.6539 167.505 31.7646C168.627 31.8547 169.745 31.8112 170.857 31.6357C172.972 30.8917 175.078 30.1225 177.176 29.3271C178.633 28.7613 180.138 28.5474 181.689 28.6855C182.293 28.8588 182.744 29.2227 183.043 29.7764C183.13 29.9409 183.11 30.0902 182.979 30.2246C181.052 30.7146 179.118 31.1848 177.176 31.6357C174.873 32.3709 172.552 33.0553 170.213 33.6885C168.364 33.8595 166.558 33.6455 164.797 33.0469C163.456 32.6451 162.124 32.2181 160.8 31.7646C159.717 31.653 158.642 31.6954 157.576 31.8926C155.311 32.6441 153.053 33.3926 150.806 34.1377C149.725 34.2339 149.103 33.7635 148.937 32.7266C149.154 31.9947 149.477 31.3104 149.903 30.6738C150.03 30.3866 150.094 30.0876 150.097 29.7764C146.386 31.0568 142.647 32.2756 138.879 33.4326C136.371 34.1777 133.834 34.3059 131.271 33.8174C130.685 33.576 130.17 33.2336 129.724 32.791C129.595 32.7696 129.465 32.748 129.336 32.7266C127.833 33.3175 126.285 33.7663 124.694 34.0732C123.227 34.1865 121.765 34.1441 120.311 33.9453C119.734 33.6704 119.282 33.2641 118.956 32.7266C118.803 32.0102 118.718 31.2833 118.698 30.5459C118.113 29.9491 117.403 29.7568 116.57 29.9688C115.606 30.2599 114.661 30.6021 113.733 30.9951C111.413 32.0214 109.091 33.047 106.771 34.0732C106.045 34.3849 105.314 34.4282 104.578 34.2021C104.269 33.9517 104.076 33.6302 103.998 33.2393C103.999 32.2946 104.043 31.3536 104.127 30.417C104.011 30.2631 103.86 30.1563 103.676 30.0967C103.074 30.0111 102.472 30.0111 101.87 30.0967C98.7753 31.2726 95.724 32.5557 92.7158 33.9453C91.7998 34.4041 90.8538 34.4899 89.8789 34.2021C89.2436 33.7184 88.985 33.0765 89.1045 32.2773C89.1226 31.6044 89.2085 30.9416 89.3623 30.2891C89.3524 29.4876 88.9659 28.9532 88.2021 28.6855C85.9123 28.3403 83.6774 28.5543 81.4971 29.3271C80.8607 29.6615 80.2585 30.046 79.6914 30.4814C78.6551 31.4699 77.5805 32.4107 76.4678 33.3037C75.198 34.0899 73.8227 34.432 72.3418 34.3301C71.3005 34.102 70.6339 33.4818 70.3428 32.4697C70.2998 31.6574 70.2568 30.8446 70.2139 30.0322C70.024 29.839 69.7876 29.7541 69.5049 29.7764C64.6838 31.2825 59.8266 32.6718 54.9336 33.9453C53.9945 34.1367 53.0488 34.2865 52.0967 34.3945C49.9634 34.128 49.039 32.9299 49.3242 30.8018C50.1911 29.5111 51.2443 28.3781 52.4834 27.4023C62.5075 19.7625 72.0503 11.5312 81.1104 2.70703ZM76.0811 26.0557C75.3441 26.3506 74.7213 26.8211 74.2119 27.4668C73.5035 28.2338 73.2018 29.1321 73.3086 30.1611C73.5445 30.8868 74.0394 31.1217 74.792 30.8662C76.0317 30.2312 76.9132 29.2687 77.4355 27.9795C77.8508 26.7069 77.399 26.0657 76.0811 26.0557ZM136.3 25.7344C135.672 25.5563 135.027 25.4922 134.365 25.542C134.048 25.7204 133.704 25.8704 133.334 25.9912C131.97 26.7182 131.325 27.8514 131.399 29.3906C131.704 29.4115 132.005 29.3909 132.303 29.3271C133.746 28.7043 135.013 27.8277 136.106 26.6973C136.409 26.4143 136.474 26.0928 136.3 25.7344Z" fill="#2D2F36"/>
<path fill-rule="evenodd" clip-rule="evenodd" d="M141.329 44.1443C141.458 44.1443 141.587 44.1443 141.716 44.1443C141.716 44.4009 141.716 44.6574 141.716 44.914C141.029 45.0636 140.362 45.2773 139.717 45.5555C139.613 45.2888 139.635 45.0322 139.782 44.7857C140.31 44.5687 140.826 44.3548 141.329 44.1443Z" fill="#393B42"/>
<path fill-rule="evenodd" clip-rule="evenodd" d="M165.958 44.1443C166.25 44.3615 166.293 44.6395 166.087 44.9782C165.451 45.2104 164.806 45.4028 164.152 45.5555C164.114 45.2856 164.156 45.029 164.281 44.7857C164.882 44.6279 165.442 44.4141 165.958 44.1443Z" fill="#3D3E45"/>
<path fill-rule="evenodd" clip-rule="evenodd" d="M191.231 44.2728C191.493 44.252 191.751 44.2735 192.005 44.337C192.276 44.9131 192.576 44.9131 192.908 44.337C193.208 44.2514 193.51 44.2514 193.81 44.337C193.386 44.7205 192.955 45.1054 192.521 45.4916C192.294 45.5939 192.079 45.5725 191.876 45.4274C191.596 45.0673 191.381 44.6824 191.231 44.2728Z" fill="#3D3F46"/>
<path fill-rule="evenodd" clip-rule="evenodd" d="M106.771 51.8417C106.513 51.8417 106.255 51.8417 105.997 51.8417C105.997 51.7134 105.997 51.5852 105.997 51.4569C106.384 49.7471 106.77 48.0365 107.158 46.3253C107.47 46.2857 107.771 46.3286 108.06 46.4535C107.59 48.2413 107.16 50.0373 106.771 51.8417Z" fill="#31333A"/>
<path fill-rule="evenodd" clip-rule="evenodd" d="M113.734 51.8419C113.176 51.904 112.66 51.8186 112.186 51.5853C112.014 50.1298 111.821 48.6758 111.606 47.2235C111.1 48.7249 110.713 50.2643 110.446 51.8419C110.182 51.9603 109.903 52.0031 109.607 51.9702C109.993 50.0918 110.38 48.2103 110.768 46.3254C111.327 46.3254 111.886 46.3254 112.444 46.3254C112.531 47.8748 112.703 49.4143 112.96 50.9439C113.415 49.4249 113.759 47.8854 113.992 46.3254C114.292 46.3254 114.593 46.3254 114.894 46.3254C114.494 48.1614 114.107 50.0002 113.734 51.8419Z" fill="#33353C"/>
<path fill-rule="evenodd" clip-rule="evenodd" d="M118.118 51.8417C117.861 51.8417 117.603 51.8417 117.345 51.8417C117.345 51.7134 117.345 51.5852 117.345 51.4569C117.645 50.003 117.947 48.5489 118.247 47.095C117.861 47.095 117.474 47.095 117.087 47.095C117.087 46.8384 117.087 46.5818 117.087 46.3253C118.336 46.2827 119.583 46.3255 120.826 46.4535C120.722 46.6551 120.679 46.8689 120.697 47.095C120.182 47.095 119.666 47.095 119.15 47.095C118.901 48.712 118.557 50.2942 118.118 51.8417Z" fill="#31333A"/>
<path fill-rule="evenodd" clip-rule="evenodd" d="M123.405 48.5064C123.335 48.5141 123.291 48.5568 123.276 48.6347C123.93 48.6824 124.532 48.8107 125.081 49.0195C125.081 49.1051 125.081 49.1905 125.081 49.2761C124.424 49.3558 123.779 49.4412 123.147 49.5327C123.001 49.9009 122.915 50.2858 122.889 50.6873C122.769 50.8243 122.725 50.9953 122.76 51.2005C123.534 51.2005 124.307 51.2005 125.081 51.2005C124.973 51.4415 124.93 51.6981 124.952 51.9702C123.878 51.9702 122.803 51.9702 121.729 51.9702C122.115 50.0891 122.502 48.2075 122.889 46.3254C123.963 46.3254 125.039 46.3254 126.113 46.3254C126.131 46.5515 126.088 46.7653 125.984 46.9669C125.21 47.0525 124.436 47.1379 123.663 47.2235C123.495 47.635 123.409 48.0626 123.405 48.5064Z" fill="#31333A"/>
<path fill-rule="evenodd" clip-rule="evenodd" d="M134.494 51.8417C134.236 51.8417 133.979 51.8417 133.721 51.8417C133.721 51.6707 133.721 51.4995 133.721 51.3285C134.046 49.7384 134.411 48.1562 134.817 46.5818C135.098 46.3076 135.42 46.2648 135.784 46.4535C135.273 48.2316 134.843 50.0277 134.494 51.8417Z" fill="#32343B"/>
<path fill-rule="evenodd" clip-rule="evenodd" d="M139.008 48.3778C138.892 48.4688 138.848 48.5971 138.879 48.7627C139.54 48.6854 140.142 48.7709 140.685 49.0193C140.685 49.062 140.685 49.1049 140.685 49.1476C140.054 49.3472 139.409 49.4755 138.75 49.5325C138.587 49.841 138.502 50.1831 138.493 50.5588C138.37 50.7408 138.328 50.9546 138.364 51.2002C139.15 51.1211 139.88 51.2066 140.556 51.4568C140.556 51.5424 140.556 51.6278 140.556 51.7134C140.008 51.7952 139.448 51.838 138.879 51.8417C138.313 51.8405 137.798 51.755 137.332 51.5851C137.719 49.8747 138.106 48.1641 138.493 46.4535C139.564 46.3255 140.638 46.2827 141.716 46.3252C141.674 46.5818 141.63 46.8384 141.587 47.0949C140.812 47.0736 140.039 47.0951 139.266 47.1591C139.09 47.5436 139.004 47.9499 139.008 48.3778Z" fill="#2E3037"/>
<path fill-rule="evenodd" clip-rule="evenodd" d="M156.674 46.3254C156.932 46.3254 157.19 46.3254 157.448 46.3254C157.448 47.9076 157.448 49.49 157.448 51.0722C157.576 51.0722 157.705 51.0722 157.834 51.0722C158.462 49.5219 159.129 47.9824 159.833 46.4537C160.143 46.3124 160.465 46.2909 160.8 46.3896C159.966 48.1574 159.148 49.9321 158.35 51.7136C157.803 51.8337 157.245 51.8764 156.674 51.8419C156.674 50.0031 156.674 48.1642 156.674 46.3254Z" fill="#303239"/>
<path fill-rule="evenodd" clip-rule="evenodd" d="M162.993 50.8154C162.876 50.9063 162.833 51.0346 162.864 51.2002C163.637 51.2002 164.411 51.2002 165.185 51.2002C165.115 51.4077 165.072 51.6215 165.056 51.8417C164.024 51.8417 162.993 51.8417 161.961 51.8417C161.961 51.6707 161.961 51.4995 161.961 51.3285C162.358 49.6714 162.702 48.0036 162.993 46.3252C164.113 46.2827 165.231 46.3255 166.345 46.4535C166.241 46.655 166.198 46.8689 166.216 47.0949C165.4 47.0949 164.582 47.0949 163.766 47.0949C163.667 47.6484 163.581 48.2043 163.508 48.7627C164.112 48.7414 164.714 48.7628 165.314 48.8269C165.196 49.0448 165.154 49.2801 165.185 49.5325C164.535 49.4905 163.89 49.5332 163.25 49.6607C163.103 50.0327 163.017 50.4175 162.993 50.8154Z" fill="#303239"/>
<path fill-rule="evenodd" clip-rule="evenodd" d="M179.24 46.3254C179.24 47.9505 179.24 49.5754 179.24 51.2005C179.406 51.2309 179.535 51.1882 179.626 51.0722C180.241 49.5052 180.93 47.9658 181.69 46.4537C181.99 46.2827 182.292 46.2827 182.592 46.4537C181.666 48.2515 180.85 50.0902 180.142 51.9702C179.584 51.9702 179.024 51.9702 178.466 51.9702C178.466 50.0886 178.466 48.2071 178.466 46.3254C178.724 46.3254 178.982 46.3254 179.24 46.3254Z" fill="#31333A"/>
<path fill-rule="evenodd" clip-rule="evenodd" d="M184.785 50.8154C184.668 50.9063 184.625 51.0346 184.656 51.2002C185.429 51.2002 186.203 51.2002 186.977 51.2002C186.907 51.4077 186.864 51.6215 186.848 51.8417C185.816 51.8417 184.785 51.8417 183.753 51.8417C183.753 51.6707 183.753 51.4995 183.753 51.3285C184.158 49.6726 184.502 48.0048 184.785 46.3252C185.905 46.2827 187.023 46.3255 188.137 46.4535C188.033 46.655 187.99 46.8689 188.008 47.0949C187.192 47.0949 186.374 47.0949 185.558 47.0949C185.431 47.6008 185.345 48.114 185.3 48.6344C185.908 48.5925 186.51 48.6353 187.106 48.7627C186.996 49.0076 186.953 49.2642 186.977 49.5325C186.327 49.4905 185.682 49.5332 185.042 49.6607C184.895 50.0327 184.809 50.4175 184.785 50.8154Z" fill="#31333A"/>
<path fill-rule="evenodd" clip-rule="evenodd" d="M196.648 51.0721C197.41 51.1176 198.14 51.2458 198.84 51.457C198.871 51.6226 198.827 51.7509 198.711 51.8419C197.679 51.8419 196.648 51.8419 195.616 51.8419C195.616 51.7136 195.616 51.5853 195.616 51.457C195.981 49.794 196.346 48.1262 196.712 46.4537C197.797 46.3276 198.893 46.2847 200 46.3254C199.958 46.582 199.914 46.8386 199.871 47.0951C199.055 47.0951 198.238 47.0951 197.421 47.0951C197.378 47.5734 197.291 48.0439 197.164 48.5063C197.759 48.6337 198.362 48.6766 198.969 48.6346C198.906 48.9305 198.862 49.2298 198.84 49.5327C198.195 49.5327 197.55 49.5327 196.906 49.5327C196.778 50.0385 196.693 50.5517 196.648 51.0721Z" fill="#32333A"/>
<path d="M151.645 46.197C153.671 46.0978 154.467 47.0386 154.03 49.0193C153.891 50.3439 153.225 51.3062 152.031 51.906C149.795 52.2024 148.957 51.24 149.517 49.0193C149.762 47.7137 150.471 46.7729 151.645 46.197ZM152.998 47.3513C152.669 47.007 152.262 46.8787 151.773 46.9666C151.535 47.1632 151.297 47.3772 151.063 47.6082C150.499 48.5643 150.285 49.5908 150.419 50.6873C150.48 50.8708 150.587 51.0206 150.741 51.1365C151.187 51.2413 151.619 51.1978 152.031 51.0076C152.922 49.9571 153.244 48.7381 152.998 47.3513Z" fill="#33343B"/>
<path fill-rule="evenodd" clip-rule="evenodd" d="M123.405 48.5063C123.982 48.6328 124.584 48.6756 125.211 48.6346C125.242 48.8003 125.198 48.9286 125.082 49.0195C124.532 48.8107 123.93 48.6824 123.276 48.6346C123.292 48.5568 123.336 48.514 123.405 48.5063Z" fill="#78797E"/>
<path fill-rule="evenodd" clip-rule="evenodd" d="M139.008 48.3779C139.551 48.6263 140.153 48.7119 140.813 48.6345C140.844 48.8001 140.8 48.9284 140.684 49.0194C140.141 48.771 139.539 48.6854 138.879 48.7628C138.848 48.5972 138.892 48.4689 139.008 48.3779Z" fill="#95979A"/>
<path d="M190.522 46.4536C191.35 46.307 192.189 46.2852 193.037 46.3892C193.651 46.6901 193.909 47.1822 193.811 47.8647C193.844 48.3295 193.736 48.7575 193.488 49.1479C193.198 49.4723 192.876 49.7505 192.521 49.9819C192.728 50.638 192.899 51.301 193.037 51.9702H192.134C192.025 51.3239 191.897 50.682 191.747 50.0454C191.351 50.0048 190.965 50.0481 190.587 50.1743C190.417 50.7219 190.288 51.2775 190.2 51.8413H189.427V51.3286C189.832 49.714 190.196 48.0889 190.522 46.4536ZM192.521 48.9556C193.383 47.4419 192.953 46.8217 191.231 47.0952C191.162 47.6113 191.077 48.1243 190.974 48.6343C190.851 48.8163 190.809 49.0302 190.845 49.2759C191.258 49.3156 191.645 49.2732 192.005 49.1479C192.188 49.1211 192.362 49.057 192.521 48.9556Z" fill="#31333A"/>
<path fill-rule="evenodd" clip-rule="evenodd" d="M125.082 49.2761C124.494 49.5253 123.849 49.6107 123.147 49.5327C123.779 49.4412 124.424 49.3558 125.082 49.2761Z" fill="#64656B"/>
<path fill-rule="evenodd" clip-rule="evenodd" d="M140.684 49.1477C140.684 49.276 140.684 49.4043 140.684 49.5326C140.039 49.5326 139.395 49.5326 138.75 49.5326C139.409 49.4756 140.054 49.3473 140.684 49.1477Z" fill="#67686E"/>
<path fill-rule="evenodd" clip-rule="evenodd" d="M156.674 46.3254C156.674 48.1642 156.674 50.0031 156.674 51.8419C157.245 51.8764 157.804 51.8337 158.35 51.7136C157.808 51.962 157.205 52.0476 156.545 51.9702C156.503 50.066 156.545 48.1844 156.674 46.3254Z" fill="#797A7E"/>
<path fill-rule="evenodd" clip-rule="evenodd" d="M179.239 46.3254C179.283 47.9334 179.412 49.5156 179.626 51.0722C179.535 51.1882 179.406 51.2309 179.239 51.2005C179.239 49.5754 179.239 47.9505 179.239 46.3254Z" fill="#A4A5A8"/>
<path fill-rule="evenodd" clip-rule="evenodd" d="M122.89 50.6873C122.89 50.8155 122.89 50.9438 122.89 51.0721C123.645 51.0308 124.375 51.0735 125.082 51.2004C124.308 51.2004 123.534 51.2004 122.761 51.2004C122.726 50.9953 122.77 50.8243 122.89 50.6873Z" fill="#929497"/>
<path fill-rule="evenodd" clip-rule="evenodd" d="M138.492 50.5588C138.492 50.7298 138.492 50.901 138.492 51.072C139.223 51.072 139.953 51.072 140.684 51.072C140.715 51.2376 140.671 51.3659 140.555 51.4569C139.879 51.2067 139.15 51.1211 138.363 51.2003C138.327 50.9546 138.369 50.7409 138.492 50.5588Z" fill="#98999C"/>
<path fill-rule="evenodd" clip-rule="evenodd" d="M162.992 50.8154C163.692 51.0266 164.422 51.1549 165.184 51.2003C164.411 51.2003 163.637 51.2003 162.863 51.2003C162.832 51.0347 162.876 50.9064 162.992 50.8154Z" fill="#909295"/>
<path d="M172.276 46.3252C173.094 46.3039 173.912 46.3255 174.727 46.3896C175.242 46.4754 175.607 46.7535 175.822 47.2236C176.117 48.9523 175.623 50.3853 174.34 51.5215C174.023 51.7219 173.679 51.8501 173.308 51.9062C172.578 51.9702 171.848 51.991 171.116 51.9697C171.463 50.0785 171.85 48.1968 172.276 46.3252ZM174.791 47.3516C174.235 47.0739 173.655 47.0316 173.05 47.2236C172.709 48.4052 172.452 49.6024 172.276 50.8154C172.16 50.9064 172.117 51.0346 172.147 51.2002C172.561 51.2399 172.948 51.1975 173.308 51.0723L173.401 51.0732C173.616 51.0645 173.8 50.9782 173.952 50.8154C174.559 50.0075 174.904 49.0883 174.984 48.0576C174.979 47.8053 174.915 47.5695 174.791 47.3516Z" fill="#32343B"/>
<path fill-rule="evenodd" clip-rule="evenodd" d="M184.784 50.8154C185.484 51.0266 186.214 51.1549 186.976 51.2003C186.203 51.2003 185.429 51.2003 184.655 51.2003C184.624 51.0347 184.668 50.9064 184.784 50.8154Z" fill="#909295"/>
<path fill-rule="evenodd" clip-rule="evenodd" d="M196.647 51.072C197.421 51.072 198.195 51.072 198.969 51.072C198.999 51.2376 198.956 51.3659 198.84 51.4569C198.139 51.2457 197.41 51.1174 196.647 51.072Z" fill="#989A9D"/>
<path fill-rule="evenodd" clip-rule="evenodd" d="M105.997 51.457C105.997 51.5853 105.997 51.7136 105.997 51.8419C106.255 51.8419 106.513 51.8419 106.771 51.8419C106.499 51.9661 106.198 52.0089 105.868 51.9702C105.833 51.7651 105.876 51.594 105.997 51.457Z" fill="#808185"/>
<path fill-rule="evenodd" clip-rule="evenodd" d="M112.187 51.5852C112.66 51.8184 113.176 51.9039 113.734 51.8418C113.244 51.9679 112.728 52.0107 112.187 51.9701C112.187 51.8418 112.187 51.7135 112.187 51.5852Z" fill="#7D7E83"/>
<path fill-rule="evenodd" clip-rule="evenodd" d="M117.345 51.457C117.345 51.5853 117.345 51.7136 117.345 51.8419C117.603 51.8419 117.86 51.8419 118.118 51.8419C117.846 51.9661 117.546 52.0089 117.216 51.9702C117.181 51.7651 117.225 51.594 117.345 51.457Z" fill="#85868A"/>
<path d="M128.563 46.3252C129.519 46.2806 130.464 46.3447 131.4 46.5176C131.6 46.6732 131.751 46.8658 131.852 47.0947C132.158 48.384 131.749 49.3464 130.626 49.9814C130.826 50.5005 130.955 51.0351 131.013 51.585C130.898 51.73 130.755 51.8181 130.582 51.8486C130.513 51.8609 130.439 51.8645 130.36 51.8584C130.321 51.8554 130.281 51.8494 130.239 51.8418C130.063 51.268 129.934 50.6693 129.853 50.0459C129.43 50.0095 129.022 50.0519 128.628 50.1738C128.478 50.7663 128.371 51.3657 128.306 51.9707H127.402C127.821 50.0968 128.209 48.2144 128.563 46.3252ZM130.884 47.2881C130.386 47.1145 129.871 47.0493 129.337 47.0947C129.158 47.8125 129.029 48.5402 128.95 49.2764C130.469 49.4115 131.113 48.7486 130.884 47.2881Z" fill="#32343B"/>
<path fill-rule="evenodd" clip-rule="evenodd" d="M133.721 51.3286C133.721 51.4996 133.721 51.6708 133.721 51.8418C133.979 51.8418 134.237 51.8418 134.495 51.8418C134.223 51.966 133.923 52.0088 133.592 51.9701C133.556 51.7244 133.599 51.5107 133.721 51.3286Z" fill="#75777C"/>
<path fill-rule="evenodd" clip-rule="evenodd" d="M137.332 51.5852C137.797 51.7551 138.313 51.8406 138.879 51.8418C139.448 51.8381 140.008 51.7953 140.556 51.7135C139.489 51.9662 138.371 52.0517 137.203 51.9701C137.172 51.8045 137.216 51.6762 137.332 51.5852Z" fill="#696A70"/>
<path d="M144.166 46.3254C144.941 46.3042 145.715 46.3259 146.487 46.3899C146.941 46.4546 147.263 46.6894 147.454 47.095C147.534 47.7008 147.491 48.2996 147.325 48.8909C146.955 49.2594 146.588 49.6232 146.229 49.9817C146.324 50.5283 146.454 51.0628 146.616 51.5852C146.433 51.8172 146.174 51.903 145.842 51.842C145.675 51.3005 145.503 50.7445 145.326 50.1741C144.948 50.0479 144.562 50.0055 144.166 50.0461C144.059 50.5984 143.974 51.154 143.908 51.7131C143.546 51.9284 143.245 51.886 143.005 51.5852C143.441 49.8439 143.828 48.0908 144.166 46.3254ZM146.293 48.7629C146.938 47.3292 146.487 46.8164 144.939 47.2239C144.745 47.8087 144.616 48.4075 144.553 49.0198C144.483 49.0275 144.439 49.0699 144.424 49.1477C144.872 49.3152 145.302 49.3152 145.713 49.1477C145.954 49.1017 146.147 48.9733 146.293 48.7629Z" fill="#31333A"/>
<path fill-rule="evenodd" clip-rule="evenodd" d="M161.961 51.3286C161.961 51.4996 161.961 51.6708 161.961 51.8418C162.992 51.8418 164.024 51.8418 165.055 51.8418C164.005 51.9692 162.93 52.0119 161.832 51.9701C161.796 51.7244 161.838 51.5107 161.961 51.3286Z" fill="#626369"/>
<path fill-rule="evenodd" clip-rule="evenodd" d="M183.753 51.3286C183.753 51.4996 183.753 51.6708 183.753 51.8418C184.784 51.8418 185.816 51.8418 186.847 51.8418C185.797 51.9692 184.722 52.0119 183.624 51.9701C183.588 51.7244 183.63 51.5107 183.753 51.3286Z" fill="#78797E"/>
<path fill-rule="evenodd" clip-rule="evenodd" d="M189.427 51.3286C189.427 51.4996 189.427 51.6708 189.427 51.8418C189.684 51.8418 189.942 51.8418 190.2 51.8418C189.928 51.966 189.628 52.0088 189.298 51.9701C189.261 51.7244 189.304 51.5107 189.427 51.3286Z" fill="#75777C"/>
<path fill-rule="evenodd" clip-rule="evenodd" d="M195.616 51.457C195.616 51.5853 195.616 51.7136 195.616 51.8419C196.648 51.8419 197.679 51.8419 198.711 51.8419C197.66 51.9693 196.586 52.012 195.487 51.9702C195.452 51.7651 195.496 51.594 195.616 51.457Z" fill="#7D7E83"/>
</svg>
